<svg width="36" height="35" viewBox="0 0 36 35" fill="none" xmlns="http://www.w3.org/2000/svg">
<path fill-rule="evenodd" clip-rule="evenodd" d="M30.4899 5.65864C28.8395 3.99241 26.7711 3.12598 24.2626 3.05933C21.776 3.12598 19.6856 3.99241 18.0352 5.65864C16.3849 7.32486 15.5487 9.4132 15.4827 11.9459C15.4827 12.6123 15.5487 13.2566 15.6807 13.9231L2.25781 27.4973V29.7189L4.45829 31.9406H8.85924L11.0597 29.7189V27.4973H13.2602V25.2757H15.4607V23.054H19.8616L22.2601 20.588C22.9203 20.7657 23.5584 20.8324 24.2626 20.8324C26.7711 20.7657 28.8395 19.8993 30.4899 18.2331C32.1403 16.5669 32.9984 14.4785 33.0645 11.9459C32.9984 9.4132 32.1403 7.32486 30.4899 5.65864ZM26.463 12.7901C24.7687 12.7901 23.4264 11.4349 23.4264 9.72422C23.4264 8.01357 24.7687 6.65837 26.463 6.65837C28.1574 6.65837 29.4997 8.01357 29.4997 9.72422C29.4997 11.4349 28.1574 12.7901 26.463 12.7901Z" fill="white"/>
</svg>
