<svg width="37" height="35" viewBox="0 0 37 35" fill="none" xmlns="http://www.w3.org/2000/svg">
<g clip-path="url(#clip0_1439_8289)">
<path d="M18.1577 5.76135C11.55 5.76135 6.19336 11.0161 6.19336 17.4982C6.19336 23.9803 11.55 29.2374 18.1577 29.2374C24.7655 29.2374 30.1221 23.9826 30.1221 17.4982C30.1221 11.0137 24.7679 5.76135 18.1577 5.76135ZM18.1577 24.0134C14.491 24.0134 11.5186 21.0975 11.5186 17.5005C11.5186 13.9036 14.491 10.9877 18.1577 10.9877C21.8244 10.9877 24.7968 13.9036 24.7968 17.5005C24.7968 21.0975 21.8244 24.0134 18.1577 24.0134Z" fill="white"/>
<path d="M18.2352 10.9877C16.1523 10.9877 14.4648 9.33228 14.4648 7.28903V5.59343C14.4648 3.55018 16.1523 1.89478 18.2352 1.89478C20.3181 1.89478 22.0056 3.55018 22.0056 5.59343V7.28903C22.0031 9.33228 20.3156 10.9877 18.2352 10.9877Z" fill="white"/>
<path d="M12.2382 13.8468C11.2884 15.663 9.01505 16.3819 7.16362 15.4478L5.62559 14.6745C3.77416 13.7428 3.0413 11.5127 3.99353 9.69647C4.94335 7.88026 7.21666 7.16134 9.06809 8.09546L10.6061 8.86877C12.4576 9.80053 13.188 12.0282 12.2382 13.8468Z" fill="white"/>
<path d="M12.1291 20.8189C13.1705 22.5879 12.5534 24.8487 10.7501 25.8703L9.25308 26.7169C7.44987 27.7385 5.14523 27.1331 4.1038 25.3642C3.06237 23.5953 3.67951 21.3345 5.48273 20.3129L6.97978 19.4662C8.78058 18.4446 11.0876 19.05 12.1291 20.8189Z" fill="white"/>
<path d="M18.2352 24.0133C20.3181 24.0133 22.0056 25.6687 22.0056 27.712V29.4076C22.0056 31.4508 20.3181 33.1062 18.2352 33.1062C16.1523 33.1062 14.4648 31.4508 14.4648 29.4076V27.712C14.4648 25.6687 16.1523 24.0133 18.2352 24.0133Z" fill="white"/>
<path d="M24.0804 13.4965C25.0302 15.3127 27.3035 16.0316 29.1549 15.0975L30.693 14.3242C32.5444 13.3924 33.2772 11.1623 32.325 9.34613C31.3752 7.52991 29.1019 6.811 27.2505 7.74512L25.7124 8.51843C23.861 9.45018 23.1305 11.6803 24.0804 13.4965Z" fill="white"/>
<path d="M24.1878 20.8189C23.1464 22.5879 23.7635 24.8487 25.5667 25.8703L27.0638 26.7169C28.867 27.7385 31.1716 27.1331 32.2131 25.3642C33.2545 23.5953 32.6373 21.3345 30.8341 20.3129L29.3371 19.4662C27.5363 18.4446 25.2292 19.05 24.1878 20.8189Z" fill="white"/>
</g>
<defs>
<clipPath id="clip0_1439_8289">
<rect width="36" height="35" fill="white" transform="translate(0.160156)"/>
</clipPath>
</defs>
</svg>
