<svg width="37" height="33" viewBox="0 0 37 33" fill="none" xmlns="http://www.w3.org/2000/svg">
<path fill-rule="evenodd" clip-rule="evenodd" d="M15.1527 4.28601H21.1677C26.8386 4.28601 29.674 4.28601 31.4358 5.89692C32.6488 7.00608 33.0267 8.58067 33.1443 11.1465C33.1677 11.6554 33.1794 11.9098 33.0757 12.0796C32.9721 12.2493 32.5582 12.4611 31.7305 12.8848C30.8113 13.3554 30.19 14.2543 30.19 15.286C30.19 16.3177 30.8113 17.2166 31.7305 17.6872C32.5582 18.1109 32.9721 18.3227 33.0757 18.4925C33.1794 18.6622 33.1677 18.9167 33.1443 19.4254C33.0267 21.9913 32.6488 23.566 31.4358 24.6751C29.674 26.286 26.8386 26.286 21.1677 26.286H15.1527C9.48173 26.286 6.64626 26.286 4.88452 24.6751C3.67152 23.566 3.2937 21.9913 3.17602 19.4254C3.15268 18.9167 3.14101 18.6622 3.24466 18.4925C3.34833 18.3227 3.76215 18.1109 4.58977 17.6872C5.50894 17.2166 6.13026 16.3177 6.13026 15.286C6.13026 14.2543 5.50894 13.3554 4.58977 12.8848C3.76215 12.4611 3.34833 12.2493 3.24466 12.0795C3.14101 11.9098 3.15268 11.6554 3.17602 11.1465C3.2937 8.58067 3.67152 7.00608 4.88452 5.89692C6.64626 4.28601 9.48174 4.28601 15.1527 4.28601ZM23.4819 10.4318C23.9224 10.8345 23.9224 11.4875 23.4819 11.8902L14.4595 20.1402C14.0191 20.5429 13.305 20.5429 12.8645 20.1402C12.4241 19.7374 12.4241 19.0846 12.8645 18.6818L21.8869 10.4318C22.3275 10.0291 23.0415 10.0291 23.4819 10.4318ZM21.9325 20.0985C22.7631 20.0985 23.4363 19.4829 23.4363 18.7235C23.4363 17.9641 22.7631 17.3485 21.9325 17.3485C21.1021 17.3485 20.4288 17.9641 20.4288 18.7235C20.4288 19.4829 21.1021 20.0985 21.9325 20.0985ZM14.4139 13.2235C15.2443 13.2235 15.9177 12.6079 15.9177 11.8485C15.9177 11.0891 15.2443 10.4735 14.4139 10.4735C13.5834 10.4735 12.9101 11.0891 12.9101 11.8485C12.9101 12.6079 13.5834 13.2235 14.4139 13.2235Z" fill="white"/>
</svg>
