<svg width="37" height="35" viewBox="0 0 37 35" fill="none" xmlns="http://www.w3.org/2000/svg">
<path d="M18.5446 17.6141C21.3803 17.6141 23.679 15.3338 23.679 12.5209C23.679 9.70803 21.3803 7.42773 18.5446 7.42773C15.7089 7.42773 13.4102 9.70803 13.4102 12.5209C13.4102 15.3338 15.7089 17.6141 18.5446 17.6141Z" fill="#466BFA"/>
<path d="M28.4716 15.8359C30.6165 15.8359 32.3553 14.1111 32.3553 11.9834C32.3553 9.85569 30.6165 8.13086 28.4716 8.13086C26.3267 8.13086 24.5879 9.85569 24.5879 11.9834C24.5879 14.1111 26.3267 15.8359 28.4716 15.8359Z" fill="#466BFA"/>
<path d="M8.59076 15.8359C10.7357 15.8359 12.4745 14.1111 12.4745 11.9834C12.4745 9.85569 10.7357 8.13086 8.59076 8.13086C6.44584 8.13086 4.70703 9.85569 4.70703 11.9834C4.70703 14.1111 6.44584 15.8359 8.59076 15.8359Z" fill="#466BFA"/>
<path d="M11.9845 26.8526H24.0526C25.4938 26.8526 26.7822 25.8996 27.1281 24.5117C27.187 24.275 27.2177 24.0333 27.2177 23.7872C27.2177 20.9297 23.0993 18.6133 18.019 18.6133C12.9387 18.6133 8.82031 20.9297 8.82031 23.7872C8.82031 24.0328 8.85062 24.275 8.90993 24.5117C9.25496 25.8996 10.5438 26.8526 11.9845 26.8526Z" fill="#466BFA"/>
<path d="M7.66474 23.5498C7.66474 21.644 9.49686 19.979 12.2243 19.0815C13.2408 18.747 13.142 17.286 12.0909 17.0816C11.2723 16.9227 10.3934 16.8359 9.47867 16.8359C5.06159 16.8359 1.48047 18.85 1.48047 21.3348C1.48047 21.5843 1.5164 21.8286 1.5861 22.067C1.92335 23.2247 3.0234 23.9995 4.23817 23.9995H7.22446C7.47079 23.9995 7.66431 23.7985 7.66431 23.5541C7.66474 23.5528 7.66474 23.5511 7.66474 23.5498Z" fill="#466BFA"/>
<path d="M28.6577 22.5498C28.6577 20.571 26.6827 18.8519 23.7813 17.9819C22.8531 17.7036 22.8903 16.3813 23.8354 16.1653C24.764 15.9532 25.7797 15.8359 26.8438 15.8359C31.2609 15.8359 34.842 17.85 34.842 20.3348C34.842 20.5843 34.806 20.8286 34.7363 21.067C34.3991 22.2247 33.2991 22.9995 32.0843 22.9995H29.098C28.8517 22.9995 28.6581 22.7985 28.6581 22.5541C28.6577 22.5528 28.6577 22.5516 28.6577 22.5498Z" fill="#466BFA"/>
</svg>
