<svg width="16" height="16" viewBox="0 0 16 16" fill="none" xmlns="http://www.w3.org/2000/svg">
<g clip-path="url(#clip0_1321_3549)">
<circle cx="8" cy="8" r="8" fill="#EAB326"/>
<path d="M5.19373 4.43093L7.99907 2.85693L10.8051 4.43093L9.7764 5.0136L7.99907 4.0196L6.22573 5.01293L5.19373 4.43093ZM10.8051 6.4196L9.7764 5.83693L7.99907 6.83093L6.22573 5.83693L5.1944 6.4196V7.58227L6.96573 8.57693V10.5623L7.99973 11.1449L9.03107 10.5623V8.57693L10.8057 7.58227L10.8051 6.4196ZM10.8051 9.57093V8.40627L9.7764 8.98893V10.1516L10.8051 9.57093ZM11.5391 9.98227L9.76507 10.9736V12.1396L12.5704 10.5623V7.4136L11.5391 7.9936V9.98227ZM10.5077 5.42627L11.5364 6.00893V7.1716L12.5704 6.5916V5.42627L11.5391 4.84293L10.5077 5.42893V5.42627ZM6.96507 11.3976V12.5603L7.99907 13.1429L9.0304 12.5603V11.3996L7.99907 11.9796L6.96773 11.3969L6.96507 11.3976ZM5.19373 9.56893L6.2224 10.1516V8.98893L5.19373 8.4056V9.57227V9.56893ZM6.96507 5.42627L7.99907 6.00827L9.0304 5.4256L7.99907 4.84227L6.96773 5.42827L6.96507 5.42627ZM4.45907 6.00893L5.4904 5.42627L4.46173 4.84293L3.4284 5.42893V6.59293L4.45907 7.17293V6.00893ZM4.45907 7.99427L3.42773 7.41427V10.5629L6.23373 12.1403V10.9716L4.46173 9.9796V7.99093L4.45907 7.99427Z" fill="white"/>
</g>
<defs>
<clipPath id="clip0_1321_3549">
<rect width="16" height="16" fill="white"/>
</clipPath>
</defs>
</svg>
