<svg width="16" height="16" viewBox="0 0 16 16" fill="none" xmlns="http://www.w3.org/2000/svg">
<ellipse cx="8.00354" cy="7.5193" rx="5.76135" ry="6.24" fill="white"/>
<path fill-rule="evenodd" clip-rule="evenodd" d="M7.20169 4C7.20169 3.55818 6.84344 3.2 6.4015 3.2C5.95957 3.2 5.60131 3.55818 5.60131 4V4.4H4.80113C4.3592 4.4 4.00094 4.75818 4.00094 5.2C4.00094 5.64182 4.3592 6 4.80113 6H5.60131V10H4.80113C4.3592 10 4.00094 10.3582 4.00094 10.8C4.00094 11.2418 4.3592 11.6 4.80113 11.6H5.60131V12C5.60131 12.4418 5.95957 12.8 6.4015 12.8C6.84344 12.8 7.20169 12.4418 7.20169 12V11.6H8.00188V12C8.00188 12.4418 8.36012 12.8 8.80206 12.8C9.24401 12.8 9.60225 12.4418 9.60225 12V11.5713C10.1271 11.4941 10.574 11.2637 10.9069 10.9142C11.3115 10.4895 11.5027 9.93608 11.5027 9.4C11.5027 8.9108 11.3435 8.40712 11.0081 8C11.3435 7.59288 11.5027 7.0892 11.5027 6.6C11.5027 6.06396 11.3115 5.5105 10.9069 5.08578C10.574 4.73633 10.1271 4.50594 9.60225 4.4287V4C9.60225 3.55818 9.24401 3.2 8.80206 3.2C8.36012 3.2 8.00188 3.55818 8.00188 4V4.4H7.20169V4ZM0 8C0 3.58172 3.58256 0 8.00188 0C12.4212 0 16.0038 3.58172 16.0038 8C16.0038 12.4182 12.4212 16 8.00188 16C3.58256 16 0 12.4182 0 8Z" fill="#FFA500"/>
<path fill-rule="evenodd" clip-rule="evenodd" d="M7.20117 7.2V6H9.20164C9.50315 6 9.66191 6.09945 9.74745 6.18922C9.84299 6.2895 9.90181 6.43608 9.90181 6.6C9.90181 6.76392 9.84299 6.91048 9.74745 7.0108C9.66191 7.10056 9.50315 7.2 9.20164 7.2H7.20117Z" fill="#FFA500"/>
<path fill-rule="evenodd" clip-rule="evenodd" d="M9.20164 10.0008C9.50315 10.0008 9.66191 9.90134 9.74745 9.81158C9.84299 9.71126 9.90181 9.5647 9.90181 9.40078C9.90181 9.23686 9.84299 9.0903 9.74745 8.98998C9.66191 8.90022 9.50315 8.80078 9.20164 8.80078H7.20117V10.0008H9.20164Z" fill="#FFA500"/>
</svg>
