<svg width="16" height="16" viewBox="0 0 16 16" fill="none" xmlns="http://www.w3.org/2000/svg">
<path fill-rule="evenodd" clip-rule="evenodd" d="M7.99911 3.60399L5.48848 7.08025L7.99911 8.43215L10.5098 7.08025L7.99911 3.60399ZM7.51271 2.56951C7.75221 2.2379 8.24601 2.2379 8.48551 2.56951L11.5877 6.86476C11.8 7.15875 11.705 7.5724 11.3857 7.74435L8.28356 9.4147C8.10601 9.51035 7.89226 9.51035 7.71466 9.4147L4.61253 7.74435C4.29324 7.5724 4.19826 7.15875 4.41058 6.86476L7.51271 2.56951Z" fill="#0F1423"/>
<path d="M8 3L5 7L8 9L11 7L8 3Z" fill="#0F1423"/>
<path d="M8 13L5 9.5L8 11L11 9.5L8 13Z" fill="#0F1423"/>
<path fill-rule="evenodd" clip-rule="evenodd" d="M10.8541 8.76375C11.4337 8.4739 11.9975 9.18155 11.5856 9.6818L8.46231 13.4743C8.22231 13.7657 7.77601 13.7657 7.53601 13.4743L4.41276 9.6818C4.00079 9.18155 4.56462 8.4739 5.14424 8.76375L7.99916 10.1912L10.8541 8.76375ZM9.99916 10.2502L8.26751 11.175C8.09856 11.2595 7.89976 11.2595 7.73081 11.175L5.99916 10.2502L7.99916 12.4637L9.99916 10.2502Z" fill="#0F1423"/>
<circle cx="8" cy="8" r="8" fill="white"/>
<g clip-path="url(#clip0_956_166)">
<path fill-rule="evenodd" clip-rule="evenodd" d="M7.99911 2.93553L5.48848 6.41179L7.99911 7.76369L10.5098 6.41179L7.99911 2.93553ZM7.51271 1.90105C7.75221 1.56944 8.24601 1.56944 8.48551 1.90105L11.5877 6.1963C11.8 6.49029 11.705 6.90394 11.3857 7.07589L8.28356 8.74624C8.10601 8.84189 7.89226 8.84189 7.71466 8.74624L4.61253 7.07589C4.29324 6.90394 4.19826 6.49029 4.41058 6.1963L7.51271 1.90105Z" fill="#0F1423"/>
<path d="M8 2.33203L5 6.33203L8 8.33203L11 6.33203L8 2.33203Z" fill="#0F1423"/>
<path d="M8 12.332L5 8.83203L8 10.332L11 8.83203L8 12.332Z" fill="#0F1423"/>
<path fill-rule="evenodd" clip-rule="evenodd" d="M10.8541 8.0948C11.4337 7.80495 11.9975 8.5126 11.5856 9.01285L8.46231 12.8054C8.22231 13.0968 7.77601 13.0968 7.53601 12.8054L4.41276 9.01285C4.00079 8.5126 4.56462 7.80495 5.14424 8.0948L7.99916 9.52225L10.8541 8.0948ZM9.99916 9.58125L8.26751 10.5061C8.09856 10.5906 7.89976 10.5906 7.73081 10.5061L5.99916 9.58125L7.99916 11.7948L9.99916 9.58125Z" fill="#0F1423"/>
</g>
<defs>
<clipPath id="clip0_956_166">
<rect width="12" height="12" fill="white" transform="translate(2 1.33203)"/>
</clipPath>
</defs>
</svg>
