<svg width="19" height="19" viewBox="0 0 19 19" fill="none" xmlns="http://www.w3.org/2000/svg">
<g clip-path="url(#clip0_3388_6163)">
<path d="M14.7354 0H4.26463C1.90934 0 0 1.90934 0 4.26463V14.7354C0 17.0907 1.90934 19 4.26463 19H14.7354C17.0907 19 19 17.0907 19 14.7354V4.26463C19 1.90934 17.0907 0 14.7354 0Z" fill="url(#paint0_linear_3388_6163)"/>
<path opacity="0.3" d="M13.0822 6.91016L13.0492 7.10101C12.6149 9.31888 11.1407 10.0823 9.25188 10.0823H8.29102C8.1798 10.0825 8.07231 10.1224 7.98787 10.1948C7.90342 10.2672 7.84757 10.3673 7.83034 10.4772L7.33674 13.5967L7.19854 14.4786C7.19276 14.5137 7.19476 14.5496 7.20438 14.5839C7.21401 14.6182 7.23102 14.6499 7.25424 14.6769C7.27745 14.7039 7.3063 14.7254 7.33875 14.7401C7.3712 14.7547 7.40646 14.762 7.44204 14.7616H9.14658C9.24431 14.7628 9.33925 14.729 9.41413 14.6662C9.48901 14.6034 9.53886 14.5158 9.55462 14.4193V14.3338L9.87052 12.3002V12.1883C9.88484 12.0906 9.93407 12.0015 10.0091 11.9374C10.0841 11.8732 10.1799 11.8384 10.2786 11.8395H10.5352C12.1871 11.8395 13.477 11.1814 13.8258 9.207C13.9272 8.87408 13.9491 8.52201 13.8896 8.1791C13.8302 7.8362 13.6911 7.51202 13.4836 7.23264C13.3678 7.1045 13.2323 6.99564 13.0822 6.91016Z" fill="white"/>
<path opacity="0.5" d="M12.6295 6.73264L12.4255 6.67999L12.2083 6.64051C11.9295 6.59852 11.6479 6.57871 11.3659 6.58128H8.79926C8.70169 6.58182 8.60755 6.6173 8.5339 6.68129C8.46025 6.74528 8.41197 6.83355 8.3978 6.93008L7.85156 10.3852V10.4839C7.86879 10.3741 7.92465 10.2739 8.00909 10.2016C8.09354 10.1292 8.20103 10.0893 8.31225 10.0891H9.27311C11.1619 10.0891 12.6361 9.32565 13.0705 7.10777C13.0705 7.04196 13.0705 6.97615 13.1034 6.91692C12.9894 6.85657 12.8705 6.80594 12.748 6.76555L12.6295 6.73264Z" fill="white"/>
<path d="M8.39168 6.92336C8.40584 6.82682 8.45412 6.73856 8.52777 6.67457C8.60143 6.61058 8.69557 6.57509 8.79313 6.57455H11.3598C11.6439 6.57164 11.9278 6.59145 12.2088 6.63378L12.426 6.67327L12.63 6.72592H12.7287C12.8512 6.76645 12.97 6.81708 13.0841 6.87729C13.1673 6.55122 13.1707 6.20987 13.094 5.88221C13.0172 5.55455 12.8626 5.25023 12.6432 4.99506C12.1561 4.44224 11.2743 4.19873 10.1489 4.19873H6.85825C6.74703 4.19895 6.63954 4.23884 6.5551 4.31122C6.47066 4.3836 6.4148 4.48373 6.39757 4.5936L5.04183 13.2742C5.03622 13.314 5.03915 13.3546 5.05042 13.3931C5.06169 13.4317 5.08104 13.4674 5.10719 13.4979C5.13334 13.5284 5.16569 13.553 5.20208 13.5701C5.23847 13.5871 5.27807 13.5962 5.31825 13.5967H7.33868L7.84544 10.3785L8.39168 6.92336Z" fill="white"/>
</g>
<defs>
<linearGradient id="paint0_linear_3388_6163" x1="-2.00069" y1="-1.58608" x2="19.408" y2="19.0526" gradientUnits="userSpaceOnUse">
<stop stop-color="#253B80"/>
<stop offset="1" stop-color="#179BD7"/>
</linearGradient>
<clipPath id="clip0_3388_6163">
<rect width="19" height="19" fill="white"/>
</clipPath>
</defs>
</svg>
