<svg width="16" height="16" viewBox="0 0 16 16" fill="none" xmlns="http://www.w3.org/2000/svg">
<g clip-path="url(#clip0_1321_3545)">
<circle cx="8" cy="8" r="8" fill="#D9D9D9"/>
<path d="M8 16C3.5815 16 0 12.4185 0 8C0 3.5815 3.5815 0 8 0C12.4185 0 16 3.5815 16 8C16 12.4185 12.4185 16 8 16ZM11.535 4L9.248 6.2615C8.91525 6.58993 8.46653 6.77408 7.999 6.77408C7.53147 6.77408 7.08275 6.58993 6.75 6.2615L4.465 4H3.0175L6.0275 6.9785C6.55332 7.49656 7.26184 7.78696 8 7.78696C8.73816 7.78696 9.44668 7.49656 9.9725 6.9785L12.9805 4H11.535ZM4.4475 12.2815L6.752 10C7.08475 9.67157 7.53347 9.48742 8.001 9.48742C8.46853 9.48742 8.91725 9.67157 9.25 10L11.5525 12.2815H13L9.9725 9.285C9.44668 8.76694 8.73816 8.47654 8 8.47654C7.26184 8.47654 6.55332 8.76694 6.0275 9.285L3 12.281L4.4475 12.2815Z" fill="#21232B"/>
</g>
<defs>
<clipPath id="clip0_1321_3545">
<rect width="16" height="16" fill="white"/>
</clipPath>
</defs>
</svg>
