<svg width="17" height="17" viewBox="0 0 17 17" fill="none" xmlns="http://www.w3.org/2000/svg">
<path d="M5.34766 6.64062H10.7653L11.6509 5.57812H6.23298L5.34766 6.64062Z" fill="white"/>
<path d="M5.34766 7.96875L6.23298 9.03125H11.6509L10.7653 7.96875H5.34766Z" fill="white"/>
<path d="M5.34766 11.4219H10.7653L11.6509 10.3594H6.23298L5.34766 11.4219Z" fill="white"/>
<path d="M8.5 1.0625C7.02901 1.0625 5.59104 1.4987 4.36795 2.31594C3.14486 3.13319 2.19158 4.29477 1.62865 5.65379C1.06572 7.01282 0.918435 8.50825 1.20541 9.95098C1.49239 11.3937 2.20074 12.719 3.2409 13.7591C4.28105 14.7993 5.60629 15.5076 7.04902 15.7946C8.49175 16.0816 9.98719 15.9343 11.3462 15.3714C12.7052 14.8084 13.8668 13.8551 14.6841 12.6321C15.5013 11.409 15.9375 9.971 15.9375 8.5C15.9353 6.52814 15.1509 4.63769 13.7566 3.24338C12.3623 1.84906 10.4719 1.06475 8.5 1.0625ZM8.5 15.4062C7.13408 15.4062 5.79882 15.0012 4.6631 14.2423C3.52737 13.4835 2.64218 12.4049 2.11946 11.1429C1.59674 9.88095 1.45998 8.49234 1.72646 7.15266C1.99293 5.81298 2.65069 4.5824 3.61655 3.61654C4.5824 2.65069 5.81298 1.99293 7.15266 1.72645C8.49234 1.45997 9.88096 1.59674 11.1429 2.11946C12.4049 2.64217 13.4835 3.52737 14.2423 4.66309C15.0012 5.79882 15.4063 7.13407 15.4063 8.5C15.4041 10.331 14.6758 12.0864 13.3811 13.3811C12.0864 14.6758 10.331 15.4041 8.5 15.4062Z" fill="white"/>
<path d="M8.5 2.125C7.23915 2.125 6.00661 2.49889 4.95824 3.19938C3.90988 3.89988 3.09278 4.89551 2.61027 6.06039C2.12776 7.22527 2.00152 8.50707 2.2475 9.7437C2.49348 10.9803 3.10064 12.1162 3.9922 13.0078C4.88376 13.8994 6.01967 14.5065 7.2563 14.7525C8.49293 14.9985 9.77473 14.8722 10.9396 14.3897C12.1045 13.9072 13.1001 13.0901 13.8006 12.0418C14.5011 10.9934 14.875 9.76086 14.875 8.5C14.873 6.80985 14.2008 5.18949 13.0056 3.99437C11.8105 2.79925 10.1902 2.12697 8.5 2.125ZM12.423 10.2638L11.0949 11.8575C11.0699 11.8875 11.0387 11.9115 11.0034 11.9281C10.9681 11.9446 10.9296 11.9532 10.8906 11.9531H4.78125C4.73078 11.9531 4.68136 11.9387 4.63877 11.9116C4.59619 11.8845 4.5622 11.8459 4.5408 11.8002C4.51939 11.7544 4.51145 11.7036 4.51791 11.6535C4.52437 11.6035 4.54495 11.5563 4.57725 11.5175L5.90538 9.92375C5.9303 9.89384 5.96148 9.86976 5.99674 9.85324C6.03199 9.83671 6.07044 9.82814 6.10938 9.82813H12.2188C12.2692 9.82809 12.3187 9.84246 12.3613 9.86953C12.404 9.8966 12.438 9.93526 12.4594 9.98098C12.4809 10.0267 12.4888 10.0776 12.4824 10.1277C12.4759 10.1777 12.4553 10.225 12.423 10.2638ZM12.4591 9.4095C12.4377 9.4552 12.4038 9.49387 12.3612 9.52096C12.3186 9.54806 12.2692 9.56247 12.2188 9.5625H6.10938C6.07044 9.56249 6.03199 9.55391 5.99674 9.53739C5.96148 9.52086 5.9303 9.49679 5.90538 9.46688L4.57725 7.87313C4.54495 7.83434 4.52437 7.78716 4.51791 7.7371C4.51145 7.68705 4.51939 7.63618 4.5408 7.59048C4.5622 7.54477 4.59619 7.5061 4.63877 7.47901C4.68136 7.45192 4.73078 7.43752 4.78125 7.4375H10.8906C10.9296 7.43748 10.9681 7.44603 11.0034 7.46256C11.0387 7.47908 11.0699 7.50318 11.0949 7.53313L12.423 9.12688C12.4553 9.16569 12.4758 9.21288 12.4822 9.26294C12.4886 9.31299 12.4806 9.36383 12.4591 9.4095ZM12.423 5.4825L11.0949 7.07625C11.0699 7.1062 11.0387 7.13029 11.0034 7.14682C10.9681 7.16335 10.9296 7.1719 10.8906 7.17188H4.78125C4.73078 7.17186 4.68136 7.15746 4.63877 7.13037C4.59619 7.10327 4.5622 7.06461 4.5408 7.0189C4.51939 6.97319 4.51145 6.92233 4.51791 6.87227C4.52437 6.82222 4.54495 6.77503 4.57725 6.73625L5.90538 5.1425C5.9303 5.11258 5.96148 5.08851 5.99674 5.07199C6.03199 5.05546 6.07044 5.04689 6.10938 5.04688H12.2188C12.2692 5.04684 12.3187 5.06121 12.3613 5.08828C12.404 5.11535 12.438 5.15401 12.4594 5.19973C12.4809 5.24545 12.4888 5.29633 12.4824 5.34641C12.4759 5.39649 12.4553 5.4437 12.423 5.4825Z" fill="white"/>
</svg>
