<svg width="16" height="16" viewBox="0 0 16 16" fill="none" xmlns="http://www.w3.org/2000/svg">
<path d="M8 16C12.4183 16 16 12.4183 16 8C16 3.58172 12.4183 0 8 0C3.58172 0 0 3.58172 0 8C0 12.4183 3.58172 16 8 16Z" fill="#FF0000"/>
<path d="M12.8502 6.63287C12.38 6.34933 11.8772 6.04706 11.3852 5.74712C11.3743 5.74009 11.3634 5.73306 11.3499 5.72603C11.2955 5.69088 11.233 5.65339 11.1569 5.6323L11.1514 5.62996C9.8359 5.3558 8.49862 5.07461 7.20483 4.8028C6.03063 4.55676 4.85915 4.31072 3.68495 4.06468C3.65505 4.05765 3.62515 4.05062 3.59254 4.04359C3.48653 4.01781 3.36422 3.98969 3.23375 4.00375C3.1957 4.00844 3.16308 4.02016 3.13318 4.03656L3.10057 4.05999C3.04892 4.10217 3.02174 4.15606 3.00815 4.18653L3 4.20527V4.31306L3.00544 4.32946C3.74746 6.12204 4.50852 7.94039 5.24239 9.70016C5.80775 11.0546 6.39485 12.4582 6.96836 13.836C7.00369 13.9297 7.10426 13.9906 7.22929 14H7.25647C7.37335 14 7.47663 13.9508 7.52828 13.8711L9.68097 11.1647C10.2056 10.5062 10.7301 9.84544 11.2547 9.18699C11.4695 8.91752 11.6842 8.64571 11.8989 8.37623C12.2523 7.93102 12.6165 7.47174 12.978 7.02419L12.997 7.00075V6.97263C13.0052 6.89062 13.0079 6.72191 12.8502 6.63287ZM10.3279 7.61937C9.82231 7.84666 9.30588 8.08099 8.78673 8.31297C9.08844 8.03412 9.39286 7.75293 9.69456 7.47409C10.0724 7.1226 10.4665 6.7594 10.8525 6.40323L10.8606 6.3962C10.8932 6.35871 10.934 6.32356 10.9775 6.28607C11.0074 6.26029 11.04 6.23452 11.0699 6.20405C11.271 6.32356 11.4749 6.44541 11.6706 6.56491C11.8119 6.65161 11.956 6.73831 12.1028 6.82501C11.5048 7.08745 10.9068 7.35693 10.3279 7.61937ZM9.02864 7.50689C8.63996 7.87009 8.23769 8.24267 7.83813 8.61056C7.06349 7.7998 6.27254 6.97732 5.50604 6.18296C5.15813 5.82211 4.80751 5.4589 4.45959 5.09805L4.45688 5.0957C4.37805 5.01838 4.30195 4.93402 4.22584 4.85435C4.17692 4.80045 4.12527 4.7489 4.07363 4.69501C4.38893 4.76531 4.70694 4.83092 5.01951 4.89418C5.29404 4.95042 5.57943 5.009 5.85939 5.06993C7.43586 5.40032 9.01505 5.73072 10.5915 6.06112C10.0669 6.54382 9.53964 7.03356 9.02864 7.50689ZM7.66146 12.0739C7.69136 11.8278 7.72398 11.5748 7.75116 11.3264C7.77562 11.1272 7.80008 10.9233 7.82454 10.7288C7.8626 10.4172 7.90337 10.0938 7.93598 9.77749L7.94414 9.72125C7.97132 9.51973 7.9985 9.31118 8.01481 9.10264C8.04471 9.08858 8.07732 9.07452 8.11266 9.0628C8.15343 9.0464 8.1942 9.03234 8.23497 9.01125C8.86284 8.72772 9.49071 8.44419 10.1213 8.163C10.7492 7.88181 11.3933 7.59125 12.0321 7.30303C11.4504 8.02943 10.866 8.76287 10.3007 9.47755C9.81416 10.0891 9.31404 10.7195 8.81663 11.3404C8.62093 11.5888 8.41708 11.8419 8.2241 12.0856C8.00665 12.3574 7.78377 12.6362 7.56633 12.9151C7.59351 12.6339 7.62613 12.3504 7.66146 12.0739ZM3.8725 5.24801C3.83716 5.16366 3.79911 5.07696 3.76649 4.99494C4.50037 5.75884 5.23968 6.52742 5.95996 7.27257C6.33233 7.6592 6.70471 8.04349 7.07708 8.43247C7.15047 8.50511 7.22385 8.58244 7.29452 8.65742C7.38694 8.75349 7.47935 8.85425 7.57992 8.95033C7.5473 9.19168 7.52012 9.43538 7.49022 9.6697C7.4712 9.83373 7.45217 9.99775 7.43043 10.1641V10.1665C7.42227 10.2719 7.40596 10.3774 7.39237 10.4805C7.37335 10.6234 7.32986 10.9468 7.32986 10.9468L7.32714 10.9632C7.27822 11.4365 7.21842 11.9145 7.16134 12.3785C7.13688 12.5706 7.11513 12.7675 7.09067 12.9643C7.07708 12.9291 7.06077 12.894 7.04718 12.8612C7.00641 12.7675 6.96564 12.669 6.92759 12.573L6.63675 11.877C5.71533 9.66736 4.79392 7.46003 3.8725 5.24801Z" fill="white"/>
</svg>
