<svg width="0" height="0" class="hidden">
  <symbol xmlns="http://www.w3.org/2000/svg" fill="none" stroke="currentColor" stroke-width="2" stroke-linecap="round" stroke-linejoin="round" viewBox="0 0 24 24" id="eye">
    <path stroke="none" d="M0 0h24v24H0z"></path>
    <path d="M10 12a2 2 0 1 0 4 0a2 2 0 0 0 -4 0"></path>
    <path d="M21 12c-2.4 4 -5.4 6 -9 6c-3.6 0 -6.6 -2 -9 -6c2.4 -4 5.4 -6 9 -6c3.6 0 6.6 2 9 6"></path>
  </symbol>
  <symbol fill="none" xmlns="http://www.w3.org/2000/svg" stroke="currentColor" stroke-width="2" stroke-linecap="round" stroke-linejoin="round" viewBox="0 0 24 24" id="eye-off">
    <path stroke="none" d="M0 0h24v24H0z" fill="none"></path>
    <path d="M10.585 10.587a2 2 0 0 0 2.829 2.828"></path>
    <path d="M16.681 16.673a8.717 8.717 0 0 1 -4.681 1.327c-3.6 0 -6.6 -2 -9 -6c1.272 -2.12 2.712 -3.678 4.32 -4.674m2.86 -1.146a9.055 9.055 0 0 1 1.82 -.18c3.6 0 6.6 2 9 6c-.666 1.11 -1.379 2.067 -2.138 2.87"></path>
    <path d="M3 3l18 18"></path>
  </symbol>
  <symbol xmlns="http://www.w3.org/2000/svg" viewBox="0 0 24 24" id="filter">
    <path fill-rule="evenodd" clip-rule="evenodd" d="M2.41602 5.01563C2.41602 3.42781 3.7032 2.14062 5.29102 2.14062H18.7077C20.2955 2.14062 21.5827 3.42781 21.5827 5.01563V6.13838C21.5827 6.90088 21.2798 7.63214 20.7406 8.17131L15.155 13.7569C14.9754 13.9367 14.8743 14.1804 14.8743 14.4345V16.6801C14.8743 17.4425 14.5714 18.1738 14.0323 18.713L11.922 20.8232C10.8896 21.8557 9.12435 21.1244 9.12435 19.6644V14.4345C9.12435 14.1804 9.02338 13.9367 8.84366 13.7569L3.25808 8.17131C2.71892 7.63214 2.41602 6.90088 2.41602 6.13838V5.01563Z" fill="white"></path>
  </symbol>
  <symbol xmlns="http://www.w3.org/2000/svg" viewBox="0 0 33 33" id="logout">
    <path d="M16.051 32.5878C8.9919 32.5638 3.11176 28.2392 0.860946 21.4159C-1.221 15.1048 1.18097 7.79614 6.65212 3.7931C12.4185 -0.426633 19.8169 -0.484156 25.5045 3.64614C25.6195 3.72967 25.7372 3.81438 25.8454 3.89949C26.5434 4.45148 28.395 5.64609 27.392 7.05897C26.1903 8.75277 25.0755 7.28237 24.0323 6.50343C19.3221 2.98659 13.0818 2.9594 8.3731 6.4266C4.09309 9.5782 2.25127 15.5934 4.00098 20.7067C5.86367 26.1506 10.9979 29.7199 16.7438 29.4614C19.5799 29.3337 22.1374 28.3385 24.3134 26.4765C25.244 25.6802 26.23 25.0159 27.2692 26.1317C28.4529 27.4028 27.2645 28.1817 26.4402 28.911C23.7296 31.3108 20.0161 32.6012 16.051 32.5878Z" fill="#808AAC"></path>
    <path d="M26.5905 15.0041C25.6859 14.0475 25.151 13.4896 24.6251 12.923C24.0114 12.2623 23.8764 11.5586 24.529 10.8502C25.2266 10.0929 26.0658 10.0452 26.7822 10.7206C28.4304 12.2741 30.0293 13.8824 31.6035 15.5112C32.3872 16.3224 32.2242 17.1983 31.4732 17.9591C30.0305 19.4209 28.5626 20.8578 27.1105 22.3105C26.2968 23.1245 25.4277 23.4125 24.5377 22.4799C23.6914 21.593 24.1338 20.7664 24.8231 20.0528C25.4167 19.4382 26.0457 18.8775 26.631 18.1975C22.5849 18.1975 17.923 18.3334 13.9296 18.2984C12.5822 18.2865 10.6604 18.7286 10.6179 16.683C10.5742 14.5877 12.4948 15.0226 13.8473 15.014C17.9348 14.9872 22.0227 15.0041 26.5905 15.0041Z" fill="#808AAC"></path>
  </symbol>
  <symbol xmlns="http://www.w3.org/2000/svg" viewBox="0 0 41 40" id="logout-2">
    <path d="M6.01971 20.1929C6.01891 16.7329 6.16771 13.2641 5.97651 9.81494C5.78851 6.42694 9.05011 3.60574 12.0285 3.78334C15.9757 4.01894 19.9501 3.75454 23.9073 3.87654C26.0533 3.94294 27.6805 5.17134 28.6461 7.10654C29.1729 8.16254 29.3861 9.37934 28.0557 10.0401C26.8845 10.6217 26.3041 9.80214 25.7657 8.83734C25.2077 7.83734 24.3949 7.34494 23.0781 7.39014C19.2533 7.52174 15.4209 7.48014 11.5929 7.41694C9.88611 7.38894 9.21491 8.31054 9.20691 9.80094C9.16971 16.7209 9.19891 23.6413 9.18331 30.5617C9.18011 31.9845 9.82691 32.6189 11.2301 32.6121C15.3893 32.5921 19.5485 32.5941 23.7073 32.6129C24.7257 32.6173 25.4613 32.3085 25.9201 31.3121C26.3157 30.4529 27.0381 29.9093 28.0065 30.3637C29.0029 30.8313 29.1377 31.6449 28.7957 32.7085C28.1037 34.8597 26.6393 36.1457 24.3109 36.1769C19.8225 36.2365 15.3321 36.2477 10.8437 36.1777C7.86251 36.1309 6.08491 34.1029 6.03291 30.7725C5.97811 27.2469 6.02051 23.7193 6.01971 20.1929Z" fill=""></path>
    <path d="M29.0547 21.7197C24.7011 21.7197 20.3267 21.8313 16.1727 21.8109C14.9043 21.8045 13.2519 22.1817 13.1967 20.1745C13.1431 18.2145 14.6067 18.1881 16.0951 18.2053C20.2987 18.2549 24.5035 18.2225 29.0607 18.2225C28.2399 17.3389 27.5935 16.7289 27.0511 16.0365C26.4023 15.2089 26.3807 14.2781 27.1311 13.5149C27.9547 12.6777 28.8807 12.8861 29.5235 13.7329C30.8415 15.4685 32.4803 16.8981 33.8747 18.5473C34.6755 19.4945 34.7703 20.5533 33.8067 21.7309C32.4079 23.4405 30.9847 24.9933 29.5939 26.6145C28.9339 27.3837 27.9987 27.6705 27.1059 26.9285C26.2339 26.2037 26.3767 25.2553 27.0827 24.3377C27.6651 23.5829 28.3279 22.7549 29.0547 21.7197Z" fill=""></path>
  </symbol>
  <symbol  xmlns="http://www.w3.org/2000/svg" viewBox="0 0 35 35" id="logs">
    <path d="M25.0788 16.2441C28.3023 16.2781 30.7562 18.5328 30.8573 21.6268C30.9487 24.4233 30.3701 27.1424 28.9404 29.6113C28.3125 30.696 27.4595 31.5388 26.2321 31.9329C24.9857 32.3329 23.7761 32.3361 22.9134 31.2108C22.0601 30.0978 22.2932 28.946 23.0457 27.8284C24.9318 25.026 24.9213 24.8044 22.5847 22.3313C21.4451 21.1249 20.6401 19.8155 21.3825 18.1492C22.1343 16.4618 23.7481 16.3218 25.0788 16.2441Z" fill=""></path>
    <path d="M10.0188 7.6771C11.4594 7.8115 12.9052 8.0208 13.593 9.53105C14.3077 11.1011 13.7473 12.4682 12.5682 13.5553C10.2788 15.6665 9.9288 17.0287 12.0166 19.4007C12.8398 20.3359 12.8849 21.5374 12.1184 22.6018C11.3316 23.6941 10.1217 23.8635 9.01005 23.4362C5.11945 21.9396 4.79535 18.3213 4.2224 14.9301C3.7366 12.0563 4.78975 9.67524 6.9111 8.42714C7.8694 7.86294 8.89595 7.58645 10.0188 7.6771Z" fill=""></path>
    <path d="M16.7694 3.77326C16.6595 5.17781 15.9668 6.22781 14.4548 6.26036C13.2683 6.28591 12.6324 5.36786 12.6632 4.23526C12.7013 2.82546 13.4031 1.69041 14.9028 1.59311C16.2241 1.50771 16.7449 2.47966 16.7694 3.77326Z" fill=""></path>
    <path d="M18.2266 12.2362C18.2721 11.0529 18.7565 10.152 19.9818 10.1702C21.5215 10.1933 22.24 11.2993 22.3275 12.694C22.4038 13.9078 21.756 14.8966 20.4554 14.8273C18.9525 14.7471 18.2945 13.6579 18.2266 12.2362Z" fill=""></path>
    <path d="M10.1461 5.24221C9.27808 5.17816 8.97743 4.59856 8.93893 3.86881C8.89938 3.12191 9.20353 2.44991 10.0169 2.41701C10.7414 2.38761 11.0284 3.01481 11.0718 3.67386C11.1191 4.39031 10.9787 5.03221 10.1461 5.24221Z" fill=""></path>
    <path d="M26.079 12.4868C25.9362 13.157 25.7227 13.8696 24.8456 13.7755C23.9706 13.6813 23.8814 12.9344 23.9248 12.2274C23.9654 11.5635 24.2751 10.945 24.9944 10.9863C25.8018 11.0322 26.0531 11.7129 26.079 12.4868Z" fill=""></path>
    <path d="M6.65549 3.17578C7.47799 3.24823 7.74469 3.82993 7.82064 4.52678C7.87944 5.06683 7.85599 5.66183 7.10734 5.68388C6.24634 5.70908 6.00134 5.04548 5.91454 4.36613C5.84594 3.83063 5.94814 3.29688 6.65549 3.17578Z" fill=""></path>
    <path d="M4.31143 4.78605C5.03383 4.9901 5.37543 5.50285 5.33028 6.2774C5.29633 6.8591 4.94808 7.1692 4.39683 7.0481C3.64398 6.8829 3.25408 6.3145 3.29153 5.5648C3.31848 5.0286 3.70943 4.75175 4.31143 4.78605Z" fill=""></path>
    <path d="M28.0356 14.281C27.1694 14.1967 27.1169 13.6531 27.1781 13.1117C27.2555 12.425 27.4879 11.7642 28.3366 11.7715C29.066 11.7778 29.1346 12.3917 29.0891 12.9192C29.0289 13.6157 28.722 14.183 28.0356 14.281Z" fill=""></path>
    <path d="M30.4971 15.6509C29.9315 15.6407 29.6529 15.318 29.6603 14.7622C29.6704 13.9992 30.0012 13.4396 30.8156 13.3626C31.3844 13.3087 31.7249 13.6846 31.7099 14.2194C31.6892 14.9659 31.2797 15.4741 30.4971 15.6509Z" fill=""></path>
  </symbol>
  <symbol  xmlns="http://www.w3.org/2000/svg" viewBox="0 0 36 36" id="payments">
    <path d="M11.6369 8.98325H23.4409C24.0078 8.98325 24.5495 8.74058 24.9207 8.31207C25.3096 7.8633 25.5246 7.37104 25.5246 6.85554C25.5246 5.47908 23.6895 4.61218 21.2934 4.542C20.0301 4.50493 20.3687 3.04297 17.5387 3.04297C14.55 3.04297 15.4841 4.52816 13.4335 4.51383C11.3533 4.4995 9.55273 5.56706 9.55273 6.85505C9.55273 7.37104 9.76723 7.8628 10.1567 8.31158C10.5284 8.74058 11.0701 8.98325 11.6369 8.98325Z" fill=""></path>
    <path d="M26.0312 11.784C24.889 10.8751 23.47 10.3848 22.0101 10.3848H13.0129C11.5534 10.3848 10.1339 10.8751 8.99175 11.784C5.09812 14.8829 2.54883 20.0472 2.54883 25.8945C2.54883 26.7723 2.60665 27.6348 2.71736 28.4769C3.01391 30.7287 4.84507 32.4086 7.0133 32.4086H28.0101C30.1784 32.4086 32.009 30.7287 32.3061 28.4769C32.4173 27.6348 32.4746 26.7723 32.4746 25.8945C32.4741 20.0472 29.9248 14.8829 26.0312 11.784ZM18.2444 27.2428C18.1075 27.2745 18.0116 27.399 18.0116 27.5394V28.9816C18.0116 29.1501 17.8747 29.287 17.7062 29.287H17.168C16.9994 29.287 16.8625 29.1501 16.8625 28.9816V27.6392C16.8625 27.4801 16.7405 27.3461 16.5813 27.3348C15.7179 27.2735 14.8594 27.0071 14.2707 26.6394C14.1511 26.5647 14.1002 26.4165 14.1457 26.283L14.3839 25.5832C14.4462 25.4008 14.6587 25.3212 14.8258 25.4176C15.4539 25.7789 16.2685 26.0418 17.1358 26.0418C18.4313 26.0418 19.307 25.2545 19.307 24.1597C19.307 23.1036 18.5953 22.4507 17.2456 21.8744C15.3848 21.1063 14.2351 20.2226 14.2351 18.5521C14.2351 17.0338 15.2118 15.8639 16.7548 15.5076C16.8927 15.4754 16.99 15.3524 16.99 15.2105V13.8262C16.99 13.6576 17.127 13.5207 17.2955 13.5207H17.8159C17.9845 13.5207 18.1214 13.6576 18.1214 13.8262V15.0954C18.1214 15.2545 18.2439 15.387 18.4021 15.3998C19.2038 15.4646 19.8038 15.6776 20.2619 15.9227C20.3959 15.9944 20.4576 16.1531 20.4062 16.2964L20.1591 16.9829C20.0968 17.1564 19.8952 17.2364 19.7316 17.1509C19.3056 16.928 18.6497 16.6705 17.7378 16.6705C16.3332 16.6705 15.8039 17.5537 15.8039 18.3223C15.8039 19.3211 16.479 19.8203 18.066 20.5118C19.9451 21.3184 20.8936 22.3172 20.8936 24.0263C20.8941 25.4779 19.9733 26.843 18.2444 27.2428Z" fill=""></path>
  </symbol>
  <symbol xmlns="http://www.w3.org/2000/svg" viewBox="0 0 36 35" id="pin">
    <path d="M30.4967 10.1282L25.347 5.40042C23.758 3.94234 21.2538 4.01305 19.7553 5.55903C18.5965 6.7534 18.3784 8.47902 19.0698 9.87594L15.4402 13.7094C13.0696 12.6927 10.7461 12.7386 9.39285 14.0553C9.11198 14.3285 8.88808 14.6419 8.71721 14.9878C8.28708 15.865 8.51491 16.916 9.24161 17.5848L12.1779 20.2812L5.19367 27.4856C4.46304 28.2386 4.49839 29.4272 5.27224 30.1381C6.04608 30.849 7.26773 30.8146 7.99836 30.0617L14.9826 22.8572L18.1349 25.7505C19.0423 26.5837 20.4721 26.5875 21.3599 25.7371C21.3658 25.7314 21.3717 25.7256 21.3776 25.7199C22.6798 24.4529 22.774 22.3088 21.845 20.0921L25.999 16.3676C27.5212 17.1147 29.4283 16.8415 30.6578 15.5726C32.1603 14.0228 32.0876 11.5863 30.4967 10.1282Z" fill=""></path>
  </symbol>
  <symbol xmlns="http://www.w3.org/2000/svg" viewBox="0 0 40 40" id="readed">
    <path d="M27.9253 37.9327H12.0781C9.08244 37.9327 6.64648 35.5425 6.64648 32.6031V10.9292C6.64648 7.98982 9.08244 5.59967 12.0781 5.59967H27.923C30.9187 5.59967 33.3547 7.98982 33.3547 10.9292V32.6009C33.3569 35.5403 30.921 37.9327 27.9253 37.9327ZM12.0781 8.45555C10.6878 8.45555 9.55709 9.56495 9.55709 10.9292V32.6009C9.55709 33.9652 10.6878 35.0746 12.0781 35.0746H27.923C29.3134 35.0746 30.4441 33.9652 30.4441 32.6009V10.9292C30.4441 9.56495 29.3134 8.45555 27.923 8.45555H12.0781Z" fill=""></path>
    <path d="M24.328 11.6162H15.6767C14.7946 11.6162 14.0781 10.9155 14.0781 10.0477V8.3869C14.0781 7.52135 14.7923 6.81836 15.6767 6.81836H24.328C25.2101 6.81836 25.9265 7.51915 25.9265 8.3869V10.0477C25.9265 10.9133 25.2101 11.6162 24.328 11.6162Z" fill=""></path>
    <path d="M20.0018 9.54003C22.1051 9.54003 23.8102 7.867 23.8102 5.80322C23.8102 3.73943 22.1051 2.06641 20.0018 2.06641C17.8984 2.06641 16.1934 3.73943 16.1934 5.80322C16.1934 7.867 17.8984 9.54003 20.0018 9.54003Z" fill=""></path>
    <path d="M20.3931 15.7266C16.0809 15.7266 12.5859 19.1558 12.5859 23.3869C12.5859 27.618 16.0809 31.0473 20.3931 31.0473C24.7053 31.0473 28.2002 27.618 28.2002 23.3869C28.2002 19.1558 24.703 15.7266 20.3931 15.7266ZM24.6986 22.6092L20.6953 26.5372C20.0259 27.194 18.9423 27.194 18.2728 26.5372C18.2325 26.4976 18.1945 26.4559 18.1586 26.4142C18.1161 26.379 18.0736 26.3417 18.0333 26.3021L16.0876 24.3931C15.4182 23.7362 15.4182 22.6729 16.0876 22.0161C16.7571 21.3592 17.8407 21.3592 18.5101 22.0161L19.4818 22.9695L22.2738 20.2301C22.9432 19.5732 24.0269 19.5732 24.6963 20.2301C25.368 20.8891 25.368 21.9524 24.6986 22.6092Z" fill=""></path>
  </symbol>
  <symbol xmlns="http://www.w3.org/2000/svg" viewBox="0 0 33 33" id="security">
    <path d="M19.6246 14.4134C18.9358 14.1322 18.2815 13.9265 17.5998 13.8293C17.3369 13.7919 17.4255 13.6007 17.4208 13.4595C17.3898 12.4624 17.486 11.4616 17.3621 10.4674C17.0751 8.16417 15.1295 6.43027 12.7528 6.34781C10.5273 6.27039 8.46575 7.89806 8.01094 10.1059C7.78948 11.1808 7.92344 12.2722 7.91191 13.3558C7.90831 13.7026 7.82585 13.8448 7.47259 13.883C6.87482 13.9478 6.31269 14.1689 5.68359 14.4167C5.80891 12.6338 5.4913 10.8887 5.96484 9.16958C6.72609 6.40399 9.26374 4.2927 12.079 4.11157C15.1349 3.91423 17.8897 5.57215 19.0402 8.28949C19.3348 8.98521 19.5281 9.70181 19.5789 10.4555C19.6664 11.7569 19.5901 13.0587 19.6246 14.4134Z" fill="white"></path>
    <path d="M23.0188 20.2495C22.9335 17.0802 20.371 14.4565 17.2096 14.3283C14.1905 14.2062 11.1628 14.2094 8.14259 14.3312C5.38888 14.4421 3.00283 16.6419 2.49437 19.365C2.46196 19.5383 2.44035 19.6175 2.41514 19.8703C2.40758 20.0712 2.39354 20.2441 2.39354 20.4256C2.38598 20.5826 2.37877 20.7259 2.37913 20.884C2.38237 23.615 2.38129 26.3464 2.38129 29.0785C2.2621 29.8365 2.91137 30.6611 3.83395 30.8073C9.73785 30.8073 15.6421 30.8073 21.546 30.8073C22.4254 30.5027 23.0282 29.9416 23.0343 28.9658C23.0527 26.0608 23.0966 23.1533 23.0188 20.2495ZM13.7649 22.5494C13.4923 22.7579 13.421 22.9693 13.4322 23.2805C13.4505 23.7932 13.4458 24.3071 13.4343 24.8203C13.4217 25.3709 13.1228 25.6996 12.6604 25.6989C12.1873 25.6978 11.8988 25.3734 11.8891 24.8228C11.8837 24.5296 11.888 24.2362 11.888 23.9427C11.888 23.8105 11.8776 23.6776 11.8898 23.5469C11.9323 23.0961 11.8441 22.7659 11.4433 22.4302C10.6341 21.7529 10.6914 20.5505 11.4671 19.8317C12.1768 19.1742 13.332 19.2419 13.9936 19.9801C14.6774 20.7421 14.5928 21.9171 13.7649 22.5494Z" fill="white"></path>
    <path d="M31.11 6.99486C31.1122 6.01394 30.8378 5.11872 30.3146 4.29084C29.244 2.59727 27.105 1.68873 25.1658 2.11366C23.0322 2.58143 21.4521 4.23791 21.2176 6.31282C21.0606 7.70138 21.1453 9.10002 21.1701 10.4929C21.1841 11.2801 21.8323 11.8343 22.6282 11.8512C23.142 11.862 23.6566 11.8699 24.1698 11.8469C24.4438 11.8347 24.5133 11.9164 24.5097 12.1879C24.4942 13.3917 24.5029 14.5959 24.5029 15.8001C24.5029 16.7544 24.5554 17.7126 24.4877 18.6622C24.4236 19.5592 24.7373 20.3309 25.0891 21.1026C25.3657 21.7098 25.9505 21.7886 26.3959 21.2982C26.7805 20.8743 27.155 20.4408 27.523 20.0025C27.9109 19.5401 27.8525 19.1397 27.3621 18.7836C26.823 18.3918 26.8356 17.79 27.3916 17.4109C27.9019 17.0626 27.922 16.2254 27.4301 15.8347C26.9739 15.4724 26.9609 15.0154 27.4222 14.678C27.6606 14.5037 27.7632 14.301 27.7575 14.0097C27.746 13.3932 27.7661 12.776 27.7481 12.1598C27.7409 11.9045 27.8252 11.835 28.0711 11.8433C28.5699 11.8606 29.0693 11.853 29.5688 11.8473C30.5065 11.8368 31.1036 11.2394 31.1082 10.2984C31.114 9.19725 31.1075 8.09606 31.11 6.99486ZM26.1525 6.92644C25.3347 6.93544 24.6656 6.26709 24.6764 5.45145C24.6869 4.6477 25.3372 4.00888 26.1421 4.01104C26.958 4.01356 27.5868 4.64446 27.5882 5.46262C27.5897 6.28077 26.9649 6.91744 26.1525 6.92644Z" fill="white"></path>
  </symbol>
  <symbol xmlns="http://www.w3.org/2000/svg" viewBox="0 0 33 33" id="statistics">
    <path d="M29.9293 4.69847H18.4759C18.4529 3.88951 17.7914 3.24023 16.977 3.24023C16.1626 3.24023 15.5012 3.88951 15.4781 4.69847H4.11045C3.26949 4.69847 2.58789 5.38007 2.58789 6.22103C2.58789 6.95895 3.11301 7.57431 3.81029 7.71351V23.0761C3.81029 24.1775 4.70309 25.0703 5.80453 25.0703H13.2461L11.9767 28.5439C11.7044 29.2892 12.0877 30.1142 12.833 30.3865C13.5783 30.6588 14.4033 30.2754 14.6756 29.5302L16.3057 25.0703H17.521L19.1511 29.5302C19.4234 30.2754 20.2484 30.6588 20.9937 30.3865C21.7389 30.1142 22.1223 29.2892 21.85 28.5439L20.5805 25.0703H28.1495C29.2509 25.0703 30.1437 24.1775 30.1437 23.0761V7.72695C30.8829 7.62263 31.4519 6.98903 31.4519 6.22135C31.4519 5.38039 30.77 4.69847 29.9293 4.69847ZM25.8132 13.9983L20.898 18.9135C20.4084 19.4031 19.6644 19.4806 19.0925 19.149C19.0807 19.1426 19.0692 19.1353 19.0577 19.1282C19.041 19.118 19.0244 19.1084 19.0084 19.0975C18.9085 19.0342 18.8141 18.9596 18.7287 18.8703L15.954 15.9724C15.7245 15.7327 15.3418 15.7327 15.1124 15.9724L12.5034 18.6972C12.0925 19.1263 11.4973 19.3471 10.9114 19.2479C10.4791 19.1746 10.2327 18.9638 10.0529 18.719L8.22629 16.8924C7.61925 16.2854 7.64325 15.286 8.29893 14.7103C8.89701 14.1849 9.81349 14.2514 10.3767 14.8146L11.2477 15.6857L14.4484 12.3426C14.6807 12.1001 14.9754 11.9545 15.2833 11.9033C15.2845 11.903 15.2858 11.903 15.2871 11.9026C15.3274 11.8962 15.3677 11.8911 15.4084 11.8879C15.4228 11.8866 15.4369 11.8857 15.4509 11.885C15.4785 11.8838 15.506 11.8828 15.5335 11.8828C15.561 11.8828 15.5885 11.8834 15.6161 11.885C15.6305 11.886 15.6445 11.8866 15.6586 11.8879C15.6993 11.8911 15.7396 11.8962 15.7799 11.9026C15.7812 11.903 15.7825 11.903 15.7834 11.9033C16.0913 11.9542 16.386 12.0998 16.6183 12.3426L19.6599 15.5196C19.7684 15.6329 19.9485 15.6348 20.0596 15.5241L23.6631 11.9206C24.226 11.3577 25.1425 11.2908 25.7409 11.8162C26.3962 12.3916 26.4202 13.391 25.8132 13.9983Z" fill="white"></path>
  </symbol>
  <symbol  xmlns="http://www.w3.org/2000/svg" viewBox="0 0 36 35" id="support">
    <path d="M4.52874 16.166C2.60049 12.9142 3.57411 9.21909 3.79507 8.45318C4.23355 6.92641 4.69619 5.31734 6.2412 4.16848C8.53542 2.46367 11.6185 2.96419 11.9673 3.02634C12.9616 3.20102 13.9576 3.43784 14.7258 3.63772C15.7892 3.91318 16.913 3.63604 17.7399 2.92892C17.985 2.71897 18.2889 2.49558 18.7204 2.26547C20.2672 1.44414 21.769 1.45086 22.879 1.45589C24.2203 1.46261 26.3989 1.47101 28.4083 2.93228C28.814 3.22621 31.3084 5.10403 31.393 7.88379C31.4897 11.0549 28.4635 14.436 25.1784 14.9785C18.2492 16.1223 16.0533 14.2663 13.5502 13.309C12.732 12.9949 11.7981 13.2787 11.3026 13.9858C11.0402 14.3621 10.6967 14.8089 10.2531 15.3127C9.40719 16.2768 7.75342 18.1614 6.2412 17.8355C5.4264 17.6575 4.97067 16.9101 4.52874 16.166Z" fill=""></path>
    <path d="M13.2167 20.881C14.0709 20.881 14.7634 20.2072 14.7634 19.376C14.7634 18.5449 14.0709 17.8711 13.2167 17.8711C12.3624 17.8711 11.6699 18.5449 11.6699 19.376C11.6699 20.2072 12.3624 20.881 13.2167 20.881Z" fill=""></path>
    <path d="M21.4354 20.7423C22.2897 20.7423 22.9822 20.0685 22.9822 19.2374C22.9822 18.4062 22.2897 17.7324 21.4354 17.7324C20.5812 17.7324 19.8887 18.4062 19.8887 19.2374C19.8887 20.0685 20.5812 20.7423 21.4354 20.7423Z" fill=""></path>
    <path d="M11.6716 32.4819C11.5128 32.4819 11.3522 32.4516 11.1968 32.3878C8.11545 31.1079 6.30804 28.6624 6.1147 26.9089C6.01803 26.0338 6.06636 25.0932 6.10779 24.2635C6.13023 23.8117 6.16303 23.1768 6.13714 22.814C4.50408 22.0985 3.66339 21.0739 3.35438 19.4514C3.06092 17.9045 4.07942 15.9612 4.8597 15.1348C5.31198 14.6561 6.07499 14.6242 6.56698 15.0642C7.05897 15.5026 7.09177 16.2467 6.63948 16.7254C6.17166 17.2225 5.62616 18.4739 5.73146 19.0265C5.89028 19.8612 6.16994 20.3147 7.41285 20.7867C8.67821 21.2671 8.60571 22.7099 8.52112 24.3811C8.48314 25.1251 8.43999 25.9683 8.51767 26.6603C8.61434 27.5304 9.83309 29.2671 12.1463 30.2278C12.7591 30.4831 13.0457 31.1735 12.7833 31.7714C12.5865 32.2148 12.1411 32.4819 11.6716 32.4819Z" fill=""></path>
    <path d="M20.882 31.1008L20.8613 28.7493C23.4352 28.7275 24.1015 28.3765 24.395 28.0725C25.8554 26.5608 26.1161 24.8274 26.4165 22.822L26.4769 22.4205C26.7048 20.9358 27.9011 20.7392 28.4776 20.6435C28.8022 20.5898 29.1095 20.5394 29.4651 20.3596C30.1884 19.9952 30.3852 18.2887 29.9225 16.3907C29.327 13.9519 27.1294 13.1356 27.107 13.1272L27.946 10.9219C28.2964 11.0478 31.3985 12.2589 32.2737 15.8482C32.8762 18.3206 32.7484 21.3523 30.5785 22.4474C29.8863 22.7968 29.2821 22.8959 28.8816 22.9631C28.8678 22.9647 28.8523 22.9681 28.8384 22.9698L28.8091 23.1629C28.4794 25.3615 28.1376 27.6358 26.1558 29.6849C25.1822 30.691 23.7528 31.0756 20.882 31.1008Z" fill=""></path>
    <path d="M18.5283 33.5435C20.437 33.5435 21.9843 32.0381 21.9843 30.181C21.9843 28.3238 20.437 26.8184 18.5283 26.8184C16.6196 26.8184 15.0723 28.3238 15.0723 30.181C15.0723 32.0381 16.6196 33.5435 18.5283 33.5435Z" fill=""></path>
  </symbol>
  <symbol xmlns="http://www.w3.org/2000/svg" viewBox="0 0 25 25" id="swap">
    <path d="M19.5079 7.7053C19.3789 7.64701 19.3432 7.61678 19.3071 7.61647C15.2721 7.60598 16.2068 7.09271 14.6228 10.4981C13.5929 12.7128 12.5737 14.9331 11.5947 17.1706C10.8541 18.8628 9.63692 19.7111 7.76458 19.6031C7.04125 19.5615 6.31328 19.5963 5.56589 19.5963C5.61524 20.151 6.14518 20.3052 6.3429 20.7003C6.60108 21.2167 6.53291 21.6717 6.10816 22.0517C5.72783 22.3919 5.22967 22.4918 4.86384 22.1528C3.80028 21.1673 2.76109 20.1497 1.78358 19.0797C1.35267 18.608 1.57445 18.0556 2.00598 17.6235C2.84036 16.7881 3.6587 15.9359 4.51775 15.1265C5.13066 14.5491 5.734 14.5379 6.18342 15.0373C6.67233 15.5805 6.56128 16.1225 6.09706 16.6089C5.91321 16.8014 5.40179 17.2425 5.17939 17.398C5.32283 17.3924 5.33362 17.3761 5.56126 17.4035C6.51563 17.4035 7.47154 17.4356 8.42406 17.3927C9.12734 17.3613 9.34851 16.7718 9.59713 16.2246C10.8131 13.5478 12.1259 10.9114 13.2388 8.19298C14.0821 6.1334 15.451 5.19847 17.6516 5.39989C18.2364 5.45325 18.8302 5.40791 19.4403 5.40791C19.0039 4.85269 18.8635 4.69907 18.6581 4.30795C18.4175 3.84958 18.4499 3.42576 18.7926 3.05284C19.1754 2.63611 19.7139 2.47232 20.1313 2.85265C21.2028 3.82861 22.2275 4.86071 23.2146 5.92242C23.6045 6.34192 23.4666 6.87987 23.0798 7.27901C22.1952 8.19174 21.3003 9.09552 20.3814 9.9737C19.886 10.4469 19.316 10.4898 18.8141 9.97031C18.3663 9.5067 18.3962 8.99219 18.7987 8.50328C19.019 8.23462 19.2596 7.98261 19.5079 7.7053Z" fill="white"></path>
    <path d="M10.737 11.0457C10.312 9.85016 10.1362 9.72339 9.74935 9.05342C9.18271 8.07191 8.46061 7.61971 7.50717 7.57621C6.87884 7.54753 6.0056 7.59071 5.35383 7.59071C5.77364 8.108 6.04693 8.24526 6.25391 8.56482C6.60277 9.10339 6.58704 9.59661 6.11973 10.0312C5.69868 10.4227 5.18016 10.4745 4.76375 10.0855C3.76897 9.15644 2.80319 8.19436 1.86424 7.20884C1.42654 6.74955 1.46541 6.19247 1.90249 5.73719C2.78283 4.82015 3.68044 3.91883 4.59564 3.03633C5.0901 2.55977 5.65673 2.51041 6.16476 3.02184C6.62005 3.4802 6.59753 3.99564 6.1953 4.48732C5.97475 4.75691 5.73076 5.00707 5.36832 5.40868C6.42818 5.40868 7.28015 5.39758 8.1318 5.41115C9.9628 5.44045 11.234 6.62462 11.787 8.30109C11.891 8.61602 11.754 8.83287 11.6578 9.06113C11.3792 9.72 11.0584 10.3613 10.737 11.0457Z" fill="white"></path>
    <path d="M19.4341 19.5966C18.5824 19.5966 17.7379 19.6067 16.8933 19.5944C15.0472 19.5676 13.8704 18.4318 13.2165 16.7298C13.0511 16.2995 13.2267 16.2004 13.326 15.9694C13.611 15.3047 13.9281 14.6541 14.2569 13.9453C14.74 15.0814 15.0376 15.6082 15.4645 16.4031C15.6823 16.8084 16.3402 17.3751 17.0367 17.4222C17.8063 17.4747 18.5812 17.4136 19.4325 17.4136C19.1231 16.9324 18.9732 16.7603 18.7641 16.4645C18.3936 15.9404 18.3912 15.4395 18.8563 14.9972C19.3218 14.5545 19.8625 14.5459 20.3218 14.9845C21.2746 15.8945 22.213 16.8217 23.1152 17.781C23.6016 18.2983 23.4934 18.8717 23.0137 19.3594C22.1852 20.2021 21.3588 21.0482 20.5001 21.8597C19.8721 22.4532 19.3042 22.4748 18.8301 22.0041C18.3585 21.5358 18.405 21.0189 18.9597 20.331C19.1228 20.129 19.2268 19.9633 19.4341 19.5966Z" fill="white"></path>
  </symbol>
  <symbol xmlns="http://www.w3.org/2000/svg" viewBox="0 0 21 20" id="arrow-down">
    <path d="M14.8989 5.06699L11.1417 8.82399C10.9909 8.97479 10.7463 8.97479 10.5955 8.82399L6.83827 5.06699C6.44687 4.67559 5.81247 4.67559 5.42107 5.06699L3.54447 6.94359C3.15307 7.33499 3.43083 8.24724 3.82223 8.63864L7.57467 12.391L10.0857 14.9018C10.5181 15.3342 11.2193 15.3342 11.6519 14.9018L14.1627 12.391L18.1927 8.36079C18.5841 7.96939 18.5841 7.33499 18.1927 6.94359L16.3159 5.06699C15.9247 4.67559 15.2903 4.67559 14.8989 5.06699Z" fill="white"></path>
  </symbol>
  <symbol xmlns="http://www.w3.org/2000/svg" viewBox="0 0 15 14" id="arrow-left">
    <path d="M10.8219 4.17939L8.19196 6.80943C8.0864 6.91499 8.0864 7.08621 8.19196 7.19177L10.8219 9.82181C11.0958 10.0958 11.0958 10.5399 10.8219 10.8138L9.50824 12.1275C9.23426 12.4014 8.59568 12.207 8.3217 11.933L5.69506 9.30633L3.9375 7.54863C3.63482 7.24595 3.63482 6.75511 3.9375 6.45229L5.69506 4.69473L8.5162 1.87373C8.79018 1.59975 9.23426 1.59975 9.50824 1.87373L10.8219 3.18749C11.0958 3.46133 11.0958 3.90541 10.8219 4.17939Z" fill=""></path>
  </symbol>
  <symbol xmlns="http://www.w3.org/2000/svg" viewBox="0 0 15 14" id="arrow-right">
    <path d="M3.91642 4.17939L6.54632 6.80943C6.65188 6.91499 6.65188 7.08621 6.54632 7.19177L3.91642 9.82181C3.64244 10.0958 3.64244 10.5399 3.91642 10.8138L5.23004 12.1275C5.50402 12.4014 6.1426 12.207 6.41658 11.933L9.04322 9.30633L10.8008 7.54863C11.1035 7.24595 11.1035 6.75511 10.8008 6.45229L9.04322 4.69473L6.22208 1.87373C5.9481 1.59975 5.50402 1.59975 5.23004 1.87373L3.91642 3.18749C3.64244 3.46133 3.64244 3.90541 3.91642 4.17939Z" fill=""></path>
  </symbol>
  <symbol xmlns="http://www.w3.org/2000/svg" viewBox="0 0 31 31" id="blacklist">
    <path d="M24.1335 28.9299C24.1311 28.956 24.1287 28.9821 24.1263 29.0082C17.9376 29.0082 11.7492 29.0082 5.56055 29.0082C5.60765 28.8831 5.71595 28.9188 5.80655 28.9188C11.8884 28.917 17.9703 28.9164 24.0519 28.9161C24.0792 28.9161 24.1062 28.9251 24.1335 28.9299Z" fill="#3F3F3F"></path>
    <path d="M26.4915 6.75832C26.4915 6.64792 26.4927 6.53722 26.4885 6.42682C26.4201 4.68592 25.2189 3.52342 23.4783 3.51562C22.8294 3.51262 22.1799 3.50122 21.5316 3.52042C21.1644 3.53122 20.925 3.41752 20.7186 3.09082C20.1705 2.22382 19.3872 1.79512 18.3267 1.80892C15.9936 1.83922 13.6596 1.83922 11.3265 1.80892C10.2615 1.79512 9.49441 2.25142 8.94391 3.10912C8.74381 3.42112 8.50831 3.52522 8.16031 3.51892C7.44241 3.50632 6.72421 3.50122 6.00631 3.51982C5.22901 3.53992 4.55821 3.81322 4.01191 4.38772C3.41251 5.01772 3.19471 5.77222 3.19531 6.62062C3.19831 13.0421 3.19681 19.4636 3.19741 25.8851C3.19741 27.6371 3.84091 28.5158 5.47861 29.0072C5.50621 29.0072 5.53381 29.0072 5.56141 29.0072C5.71771 28.9241 5.88661 28.9667 6.04861 28.9667C12.0606 28.964 18.0723 28.9646 24.0846 28.9646C24.8871 28.961 25.4748 28.5626 25.9236 27.9368C26.3589 27.3302 26.4945 26.6366 26.4942 25.8986C26.4894 19.5182 26.4915 13.1381 26.4915 6.75832ZM7.75561 10.715C8.25061 10.7096 8.64181 11.1083 8.63521 11.6114C8.62891 12.0971 8.25031 12.4817 7.77301 12.4871C7.28701 12.4925 6.88261 12.0806 6.88921 11.5874C6.89581 11.1068 7.27981 10.7201 7.75561 10.715ZM7.75681 23.0978C7.28131 23.0909 6.89491 22.7015 6.88981 22.2245C6.88471 21.7295 7.28851 21.3161 7.77151 21.3215C8.24191 21.3269 8.62891 21.7196 8.63491 22.1975C8.64121 22.7003 8.24641 23.105 7.75681 23.0978ZM7.77181 17.7956C7.28761 17.7995 6.88321 17.3852 6.88951 16.892C6.89581 16.4147 7.28221 16.0247 7.75621 16.0175C8.24551 16.01 8.64091 16.415 8.63521 16.9172C8.62951 17.3963 8.24071 17.792 7.77181 17.7956ZM10.4193 5.05642C10.4373 4.93492 10.4208 4.80832 10.4226 4.68412C10.4331 3.95722 10.7382 3.64582 11.4576 3.64342C12.6312 3.63952 13.8051 3.64222 14.9787 3.64222C16.0557 3.64222 17.133 3.64012 18.21 3.64342C18.9294 3.64552 19.245 3.96112 19.2543 4.67452C19.2639 5.40952 19.2639 5.40952 18.5319 5.40952C17.3028 5.40952 16.074 5.40952 14.8449 5.40952C13.4916 5.40952 12.1383 5.40112 10.7853 5.41642C10.5009 5.41912 10.3749 5.35492 10.4193 5.05642ZM22.7823 22.3319C22.737 22.6718 22.5384 22.9112 22.215 23.0357C22.0449 23.1011 21.8649 23.1035 21.6843 23.1035C18.3012 23.1023 14.9184 23.1032 11.5353 23.102C10.9116 23.1017 10.5411 22.8659 10.4475 22.4204C10.3167 21.7979 10.7379 21.3236 11.4468 21.3197C12.8001 21.3125 14.1531 21.3176 15.5064 21.3176C15.8655 21.3176 16.2243 21.3176 16.5834 21.3176C18.2817 21.3176 19.9803 21.3185 21.6786 21.317C21.9441 21.3167 22.2003 21.3338 22.4259 21.5018C22.7076 21.7115 22.8276 21.9935 22.7823 22.3319ZM11.4069 16.0163C12.1386 16.0037 12.8706 16.0133 13.6026 16.0133C14.6106 16.0133 15.6186 16.0133 16.6269 16.0133C18.3117 16.0133 19.9962 16.0139 21.681 16.0127C21.903 16.0127 22.1244 16.0154 22.3242 16.1291C22.656 16.3178 22.8222 16.6076 22.7862 16.9859C22.7484 17.3831 22.5144 17.642 22.1343 17.7533C22.0047 17.7914 21.8619 17.7974 21.7254 17.7974C18.3147 17.7998 14.9037 17.8001 11.493 17.7983C10.8948 17.798 10.5183 17.5313 10.4433 17.0714C10.3446 16.4693 10.7376 16.0277 11.4069 16.0163ZM22.0956 12.4604C21.9768 12.4895 21.8493 12.4904 21.7257 12.4907C18.3153 12.4922 14.9046 12.4931 11.4942 12.491C10.8726 12.4907 10.4958 12.2123 10.4373 11.7263C10.3662 11.1353 10.7496 10.7228 11.4066 10.7144C12.2763 10.7033 13.1463 10.7114 14.0163 10.7114C14.8725 10.7114 15.7284 10.7114 16.5846 10.7114C18.2967 10.7114 20.0088 10.7132 21.7209 10.7102C22.0656 10.7096 22.3827 10.766 22.6068 11.0594C23.0037 11.579 22.7415 12.3014 22.0956 12.4604Z" fill=""></path>
  </symbol>
  <symbol xmlns="http://www.w3.org/2000/svg" viewBox="0 0 36 35" id="delete">
    <path d="M30.8922 7.42334H23.419C22.938 5.05127 20.7592 3.26172 18.1425 3.26172C15.5258 3.26172 13.347 5.05272 12.8659 7.42334H5.28252C4.59894 7.42334 4.04492 7.96238 4.04492 8.62749C4.04492 9.29259 4.59894 9.83163 5.28252 9.83163H6.72414L8.70936 28.9647C8.87318 30.5398 10.2359 31.7381 11.8622 31.7381H24.463C26.0982 31.7381 27.4654 30.5282 27.6173 28.9444L29.4655 9.83163H30.8937C31.5773 9.83163 32.1328 9.29259 32.1328 8.62749C32.1313 7.96238 31.5773 7.42334 30.8922 7.42334ZM18.2289 4.91796C19.8269 4.91796 21.1419 6.01488 21.3072 7.42334H15.152C15.3158 6.01488 16.6294 4.91796 18.2289 4.91796ZM15.9339 25.1131C15.9339 25.7174 15.4305 26.2086 14.808 26.2086C14.1869 26.2086 13.6821 25.7188 13.6821 25.1131V14.2686C13.6821 13.6643 14.1855 13.1731 14.808 13.1731C15.429 13.1731 15.9339 13.6629 15.9339 14.2686V25.1131ZM22.6044 25.1131C22.6044 25.7174 22.101 26.2086 21.4785 26.2086C20.8574 26.2086 20.3526 25.7188 20.3526 25.1131V14.2686C20.3526 13.6643 20.856 13.1731 21.4785 13.1731C22.0995 13.1731 22.6044 13.6629 22.6044 14.2686V25.1131Z" fill=""></path>
  </symbol>
  <symbol xmlns="http://www.w3.org/2000/svg" viewBox="0 0 36 35" id="chart">
    <path d="M10.3646 9.74674C10.3646 7.95254 8.91009 6.49805 7.11589 6.49805C5.32168 6.49805 3.86719 7.95254 3.86719 9.74674V26.64C3.86719 28.4342 5.32168 29.8887 7.11589 29.8887C8.91009 29.8887 10.3646 28.4342 10.3646 26.64V9.74674Z" fill=""></path>
    <path d="M20.7611 16.2448C20.7611 14.4506 19.3066 12.9961 17.5124 12.9961C15.7182 12.9961 14.2637 14.4506 14.2637 16.2448V26.6406C14.2637 28.4348 15.7182 29.8893 17.5124 29.8893C19.3066 29.8893 20.7611 28.4348 20.7611 26.6406V16.2448Z" fill=""></path>
    <path d="M31.1556 3.2487C31.1556 1.45449 29.7011 0 27.9069 0C26.1127 0 24.6582 1.45449 24.6582 3.2487V26.6393C24.6582 28.4335 26.1127 29.888 27.9069 29.888C29.7011 29.888 31.1556 28.4335 31.1556 26.6393V3.2487Z" fill=""></path>
  </symbol>
  <symbol  xmlns="http://www.w3.org/2000/svg" viewBox="0 0 36 36" id="deposits">
    <path d="M31.8512 8.65496L28.6058 7.63619C26.4163 6.94894 24.3281 5.97295 22.3958 4.73524L18.9489 2.52659C18.3163 2.12134 17.5046 2.12415 16.8748 2.53391L13.5691 4.68514C11.5631 5.9904 9.38599 7.01198 7.10024 7.72006L4.32593 8.57954C3.64543 8.79004 3.18164 9.41932 3.18164 10.1319C3.18164 10.8563 3.77039 11.4433 4.49478 11.4405L8.01263 11.4281C8.5434 11.4265 8.97454 11.8559 8.97454 12.3867V12.6946C8.97454 13.1938 8.56985 13.5985 8.0706 13.5985H7.53138C5.66721 13.5985 4.15594 15.1098 4.15594 16.974V30.4014C4.15594 32.2656 5.66721 33.7769 7.53138 33.7769H28.0638C29.9279 33.7769 31.4392 32.2656 31.4392 30.4014V16.9734C31.4392 15.1092 29.9279 13.598 28.0638 13.598H27.6523C27.1711 13.598 26.7805 13.2073 26.7805 12.7261V12.3186C26.7805 11.7895 27.2082 11.3606 27.7373 11.3584L31.4904 11.3454C32.1619 11.3432 32.7051 10.7977 32.7051 10.1263V9.81782C32.7051 9.28536 32.3589 8.81481 31.8512 8.65496ZM18.8921 26.4699C18.7238 26.5031 18.6033 26.6528 18.6033 26.8245V28.2553C18.6033 28.4556 18.4412 28.6177 18.2408 28.6177H17.5474C17.347 28.6177 17.1849 28.4556 17.1849 28.2553V26.9286C17.1849 26.7378 17.0374 26.5785 16.8472 26.5673C15.7975 26.5048 14.7528 26.2335 14.0256 25.8564C13.8607 25.7708 13.7881 25.5733 13.8567 25.4005L14.1286 24.7194C14.2068 24.523 14.4365 24.4346 14.625 24.5292C15.4063 24.9209 16.4301 25.208 17.5221 25.208C19.1206 25.208 20.2013 24.3806 20.2013 23.2307C20.2013 22.1207 19.3232 21.4346 17.6571 20.8295C15.3607 20.0224 13.9423 19.0942 13.9423 17.3387C13.9423 15.7436 15.1468 14.5148 17.051 14.14C17.2204 14.1068 17.3419 13.9576 17.3419 13.7848V12.4143C17.3419 12.2139 17.5041 12.0518 17.7044 12.0518H18.3753C18.5757 12.0518 18.7378 12.2139 18.7378 12.4143V13.6644C18.7378 13.8546 18.8853 14.0128 19.0755 14.0257C20.0498 14.0916 20.7832 14.3088 21.3461 14.561C21.5257 14.6415 21.6073 14.8514 21.5307 15.0327L21.2504 15.6963C21.1711 15.8843 20.9527 15.9693 20.7669 15.8854C20.2423 15.6473 19.42 15.3619 18.265 15.3619C16.5314 15.3619 15.8785 16.2901 15.8785 17.0972C15.8785 18.1464 16.7115 18.671 18.6703 19.3976C20.9892 20.2453 22.16 21.2944 22.16 23.0905C22.1605 24.6158 21.0253 26.05 18.8921 26.4699Z" fill=""></path>
  </symbol>
  <symbol xmlns="http://www.w3.org/2000/svg" viewBox="0 0 36 35" id="edit">
    <path d="M29.7217 6.91161L27.9954 5.08718C27.0354 4.0725 25.4795 4.0725 24.5195 5.08718L22.9668 6.72818L28.169 12.2263L29.7217 10.5853C30.6817 9.57224 30.6817 7.92629 29.7217 6.91161Z" fill=""></path>
    <path d="M21.4871 8.86827C21.3354 8.70797 21.0915 8.70797 20.9398 8.86827L9.41273 21.051L8.71535 21.7384C8.47612 21.9748 8.60433 22.3978 8.92801 22.4424L10.1586 22.6143L10.1617 22.6176V25.4766C10.1617 25.7063 10.3415 25.8913 10.5589 25.8847L12.8042 25.817C12.9981 25.8104 13.167 25.9591 13.1967 26.1624L13.3249 27.025C13.3765 27.3654 13.7799 27.491 13.9957 27.2316L14.2443 26.9341L14.2459 26.9358L26.1389 14.3664C26.2905 14.2061 26.2905 13.9483 26.1389 13.788L21.4871 8.86827Z" fill=""></path>
    <path d="M8.8691 27.1739L7.55096 25.751C7.22573 25.399 6.66126 25.5527 6.53617 26.027L6.02955 27.9456L5.52294 29.8643C5.39785 30.3385 5.80439 30.7781 6.25628 30.6558L8.0826 30.1601L9.90891 29.6643C10.3592 29.542 10.5172 28.9487 10.1904 28.5984L8.8691 27.1739Z" fill=""></path>
  </symbol>
   <symbol xmlns="http://www.w3.org/2000/svg" viewBox="0 0 33 33" id="error-icon">
    <circle cx="16.5" cy="16.5" r="16.5" fill="#EC313A"></circle>
    <path d="M10.4062 11L22.5897 22.9999" stroke="white" stroke-width="4" stroke-linecap="round"></path>
    <path d="M22.5938 11L10.4104 22.9999" stroke="white" stroke-width="4" stroke-linecap="round"></path>
  </symbol>
   <symbol xmlns="http://www.w3.org/2000/svg" viewBox="0 0 33 33" id="error-gray">
    <circle cx="16.5" cy="16.5" r="16.5" fill="#364060"></circle>
    <path d="M10.4062 11L22.5897 22.9999" stroke="white" stroke-width="4" stroke-linecap="round"></path>
    <path d="M22.5938 11L10.4104 22.9999" stroke="white" stroke-width="4" stroke-linecap="round"></path>
  </symbol>
  <symbol viewBox="0 0 18 18" xmlns="http://www.w3.org/2000/svg" fill="none" id="success-icon">
    <circle cx="9" cy="9" r="9" fill="#058E6E"/>
    <path d="M4.18704 9.58791L7.48383 12.9811C7.8898 13.3989 8.56558 13.3827 8.95097 12.9458L14.1589 7.04201" stroke="white" stroke-width="2" stroke-linecap="round"/>
  </symbol>
   <symbol xmlns="http://www.w3.org/2000/svg" viewBox="0 0 17 16" id="close">
    <path d="M2.40625 2L14.5897 13.9999" stroke="#404658" stroke-width="4" stroke-linecap="round"></path>
    <path d="M14.5938 2L2.41038 13.9999" stroke="#404658" stroke-width="4" stroke-linecap="round"></path>
  </symbol>
    <symbol xmlns="http://www.w3.org/2000/svg" viewBox="0 0 37 33" id="ticket">
    <path fill-rule="evenodd" clip-rule="evenodd" d="M15.1527 4.28601H21.1677C26.8386 4.28601 29.674 4.28601 31.4358 5.89692C32.6488 7.00608 33.0267 8.58067 33.1443 11.1465C33.1677 11.6554 33.1794 11.9098 33.0757 12.0796C32.9721 12.2493 32.5582 12.4611 31.7305 12.8848C30.8113 13.3554 30.19 14.2543 30.19 15.286C30.19 16.3177 30.8113 17.2166 31.7305 17.6872C32.5582 18.1109 32.9721 18.3227 33.0757 18.4925C33.1794 18.6622 33.1677 18.9167 33.1443 19.4254C33.0267 21.9913 32.6488 23.566 31.4358 24.6751C29.674 26.286 26.8386 26.286 21.1677 26.286H15.1527C9.48173 26.286 6.64626 26.286 4.88452 24.6751C3.67152 23.566 3.2937 21.9913 3.17602 19.4254C3.15268 18.9167 3.14101 18.6622 3.24466 18.4925C3.34833 18.3227 3.76215 18.1109 4.58977 17.6872C5.50894 17.2166 6.13026 16.3177 6.13026 15.286C6.13026 14.2543 5.50894 13.3554 4.58977 12.8848C3.76215 12.4611 3.34833 12.2493 3.24466 12.0795C3.14101 11.9098 3.15268 11.6554 3.17602 11.1465C3.2937 8.58067 3.67152 7.00608 4.88452 5.89692C6.64626 4.28601 9.48174 4.28601 15.1527 4.28601ZM23.4819 10.4318C23.9224 10.8345 23.9224 11.4875 23.4819 11.8902L14.4595 20.1402C14.0191 20.5429 13.305 20.5429 12.8645 20.1402C12.4241 19.7374 12.4241 19.0846 12.8645 18.6818L21.8869 10.4318C22.3275 10.0291 23.0415 10.0291 23.4819 10.4318ZM21.9325 20.0985C22.7631 20.0985 23.4363 19.4829 23.4363 18.7235C23.4363 17.9641 22.7631 17.3485 21.9325 17.3485C21.1021 17.3485 20.4288 17.9641 20.4288 18.7235C20.4288 19.4829 21.1021 20.0985 21.9325 20.0985ZM14.4139 13.2235C15.2443 13.2235 15.9177 12.6079 15.9177 11.8485C15.9177 11.0891 15.2443 10.4735 14.4139 10.4735C13.5834 10.4735 12.9101 11.0891 12.9101 11.8485C12.9101 12.6079 13.5834 13.2235 14.4139 13.2235Z" fill=""></path>
  </symbol>
  <symbol  xmlns="http://www.w3.org/2000/svg" viewBox="0 0 37 35" id="users">
    <path d="M18.5446 17.6141C21.3803 17.6141 23.679 15.3338 23.679 12.5209C23.679 9.70803 21.3803 7.42773 18.5446 7.42773C15.7089 7.42773 13.4102 9.70803 13.4102 12.5209C13.4102 15.3338 15.7089 17.6141 18.5446 17.6141Z" fill=""></path>
    <path d="M28.4716 15.8359C30.6165 15.8359 32.3553 14.1111 32.3553 11.9834C32.3553 9.85569 30.6165 8.13086 28.4716 8.13086C26.3267 8.13086 24.5879 9.85569 24.5879 11.9834C24.5879 14.1111 26.3267 15.8359 28.4716 15.8359Z" fill=""></path>
    <path d="M8.59076 15.8359C10.7357 15.8359 12.4745 14.1111 12.4745 11.9834C12.4745 9.85569 10.7357 8.13086 8.59076 8.13086C6.44584 8.13086 4.70703 9.85569 4.70703 11.9834C4.70703 14.1111 6.44584 15.8359 8.59076 15.8359Z" fill=""></path>
    <path d="M11.9845 26.8526H24.0526C25.4938 26.8526 26.7822 25.8996 27.1281 24.5117C27.187 24.275 27.2177 24.0333 27.2177 23.7872C27.2177 20.9297 23.0993 18.6133 18.019 18.6133C12.9387 18.6133 8.82031 20.9297 8.82031 23.7872C8.82031 24.0328 8.85062 24.275 8.90993 24.5117C9.25496 25.8996 10.5438 26.8526 11.9845 26.8526Z" fill=""></path>
    <path d="M7.66474 23.5498C7.66474 21.644 9.49686 19.979 12.2243 19.0815C13.2408 18.747 13.142 17.286 12.0909 17.0816C11.2723 16.9227 10.3934 16.8359 9.47867 16.8359C5.06159 16.8359 1.48047 18.85 1.48047 21.3348C1.48047 21.5843 1.5164 21.8286 1.5861 22.067C1.92335 23.2247 3.0234 23.9995 4.23817 23.9995H7.22446C7.47079 23.9995 7.66431 23.7985 7.66431 23.5541C7.66474 23.5528 7.66474 23.5511 7.66474 23.5498Z" fill=""></path>
    <path d="M28.6577 22.5498C28.6577 20.571 26.6827 18.8519 23.7813 17.9819C22.8531 17.7036 22.8903 16.3813 23.8354 16.1653C24.764 15.9532 25.7797 15.8359 26.8438 15.8359C31.2609 15.8359 34.842 17.85 34.842 20.3348C34.842 20.5843 34.806 20.8286 34.7363 21.067C34.3991 22.2247 33.2991 22.9995 32.0843 22.9995H29.098C28.8517 22.9995 28.6581 22.7985 28.6581 22.5541C28.6577 22.5528 28.6577 22.5516 28.6577 22.5498Z" fill=""></path>
  </symbol>
  <symbol  xmlns="http://www.w3.org/2000/svg" viewBox="0 0 37 35" id="home">
    <path d="M18.8913 5.22951C18.4556 4.9235 17.8651 4.9235 17.4294 5.22951L3.75802 14.8296C3.32266 15.1352 3.14063 15.6768 3.3071 16.171C3.47357 16.6654 3.9507 17 4.48903 17H6.97473V27.8C6.97473 28.4628 7.53117 29 8.21758 29H28.1032C28.7896 29 29.3461 28.4628 29.3461 27.8V17H31.8317C32.37 17 32.8472 16.6654 33.0137 16.171C33.1801 15.6768 32.998 15.1352 32.5627 14.8296L18.8913 5.22951Z" fill=""></path>
  </symbol>
  <symbol xmlns="http://www.w3.org/2000/svg" viewBox="0 0 37 35" id="settings">
    <g clip-path="url(#clip0_1439_8289)">
      <path d="M18.1577 5.76135C11.55 5.76135 6.19336 11.0161 6.19336 17.4982C6.19336 23.9803 11.55 29.2374 18.1577 29.2374C24.7655 29.2374 30.1221 23.9826 30.1221 17.4982C30.1221 11.0137 24.7679 5.76135 18.1577 5.76135ZM18.1577 24.0134C14.491 24.0134 11.5186 21.0975 11.5186 17.5005C11.5186 13.9036 14.491 10.9877 18.1577 10.9877C21.8244 10.9877 24.7968 13.9036 24.7968 17.5005C24.7968 21.0975 21.8244 24.0134 18.1577 24.0134Z" fill=""></path>
      <path d="M18.2352 10.9877C16.1523 10.9877 14.4648 9.33228 14.4648 7.28903V5.59343C14.4648 3.55018 16.1523 1.89478 18.2352 1.89478C20.3181 1.89478 22.0056 3.55018 22.0056 5.59343V7.28903C22.0031 9.33228 20.3156 10.9877 18.2352 10.9877Z" fill=""></path>
      <path d="M12.2382 13.8468C11.2884 15.663 9.01505 16.3819 7.16362 15.4478L5.62559 14.6745C3.77416 13.7428 3.0413 11.5127 3.99353 9.69647C4.94335 7.88026 7.21666 7.16134 9.06809 8.09546L10.6061 8.86877C12.4576 9.80053 13.188 12.0282 12.2382 13.8468Z" fill=""></path>
      <path d="M12.1291 20.8189C13.1705 22.5879 12.5534 24.8487 10.7501 25.8703L9.25308 26.7169C7.44987 27.7385 5.14523 27.1331 4.1038 25.3642C3.06237 23.5953 3.67951 21.3345 5.48273 20.3129L6.97978 19.4662C8.78058 18.4446 11.0876 19.05 12.1291 20.8189Z" fill=""></path>
      <path d="M18.2352 24.0133C20.3181 24.0133 22.0056 25.6687 22.0056 27.712V29.4076C22.0056 31.4508 20.3181 33.1062 18.2352 33.1062C16.1523 33.1062 14.4648 31.4508 14.4648 29.4076V27.712C14.4648 25.6687 16.1523 24.0133 18.2352 24.0133Z" fill=""></path>
      <path d="M24.0804 13.4965C25.0302 15.3127 27.3035 16.0316 29.1549 15.0975L30.693 14.3242C32.5444 13.3924 33.2772 11.1623 32.325 9.34613C31.3752 7.52991 29.1019 6.811 27.2505 7.74512L25.7124 8.51843C23.861 9.45018 23.1305 11.6803 24.0804 13.4965Z" fill=""></path>
      <path d="M24.1878 20.8189C23.1464 22.5879 23.7635 24.8487 25.5667 25.8703L27.0638 26.7169C28.867 27.7385 31.1716 27.1331 32.2131 25.3642C33.2545 23.5953 32.6373 21.3345 30.8341 20.3129L29.3371 19.4662C27.5363 18.4446 25.2292 19.05 24.1878 20.8189Z" fill=""></path>
    </g>
    <defs>
      <clipPath id="clip0_1439_8289">
        <rect width="36" height="35" fill="white" transform="translate(0.160156)"></rect>
      </clipPath>
    </defs>
  </symbol>
  <symbol  xmlns="http://www.w3.org/2000/svg" viewBox="0 0 36 35" id="key">
    <path fill-rule="evenodd" clip-rule="evenodd" d="M30.4899 5.65864C28.8395 3.99241 26.7711 3.12598 24.2626 3.05933C21.776 3.12598 19.6856 3.99241 18.0352 5.65864C16.3849 7.32486 15.5487 9.4132 15.4827 11.9459C15.4827 12.6123 15.5487 13.2566 15.6807 13.9231L2.25781 27.4973V29.7189L4.45829 31.9406H8.85924L11.0597 29.7189V27.4973H13.2602V25.2757H15.4607V23.054H19.8616L22.2601 20.588C22.9203 20.7657 23.5584 20.8324 24.2626 20.8324C26.7711 20.7657 28.8395 19.8993 30.4899 18.2331C32.1403 16.5669 32.9984 14.4785 33.0645 11.9459C32.9984 9.4132 32.1403 7.32486 30.4899 5.65864ZM26.463 12.7901C24.7687 12.7901 23.4264 11.4349 23.4264 9.72422C23.4264 8.01357 24.7687 6.65837 26.463 6.65837C28.1574 6.65837 29.4997 8.01357 29.4997 9.72422C29.4997 11.4349 28.1574 12.7901 26.463 12.7901Z" fill=""></path>
  </symbol>
  <symbol xmlns="http://www.w3.org/2000/svg" viewBox="0 0 17 19" id="copy">
    <rect x="0.75" y="0.75" width="10.0795" height="9.78269" rx="1.25" fill="transparent" stroke="" stroke-width="1.5"/>
    <rect x="5.38086" y="7.52002" width="10.0795" height="9.78269" rx="1.25" fill="" stroke="" stroke-width="1.5"/>
  </symbol>
  <symbol viewBox="0 0 35 35" xmlns="http://www.w3.org/2000/svg" id="clock">
    <path fill-rule="evenodd" clip-rule="evenodd" d="M30.625 17.5C30.625 24.7488 24.7488 30.625 17.5 30.625C10.2513 30.625 4.375 24.7488 4.375 17.5C4.375 10.2513 10.2513 4.375 17.5 4.375C24.7488 4.375 30.625 10.2513 30.625 17.5ZM18.5938 10.0693C18.5938 9.46524 18.104 8.97555 17.5 8.97555C16.896 8.97555 16.4062 9.46524 16.4062 10.0693V17.9789V18.5528L16.8783 18.8789L22.2235 22.5711C22.7205 22.9144 23.4017 22.7897 23.7452 22.2927C24.0885 21.7957 23.9638 21.1145 23.4668 20.7712L18.5938 17.4051V10.0693Z" fill=""/>
  </symbol>
  <symbol xmlns="http://www.w3.org/2000/svg" viewBox="0 0 10 8" fill="none" id="read-1">
    <path d="M1 3.76923L3.44444 6.53846L9.14815 1" stroke="white" stroke-width="1.5" stroke-linecap="round"/>
  </symbol>
  <symbol xmlns="http://www.w3.org/2000/svg" viewBox="0 0 13 8" fill="none" id="read-2">
    <path d="M1 3.76923L3.44444 6.53846L9.14815 1M6.2963 7L9.14815 4.23077L12 1.46154" stroke="white" stroke-width="1.5" stroke-linecap="round"/>
  </symbol>
  <symbol xmlns="http://www.w3.org/2000/svg" viewBox="0 0 21 21" fill="none" id="warning" >
    <circle cx="10.5" cy="10.5" r="10.5" fill="#DB4446"/>
    <path d="M9.35 12.41L8.684 4.4H12.752L12.068 12.41H9.35ZM10.718 17.162C10.118 17.162 9.626 16.976 9.242 16.604C8.858 16.232 8.666 15.788 8.666 15.272C8.666 14.744 8.858 14.306 9.242 13.958C9.626 13.598 10.118 13.418 10.718 13.418C11.318 13.418 11.804 13.598 12.176 13.958C12.56 14.306 12.752 14.744 12.752 15.272C12.752 15.788 12.56 16.232 12.176 16.604C11.804 16.976 11.318 17.162 10.718 17.162Z" fill="white"/>
  </symbol>
  <symbol viewBox="0 0 23 23" xmlns="http://www.w3.org/2000/svg" id="shield">
    <g clip-path="url(#clip0_1069_6359)">
    <path d="M22.1537 2.72236C20.3506 3.51833 17.941 3.63526 15.6903 2.70228C14.5957 2.24856 12.2891 1.13306 11.5018 0C10.7148 1.13306 8.40803 2.24856 7.31351 2.70223C5.06265 3.63526 2.65322 3.51828 0.850016 2.72236C0.526443 2.57941 0.171875 2.81579 0.171875 3.16955C0.171875 22.1678 11.5018 23 11.5018 23C11.5018 23 22.8319 22.1678 22.8319 3.16955C22.8319 2.81579 22.4773 2.57941 22.1537 2.72236ZM4.0069 5.63006C5.44588 5.63006 6.85068 5.35019 8.18225 4.7982C8.9068 4.49785 10.281 3.87685 11.5018 3.03465C12.7227 3.87685 14.0969 4.49785 14.8214 4.7982C16.1532 5.35024 17.558 5.63015 18.9969 5.63006C19.5025 5.63006 20.0054 5.59408 20.4985 5.52373C19.7549 18.6994 12.7963 20.4926 11.5018 20.7121C10.2075 20.4925 3.2488 18.6993 2.50521 5.52368C2.99836 5.59417 3.50126 5.63006 4.0069 5.63006Z" fill=""/>
    <path d="M11.5029 18.3856C12.8478 17.9954 16.8793 16.1449 18.002 7.86171C16.6114 7.75713 15.2536 7.43302 13.9538 6.89413C13.3988 6.66409 12.4808 6.25575 11.5029 5.70361C10.525 6.25575 9.60714 6.66409 9.05213 6.89413C7.75245 7.43293 6.39473 7.75704 5.00391 7.86171C6.12655 16.1449 10.158 17.9954 11.5029 18.3856Z" fill=""/>
    </g>
    <defs>
    <clipPath id="clip0_1069_6359">
    <rect width="23" height="23" fill="white"/>
    </clipPath>
    </defs>
  </symbol>
  <symbol viewBox="0 0 27 27" fill="none" xmlns="http://www.w3.org/2000/svg" id="loop">
    <path d="M9.70002 3C5.46045 3 2 6.46045 2 10.7C2 14.9396 5.46045 18.4 9.70002 18.4C11.6228 18.4 13.3795 17.6829 14.7317 16.5094L15.2 16.9778V18.4L21.3446 24.5446C21.9518 25.1518 22.9374 25.1518 23.5446 24.5446C24.1518 23.9374 24.1518 22.9518 23.5446 22.3446L17.4 16.2H15.9778L15.5094 15.7317C16.6829 14.3795 17.4 12.6228 17.4 10.7C17.4 6.46045 13.9396 3 9.70002 3ZM9.70002 5.20001C12.7506 5.20001 15.2 7.64942 15.2 10.7C15.2 13.7506 12.7506 16.2 9.70002 16.2C6.64942 16.2 4.20001 13.7506 4.20001 10.7C4.20001 7.64942 6.64942 5.20001 9.70002 5.20001Z" fill="white"/>
  </symbol>
  <symbol viewBox="0 0 34 30" fill="none" xmlns="http://www.w3.org/2000/svg" id="wallet">
    <path fill-rule="evenodd" clip-rule="evenodd" d="M29.8952 10.0044C29.8149 9.99995 29.7275 9.99998 29.637 10L29.6143 10H26.0606C23.1314 10 20.625 12.0345 20.625 14.6875C20.625 17.3405 23.1314 19.375 26.0606 19.375H29.6143H29.637C29.7275 19.375 29.8149 19.3751 29.8952 19.3706C31.0851 19.3043 32.1373 18.4828 32.2258 17.3353C32.2316 17.26 32.2315 17.1789 32.2315 17.1038V17.0834V12.2917V12.2713C32.2315 12.1961 32.2316 12.115 32.2258 12.0398C32.1373 10.8923 31.0851 10.0707 29.8952 10.0044ZM25.7455 15.9375C26.4996 15.9375 27.1109 15.3779 27.1109 14.6875C27.1109 13.9971 26.4996 13.4375 25.7455 13.4375C24.9914 13.4375 24.38 13.9971 24.38 14.6875C24.38 15.3779 24.9914 15.9375 25.7455 15.9375Z" fill="white"/>
    <path fill-rule="evenodd" clip-rule="evenodd" d="M29.6363 21.25C29.8475 21.2451 30.0075 21.4177 29.9501 21.5972C29.6658 22.4877 29.2143 23.2469 28.4901 23.886C27.4298 24.8214 26.0854 25.2365 24.4245 25.4336C22.8107 25.625 20.7486 25.625 18.145 25.625H15.1519C12.5484 25.625 10.4862 25.625 8.87233 25.4336C7.2114 25.2365 5.86705 24.8214 4.80686 23.886C3.74668 22.9505 3.27618 21.7643 3.05289 20.2988C2.8359 18.8748 2.83591 17.0553 2.83594 14.758V14.617C2.83591 12.3198 2.8359 10.5002 3.05289 9.07623C3.27618 7.6107 3.74668 6.42451 4.80686 5.48905C5.86705 4.5536 7.2114 4.13845 8.87233 3.94143C10.4862 3.74996 12.5483 3.74998 15.1519 3.75H18.145C20.7486 3.74998 22.8107 3.74996 24.4245 3.94143C26.0854 4.13845 27.4298 4.5536 28.4901 5.48905C29.2143 6.12815 29.6656 6.88718 29.9501 7.77773C30.0075 7.95719 29.8475 8.12984 29.6363 8.125L26.0608 8.12501C22.0423 8.12501 18.5002 10.9261 18.5002 14.6875C18.5002 18.4489 22.0423 21.25 26.0608 21.25H29.6363ZM8.14844 8.75C7.56164 8.75 7.08594 9.16974 7.08594 9.6875C7.08594 10.2053 7.56164 10.625 8.14844 10.625H13.8151C14.4019 10.625 14.8776 10.2053 14.8776 9.6875C14.8776 9.16974 14.4019 8.75 13.8151 8.75H8.14844Z" fill="white"/>
  </symbol>
  <symbol viewBox="0 0 800 800" xmlns="http://www.w3.org/2000/svg" id="check">
   <path fill-rule="evenodd" clip-rule="evenodd" d="M318.63 123.24C358.51 67.4053 441.493 67.4053 481.377 123.24L487.727 132.129C494.743 141.956 506.53 147.217 518.53 145.884L546.83 142.739C610.523 135.663 664.34 189.48 657.263 253.171L654.12 281.472C652.787 293.473 658.047 305.258 667.873 312.277L676.763 318.626C732.597 358.507 732.597 441.49 676.763 481.373L667.873 487.723C658.047 494.74 652.787 506.527 654.12 518.527L657.263 546.827C664.34 610.52 610.523 664.337 546.83 657.26L518.53 654.117C506.53 652.783 494.743 658.043 487.727 667.87L481.377 676.76C441.493 732.593 358.513 732.593 318.63 676.76L312.28 667.87C305.261 658.043 293.477 652.783 281.475 654.117L253.174 657.26C189.483 664.337 135.666 610.52 142.743 546.827L145.887 518.527C147.221 506.527 141.959 494.74 132.132 487.723L123.243 481.373C67.4085 441.49 67.4085 358.51 123.243 318.626L132.132 312.277C141.959 305.258 147.221 293.473 145.887 281.471L142.743 253.171C135.666 189.48 189.483 135.663 253.174 142.739L281.475 145.884C293.477 147.217 305.261 141.956 312.28 132.129L318.63 123.24ZM523.573 309.763C536.59 322.781 536.59 343.887 523.573 356.903L396.277 484.2C379.927 500.553 353.413 500.553 337.063 484.2L276.433 423.57C263.416 410.553 263.416 389.447 276.433 376.43C289.451 363.413 310.556 363.413 323.574 376.43L366.67 419.527L476.433 309.763C489.45 296.746 510.557 296.746 523.573 309.763Z" fill=""/>
  </symbol>
  <symbol viewBox="0 0 24 24" fill="none" xmlns="http://www.w3.org/2000/svg" id="calendar">
   <path d="M3 9H21M7 3V5M17 3V5M6 12H8M11 12H13M16 12H18M6 15H8M11 15H13M16 15H18M6 18H8M11 18H13M16 18H18M6.2 21H17.8C18.9201 21 19.4802 21 19.908 20.782C20.2843 20.5903 20.5903 20.2843 20.782 19.908C21 19.4802 21 18.9201 21 17.8V8.2C21 7.07989 21 6.51984 20.782 6.09202C20.5903 5.71569 20.2843 5.40973 19.908 5.21799C19.4802 5 18.9201 5 17.8 5H6.2C5.0799 5 4.51984 5 4.09202 5.21799C3.71569 5.40973 3.40973 5.71569 3.21799 6.09202C3 6.51984 3 7.07989 3 8.2V17.8C3 18.9201 3 19.4802 3.21799 19.908C3.40973 20.2843 3.71569 20.5903 4.09202 20.782C4.51984 21 5.07989 21 6.2 21Z" stroke="" stroke-width="2" stroke-linecap="round"/>
  </symbol>
  <svg  viewBox="0 0 27 30" fill="none" xmlns="http://www.w3.org/2000/svg" id="push-read-1">
    <path fill-rule="evenodd" clip-rule="evenodd" d="M17.9392 3.07568C17.3578 1.36933 15.5905 0.128418 13.5006 0.128418C11.4106 0.128418 9.64327 1.36933 9.06188 3.07568H3.30046C1.55193 3.07568 0.132812 4.49333 0.132812 6.24333V26.6419C0.132812 28.3904 1.55046 29.8095 3.30046 29.8095H23.6975C25.4475 29.8095 26.8666 28.3904 26.8666 26.6419V6.24333C26.8666 4.4948 25.449 3.07568 23.699 3.07568H17.9392Z" fill="#333D58"/>
    <path d="M13.498 6.07568C14.3265 6.07568 14.998 5.40411 14.998 4.57568C14.998 3.74726 14.3265 3.07568 13.498 3.07568C12.6696 3.07568 11.998 3.74726 11.998 4.57568C11.998 5.40411 12.6696 6.07568 13.498 6.07568Z" fill="#546286"/>
    <path d="M18.2732 14.7435L15.0688 11.5391L6.08789 20.5185L6.08936 20.5199V23.7214H9.29083L9.2923 23.7229L18.2732 14.7435Z" fill="white"/>
    <path d="M19.0772 13.889L15.9316 10.7434L17.1125 9.56248C17.9816 8.69337 19.389 8.69337 20.2581 9.56248C21.1272 10.4316 21.1272 11.839 20.2581 12.7081L19.0772 13.889Z" fill="white"/>
  </svg>

  <symbol viewBox="0 0 27 30" fill="none" xmlns="http://www.w3.org/2000/svg" id="push-read-2">
    <path fill-rule="evenodd" clip-rule="evenodd" d="M13.5006 0.128418C15.5905 0.128418 17.3578 1.36933 17.9392 3.07568H23.699C25.449 3.07568 26.8666 4.4948 26.8666 6.24333V26.6419C26.8666 28.3904 25.4475 29.8095 23.6975 29.8095H3.30046C1.55046 29.8095 0.132812 28.3904 0.132812 26.6419V6.24333C0.132812 4.49333 1.55193 3.07568 3.30046 3.07568H9.06188C9.64327 1.36933 11.4106 0.128418 13.5006 0.128418ZM14.998 4.57568C14.998 5.40411 14.3265 6.07568 13.498 6.07568C12.6696 6.07568 11.998 5.40411 11.998 4.57568C11.998 3.74726 12.6696 3.07568 13.498 3.07568C14.3265 3.07568 14.998 3.74726 14.998 4.57568ZM18.2732 14.7435L15.0688 11.5391L6.08789 20.5185L6.08936 20.5199V23.7214H9.29083L9.2923 23.7229L18.2732 14.7435ZM15.9316 10.7434L19.0772 13.889L20.2581 12.7081C21.1272 11.839 21.1272 10.4316 20.2581 9.56248C19.389 8.69337 17.9816 8.69337 17.1125 9.56248L15.9316 10.7434Z" fill="#626E8F"/>
  </symbol>

  <symbol viewBox="0 0 35 35" xmlns="http://www.w3.org/2000/svg" id="attach">
    <g clip-path="url(#clip0_1637_1072)">
     <path d="M13.0382 30.2458C10.8757 30.2542 8.7907 29.4411 7.20488 27.9708C6.43258 27.2568 5.81634 26.3907 5.39489 25.4269C4.97343 24.4632 4.75586 23.4227 4.75586 22.3708C4.75586 21.319 4.97343 20.2785 5.39489 19.3148C5.81634 18.351 6.43258 17.4849 7.20488 16.7708L18.2299 6.35836C19.3637 5.32334 20.8436 4.74951 22.3788 4.74951C23.914 4.74951 25.3939 5.32334 26.5278 6.35836C27.119 6.90719 27.5929 7.56997 27.9214 8.30679C28.2496 9.04363 28.4255 9.83928 28.4382 10.6459C28.4421 11.3429 28.3017 12.0332 28.0256 12.6732C27.7496 13.3133 27.3437 13.8892 26.834 14.3646L15.7944 24.7916C15.1283 25.4098 14.2532 25.7532 13.3444 25.7532C12.4357 25.7532 11.5606 25.4098 10.8945 24.7916C10.5639 24.4871 10.3001 24.1173 10.1196 23.7057C9.93917 23.2941 9.846 22.8494 9.846 22.4C9.846 21.9505 9.93917 21.506 10.1196 21.0943C10.3001 20.6826 10.5639 20.3129 10.8945 20.0083L21.1028 10.3979C21.3078 10.1931 21.5859 10.0781 21.8757 10.0781C22.1656 10.0781 22.4436 10.1931 22.6486 10.3979C22.8535 10.603 22.9684 10.881 22.9684 11.1709C22.9684 11.4607 22.8535 11.7387 22.6486 11.9438L12.4403 21.5541C12.3258 21.6542 12.234 21.7774 12.1711 21.9158C12.1082 22.054 12.0757 22.2042 12.0757 22.3562C12.0757 22.5083 12.1082 22.6585 12.1711 22.7968C12.234 22.9352 12.3258 23.0584 12.4403 23.1583C12.7044 23.3843 13.0406 23.5084 13.3882 23.5084C13.7358 23.5084 14.072 23.3843 14.3361 23.1583L25.3757 12.7604C25.6566 12.4852 25.8788 12.1559 26.0293 11.7925C26.1797 11.4292 26.2549 11.0391 26.2507 10.6459C26.2386 10.139 26.1238 9.63983 25.9132 9.1786C25.7027 8.71739 25.4008 8.30367 25.0257 7.96253C24.3057 7.29527 23.3604 6.92453 22.3788 6.92453C21.3972 6.92453 20.4519 7.29527 19.7319 7.96253L8.75072 18.3604C8.19459 18.8701 7.75056 19.4897 7.44678 20.1801C7.14299 20.8706 6.98613 21.6165 6.98613 22.3708C6.98613 23.1252 7.14299 23.8711 7.44678 24.5616C7.75056 25.252 8.19459 25.8717 8.75072 26.3812C9.93854 27.4884 11.5019 28.1041 13.1257 28.1041C14.7496 28.1041 16.3129 27.4884 17.5007 26.3812L28.4236 16.0416C28.5242 15.9385 28.6444 15.8566 28.7771 15.8006C28.9098 15.7446 29.0525 15.7157 29.1965 15.7157C29.3406 15.7157 29.4832 15.7446 29.6159 15.8006C29.7487 15.8566 29.869 15.9385 29.9694 16.0416C30.1743 16.2468 30.2893 16.5248 30.2893 16.8145C30.2893 17.1045 30.1743 17.3824 29.9694 17.5875L18.959 27.9708C17.3519 29.4632 15.2311 30.2782 13.0382 30.2458Z" fill=""/>
    </g>
  </symbol>  

</svg>