<svg width="39" height="37" viewBox="0 0 39 37" fill="none" xmlns="http://www.w3.org/2000/svg">
<circle cx="18.9902" cy="18.5" r="18.5" fill="#D5A622"/>
<path d="M18.6219 7.50784C18.7843 7.07577 19.3955 7.07576 19.5579 7.50785L21.4845 12.6328C21.9975 13.9975 23.3027 14.9012 24.7606 14.9012H30.2998C30.4588 14.9012 30.5507 14.948 30.6112 14.9967C30.6821 15.0538 30.7464 15.1452 30.7803 15.2629C30.8142 15.3805 30.8083 15.4921 30.7787 15.5782C30.7533 15.6517 30.7004 15.7401 30.5657 15.8247L26.6102 18.3086C25.2015 19.1933 24.61 20.9472 25.1953 22.5042L26.8196 26.825C26.9881 27.2731 26.4911 27.679 26.0857 27.4244L20.9512 24.2001C19.8132 23.4854 18.3665 23.4854 17.2285 24.2001L12.0941 27.4244C11.6886 27.679 11.1917 27.2731 11.3601 26.825L12.9844 22.5042C13.5697 20.9472 12.9783 19.1933 11.5696 18.3086L7.61401 15.8247C7.47938 15.7401 7.42644 15.6516 7.40108 15.5782C7.3714 15.4921 7.36557 15.3805 7.39944 15.2629C7.43331 15.1452 7.49762 15.0538 7.5685 14.9967C7.62907 14.948 7.72094 14.9012 7.87992 14.9012H13.4191C14.877 14.9012 16.1823 13.9975 16.6953 12.6328L18.6219 7.50784Z" stroke="white" stroke-width="3"/>
</svg>
