<svg width="37" height="37" viewBox="0 0 37 37" fill="none" xmlns="http://www.w3.org/2000/svg">
<ellipse cx="17.9284" cy="18.5" rx="17.9284" ry="18.5" fill="#466CEB"/>
<path d="M18.0302 7.67173C18.1899 7.23326 18.8101 7.23327 18.9698 7.67173L20.7649 12.5993C21.2684 13.9814 22.5825 14.9012 24.0535 14.9012H29.3303C29.4875 14.9012 29.5792 14.9473 29.6401 14.9959C29.7111 15.0526 29.7754 15.1431 29.8098 15.2594C29.8442 15.3758 29.8395 15.4867 29.8107 15.5729C29.786 15.6468 29.7341 15.7354 29.6022 15.8208L25.7416 18.3225C24.3726 19.2096 23.798 20.9249 24.3564 22.4578L25.921 26.7524C26.0852 27.2032 25.5819 27.6041 25.1793 27.3432L20.4033 24.2484C19.2454 23.498 17.7546 23.498 16.5967 24.2484L11.8207 27.3432C11.4181 27.6041 10.9148 27.2032 11.079 26.7524L12.6436 22.4578C13.202 20.9249 12.6274 19.2096 11.2584 18.3225L7.39776 15.8208C7.2659 15.7354 7.21396 15.6468 7.18928 15.5729C7.16053 15.4867 7.15579 15.3758 7.19018 15.2594C7.22458 15.1431 7.2889 15.0526 7.35987 14.9959C7.4208 14.9473 7.51255 14.9012 7.66966 14.9012H12.9465C14.4175 14.9012 15.7316 13.9814 16.2351 12.5993L18.0302 7.67173Z" stroke="white" stroke-width="3"/>
</svg>
