<svg width="38" height="37" viewBox="0 0 38 37" fill="none" xmlns="http://www.w3.org/2000/svg">
<ellipse cx="18.9127" cy="18.5" rx="17.9284" ry="18.5" fill="#EC313A"/>
<path d="M18.54 7.67173C18.6997 7.23326 19.3198 7.23327 19.4796 7.67173L21.2747 12.5993C21.7782 13.9814 23.0922 14.9012 24.5633 14.9012H29.8401C29.9972 14.9012 30.089 14.9473 30.1499 14.9959C30.2209 15.0526 30.2852 15.1431 30.3196 15.2594C30.354 15.3758 30.3492 15.4867 30.3205 15.5729C30.2958 15.6468 30.2439 15.7354 30.112 15.8208L26.2514 18.3225C24.8824 19.2096 24.3078 20.9249 24.8662 22.4578L26.4307 26.7524C26.595 27.2032 26.0917 27.6041 25.689 27.3432L20.9131 24.2484C19.7551 23.498 18.2644 23.498 17.1064 24.2484L12.3305 27.3432C11.9279 27.6041 11.4246 27.2032 11.5888 26.7524L13.1534 22.4578C13.7118 20.9249 13.1372 19.2096 11.7681 18.3225L7.90752 15.8208C7.77567 15.7354 7.72373 15.6468 7.69905 15.5729C7.67029 15.4867 7.66555 15.3758 7.69995 15.2594C7.73434 15.1431 7.79866 15.0526 7.86964 14.9959C7.93056 14.9473 8.02231 14.9012 8.17943 14.9012H13.4563C14.9273 14.9012 16.2413 13.9814 16.7449 12.5993L18.54 7.67173Z" stroke="white" stroke-width="3"/>
</svg>
