<svg width="43" height="34" viewBox="0 0 43 34" fill="none" xmlns="http://www.w3.org/2000/svg">
<g clip-path="url(#clip0_1385_22454)">
<path fill-rule="evenodd" clip-rule="evenodd" d="M0 34H14.3333V0H0V34Z" fill="#262626"/>
<path d="M28.6654 0H14.332V34H28.6654V0Z" fill="#DC0D18"/>
<path fill-rule="evenodd" clip-rule="evenodd" d="M43 34H28.6667V0H43V34Z" fill="#1AB11F"/>
<path d="M18.1999 16.7332C18.1999 16.0951 17.7076 15.5779 17.1 15.5779C16.4925 15.5779 16 16.0951 16 16.7332H18.1999ZM18.7429 21.7326C19.2683 22.0528 19.9415 21.865 20.2464 21.313C20.5513 20.7612 20.3725 20.0542 19.847 19.7339L18.7429 21.7326ZM23.2748 19.6559C22.763 19.9998 22.6135 20.7141 22.9409 21.2517C23.268 21.7892 23.9483 21.9463 24.4602 21.6026L23.2748 19.6559ZM27 16.7332C27 16.0951 26.5075 15.5779 25.9 15.5779C25.2924 15.5779 24.7999 16.0951 24.7999 16.7332H27ZM16 16.7332C16 18.8702 17.1053 20.7345 18.7429 21.7326L19.847 19.7339C18.8599 19.1324 18.1999 18.013 18.1999 16.7332H16ZM24.4602 21.6026C25.9851 20.5781 27 18.7806 27 16.7332H24.7999C24.7999 17.9597 24.1944 19.0383 23.2748 19.6559L24.4602 21.6026Z" fill="white"/>
<path fill-rule="evenodd" clip-rule="evenodd" d="M21.5009 19.0431C22.7158 19.0431 23.7008 17.4913 23.7008 15.5771C23.7008 13.6629 22.7158 12.1111 21.5009 12.1111C20.2858 12.1111 19.3008 13.6629 19.3008 15.5771C19.3008 17.4913 20.2858 19.0431 21.5009 19.0431Z" fill="white"/>
</g>
<defs>
<clipPath id="clip0_1385_22454">
<rect width="43" height="34" rx="4" fill="white"/>
</clipPath>
</defs>
</svg>
