<svg width="43" height="34" viewBox="0 0 43 34" fill="none" xmlns="http://www.w3.org/2000/svg">
<g clip-path="url(#clip0_1385_22060)">
<path d="M43 0H0V34H43V0Z" fill="#EE343C"/>
<path fill-rule="evenodd" clip-rule="evenodd" d="M19.0207 7.45696C18.6756 7.07496 18.1349 7.0157 17.7288 7.31535L16.8237 7.98335C16.1695 8.46605 16.2306 9.55087 16.9336 9.94004L18.8851 11.0201C19.2318 11.212 19.451 11.6045 19.451 12.0338V12.4666C19.451 13.0926 18.9926 13.6 18.4271 13.6H17.645C17.486 13.6 17.3294 13.559 17.1872 13.4803L13.9681 11.6986C13.5739 11.4805 13.0979 11.566 12.7863 11.9109L12.2649 12.4881C11.7707 13.0351 11.9059 13.9572 12.531 14.3032L13.9806 15.1055C14.5933 15.4447 14.6465 16.39 14.0765 16.8107C13.4151 17.2988 13.617 18.4283 14.3964 18.6009L15.2594 18.792C16.0879 18.9754 16.3302 20.1576 15.6542 20.7187L14.8816 21.3603C14.3775 21.7787 14.6449 22.6666 15.275 22.6666C15.3286 22.6666 15.3819 22.6595 15.434 22.645L17.3718 22.1087C18.1065 21.9053 18.6822 22.8097 18.2622 23.5072C17.895 24.1169 18.2898 24.9334 18.9516 24.9334H19.8476C20.2221 24.9334 20.5547 25.1986 20.6731 25.592C20.9375 26.4702 22.0595 26.4702 22.324 25.592C22.4425 25.1986 22.775 24.9334 23.1496 24.9334H24.0455C24.7074 24.9334 25.1021 24.1169 24.7351 23.5072C24.3149 22.8097 24.8906 21.9053 25.6253 22.1087L27.5631 22.645C27.6151 22.6595 27.6686 22.6666 27.7222 22.6666C28.3521 22.6666 28.6195 21.7787 28.1155 21.3603L27.3429 20.7187C26.6668 20.1576 26.9092 18.9754 27.7377 18.792L28.6008 18.6009C29.3801 18.4283 29.5819 17.2988 28.9206 16.8107C28.3506 16.39 28.4037 15.4447 29.0165 15.1055L30.4662 14.3032C31.0912 13.9572 31.2264 13.0351 30.7322 12.4881L30.2108 11.9109C29.8992 11.566 29.4231 11.4805 29.0291 11.6986L25.8099 13.4803C25.6679 13.559 25.5111 13.6 25.3521 13.6H24.57C24.0045 13.6 23.5461 13.0926 23.5461 12.4666V12.0338C23.5461 11.6045 23.7653 11.2121 24.112 11.0201C24.7149 10.6864 25.4332 10.2889 26.0638 9.93983C26.767 9.55067 26.8276 8.46605 26.1736 7.98335L25.2684 7.31535C24.8622 7.0157 24.3216 7.07496 23.9766 7.45696L22.2225 9.3986C21.8227 9.8412 21.1745 9.84118 20.7746 9.3986L19.0207 7.45696Z" fill="#262626"/>
</g>
<defs>
<clipPath id="clip0_1385_22060">
<rect width="43" height="34" rx="4" fill="white"/>
</clipPath>
</defs>
</svg>
