<svg width="43" height="34" viewBox="0 0 43 34" fill="none" xmlns="http://www.w3.org/2000/svg">
<g clip-path="url(#clip0_1385_23933)">
<path fill-rule="evenodd" clip-rule="evenodd" d="M0 11.3333H43V-6.10352e-05H0V11.3333Z" fill="#88BBE8"/>
<path fill-rule="evenodd" clip-rule="evenodd" d="M0 22.6666H43V11.3333H0V22.6666Z" fill="white"/>
<path fill-rule="evenodd" clip-rule="evenodd" d="M0 34H43V22.6666H0V34Z" fill="#88BBE8"/>
<path d="M22.0018 20.9667C24.1926 20.9667 25.9684 19.1908 25.9684 17C25.9684 14.8093 24.1926 13.0334 22.0018 13.0334C19.811 13.0334 18.0352 14.8093 18.0352 17C18.0352 19.1908 19.811 20.9667 22.0018 20.9667Z" fill="#F4B32E"/>
<path fill-rule="evenodd" clip-rule="evenodd" d="M17.5352 17C17.5352 14.5332 19.5348 12.5334 22.0018 12.5334C24.4687 12.5334 26.4684 14.5332 26.4684 17C26.4684 19.467 24.4687 21.4667 22.0018 21.4667C19.5348 21.4667 17.5352 19.467 17.5352 17ZM22.0018 13.5334C20.0871 13.5334 18.5352 15.0855 18.5352 17C18.5352 18.9147 20.0871 20.4667 22.0018 20.4667C23.9164 20.4667 25.4684 18.9147 25.4684 17C25.4684 15.0855 23.9164 13.5334 22.0018 13.5334Z" fill="#DB7A2C"/>
</g>
<defs>
<clipPath id="clip0_1385_23933">
<rect width="43" height="34" rx="4" fill="white"/>
</clipPath>
</defs>
</svg>
