<svg width="43" height="34" viewBox="0 0 43 34" fill="none" xmlns="http://www.w3.org/2000/svg">
<g clip-path="url(#clip0_1385_22050)">
<path d="M43 0H0V34H43V0Z" fill="#1537D1"/>
<path d="M43.0004 0H20.4766V34H43.0004V0Z" fill="#EA3058"/>
<path fill-rule="evenodd" clip-rule="evenodd" d="M14.332 34H28.6654V0H14.332V34Z" fill="#FFCF3C"/>
<path fill-rule="evenodd" clip-rule="evenodd" d="M19.4531 14.7334H21.5007V15.8667H19.4531V14.7334Z" fill="#FFEDB1"/>
<path d="M19.0291 14.7805C19.0043 14.4501 19.2398 14.1667 19.5393 14.1667H23.4569C23.7564 14.1667 23.9918 14.4501 23.9669 14.7805L23.704 18.2746C23.6377 19.1557 22.9722 19.8335 22.1735 19.8335H20.8227C20.024 19.8335 19.3586 19.1557 19.2922 18.2746L19.0291 14.7805Z" stroke="#D32E28" stroke-width="0.666667"/>
<path fill-rule="evenodd" clip-rule="evenodd" d="M19.4531 15.8667H23.5483V17H22.5246H20.4768H19.4531V15.8667Z" fill="#D32E28"/>
</g>
<defs>
<clipPath id="clip0_1385_22050">
<rect width="43" height="34" rx="4" fill="white"/>
</clipPath>
</defs>
</svg>
