<svg width="43" height="34" viewBox="0 0 43 34" fill="none" xmlns="http://www.w3.org/2000/svg">
<g clip-path="url(#clip0_1385_23245)">
<path fill-rule="evenodd" clip-rule="evenodd" d="M0 34H43V19H0V34Z" fill="#262626"/>
<path fill-rule="evenodd" clip-rule="evenodd" d="M0 19H43V0H0V19Z" fill="#DD2137"/>
<path fill-rule="evenodd" clip-rule="evenodd" d="M24.7804 19.9089C25.1054 19.3171 25.3636 18.6729 25.5415 17.984C26.6589 13.6555 24.1839 9.20625 20.013 8.04641C19.318 7.85312 18.6034 8.28123 18.4173 9.00267C18.231 9.72409 18.6435 10.4656 19.3387 10.6589C22.1191 11.4322 23.7693 14.3983 23.0242 17.284C22.9218 17.6801 22.7797 18.0542 22.6036 18.4029L18.6014 15.6338C18.0026 15.2195 17.1936 15.3874 16.7944 16.0088C16.3951 16.6303 16.557 17.47 17.1558 17.8842L20.8251 20.4229C19.6301 21.2264 18.1243 21.5215 16.6406 21.1089C15.9454 20.9156 15.231 21.3438 15.0447 22.0652C14.8585 22.7867 15.2711 23.5281 15.9661 23.7214C18.5717 24.4462 21.2229 23.7153 23.118 22.0094L24.9741 23.2936C25.5728 23.7078 26.3818 23.5399 26.7811 22.9185C27.1802 22.297 27.0184 21.4574 26.4197 21.0432L24.7804 19.9089ZM17.8786 14.0543C18.5983 14.0543 19.1815 13.4489 19.1815 12.702C19.1815 11.9551 18.5983 11.3497 17.8786 11.3497C17.159 11.3497 16.5755 11.9551 16.5755 12.702C16.5755 13.4489 17.159 14.0543 17.8786 14.0543Z" fill="#F8D84B"/>
</g>
<defs>
<clipPath id="clip0_1385_23245">
<rect width="43" height="34" rx="4" fill="white"/>
</clipPath>
</defs>
</svg>
