<svg width="43" height="34" viewBox="0 0 43 34" fill="none" xmlns="http://www.w3.org/2000/svg">
<g clip-path="url(#clip0_1385_22901)">
<path d="M46 0H-2V34H46V0Z" fill="#E2243B"/>
<path fill-rule="evenodd" clip-rule="evenodd" d="M-2 0H46L22 34L-2 0Z" fill="#262626"/>
<mask id="mask0_1385_22901" style="mask-type:luminance" maskUnits="userSpaceOnUse" x="-2" y="0" width="48" height="34">
<path fill-rule="evenodd" clip-rule="evenodd" d="M-2 0H46L22 34L-2 0Z" fill="white"/>
</mask>
<g mask="url(#mask0_1385_22901)">
<path fill-rule="evenodd" clip-rule="evenodd" d="M21.5 18.8139L17.6732 23.0001L17.9645 17.3676L12.2612 17.6553L16.5 13.876L11.5 9.48671L17.9645 10.584L17.0555 4.00012L21.5 9.48671L25.9445 4.00012L25.0355 10.584L31.5 9.48671L26.5 13.876L30.7388 17.6553L25.0355 17.3676L25.3268 23.0001L21.5 18.8139Z" fill="#FFCF3C"/>
<path fill-rule="evenodd" clip-rule="evenodd" d="M0 23.0001H43V14.0001H0V23.0001Z" fill="#1984D8"/>
<path fill-rule="evenodd" clip-rule="evenodd" d="M0 34.0001H43V23.0001H0V34.0001Z" fill="white"/>
</g>
</g>
<defs>
<clipPath id="clip0_1385_22901">
<rect width="43" height="34" rx="4" fill="white"/>
</clipPath>
</defs>
</svg>
