<svg width="43" height="34" viewBox="0 0 43 34" fill="none" xmlns="http://www.w3.org/2000/svg">
<g clip-path="url(#clip0_1385_23784)">
<path d="M42.4 0.425049H1.6C-0.0430471 0.425049 -1.375 1.757 -1.375 3.40005V30.6C-1.375 32.2431 -0.0430471 33.5751 1.6 33.5751H42.4C44.043 33.5751 45.375 32.2431 45.375 30.6V3.40005C45.375 1.757 44.043 0.425049 42.4 0.425049Z" fill="white" stroke="white" stroke-width="0.85"/>
<path fill-rule="evenodd" clip-rule="evenodd" d="M0 11H44V0H0V11Z" fill="#88BBE8"/>
<path fill-rule="evenodd" clip-rule="evenodd" d="M0 34H43V23H0V34Z" fill="#88BBE8"/>
<path d="M21.9979 20.9667C24.1886 20.9667 25.9645 19.1909 25.9645 17.0001C25.9645 14.8094 24.1886 13.0334 21.9979 13.0334C19.8071 13.0334 18.0312 14.8094 18.0312 17.0001C18.0312 19.1909 19.8071 20.9667 21.9979 20.9667Z" fill="#F4B32E"/>
<path fill-rule="evenodd" clip-rule="evenodd" d="M17.4648 17.0001C17.4648 14.4964 19.4944 12.4668 21.9981 12.4668C24.5019 12.4668 26.5314 14.4964 26.5314 17.0001C26.5314 19.5038 24.5019 21.5334 21.9981 21.5334C19.4944 21.5334 17.4648 19.5038 17.4648 17.0001ZM21.9981 13.6001C20.1203 13.6001 18.5982 15.1223 18.5982 17.0001C18.5982 18.8779 20.1203 20.4 21.9981 20.4C23.8759 20.4 25.3981 18.8779 25.3981 17.0001C25.3981 15.1223 23.8759 13.6001 21.9981 13.6001Z" fill="#DB7A2C"/>
</g>
<defs>
<clipPath id="clip0_1385_23784">
<rect width="43" height="34" rx="4" fill="white"/>
</clipPath>
</defs>
</svg>
