<svg width="43" height="34" viewBox="0 0 43 34" fill="none" xmlns="http://www.w3.org/2000/svg">
<g clip-path="url(#clip0_1385_22916)">
<path d="M43 0H0V34H43V0Z" fill="#428ADE"/>
<path d="M9.98882 4.93679L9.50001 4L9.0112 4.93679L7.95702 6.95703L5.93678 8.01119L5 8.5L5.93678 8.98881L7.95702 10.043L9.0112 12.0632L9.50001 13L9.98882 12.0632L11.043 10.043L13.0632 8.98881L14 8.5L13.0632 8.01119L11.043 6.95703L9.98882 4.93679Z" fill="#D21034"/>
<path fill-rule="evenodd" clip-rule="evenodd" d="M9.49761 1.83838L11.7818 6.21586L16.1593 8.50003L11.7818 10.7842L9.49761 15.1617L7.21342 10.7842L2.83594 8.50003L7.21342 6.21586L9.49761 1.83838ZM7.95461 6.95706L4.99759 8.50003L7.95461 10.043L9.4976 13L11.0406 10.043L13.9976 8.50003L11.0406 6.95706L9.4976 4.00003L7.95461 6.95706Z" fill="white"/>
<path fill-rule="evenodd" clip-rule="evenodd" d="M0 21H43V23.3333H0V21ZM43 28H0V25.6667H43V28Z" fill="#F9D616"/>
</g>
<defs>
<clipPath id="clip0_1385_22916">
<rect width="43" height="34" rx="4" fill="white"/>
</clipPath>
</defs>
</svg>
