<svg width="43" height="34" viewBox="0 0 43 34" fill="none" xmlns="http://www.w3.org/2000/svg">
<g clip-path="url(#clip0_1385_23943)">
<path d="M43 6.10352e-05H0V34.0001H43V6.10352e-05Z" fill="#0A17A7"/>
<path d="M-1.99825 -0.566659H-3.54297L-2.37013 0.430253L5.43032 7.06063V8.77505L-2.33039 14.2722L-2.56968 14.4417V14.7333V15.8667V16.8891L-1.69539 16.3472L7.30849 10.7667H9.24719L16.9996 16.258C17.1606 16.372 17.3536 16.4333 17.5515 16.4333C18.4329 16.4333 18.8385 15.3459 18.1693 14.777L11.1446 8.80604V7.09163L18.6661 1.76396C18.9664 1.55121 19.1445 1.20773 19.1445 0.841723V7.27177e-06V-1.0224L18.2703 -0.480525L9.26644 5.10001H7.32774L-0.523257 -0.461107L-0.672271 -0.566659H-0.855392H-1.99825Z" fill="#FF2E3B" stroke="white" stroke-width="0.666667"/>
<path fill-rule="evenodd" clip-rule="evenodd" d="M-2 5.66666V10.2H6.00001V15.8667C6.00001 16.4926 6.51167 17 7.14285 17H9.42858C10.0598 17 10.5714 16.4926 10.5714 15.8667V10.2H18.5714C19.2026 10.2 19.7143 9.69258 19.7143 9.06666V6.8C19.7143 6.17408 19.2026 5.66666 18.5714 5.66666H10.5714V0H6.00001V5.66666H-2Z" fill="url(#paint0_linear_1385_23943)"/>
<path fill-rule="evenodd" clip-rule="evenodd" d="M-2 6.8H7.14285V5.66666V0H9.42858V5.66666V6.8H18.5714V9.06666H9.42858V10.2V15.8667H7.14285V10.2V9.06666H-2V6.8Z" fill="url(#paint1_linear_1385_23943)"/>
<path fill-rule="evenodd" clip-rule="evenodd" d="M8.2881 27.7666L6.27284 28.8174L6.65772 26.5919L5.02734 25.016L7.28046 24.6913L8.2881 22.6666L9.29574 24.6913L11.5489 25.016L9.91849 26.5919L10.3034 28.8174L8.2881 27.7666Z" fill="white"/>
<path fill-rule="evenodd" clip-rule="evenodd" d="M32.2881 29.4666L30.6719 29.9362L31.1454 28.3334L30.6719 26.7307L32.2881 27.2L33.9043 26.7307L33.431 28.3334L33.9043 29.9362L32.2881 29.4666Z" fill="white"/>
<path fill-rule="evenodd" clip-rule="evenodd" d="M32.2881 7.93336L30.6719 8.4028L31.1454 6.80004L30.6719 5.19727L32.2881 5.6667L33.9043 5.19727L33.431 6.80004L33.9043 8.4028L32.2881 7.93336Z" fill="white"/>
<path fill-rule="evenodd" clip-rule="evenodd" d="M39.1436 14.7334L37.5273 15.2028L38.0008 13.6L37.5273 11.9973L39.1436 12.4667L40.7598 11.9973L40.2865 13.6L40.7598 15.2028L39.1436 14.7334Z" fill="white"/>
<path fill-rule="evenodd" clip-rule="evenodd" d="M25.4287 17L23.8125 17.4694L24.286 15.8667L23.8125 14.2639L25.4287 14.7334L27.045 14.2639L26.5716 15.8667L27.045 17.4694L25.4287 17Z" fill="white"/>
<path fill-rule="evenodd" clip-rule="evenodd" d="M35.7144 19.8334L34.9062 20.068L35.1428 19.2666L34.9062 18.4652L35.7144 18.7L36.5225 18.4652L36.2857 19.2666L36.5225 20.068L35.7144 19.8334Z" fill="white"/>
</g>
<defs>
<linearGradient id="paint0_linear_1385_23943" x1="-2" y1="0" x2="-2" y2="17" gradientUnits="userSpaceOnUse">
<stop stop-color="white"/>
<stop offset="1" stop-color="#F0F0F0"/>
</linearGradient>
<linearGradient id="paint1_linear_1385_23943" x1="-2" y1="0" x2="-2" y2="15.8667" gradientUnits="userSpaceOnUse">
<stop stop-color="#FF2E3B"/>
<stop offset="1" stop-color="#FC0D1B"/>
</linearGradient>
<clipPath id="clip0_1385_23943">
<rect width="43" height="34" rx="4" fill="white"/>
</clipPath>
</defs>
</svg>
