<svg width="43" height="34" viewBox="0 0 43 34" fill="none" xmlns="http://www.w3.org/2000/svg">
<g clip-path="url(#clip0_1385_22925)">
<path fill-rule="evenodd" clip-rule="evenodd" d="M0 34H14.3333V0H0V34Z" fill="#08379D"/>
<path fill-rule="evenodd" clip-rule="evenodd" d="M28.6641 34H14.3307V0H28.6641V34Z" fill="#FFCC50"/>
<path d="M42.9974 0H28.6641V34H42.9974V0Z" fill="#08379D"/>
<path fill-rule="evenodd" clip-rule="evenodd" d="M21.0991 11.2264C21.306 10.9211 21.7559 10.9253 21.9571 11.2344L23.0341 12.8883C23.2581 13.2324 23.012 13.6885 22.6024 13.6885H22.5781C22.2729 13.6885 22.0346 13.9528 22.065 14.2573L22.4774 18.3958C22.5038 18.6602 22.7257 18.8615 22.9905 18.8615H23.3432C23.479 18.8615 23.6093 18.8078 23.7058 18.7121L24.4335 17.99C24.5314 17.8928 24.5865 17.7603 24.5865 17.6222V15.972C24.5865 15.8348 24.5322 15.7032 24.4355 15.6062L24.1451 15.315C23.8741 15.0431 23.983 14.58 24.3467 14.4584L25.8209 13.9654C26.1933 13.8409 26.562 14.1626 26.4912 14.5497L25.7307 18.6976C25.7112 18.8042 25.6588 18.902 25.581 18.977L23.7049 20.7863C23.6088 20.879 23.4807 20.9308 23.3475 20.9308H23.0395C22.7547 20.9308 22.5239 21.1624 22.5239 21.4481V22.4827C22.5239 22.7685 22.293 23 22.0082 23H20.977C20.6922 23 20.4613 22.7685 20.4613 22.4827V21.4481C20.4613 21.1624 20.2305 20.9308 19.9457 20.9308H19.6435C19.5068 20.9308 19.3756 20.8762 19.2789 20.7792L17.4778 18.9723C17.4059 18.9002 17.3567 18.8081 17.3368 18.708L16.5104 14.5626C16.4327 14.1731 16.8035 13.8448 17.1791 13.9704L18.6385 14.4584C19.0022 14.58 19.1111 15.0431 18.8401 15.315L18.5497 15.6062C18.453 15.7032 18.3987 15.8348 18.3987 15.972V17.6222C18.3987 17.7603 18.4538 17.8928 18.5517 17.99L19.2794 18.7121C19.3759 18.8078 19.5062 18.8615 19.642 18.8615H19.9947C20.2595 18.8615 20.4814 18.6602 20.5077 18.3958L20.9202 14.2573C20.9506 13.9528 20.7111 13.6885 20.406 13.6885C19.9921 13.6885 19.745 13.2237 19.9778 12.8803L21.0991 11.2264Z" fill="#262626"/>
</g>
<defs>
<clipPath id="clip0_1385_22925">
<rect width="43" height="34" rx="4" fill="white"/>
</clipPath>
</defs>
</svg>
