<svg width="43" height="34" viewBox="0 0 43 34" fill="none" xmlns="http://www.w3.org/2000/svg">
<g clip-path="url(#clip0_1013_3171)">
<path fill-rule="evenodd" clip-rule="evenodd" d="M-1 22.6666H43V0H-1V22.6666Z" fill="#E54252"/>
<path fill-rule="evenodd" clip-rule="evenodd" d="M-1 33.9999H43V22.6665H-1V33.9999Z" fill="#5CBE6B"/>
<path fill-rule="evenodd" clip-rule="evenodd" d="M1 0H7.28571V5.1L6.23809 6.8L7.28571 8.5V11.9L6.23809 13.6L7.28571 15.3V18.7L6.23809 20.4L7.28571 22.1V25.5L6.23809 27.2L7.28571 28.9V34H1V0Z" fill="white"/>
<path fill-rule="evenodd" clip-rule="evenodd" d="M-2.04734 3.3999L-4.14258 6.7999L-2.04734 10.1999L-4.14258 13.5999L-2.04734 16.9999L-4.14258 20.3999L-2.04734 23.7999L-4.14258 27.1999L-2.04734 30.5999L0.0478983 27.1999L-2.04734 23.7999L0.0478983 20.3999L-2.04734 16.9999L0.0478983 13.5999L-2.04734 10.1999L0.0478983 6.7999L-2.04734 3.3999Z" fill="#E54252"/>
<path fill-rule="evenodd" clip-rule="evenodd" d="M2.04883 3.4L4.14407 0L6.2393 3.4L4.14407 6.8L2.04883 3.4ZM4.14407 13.6L2.04883 10.2L4.14407 6.8L6.2393 10.2L4.14407 13.6ZM4.14407 20.4L2.04883 17L4.14407 13.6L6.2393 17L4.14407 20.4ZM4.14407 27.2L6.2393 23.8L4.14407 20.4L2.04883 23.8L4.14407 27.2ZM4.14407 27.2L6.2393 30.6L4.14407 34L2.04883 30.6L4.14407 27.2Z" fill="#E54252"/>
</g>
<rect x="0.5" y="0.5" width="42" height="33" rx="3.5" stroke="#C9CFDB"/>
<defs>
<clipPath id="clip0_1013_3171">
<rect width="43" height="34" rx="4" fill="white"/>
</clipPath>
</defs>
</svg>
