<svg width="43" height="34" viewBox="0 0 43 34" fill="none" xmlns="http://www.w3.org/2000/svg">
<g clip-path="url(#clip0_1385_22965)">
<path d="M43 0H0V5H43V0Z" fill="#D5182F"/>
<path d="M43 29H0V34H43V29Z" fill="#D5182F"/>
<path d="M43 29H0V5H43V29Z" fill="#094995"/>
<path fill-rule="evenodd" clip-rule="evenodd" d="M21 27C26.5228 27 31 22.5228 31 17C31 11.4771 26.5228 7 21 7C15.4772 7 11 11.4771 11 17C11 22.5228 15.4772 27 21 27Z" fill="white"/>
<path fill-rule="evenodd" clip-rule="evenodd" d="M20.9987 10.6667C20.8938 10.6667 20.7896 10.6692 20.6861 10.6743C20.3184 10.6921 20.0058 10.4085 19.9879 10.0407C19.9701 9.67294 20.2537 9.36035 20.6215 9.34251C20.7465 9.33644 20.8723 9.33337 20.9987 9.33337C21.1251 9.33337 21.2509 9.33644 21.3759 9.34251C21.7437 9.36035 22.0273 9.67294 22.0095 10.0407C21.9916 10.4085 21.679 10.6921 21.3113 10.6743C21.2078 10.6692 21.1036 10.6667 20.9987 10.6667ZM22.7287 10.1825C22.8527 9.83585 23.2343 9.65532 23.581 9.77932C23.8193 9.86457 24.0522 9.96128 24.279 10.0688C24.6117 10.2265 24.7535 10.624 24.5958 10.9567C24.4381 11.2894 24.0406 11.4313 23.7079 11.2736C23.5207 11.1849 23.3286 11.1051 23.1319 11.0348C22.7853 10.9108 22.6047 10.5292 22.7287 10.1825ZM19.2687 10.1825C19.3927 10.5292 19.2121 10.9108 18.8655 11.0348C18.6688 11.1051 18.4767 11.1849 18.2895 11.2736C17.9568 11.4313 17.5593 11.2894 17.4016 10.9567C17.2439 10.624 17.3857 10.2265 17.7184 10.0688C17.9452 9.96128 18.1781 9.86458 18.4164 9.77932C18.7631 9.65532 19.1447 9.83585 19.2687 10.1825ZM25.2047 11.3647C25.452 11.0919 25.8736 11.0713 26.1464 11.3185C26.3329 11.4876 26.5111 11.6658 26.6802 11.8523C26.9275 12.1251 26.9068 12.5467 26.634 12.794C26.3613 13.0413 25.9397 13.0206 25.6924 12.7479C25.5525 12.5936 25.4052 12.4462 25.2509 12.3064C24.9781 12.0591 24.9574 11.6375 25.2047 11.3647ZM16.7927 11.3647C17.04 11.6375 17.0193 12.0591 16.7465 12.3064C16.5922 12.4462 16.4449 12.5936 16.305 12.7479C16.0577 13.0206 15.6361 13.0413 15.3634 12.794C15.0906 12.5467 15.0699 12.1251 15.3172 11.8523C15.4863 11.6658 15.6645 11.4876 15.851 11.3185C16.1238 11.0713 16.5454 11.0919 16.7927 11.3647ZM27.042 13.4029C27.3747 13.2452 27.7723 13.3871 27.93 13.7198C28.0375 13.9465 28.1342 14.1794 28.2194 14.4178C28.3434 14.7645 28.1629 15.146 27.8162 15.27C27.4695 15.394 27.088 15.2135 26.964 14.8668C26.8936 14.6702 26.8139 14.478 26.7251 14.2909C26.5674 13.9582 26.7093 13.5606 27.042 13.4029ZM14.9554 13.4029C15.2881 13.5606 15.43 13.9582 15.2722 14.2909C15.1835 14.478 15.1037 14.6702 15.0334 14.8668C14.9094 15.2135 14.5279 15.394 14.1812 15.27C13.8345 15.146 13.654 14.7645 13.778 14.4178C13.8632 14.1794 13.9599 13.9465 14.0674 13.7198C14.2251 13.3871 14.6227 13.2452 14.9554 13.4029ZM27.958 15.9893C28.3258 15.9714 28.6384 16.2551 28.6562 16.6228C28.6623 16.7479 28.6654 16.8736 28.6654 17C28.6654 17.1265 28.6623 17.2522 28.6562 17.3772C28.6384 17.745 28.3258 18.0287 27.958 18.0108C27.5903 17.993 27.3066 17.6804 27.3245 17.3126C27.3295 17.2091 27.332 17.1049 27.332 17C27.332 16.8952 27.3295 16.791 27.3245 16.6875C27.3066 16.3197 27.5903 16.0071 27.958 15.9893ZM14.0394 15.9893C14.4071 16.0071 14.6908 16.3197 14.6729 16.6875C14.6679 16.791 14.6654 16.8952 14.6654 17C14.6654 17.1049 14.6679 17.2091 14.6729 17.3126C14.6908 17.6804 14.4071 17.993 14.0394 18.0108C13.6716 18.0287 13.359 17.745 13.3412 17.3772C13.3351 17.2522 13.332 17.1265 13.332 17C13.332 16.8736 13.3351 16.7479 13.3412 16.6228C13.359 16.2551 13.6716 15.9714 14.0394 15.9893ZM14.1812 18.7301C14.5279 18.6061 14.9094 18.7866 15.0334 19.1333C15.1038 19.3299 15.1835 19.522 15.2723 19.7092C15.43 20.0419 15.2881 20.4395 14.9554 20.5972C14.6227 20.7549 14.2251 20.613 14.0674 20.2803C13.9599 20.0536 13.8632 19.8207 13.778 19.5823C13.654 19.2356 13.8345 18.8541 14.1812 18.7301ZM27.8162 18.7301C28.1629 18.8541 28.3434 19.2356 28.2194 19.5823C28.1342 19.8207 28.0374 20.0536 27.93 20.2803C27.7722 20.613 27.3747 20.7549 27.042 20.5972C26.7093 20.4395 26.5674 20.0419 26.7251 19.7092C26.8139 19.522 26.8936 19.3299 26.964 19.1333C27.088 18.7866 27.4695 18.6061 27.8162 18.7301ZM15.3634 21.2061C15.6362 20.9588 16.0578 20.9794 16.305 21.2522C16.4449 21.4065 16.5923 21.5538 16.7465 21.6937C17.0193 21.941 17.04 22.3626 16.7927 22.6354C16.5454 22.9081 16.1238 22.9288 15.851 22.6815C15.6645 22.5124 15.4863 22.3343 15.3172 22.1477C15.0699 21.875 15.0906 21.4534 15.3634 21.2061ZM26.634 21.2061C26.9068 21.4534 26.9275 21.875 26.6802 22.1477C26.5111 22.3343 26.3329 22.5124 26.1464 22.6815C25.8736 22.9288 25.452 22.9081 25.2047 22.6354C24.9574 22.3626 24.9781 21.941 25.2509 21.6937C25.4051 21.5538 25.5525 21.4065 25.6923 21.2522C25.9396 20.9794 26.3612 20.9588 26.634 21.2061ZM17.4016 23.0433C17.5593 22.7106 17.9568 22.5688 18.2895 22.7265C18.4767 22.8152 18.6688 22.895 18.8655 22.9653C19.2121 23.0893 19.3927 23.4709 19.2687 23.8175C19.1447 24.1642 18.7631 24.3447 18.4164 24.2208C18.1781 24.1355 17.9452 24.0388 17.7184 23.9313C17.3857 23.7736 17.2439 23.376 17.4016 23.0433ZM24.5958 23.0433C24.7535 23.376 24.6117 23.7736 24.279 23.9313C24.0522 24.0388 23.8193 24.1355 23.581 24.2208C23.2343 24.3447 22.8527 24.1642 22.7287 23.8175C22.6047 23.4709 22.7852 23.0893 23.1319 22.9653C23.3285 22.895 23.5207 22.8152 23.7078 22.7265C24.0406 22.5688 24.4381 22.7106 24.5958 23.0433ZM19.9879 23.9594C20.0058 23.5916 20.3184 23.308 20.6861 23.3258C20.7896 23.3308 20.8938 23.3334 20.9987 23.3334C21.1036 23.3334 21.2078 23.3308 21.3113 23.3258C21.679 23.308 21.9916 23.5916 22.0095 23.9594C22.0273 24.3271 21.7437 24.6397 21.3759 24.6576C21.2509 24.6636 21.1251 24.6667 20.9987 24.6667C20.8723 24.6667 20.7465 24.6636 20.6215 24.6576C20.2537 24.6397 19.9701 24.3271 19.9879 23.9594Z" fill="#118014"/>
</g>
<defs>
<clipPath id="clip0_1385_22965">
<rect width="43" height="34" rx="4" fill="white"/>
</clipPath>
</defs>
</svg>
