<svg width="43" height="34" viewBox="0 0 43 34" fill="none" xmlns="http://www.w3.org/2000/svg">
<g clip-path="url(#clip0_1385_22934)">
<path d="M43 0H0V34H43V0Z" fill="#DC1F37"/>
<path fill-rule="evenodd" clip-rule="evenodd" d="M28 18.0002C28 14.6002 28 12.3335 28 12.3335H32.5713H37.1428C37.1428 12.3335 37.1428 14.6002 37.1428 18.0002C37.1428 21.4002 32.5713 23.6668 32.5713 23.6668C32.5713 23.6668 28 21.4002 28 18.0002Z" fill="white"/>
<mask id="mask0_1385_22934" style="mask-type:luminance" maskUnits="userSpaceOnUse" x="28" y="12" width="10" height="12">
<path fill-rule="evenodd" clip-rule="evenodd" d="M28 18.0002C28 14.6002 28 12.3335 28 12.3335H32.5713H37.1428C37.1428 12.3335 37.1428 14.6002 37.1428 18.0002C37.1428 21.4002 32.5713 23.6668 32.5713 23.6668C32.5713 23.6668 28 21.4002 28 18.0002Z" fill="white"/>
</mask>
<g mask="url(#mask0_1385_22934)">
<path fill-rule="evenodd" clip-rule="evenodd" d="M32.5749 21.4001C33.8373 21.4001 34.8605 20.3854 34.8605 19.1335C34.8605 17.8817 33.8373 16.8668 32.5749 16.8668C31.3125 16.8668 30.2891 17.8817 30.2891 19.1335C30.2891 20.3854 31.3125 21.4001 32.5749 21.4001Z" fill="#65B5D2"/>
<path fill-rule="evenodd" clip-rule="evenodd" d="M32.5692 16.8668C33.2004 16.8668 33.7121 16.3594 33.7121 15.7334C33.7121 15.1075 33.2004 14.6001 32.5692 14.6001C31.938 14.6001 31.4263 15.1075 31.4263 15.7334C31.4263 16.3594 31.938 16.8668 32.5692 16.8668ZM30.2835 19.1335C30.9147 19.1335 31.4263 18.626 31.4263 18.0001C31.4263 17.3742 30.9147 16.8668 30.2835 16.8668C29.6523 16.8668 29.1406 17.3742 29.1406 18.0001C29.1406 18.626 29.6523 19.1335 30.2835 19.1335ZM35.9978 18.0001C35.9978 18.626 35.4861 19.1335 34.8549 19.1335C34.2237 19.1335 33.7121 18.626 33.7121 18.0001C33.7121 17.3742 34.2237 16.8668 34.8549 16.8668C35.4861 16.8668 35.9978 17.3742 35.9978 18.0001Z" fill="url(#paint0_linear_1385_22934)"/>
<path d="M37.1429 21.4001H28V23.6668H37.1429V21.4001Z" fill="#2F8F22"/>
</g>
<g clip-path="url(#clip1_1385_22934)">
<path d="M23.5347 0H-1.02344V17H23.5347V0Z" fill="#0A17A7"/>
<path fill-rule="evenodd" clip-rule="evenodd" d="M-2.14525 -1.62891L8.33509 5.22191V-1.13326H14.1822V5.22191L24.6626 -1.62891L25.9705 0.250243L17.6844 5.66674H23.5377V11.3334H17.6844L25.9705 16.7499L24.6626 18.6291L14.1822 11.7783V18.1334H8.33509V11.7783L-2.14525 18.6291L-3.45312 16.7499L4.83296 11.3334H-1.02042V5.66674H4.83296L-3.45312 0.250243L-2.14525 -1.62891Z" fill="white"/>
<path fill-rule="evenodd" clip-rule="evenodd" d="M26.7823 -1.90481C26.8981 -1.73135 26.8481 -1.499 26.6706 -1.38584L15.5622 5.69653C15.3847 5.80969 15.1469 5.76081 15.0311 5.58735C14.9153 5.41389 14.9654 5.18154 15.1429 5.06838L26.2513 -2.01398C26.4288 -2.12714 26.6665 -2.07826 26.7823 -1.90481Z" fill="#DB1F35"/>
<path fill-rule="evenodd" clip-rule="evenodd" d="M16.2132 11.4345C16.3309 11.2623 16.5692 11.216 16.7454 11.3311L26.7036 17.836C26.8798 17.9511 26.9271 18.1839 26.8094 18.3561C26.6916 18.5283 26.4533 18.5746 26.2771 18.4595L16.319 11.9546C16.1428 11.8395 16.0954 11.6067 16.2132 11.4345Z" fill="#DB1F35"/>
<path fill-rule="evenodd" clip-rule="evenodd" d="M-4.70871 -1.62874C-4.59095 -1.80093 -4.35266 -1.84723 -4.17646 -1.73215L6.21076 5.05208C6.38696 5.16716 6.43433 5.40004 6.31658 5.57223C6.19882 5.74442 5.96053 5.79072 5.78433 5.67564L-4.60289 -1.10859C-4.77909 -1.22367 -4.82646 -1.45655 -4.70871 -1.62874Z" fill="#DB1F35"/>
<path fill-rule="evenodd" clip-rule="evenodd" d="M7.44477 11.3582C7.56121 11.5312 7.51207 11.7638 7.335 11.8776L-4.17883 19.2773C-4.3559 19.3911 -4.59384 19.3431 -4.71028 19.1701C-4.82672 18.997 -4.77758 18.7645 -4.60051 18.6507L6.91332 11.2509C7.09039 11.1371 7.32833 11.1852 7.44477 11.3582Z" fill="#DB1F35"/>
<path fill-rule="evenodd" clip-rule="evenodd" d="M-1.02344 10.2H9.50148V17H13.0098V10.2H23.5347V6.8H13.0098V0H9.50148V6.8H-1.02344V10.2Z" fill="#E6273E"/>
</g>
</g>
<defs>
<linearGradient id="paint0_linear_1385_22934" x1="29.1406" y1="14.6001" x2="29.1406" y2="19.1335" gradientUnits="userSpaceOnUse">
<stop stop-color="#E20B0C"/>
<stop offset="1" stop-color="#D40001"/>
</linearGradient>
<clipPath id="clip0_1385_22934">
<rect width="43" height="34" rx="4" fill="white"/>
</clipPath>
<clipPath id="clip1_1385_22934">
<rect width="22" height="17" fill="white"/>
</clipPath>
</defs>
</svg>
