<svg width="43" height="34" viewBox="0 0 43 34" fill="none" xmlns="http://www.w3.org/2000/svg">
<g clip-path="url(#clip0_1385_22073)">
<path d="M46 0H-3V34H46V0Z" fill="#0B36B2"/>
<path fill-rule="evenodd" clip-rule="evenodd" d="M36.6641 34V0H12.1641L36.6641 34Z" fill="#FFD045"/>
<path fill-rule="evenodd" clip-rule="evenodd" d="M27.3296 31.7335L25.6797 32.2028L26.163 30.6001L25.6797 28.9973L27.3296 29.4667L28.9795 28.9973L28.4963 30.6001L28.9795 32.2028L27.3296 31.7335Z" fill="white"/>
<path fill-rule="evenodd" clip-rule="evenodd" d="M22.6655 24.9334L21.0156 25.4028L21.499 23.8L21.0156 22.1973L22.6655 22.6666L24.3156 22.1973L23.8322 23.8L24.3156 25.4028L22.6655 24.9334Z" fill="white"/>
<path fill-rule="evenodd" clip-rule="evenodd" d="M18.0015 18.1334L16.3516 18.6027L16.8349 17L16.3516 15.3972L18.0015 15.8667L19.6514 15.3972L19.1682 17L19.6514 18.6027L18.0015 18.1334Z" fill="white"/>
<path fill-rule="evenodd" clip-rule="evenodd" d="M13.3296 11.3333L11.6797 11.8027L12.1629 10.1999L11.6797 8.59717L13.3296 9.06661L14.9795 8.59717L14.4963 10.1999L14.9795 11.8027L13.3296 11.3333Z" fill="white"/>
<path fill-rule="evenodd" clip-rule="evenodd" d="M8.66554 4.53322L7.01562 5.00266L7.49887 3.3999L7.01562 1.79712L8.66554 2.26656L10.3155 1.79712L9.8322 3.3999L10.3155 5.00266L8.66554 4.53322Z" fill="white"/>
</g>
<defs>
<clipPath id="clip0_1385_22073">
<rect width="43" height="34" rx="4" fill="white"/>
</clipPath>
</defs>
</svg>
