<svg width="43" height="34" viewBox="0 0 43 34" fill="none" xmlns="http://www.w3.org/2000/svg">
<g clip-path="url(#clip0_1385_23260)">
<path d="M26 22H18L0 34H44L26 22Z" fill="#E4233B"/>
<path d="M17 20.0909L17 13.9091L1.90735e-06 -7.43094e-07L4.21161e-07 34L17 20.0909Z" fill="#34CD4E"/>
<path d="M26 20.0909L26 13.9091L43 -7.43094e-07L43 34L26 20.0909Z" fill="#34CD4E"/>
<path d="M26 12H18L0 0H44L26 12Z" fill="#E4233B"/>
<path fill-rule="evenodd" clip-rule="evenodd" d="M26.7679 11.25C25.4709 10.1936 23.8102 9.55928 22 9.55928C20.1897 9.55928 18.529 10.1936 17.232 11.25L-2.5997 -2L-5 1.52491L14.8301 14.7739C14.6079 15.4768 14.4882 16.2245 14.4882 17C14.4882 17.7753 14.6079 18.5231 14.8301 19.2259L-5 32.475L-2.5997 36L17.232 22.75C18.529 23.8063 20.1897 24.4407 22 24.4407C23.8102 24.4407 25.4709 23.8063 26.7679 22.75L46.5997 36L49 32.475L29.1697 19.2259C29.392 18.5231 29.5118 17.7753 29.5118 17C29.5118 16.2245 29.392 15.4768 29.1697 14.7739L49 1.52491L46.5997 -2L26.7679 11.25Z" fill="white"/>
<path fill-rule="evenodd" clip-rule="evenodd" d="M21.7557 14.9912L20.1395 15.4607L20.6128 13.8579L20.1395 12.2551L21.7557 12.7246L23.372 12.2551L22.8987 13.8579L23.372 15.4607L21.7557 14.9912ZM18.3272 20.6579L16.7109 21.1273L17.1843 19.5245L16.7109 17.9218L18.3272 18.3913L19.9434 17.9218L19.4701 19.5245L19.9434 21.1273L18.3272 20.6579ZM23.5681 21.1273L25.1843 20.6579L26.8005 21.1273L26.3272 19.5245L26.8005 17.9218L25.1843 18.3913L23.5681 17.9218L24.0414 19.5245L23.5681 21.1273Z" fill="#DF2239"/>
</g>
<defs>
<clipPath id="clip0_1385_23260">
<rect width="43" height="34" rx="4" fill="white"/>
</clipPath>
</defs>
</svg>
