<svg width="43" height="34" viewBox="0 0 43 34" fill="none" xmlns="http://www.w3.org/2000/svg">
<g clip-path="url(#clip0_1385_22619)">
<path d="M43 0H0V8H43V0Z" fill="#0F3EB6"/>
<path d="M43 8H0V26H43V8Z" fill="#ED1A3C"/>
<path fill-rule="evenodd" clip-rule="evenodd" d="M17.5624 13.7878H20.1875V12.3333C20.1875 11.597 20.775 11 21.4999 11C22.2248 11 22.8125 11.597 22.8125 12.3333V13.7878H25.4374V16.3333H17.5624V13.7878ZM28.0625 12.3333C27.3376 12.3333 26.75 12.9303 26.75 13.6667V16.3333H29.3749V13.6667C29.3749 12.9303 28.7872 12.3333 28.0625 12.3333ZM16.2501 23V17.6666H13.6249L11 23H16.2501ZM25.4374 17.6666H17.5624V23H25.4374V17.6666ZM26.75 17.6666H29.3749L32 23H26.75V17.6666ZM14.9375 12.3333C14.2126 12.3333 13.6249 12.9303 13.6249 13.6667V16.3333H16.2501V13.6667C16.2501 12.9303 15.6624 12.3333 14.9375 12.3333Z" fill="white"/>
<path d="M43 26H0V34H43V26Z" fill="#0F3EB6"/>
</g>
<defs>
<clipPath id="clip0_1385_22619">
<rect width="43" height="34" rx="4" fill="white"/>
</clipPath>
</defs>
</svg>
