<svg width="43" height="34" viewBox="0 0 43 34" fill="none" xmlns="http://www.w3.org/2000/svg">
<g clip-path="url(#clip0_1385_22974)">
<path fill-rule="evenodd" clip-rule="evenodd" d="M0 34H11V0H0V34Z" fill="#FF3131"/>
<path fill-rule="evenodd" clip-rule="evenodd" d="M32 34H11V0H32V34Z" fill="white"/>
<path d="M43 0H32V34H43V0Z" fill="#FF3131"/>
<path fill-rule="evenodd" clip-rule="evenodd" d="M25.3464 15.0821C24.9217 15.5068 24.204 15.1227 24.3219 14.5337L25.1428 10.4286L22.7143 11.6428L21.5 8L20.2856 11.6428L17.8571 10.4286L18.6782 14.5337C18.7959 15.1227 18.0782 15.5068 17.6535 15.0821L17.0721 14.5007C16.8351 14.2636 16.4506 14.2636 16.2135 14.5007L15.4286 15.2857L13 14.0714L14.2143 16.5L13.4293 17.285C13.1922 17.522 13.1922 17.9065 13.4293 18.1436L16.6428 21.3572H20.2856L20.8929 25H22.107L22.7143 21.3572H26.3572L29.5707 18.1436C29.8077 17.9065 29.8077 17.522 29.5707 17.285L28.7857 16.5L30 14.0714L27.5713 15.2857L26.7865 14.5007C26.5493 14.2636 26.1648 14.2636 25.9278 14.5007L25.3464 15.0821Z" fill="#FF3131"/>
</g>
<defs>
<clipPath id="clip0_1385_22974">
<rect width="43" height="34" rx="4" fill="white"/>
</clipPath>
</defs>
</svg>
