<svg width="43" height="34" viewBox="0 0 43 34" fill="none" xmlns="http://www.w3.org/2000/svg">
<g clip-path="url(#clip0_1385_23324)">
<path d="M43 0H0V34H43V0Z" fill="#0C49AE"/>
<path fill-rule="evenodd" clip-rule="evenodd" d="M0 23H43V25H0V23Z" fill="white"/>
<path fill-rule="evenodd" clip-rule="evenodd" d="M0 21H43V23H0V21Z" fill="#CD232E"/>
<path fill-rule="evenodd" clip-rule="evenodd" d="M0 19H43V21H0V19Z" fill="white"/>
<path fill-rule="evenodd" clip-rule="evenodd" d="M14 15.3913C13.8906 15.3913 13.7818 15.394 13.6738 15.3992C13.2901 15.4178 12.9639 15.1218 12.9453 14.7381C12.9267 14.3543 13.2227 14.0281 13.6064 14.0095C13.7369 14.0032 13.8681 14 14 14C14.1319 14 14.2632 14.0032 14.3936 14.0095C14.7774 14.0281 15.0734 14.3543 15.0547 14.7381C15.0361 15.1218 14.7099 15.4178 14.3262 15.3992C14.2182 15.394 14.1094 15.3913 14 15.3913ZM12.1948 14.8861C12.3241 15.2478 12.1358 15.646 11.774 15.7754C11.5688 15.8487 11.3683 15.932 11.173 16.0246C10.8259 16.1891 10.411 16.0411 10.2465 15.6939C10.0819 15.3468 10.2299 14.9319 10.5771 14.7674C10.8137 14.6552 11.0567 14.5543 11.3055 14.4653C11.6672 14.3359 12.0654 14.5243 12.1948 14.8861ZM15.8053 14.8861C15.9346 14.5243 16.3328 14.3359 16.6945 14.4653C16.9433 14.5543 17.1863 14.6552 17.4229 14.7674C17.7701 14.9319 17.9181 15.3468 17.7535 15.6939C17.589 16.0411 17.1741 16.1891 16.827 16.0246C16.6317 15.932 16.4312 15.8487 16.226 15.7754C15.8643 15.646 15.6759 15.2478 15.8053 14.8861ZM9.61106 16.1196C9.86911 16.4043 9.84754 16.8442 9.5629 17.1023C9.40193 17.2482 9.24817 17.4019 9.10224 17.5629C8.84419 17.8476 8.40426 17.8691 8.11962 17.6111C7.83497 17.353 7.81341 16.9131 8.07145 16.6285C8.2479 16.4338 8.43381 16.2479 8.62844 16.0715C8.91309 15.8134 9.35302 15.835 9.61106 16.1196ZM18.3889 16.1196C18.647 15.835 19.0869 15.8134 19.3716 16.0715C19.5662 16.2479 19.7521 16.4338 19.9285 16.6285C20.1866 16.9131 20.165 17.3531 19.8804 17.6111C19.5957 17.8691 19.1558 17.8476 18.8978 17.5629C18.7518 17.402 18.5981 17.2482 18.4371 17.1023C18.1524 16.8442 18.1309 16.4043 18.3889 16.1196ZM7.69391 18.2465C8.04108 18.411 8.18911 18.8259 8.02455 19.1731C7.93199 19.3683 7.84873 19.5688 7.77535 19.774C7.64597 20.1358 7.24783 20.3242 6.88607 20.1948C6.52431 20.0654 6.33593 19.6673 6.46531 19.3055C6.55427 19.0568 6.65518 18.8137 6.76734 18.5771C6.9319 18.2299 7.34674 18.0819 7.69391 18.2465ZM20.3061 18.2465C20.6532 18.0819 21.0681 18.23 21.2327 18.5771C21.3448 18.8137 21.4457 19.0568 21.5347 19.3055C21.6641 19.6673 21.4757 20.0654 21.1139 20.1948C20.7522 20.3242 20.354 20.1358 20.2246 19.774C20.1513 19.5689 20.068 19.3683 19.9754 19.1731C19.8109 18.8259 19.9589 18.4111 20.3061 18.2465ZM6.73807 20.9453C7.12182 20.9639 7.41781 21.2901 7.39919 21.6739C7.39395 21.7819 7.3913 21.8906 7.3913 22C7.3913 22.1095 7.39395 22.2182 7.3992 22.3262C7.41781 22.71 7.12182 23.0361 6.73808 23.0548C6.35433 23.0734 6.02815 22.7774 6.00953 22.3936C6.0032 22.2632 6 22.132 6 22C6 21.8681 6.0032 21.7369 6.00953 21.6064C6.02815 21.2227 6.35433 20.9267 6.73807 20.9453ZM21.2619 20.9453C21.6457 20.9267 21.9719 21.2227 21.9905 21.6064C21.9968 21.7369 22 21.8681 22 22C22 22.132 21.9968 22.2632 21.9905 22.3936C21.9719 22.7774 21.6457 23.0734 21.2619 23.0548C20.8782 23.0361 20.5822 22.71 20.6008 22.3262C20.606 22.2182 20.6087 22.1095 20.6087 22C20.6087 21.8906 20.606 21.7819 20.6008 21.6739C20.5822 21.2901 20.8782 20.9639 21.2619 20.9453ZM21.1139 23.8053C21.4757 23.9347 21.664 24.3328 21.5347 24.6946C21.4457 24.9433 21.3448 25.1863 21.2326 25.4229C21.0681 25.7701 20.6532 25.9181 20.306 25.7535C19.9589 25.589 19.8109 25.1741 19.9754 24.827C20.068 24.6317 20.1512 24.4312 20.2246 24.226C20.354 23.8643 20.7522 23.6759 21.1139 23.8053ZM6.88608 23.8053C7.24783 23.6759 7.64598 23.8643 7.77537 24.226C7.84875 24.4312 7.93201 24.6317 8.02458 24.827C8.18914 25.1741 8.04112 25.589 7.69395 25.7536C7.34678 25.9181 6.93194 25.7701 6.76737 25.4229C6.65521 25.1863 6.5543 24.9433 6.46534 24.6946C6.33595 24.3328 6.52432 23.9347 6.88608 23.8053ZM19.8803 26.3889C20.165 26.647 20.1865 27.0869 19.9285 27.3715C19.752 27.5662 19.5661 27.7521 19.3715 27.9285C19.0869 28.1866 18.6469 28.165 18.3889 27.8804C18.1308 27.5957 18.1524 27.1558 18.4371 26.8977C18.598 26.7518 18.7518 26.598 18.8977 26.4371C19.1558 26.1524 19.5957 26.1309 19.8803 26.3889ZM8.11965 26.3889C8.40429 26.1309 8.84423 26.1524 9.10227 26.4371C9.24821 26.5981 9.40196 26.7518 9.56294 26.8978C9.84758 27.1558 9.86915 27.5957 9.61111 27.8804C9.35306 28.165 8.91313 28.1866 8.62849 27.9285C8.43385 27.7521 8.24795 27.5662 8.0715 27.3716C7.81345 27.0869 7.83501 26.647 8.11965 26.3889ZM17.7535 28.3061C17.9181 28.6532 17.7701 29.0681 17.4229 29.2326C17.1863 29.3448 16.9433 29.4457 16.6945 29.5347C16.3328 29.664 15.9346 29.4757 15.8052 29.1139C15.6759 28.7522 15.8642 28.354 16.226 28.2246C16.4312 28.1513 16.6317 28.068 16.8269 27.9754C17.1741 27.8109 17.589 27.9589 17.7535 28.3061ZM10.2465 28.3061C10.411 27.9589 10.8259 27.8109 11.1731 27.9754C11.3683 28.068 11.5689 28.1513 11.774 28.2246C12.1358 28.354 12.3242 28.7522 12.1948 29.1139C12.0654 29.4757 11.6672 29.6641 11.3055 29.5347C11.0567 29.4457 10.8137 29.3448 10.5771 29.2326C10.2299 29.0681 10.0819 28.6532 10.2465 28.3061ZM15.0547 29.2619C15.0734 29.6457 14.7774 29.9719 14.3936 29.9905C14.2632 29.9968 14.1319 30 14 30C13.8681 30 13.7369 29.9968 13.6064 29.9905C13.2227 29.9719 12.9267 29.6457 12.9453 29.2619C12.9639 28.8782 13.2901 28.5822 13.6738 28.6008C13.7818 28.606 13.8906 28.6087 14 28.6087C14.1094 28.6087 14.2182 28.606 14.3262 28.6008C14.7099 28.5822 15.0361 28.8782 15.0547 29.2619Z" fill="#F7D035"/>
</g>
<defs>
<clipPath id="clip0_1385_23324">
<rect width="43" height="34" rx="4" fill="white"/>
</clipPath>
</defs>
</svg>
