<svg width="43" height="34" viewBox="0 0 43 34" fill="none" xmlns="http://www.w3.org/2000/svg">
<g clip-path="url(#clip0_1385_23462)">
<path d="M43 0H0V8.5H43V0Z" fill="#FFCB49"/>
<path d="M43 8.5H0V17H43V8.5Z" fill="white"/>
<path d="M43 17H0V25.5H43V17Z" fill="#DC1D34"/>
<path d="M43 25.5H0V34H43V25.5Z" fill="#4985D4"/>
<path fill-rule="evenodd" clip-rule="evenodd" d="M0 34L24 17L0 0V34Z" fill="#4BA343"/>
<path fill-rule="evenodd" clip-rule="evenodd" d="M9.1423 23.8C9.73424 23.8 10.3087 23.7255 10.8566 23.5857C7.89907 22.8308 5.71373 20.1684 5.71373 17C5.71373 13.8314 7.89907 11.1691 10.8566 10.4142C10.3087 10.2743 9.73424 10.2 9.1423 10.2C5.3552 10.2 2.28516 13.2444 2.28516 17C2.28516 20.7554 5.3552 23.8 9.1423 23.8ZM13.7137 12.4666C13.7137 13.0925 13.2021 13.6 12.5709 13.6C11.9397 13.6 11.428 13.0925 11.428 12.4666C11.428 11.8407 11.9397 11.3333 12.5709 11.3333C13.2021 11.3333 13.7137 11.8407 13.7137 12.4666ZM12.5709 18.1333C13.2021 18.1333 13.7137 17.6259 13.7137 17C13.7137 16.374 13.2021 15.8666 12.5709 15.8666C11.9397 15.8666 11.428 16.374 11.428 17C11.428 17.6259 11.9397 18.1333 12.5709 18.1333ZM13.7137 21.5333C13.7137 22.1593 13.2021 22.6666 12.5709 22.6666C11.9397 22.6666 11.428 22.1593 11.428 21.5333C11.428 20.9074 11.9397 20.4 12.5709 20.4C13.2021 20.4 13.7137 20.9074 13.7137 21.5333Z" fill="white"/>
</g>
<defs>
<clipPath id="clip0_1385_23462">
<rect width="43" height="34" rx="4" fill="white"/>
</clipPath>
</defs>
</svg>
