<svg width="43" height="34" viewBox="0 0 43 34" fill="none" xmlns="http://www.w3.org/2000/svg">
<g clip-path="url(#clip0_1013_3304)">
<path fill-rule="evenodd" clip-rule="evenodd" d="M0 23H43V11H0V23Z" fill="white"/>
<path fill-rule="evenodd" clip-rule="evenodd" d="M0 11H43V0H0V11Z" fill="#FF202D"/>
<path fill-rule="evenodd" clip-rule="evenodd" d="M0 34H43V23H0V34Z" fill="#2027AC"/>
<path fill-rule="evenodd" clip-rule="evenodd" d="M16.7217 28H26.2772L30.7137 23H12.2852L16.7217 28Z" fill="white"/>
<path fill-rule="evenodd" clip-rule="evenodd" d="M17.2006 11H15.7672L14.334 13.6667H17.2006V16.3333H14.334V19H17.2006V21.6666H14.334V24.3334H17.2006V27H20.0672V24.3334H22.9341V27H25.8007V24.3334H28.6673V21.6666H25.8007V19H28.6673V16.3333H25.8007V13.6667H28.6673L27.2341 11H25.8007V13.6667H22.9341V11H20.0672V13.6667H17.2006V11ZM20.0672 16.3333V13.6667H22.9341V16.3333H20.0672ZM20.0672 19V16.3333H17.2006V19H20.0672ZM22.9341 19H20.0672V21.6666H17.2006V24.3334H20.0672V21.6666H22.9341V24.3334H25.8007V21.6666H22.9341V19ZM22.9341 19H25.8007V16.3333H22.9341V19Z" fill="url(#paint0_linear_1013_3304)"/>
</g>
<defs>
<linearGradient id="paint0_linear_1013_3304" x1="14.334" y1="11" x2="14.334" y2="27" gradientUnits="userSpaceOnUse">
<stop stop-color="#FF212E"/>
<stop offset="1" stop-color="#FD0D1B"/>
</linearGradient>
<clipPath id="clip0_1013_3304">
<rect width="43" height="34" rx="4" fill="white"/>
</clipPath>
</defs>
</svg>
