<svg width="43" height="34" viewBox="0 0 43 34" fill="none" xmlns="http://www.w3.org/2000/svg">
<g clip-path="url(#clip0_1385_22515)">
<rect width="43" height="34" fill="white"/>
<path fill-rule="evenodd" clip-rule="evenodd" d="M32.6215 5.07858C33.27 4.75435 33.9281 5.49988 33.5259 6.10312L32.7415 7.27966C32.6622 7.39856 32.5603 7.50061 32.4413 7.57989L29.1478 9.77561C29.0826 9.81909 29.0217 9.86892 28.9663 9.92437L28.7009 10.1897C28.2361 10.6547 28.2361 11.4085 28.7009 11.8735L29.3983 12.5709C29.8634 13.0359 29.8634 13.7897 29.3983 14.2547L28.4659 15.1872C28.1035 15.5496 27.5499 15.6394 27.0915 15.4102L26.5428 15.1359C25.9546 14.8418 25.2395 15.0802 24.9453 15.6683L24.5078 16.5435C24.3665 16.826 24.119 17.0407 23.8193 17.1406L20.8987 18.1141C20.7774 18.1546 20.6502 18.1753 20.5222 18.1753H19.0701C18.6191 18.1753 18.2068 18.43 18.0051 18.8334L17.6762 19.4915C17.382 20.0796 16.6668 20.318 16.0787 20.0239L12.554 18.2616C12.4396 18.2044 12.3351 18.1291 12.2446 18.0387L10.3487 16.1427C10.1254 15.9195 10 15.6166 10 15.3009V14.2547C10 13.7898 10.3769 13.4128 10.8419 13.4128C11.0652 13.4128 11.2793 13.3241 11.4372 13.1662L13.2231 11.3803C13.4464 11.157 13.7492 11.0316 14.065 11.0316H15.0948C15.6074 11.0316 16.0624 10.7037 16.2244 10.2175L16.8113 8.45691C17.0011 7.88726 17.5854 7.54817 18.1743 7.66593L22.834 8.59789C23.0069 8.63246 23.1853 8.62821 23.3564 8.58546L27.7322 7.4915C27.8165 7.47043 27.8983 7.44019 27.976 7.40135L30.2402 6.26919L32.6215 5.07858Z" fill="#E7832C"/>
<path fill-rule="evenodd" clip-rule="evenodd" d="M21.9055 27.7C22.5631 27.7 23.096 27.1669 23.096 26.5093C23.096 25.8518 22.5631 25.3188 21.9055 25.3188C21.2479 25.3188 20.7148 25.8518 20.7148 26.5093C20.7148 27.1669 21.2479 27.7 21.9055 27.7Z" fill="#445128"/>
<path fill-rule="evenodd" clip-rule="evenodd" d="M30.6866 20.8531C31.1805 21.1001 31.3807 21.7008 31.1337 22.1948C30.404 23.6542 29.0015 24.6696 27.9077 25.2946C27.3439 25.6168 26.8225 25.8574 26.4416 26.0177C26.2505 26.0982 26.0931 26.1592 25.9814 26.2008C25.9255 26.2216 25.8808 26.2376 25.849 26.2488C25.849 26.2488 25.8258 26.2568 25.8109 26.262L25.7994 26.2659L25.7956 26.2672L25.7942 26.2677L25.8109 26.262L25.7931 26.268C25.2691 26.4427 24.7028 26.1595 24.5282 25.6356C24.3536 25.1119 24.6364 24.5459 25.1598 24.3709L25.1633 24.3697L25.1855 24.362C25.2065 24.3546 25.2398 24.3427 25.2839 24.3263C25.3721 24.2935 25.5031 24.2428 25.6655 24.1745C25.9915 24.0372 26.4375 23.8312 26.9154 23.5581C27.9053 22.9925 28.884 22.222 29.3449 21.3003C29.5919 20.8063 30.1926 20.6061 30.6866 20.8531Z" fill="#737D5E"/>
<path d="M14.465 21.3003C14.218 20.8063 13.6173 20.6061 13.1233 20.8531C12.6293 21.1001 12.4291 21.7008 12.6761 22.1948C13.4058 23.6542 14.8083 24.6696 15.9021 25.2946C16.4659 25.6168 16.9873 25.8574 17.3682 26.0177C17.5593 26.0982 17.7166 26.1592 17.8284 26.2008C17.8843 26.2216 17.929 26.2376 17.9608 26.2488L17.9989 26.262L18.0104 26.2659L18.0142 26.2672L18.0167 26.268C18.5407 26.4427 19.107 26.1595 19.2816 25.6356C19.4562 25.1118 19.1729 24.5455 18.6492 24.3707L18.6465 24.3697L18.6243 24.362C18.6032 24.3546 18.57 24.3427 18.5259 24.3263C18.4377 24.2935 18.3067 24.2428 18.1443 24.1745C17.8183 24.0372 17.3723 23.8312 16.8944 23.5581C16.1699 23.1441 15.4514 22.6204 14.9375 22.0079C14.7493 21.7836 14.5885 21.5474 14.465 21.3003Z" fill="#737D5E"/>
</g>
<rect x="0.5" y="0.5" width="42" height="33" rx="3.5" stroke="#C9CFDB"/>
<defs>
<clipPath id="clip0_1385_22515">
<rect width="43" height="34" rx="4" fill="white"/>
</clipPath>
</defs>
</svg>
