<svg width="43" height="34" viewBox="0 0 43 34" fill="none" xmlns="http://www.w3.org/2000/svg">
<g clip-path="url(#clip0_1385_23003)">
<path d="M43 0H0V34H43V0Z" fill="#108753"/>
<rect y="13" width="43" height="2.66667" fill="#FCD449"/>
<rect y="15.6666" width="43" height="2.66667" fill="#262626"/>
<rect y="18.3334" width="43" height="2.66667" fill="white"/>
<rect width="34" height="2.33333" transform="matrix(4.37114e-08 1 1 -4.37114e-08 18 0)" fill="#FCD449"/>
<rect width="34" height="2.33333" transform="matrix(4.37114e-08 1 1 -4.37114e-08 20.332 0)" fill="#262626"/>
<rect width="34" height="2.33333" transform="matrix(4.37114e-08 1 1 -4.37114e-08 22.668 0)" fill="white"/>
<path fill-rule="evenodd" clip-rule="evenodd" d="M21.5 26.5C26.7466 26.5 31.0001 22.2466 31.0001 17C31.0001 11.7533 26.7466 7.5 21.5 7.5C16.2533 7.5 12 11.7533 12 17C12 22.2466 16.2533 26.5 21.5 26.5Z" fill="url(#paint0_linear_1385_23003)"/>
<path fill-rule="evenodd" clip-rule="evenodd" d="M21.4992 11.0058C21.3933 11.0058 21.2882 11.0086 21.1838 11.014C20.7471 11.0365 20.3749 10.7009 20.3523 10.2642C20.3297 9.8276 20.6654 9.45532 21.102 9.43273C21.2336 9.42593 21.366 9.42249 21.4992 9.42249C21.6323 9.42249 21.7648 9.42593 21.8964 9.43274C22.333 9.45532 22.6687 9.8276 22.6461 10.2642C22.6235 10.7009 22.2512 11.0365 21.8146 11.014C21.7102 11.0086 21.605 11.0058 21.4992 11.0058ZM19.124 10.5921C19.3227 10.9815 19.1681 11.4584 18.7787 11.6571C18.5913 11.7528 18.4095 11.858 18.234 11.9722C17.8676 12.2107 17.3772 12.1071 17.1387 11.7406C16.9001 11.3742 17.0038 10.8838 17.3703 10.6453C17.592 10.5009 17.8218 10.3678 18.059 10.2468C18.4484 10.0481 18.9252 10.2027 19.124 10.5921ZM23.8744 10.5921C24.0731 10.2027 24.55 10.0481 24.9394 10.2469C25.1765 10.3679 25.4063 10.501 25.6281 10.6453C25.9945 10.8838 26.0982 11.3742 25.8597 11.7407C25.6211 12.1071 25.1307 12.2108 24.7643 11.9723C24.5888 11.858 24.4071 11.7528 24.2197 11.6571C23.8302 11.4584 23.6756 10.9816 23.8744 10.5921ZM16.24 12.6393C16.6064 12.8778 16.7101 13.3683 16.4716 13.7347C16.3574 13.9102 16.2521 14.0919 16.1565 14.2793C15.9577 14.6688 15.4809 14.8234 15.0915 14.6246C14.702 14.4259 14.5475 13.9491 14.7462 13.5596C14.8672 13.3225 15.0003 13.0927 15.1446 12.8709C15.3832 12.5045 15.8736 12.4008 16.24 12.6393ZM26.7583 12.6393C27.1248 12.4008 27.6152 12.5045 27.8537 12.8709C27.998 13.0927 28.1311 13.3225 28.2521 13.5596C28.4509 13.9491 28.2963 14.4259 27.9069 14.6246C27.5174 14.8234 27.0406 14.6688 26.8419 14.2794C26.7462 14.092 26.641 13.9102 26.5267 13.7347C26.2882 13.3683 26.3919 12.8779 26.7583 12.6393ZM14.7636 15.8529C15.2003 15.8755 15.5359 16.2478 15.5133 16.6844C15.5079 16.7888 15.5052 16.894 15.5052 16.9998C15.5052 17.1057 15.5079 17.2109 15.5133 17.3152C15.5359 17.7519 15.2003 18.1241 14.7636 18.1467C14.327 18.1693 13.9547 17.8337 13.9321 17.397C13.9253 17.2654 13.9219 17.133 13.9219 16.9998C13.9219 16.8667 13.9253 16.7343 13.9321 16.6027C13.9547 16.166 14.327 15.8304 14.7636 15.8529ZM28.2347 15.8529C28.6714 15.8304 29.0437 16.166 29.0662 16.6027C29.0731 16.7343 29.0765 16.8667 29.0765 16.9998C29.0765 17.133 29.0731 17.2654 29.0662 17.397C29.0437 17.8337 28.6714 18.1693 28.2347 18.1467C27.7981 18.1241 27.4624 17.7519 27.485 17.3152C27.4904 17.2109 27.4932 17.1057 27.4932 16.9998C27.4932 16.894 27.4904 16.7888 27.485 16.6844C27.4624 16.2478 27.7981 15.8755 28.2347 15.8529ZM27.9069 19.375C28.2963 19.5738 28.4509 20.0506 28.2521 20.44C28.1311 20.6771 27.998 20.907 27.8537 21.1287C27.6152 21.4951 27.1247 21.5988 26.7583 21.3603C26.3919 21.1218 26.2882 20.6314 26.5267 20.2649C26.641 20.0895 26.7462 19.9077 26.8418 19.7203C27.0406 19.3309 27.5174 19.1763 27.9069 19.375ZM15.0915 19.375C15.4809 19.1763 15.9578 19.3309 16.1565 19.7203C16.2521 19.9077 16.3574 20.0895 16.4716 20.265C16.7101 20.6314 16.6065 21.1218 16.24 21.3603C15.8736 21.5989 15.3832 21.4952 15.1447 21.1287C15.0003 20.907 14.8672 20.6772 14.7462 20.4401C14.5475 20.0506 14.7021 19.5738 15.0915 19.375ZM25.8596 22.259C26.0982 22.6254 25.9945 23.1158 25.6281 23.3543C25.4063 23.4987 25.1765 23.6318 24.9394 23.7528C24.55 23.9515 24.0731 23.797 23.8744 23.4075C23.6756 23.0181 23.8302 22.5413 24.2196 22.3425C24.407 22.2469 24.5888 22.1416 24.7643 22.0274C25.1307 21.7889 25.6211 21.8925 25.8596 22.259ZM17.1387 22.259C17.3772 21.8926 17.8676 21.7889 18.2341 22.0274C18.4095 22.1416 18.5913 22.2469 18.7787 22.3425C19.1681 22.5413 19.3227 23.0181 19.124 23.4075C18.9252 23.797 18.4484 23.9516 18.059 23.7528C17.8219 23.6318 17.592 23.4987 17.3703 23.3544C17.0039 23.1159 16.9002 22.6254 17.1387 22.259ZM22.6461 23.7354C22.6687 24.172 22.333 24.5443 21.8964 24.5669C21.7648 24.5737 21.6323 24.5771 21.4992 24.5771C21.366 24.5771 21.2336 24.5737 21.102 24.5669C20.6654 24.5443 20.3297 24.172 20.3523 23.7354C20.3749 23.2988 20.7472 22.9631 21.1838 22.9857C21.2882 22.9911 21.3933 22.9938 21.4992 22.9938C21.605 22.9938 21.7102 22.9911 21.8146 22.9857C22.2512 22.9631 22.6235 23.2988 22.6461 23.7354Z" fill="#0E673F"/>
<path fill-rule="evenodd" clip-rule="evenodd" d="M21.4975 19.7143C22.9966 19.7143 22.8547 18.4992 22.8547 17C22.8547 15.501 22.9966 14.2858 21.4975 14.2858C19.9984 14.2858 20.1403 15.501 20.1403 17C20.1403 18.4992 19.9984 19.7143 21.4975 19.7143Z" fill="#0E673F"/>
</g>
<defs>
<linearGradient id="paint0_linear_1385_23003" x1="12" y1="7.5" x2="12" y2="26.5" gradientUnits="userSpaceOnUse">
<stop stop-color="#E02C42"/>
<stop offset="1" stop-color="#D22036"/>
</linearGradient>
<clipPath id="clip0_1385_23003">
<rect width="43" height="34" rx="4" fill="white"/>
</clipPath>
</defs>
</svg>
