<svg width="43" height="34" viewBox="0 0 43 34" fill="none" xmlns="http://www.w3.org/2000/svg">
<g clip-path="url(#clip0_1385_23020)">
<path d="M43 0H0V34H43V0Z" fill="white"/>
<circle cx="21.5026" cy="16.7222" r="1.16667" fill="#042F60"/>
<path d="M19.1436 14C18.441 14.6542 18 15.597 18 16.645C18 18.6206 19.5669 20.2222 21.5 20.2222C23.4331 20.2222 25 18.6206 25 16.645C25 15.6168 24.5754 14.6899 23.8959 14.0373L23.097 14.9064C23.5517 15.343 23.8333 15.9595 23.8333 16.645C23.8333 17.9622 22.7887 19.0298 21.5 19.0298C20.2113 19.0298 19.1667 17.9622 19.1667 16.645C19.1667 15.9464 19.4592 15.3192 19.9294 14.8814L19.1436 14Z" fill="#0F6D1A"/>
<rect width="18" height="13" fill="#083D7A"/>
<rect y="21" width="18" height="13" fill="#DF1E35"/>
<rect x="25" width="18" height="13" fill="#DF1E35"/>
<rect x="25" y="21" width="18" height="13" fill="#083D7A"/>
</g>
<defs>
<clipPath id="clip0_1385_23020">
<rect width="43" height="34" rx="4" fill="white"/>
</clipPath>
</defs>
</svg>
