<svg width="43" height="34" viewBox="0 0 43 34" fill="none" xmlns="http://www.w3.org/2000/svg">
<g clip-path="url(#clip0_1385_23830)">
<path fill-rule="evenodd" clip-rule="evenodd" d="M0 25H43V16H0V25Z" fill="#0748AE"/>
<path fill-rule="evenodd" clip-rule="evenodd" d="M0 34H43V25H0V34Z" fill="#DE2035"/>
<path fill-rule="evenodd" clip-rule="evenodd" d="M0 16H43V0H0V16Z" fill="#FFD935"/>
<path fill-rule="evenodd" clip-rule="evenodd" d="M19.2581 13.6C18.148 14.4271 17.4297 15.7438 17.4297 17.227C17.4297 19.7305 19.4764 21.7603 22.0012 21.7603C24.526 21.7603 26.5727 19.7305 26.5727 17.227C26.5727 15.7438 25.8544 14.4271 24.744 13.6L23.1441 18.3603H20.8583L19.2581 13.6Z" fill="#FFD935"/>
<path fill-rule="evenodd" clip-rule="evenodd" d="M21.9984 12.4667L23.1413 18.1334H20.8555L21.9984 12.4667Z" fill="#5FC0DC"/>
<path opacity="0.66" fill-rule="evenodd" clip-rule="evenodd" d="M19.5569 8.59193C19.7356 8.53287 19.9323 8.57913 20.0659 8.71164L21.9995 10.6292L23.9331 8.71164C24.0667 8.57913 24.2634 8.53287 24.4421 8.59193L27.8707 9.72527C28.1329 9.81194 28.2752 10.0947 28.1885 10.3569C28.1018 10.6191 27.819 10.7614 27.5568 10.6747L24.4195 9.63766L22.3516 11.6884C22.1567 11.8817 21.8424 11.8817 21.6474 11.6884L19.5796 9.63766L16.4422 10.6747C16.18 10.7614 15.8972 10.6191 15.8106 10.3569C15.7239 10.0947 15.8662 9.81194 16.1284 9.72527L19.5569 8.59193Z" fill="#3F2821"/>
</g>
<defs>
<clipPath id="clip0_1385_23830">
<rect width="43" height="34" rx="4" fill="white"/>
</clipPath>
</defs>
</svg>
