<svg width="43" height="34" viewBox="0 0 43 34" fill="none" xmlns="http://www.w3.org/2000/svg">
<g clip-path="url(#clip0_1385_23354)">
<path d="M43 0H0V10H43V0Z" fill="#D02336"/>
<path d="M43 10H0V24H43V10Z" fill="white"/>
<path d="M43 24H0V34H43V24Z" fill="#262626"/>
<path fill-rule="evenodd" clip-rule="evenodd" d="M21.5 22C20.736 22 19.6112 21.3381 19.6112 20.5554V18.4443H17.5778L15.1164 20.2093C14.1917 20.8725 13 20.1391 13 19.0114V13.4445C13 12.6616 13.5937 12 14.3576 12H15.4997C15.7031 12 15.8886 12.1214 15.9775 12.3127L17.6632 15.9391L17.9943 15.2336C17.9943 15.2336 18.6275 14.0815 18.9281 13.6504C19.2299 13.2178 19.5738 12.797 19.9339 12.4873C20.2976 12.1742 21.1793 12 21.5 12C21.8207 12 22.7024 12.1742 23.0661 12.4873C23.4262 12.797 23.7701 13.2178 24.0719 13.6504C24.3725 14.0815 25.0057 15.2336 25.0057 15.2336L25.3368 15.9391L27.0225 12.3127C27.1114 12.1214 27.2969 12 27.5003 12H28.6424C29.4063 12 30 12.6616 30 13.4445V19.0114C30 20.1391 28.8083 20.8725 27.8836 20.2093L25.4222 18.4443H23.3888V20.5554C23.3888 21.3381 22.264 22 21.5 22ZM21.5 20.8889C21.3512 20.8889 20.6737 20.7546 20.6737 20.5554V17.8887C20.6737 17.5819 20.4358 17.3332 20.1424 17.3332H18.1966L19.1231 15.3888C19.287 15.0865 19.5169 14.6918 19.7865 14.3052C19.8506 14.2133 19.9065 14.1253 19.9598 14.0413C20.136 13.7638 20.2844 13.5301 20.6088 13.3454C20.924 13.1659 21.5 13.1111 21.5 13.1111C21.5 13.1111 22.128 13.1191 22.3912 13.3454C22.6543 13.5717 22.9377 13.9098 23.2135 14.3052C23.4831 14.6918 23.713 15.0865 23.8769 15.3888L24.8034 17.3332H22.8576C22.5642 17.3332 22.3263 17.5819 22.3263 17.8887V20.5554C22.3263 20.7546 21.6488 20.8889 21.5 20.8889ZM17.1127 17.4306C17.1283 17.4194 17.1444 17.4091 17.1609 17.3998L15.1673 13.1111H14.3576C14.2086 13.1111 14.0625 13.2454 14.0625 13.4445V19.0114C14.0625 19.304 14.342 19.4174 14.5155 19.2929L17.1127 17.4306ZM25.8873 17.4306C25.8717 17.4194 25.8556 17.4091 25.8391 17.3998L27.8327 13.1111H28.6424C28.7914 13.1111 28.9375 13.2454 28.9375 13.4445V19.0114C28.9375 19.304 28.658 19.4174 28.4845 19.2929L25.8873 17.4306Z" fill="#C6A846"/>
<path d="M17.1609 17.3998C17.1444 17.4091 17.1283 17.4194 17.1127 17.4306L14.5155 19.2929C14.342 19.4174 14.0625 19.304 14.0625 19.0114V13.4445C14.0625 13.2454 14.2086 13.1111 14.3576 13.1111H15.1673L17.1609 17.3998Z" fill="#FCECCA"/>
<path d="M20.6737 20.5554C20.6737 20.7546 21.3512 20.8889 21.5 20.8889C21.6488 20.8889 22.3263 20.7546 22.3263 20.5554V17.8887C22.3263 17.5819 22.5642 17.3332 22.8576 17.3332H24.8034L23.8769 15.3888C23.713 15.0865 23.4831 14.6918 23.2135 14.3052C22.9377 13.9098 22.6543 13.5717 22.3912 13.3454C22.128 13.1191 21.5 13.1111 21.5 13.1111C21.5 13.1111 20.924 13.1659 20.6088 13.3454C20.2844 13.5301 20.136 13.7638 19.9598 14.0413C19.9065 14.1253 19.8506 14.2133 19.7865 14.3052C19.5169 14.6918 19.287 15.0865 19.1231 15.3888L18.1966 17.3332H20.1424C20.4358 17.3332 20.6737 17.5819 20.6737 17.8887V20.5554Z" fill="#FCECCA"/>
<path d="M25.8391 17.3998C25.8556 17.4091 25.8717 17.4194 25.8873 17.4306L28.4845 19.2929C28.658 19.4174 28.9375 19.304 28.9375 19.0114V13.4445C28.9375 13.2454 28.7914 13.1111 28.6424 13.1111H27.8327L25.8391 17.3998Z" fill="#FCECCA"/>
</g>
<defs>
<clipPath id="clip0_1385_23354">
<rect width="43" height="34" rx="4" fill="white"/>
</clipPath>
</defs>
</svg>
