<svg width="43" height="34" viewBox="0 0 43 34" fill="none" xmlns="http://www.w3.org/2000/svg">
<g clip-path="url(#clip0_1385_23161)">
<path d="M43 0H0V11.3333H43V0Z" fill="#1B57C4"/>
<path d="M43 11.3335H0V22.6668H43V11.3335Z" fill="white"/>
<path d="M43 22.6665H0V33.9998H43V22.6665Z" fill="#1B57C4"/>
<path fill-rule="evenodd" clip-rule="evenodd" d="M18.8 13.3995C17.7071 14.2205 17 15.5276 17 16.9998C17 19.4852 19.0149 21.4999 21.5 21.4999C23.9853 21.4999 26 19.4852 26 16.9998C26 15.5276 25.2929 14.2205 24.2001 13.3995L22.625 18.1249H20.375L18.8 13.3995Z" fill="url(#paint0_linear_1385_23161)"/>
<path fill-rule="evenodd" clip-rule="evenodd" d="M21.5 12.5L22.6251 18.1251H20.375L21.5 12.5Z" fill="#F9C92E"/>
</g>
<defs>
<linearGradient id="paint0_linear_1385_23161" x1="17" y1="13.3995" x2="17" y2="21.4999" gradientUnits="userSpaceOnUse">
<stop stop-color="#3C7839"/>
<stop offset="1" stop-color="#31642E"/>
</linearGradient>
<clipPath id="clip0_1385_23161">
<rect width="43" height="34" rx="4" fill="white"/>
</clipPath>
</defs>
</svg>
