<svg width="43" height="34" viewBox="0 0 43 34" fill="none" xmlns="http://www.w3.org/2000/svg">
<g clip-path="url(#clip0_1385_23364)">
<path d="M43 0H0V17H43V0Z" fill="#29C53F"/>
<path d="M43 34H0V17H43V34Z" fill="#579DED"/>
<path fill-rule="evenodd" clip-rule="evenodd" d="M0 34L43 17L0 0V34Z" fill="#F42D56"/>
<path fill-rule="evenodd" clip-rule="evenodd" d="M14.5489 10.8665C11.2169 10.8665 8.5013 13.6045 8.5013 16.9999C8.5013 20.3951 11.2169 23.1332 14.5489 23.1332C17.881 23.1332 20.5966 20.3951 20.5966 16.9999C20.5966 13.6045 17.881 10.8665 14.5489 10.8665ZM7.16797 16.9999C7.16797 12.8841 10.4646 9.5332 14.5489 9.5332C18.6332 9.5332 21.9299 12.8841 21.9299 16.9999C21.9299 21.1155 18.6332 24.4665 14.5489 24.4665C10.4646 24.4665 7.16797 21.1155 7.16797 16.9999Z" fill="#FFC63C"/>
<path fill-rule="evenodd" clip-rule="evenodd" d="M13.4276 15.8668C14.0457 15.8668 14.5467 15.3594 14.5467 14.7334C14.5467 14.1075 14.0457 13.6001 13.4276 13.6001C12.8096 13.6001 12.3086 14.1075 12.3086 14.7334C12.3086 15.3594 12.8096 15.8668 13.4276 15.8668Z" fill="#FFC63C"/>
<path fill-rule="evenodd" clip-rule="evenodd" d="M15.6659 17.0001C16.2839 17.0001 16.785 16.4926 16.785 15.8667C16.785 15.2408 16.2839 14.7334 15.6659 14.7334C15.0479 14.7334 14.5469 15.2408 14.5469 15.8667C14.5469 16.4926 15.0479 17.0001 15.6659 17.0001Z" fill="#FFC63C"/>
<path fill-rule="evenodd" clip-rule="evenodd" d="M14.5487 14.7335C15.1668 14.7335 15.6678 14.2261 15.6678 13.6001C15.6678 12.9742 15.1668 12.4668 14.5487 12.4668C13.9307 12.4668 13.4297 12.9742 13.4297 13.6001C13.4297 14.2261 13.9307 14.7335 14.5487 14.7335Z" fill="#FFC63C"/>
<path fill-rule="evenodd" clip-rule="evenodd" d="M13.4276 18.1334C14.0457 18.1334 14.5467 17.626 14.5467 17C14.5467 16.3741 14.0457 15.8667 13.4276 15.8667C12.8096 15.8667 12.3086 16.3741 12.3086 17C12.3086 17.626 12.8096 18.1334 13.4276 18.1334Z" fill="#FFC63C"/>
<path fill-rule="evenodd" clip-rule="evenodd" d="M15.6659 19.2666C16.2839 19.2666 16.785 18.7593 16.785 18.1334C16.785 17.5075 16.2839 17 15.6659 17C15.0479 17 14.5469 17.5075 14.5469 18.1334C14.5469 18.7593 15.0479 19.2666 15.6659 19.2666Z" fill="#FFC63C"/>
<path fill-rule="evenodd" clip-rule="evenodd" d="M13.4276 20.3999C14.0457 20.3999 14.5467 19.8925 14.5467 19.2665C14.5467 18.6406 14.0457 18.1333 13.4276 18.1333C12.8096 18.1333 12.3086 18.6406 12.3086 19.2665C12.3086 19.8925 12.8096 20.3999 13.4276 20.3999Z" fill="#FFC63C"/>
<path fill-rule="evenodd" clip-rule="evenodd" d="M15.6659 21.5334C16.2839 21.5334 16.785 21.0259 16.785 20.4C16.785 19.7741 16.2839 19.2666 15.6659 19.2666C15.0479 19.2666 14.5469 19.7741 14.5469 20.4C14.5469 21.0259 15.0479 21.5334 15.6659 21.5334Z" fill="#FFC63C"/>
</g>
<defs>
<clipPath id="clip0_1385_23364">
<rect width="43" height="34" rx="4" fill="white"/>
</clipPath>
</defs>
</svg>
