<svg width="43" height="34" viewBox="0 0 43 34" fill="none" xmlns="http://www.w3.org/2000/svg">
<g clip-path="url(#clip0_1385_23659)">
<path d="M43 0H0V6H43V0Z" fill="#486BCA"/>
<path d="M43 6H0V8.5H43V6Z" fill="#FFDF20"/>
<path d="M43 8.5H0V25.5H43V8.5Z" fill="#CF1615"/>
<path d="M43 25.5H0V28H43V25.5Z" fill="#FFDF20"/>
<path d="M43 28H0V34H43V28Z" fill="#486BCA"/>
<path fill-rule="evenodd" clip-rule="evenodd" d="M21.4997 22.9999C27.5747 22.9999 32.4994 16.9998 32.4994 16.9998C32.4994 16.9998 27.5747 10.9998 21.4997 10.9998C15.4248 10.9998 10.5 16.9998 10.5 16.9998C10.5 16.9998 15.4248 22.9999 21.4997 22.9999Z" fill="white"/>
<mask id="mask0_1385_23659" style="mask-type:luminance" maskUnits="userSpaceOnUse" x="10" y="11" width="23" height="13">
<path fill-rule="evenodd" clip-rule="evenodd" d="M21.4997 23.0002C27.5747 23.0002 32.4994 17.0001 32.4994 17.0001C32.4994 17.0001 27.5747 11 21.4997 11C15.4248 11 10.5 17.0001 10.5 17.0001C10.5 17.0001 15.4248 23.0002 21.4997 23.0002Z" fill="white"/>
</mask>
<g mask="url(#mask0_1385_23659)">
<path fill-rule="evenodd" clip-rule="evenodd" d="M22.7219 11H10.5V23.0002H20.2776L22.7219 11Z" fill="#262626"/>
<path fill-rule="evenodd" clip-rule="evenodd" d="M23.941 18.1999C24.6158 18.1999 25.1631 17.6626 25.1631 16.9998C25.1631 16.3371 24.6158 15.7998 23.941 15.7998C23.266 15.7998 22.7188 16.3371 22.7188 16.9998C22.7188 17.6626 23.266 18.1999 23.941 18.1999Z" fill="#1A1A1A"/>
<path fill-rule="evenodd" clip-rule="evenodd" d="M19.0582 18.1999C19.7332 18.1999 20.2803 17.6626 20.2803 16.9998C20.2803 16.3371 19.7332 15.7998 19.0582 15.7998C18.3832 15.7998 17.8359 16.3371 17.8359 16.9998C17.8359 17.6626 18.3832 18.1999 19.0582 18.1999Z" fill="#F6F6F6"/>
</g>
</g>
<defs>
<clipPath id="clip0_1385_23659">
<rect width="43" height="34" rx="4" fill="white"/>
</clipPath>
</defs>
</svg>
