<svg width="43" height="34" viewBox="0 0 43 34" fill="none" xmlns="http://www.w3.org/2000/svg">
<g clip-path="url(#clip0_1385_23380)">
<path d="M43 0H0V11.3333H43V0Z" fill="#20AA46"/>
<path d="M43 22.6667H0V11.3334H43V22.6667Z" fill="#FADF50"/>
<path d="M43 22.6667H0V34H43V22.6667Z" fill="#E92F3B"/>
<path fill-rule="evenodd" clip-rule="evenodd" d="M22.0001 26C26.9706 26 31 21.9705 31 17C31 12.0294 26.9706 8 22.0001 8C17.0296 8 13 12.0294 13 17C13 21.9705 17.0296 26 22.0001 26Z" fill="#205CCA"/>
<path fill-rule="evenodd" clip-rule="evenodd" d="M22.0012 10L23.5093 14.734L23.5731 14.9347L28.44 14.9808L24.6981 17.8938L24.5286 18.0258L26.0058 22.9577L22.1469 20.0653L22.0013 19.9562L21.8558 20.0653L17.9966 22.9578L19.408 18.2468L19.4742 18.0259L19.3045 17.8938L15.5625 14.9808L20.4296 14.9347L22.0012 10ZM22.0013 13.2949L21.1626 15.9278L18.44 15.9536L19.9188 17.1047L20.6285 17.6572L19.8257 20.3372L22.0013 18.7062L24.177 20.3373L23.3743 17.6573L24.0837 17.1048L25.5625 15.9536L22.8398 15.9278L22.0013 13.2949Z" fill="#FFDB3D"/>
</g>
<defs>
<clipPath id="clip0_1385_23380">
<rect width="43" height="34" rx="4" fill="white"/>
</clipPath>
</defs>
</svg>
