<svg width="43" height="34" viewBox="0 0 43 34" fill="none" xmlns="http://www.w3.org/2000/svg">
<g clip-path="url(#clip0_1385_23840)">
<path d="M43 0H0V34H43V0Z" fill="#07319C"/>
<path fill-rule="evenodd" clip-rule="evenodd" d="M27.4766 17C27.4766 15.1407 27.4766 12.9424 27.4766 11.3319C27.4766 10.0801 28.4573 9.06668 29.6671 9.06668H36.2386C37.4484 9.06668 38.429 10.0801 38.429 11.3319C38.429 12.9424 38.429 15.1407 38.429 17C38.429 22.6666 32.9529 24.9334 32.9529 24.9334C32.9529 24.9334 27.4766 22.6666 27.4766 17Z" fill="#0072C4"/>
<mask id="mask0_1385_23840" style="mask-type:luminance" maskUnits="userSpaceOnUse" x="27" y="9" width="12" height="16">
<path fill-rule="evenodd" clip-rule="evenodd" d="M27.4766 17C27.4766 15.1406 27.4766 12.9423 27.4766 11.3319C27.4766 10.08 28.4573 9.06665 29.6671 9.06665H36.2386C37.4484 9.06665 38.429 10.08 38.429 11.3319C38.429 12.9423 38.429 15.1406 38.429 17C38.429 22.6666 32.9529 24.9334 32.9529 24.9334C32.9529 24.9334 27.4766 22.6666 27.4766 17Z" fill="white"/>
</mask>
<g mask="url(#mask0_1385_23840)">
<path fill-rule="evenodd" clip-rule="evenodd" d="M30.0065 15.7551C28.8842 16.9282 31.0838 16.7794 31.0838 16.7794L32.6505 16.2604C32.6505 16.2604 33.3548 16.3485 33.8302 16.4968C34.1451 16.5951 35.0216 17 35.0216 17C35.0216 17 36.8726 16.6176 36.2219 15.7551C35.571 14.8926 31.1289 14.582 30.0065 15.7551Z" fill="#005121"/>
<path fill-rule="evenodd" clip-rule="evenodd" d="M34.6693 14.5364C34.7145 14.5258 34.8196 14.5282 34.8587 14.5777C34.9203 14.6549 35.0463 14.6293 35.1079 14.7037C35.1692 14.7784 35.2407 14.8473 35.2407 14.9535C35.2407 15.0597 35.2287 15.3231 35.2308 15.3809C35.2341 15.4701 35.2489 15.4839 35.3374 15.4815C35.4444 15.4787 35.5917 15.4701 35.5963 15.2721C35.5996 15.1342 35.4669 15.048 35.4283 14.5574C35.4864 14.5058 35.5382 14.4598 35.5188 14.3911C35.4992 14.3223 35.6287 14.2877 35.6159 14.1843C35.6028 14.0812 35.7452 14.0179 35.687 13.9033C35.6287 13.7884 35.758 13.7828 35.7064 13.6909C35.6547 13.5991 35.7904 13.5186 35.7322 13.4385C35.674 13.358 35.8099 13.2835 35.7388 13.1859C35.6675 13.0884 35.7776 13.0309 35.7064 12.9562C35.7518 12.8818 35.7128 12.6693 35.5704 12.5489C35.4283 12.4282 35.2277 12.3652 35.111 12.3192C34.8942 12.2337 34.49 12.2732 34.2052 12.3077C33.9205 12.3421 33.3898 12.3766 33.228 12.3537C33.0663 12.3309 32.6847 12.3077 32.3837 12.3593C32.2807 12.377 32.1638 12.3451 32.1023 12.2849C32.0532 12.2367 32.0248 12.2419 31.9794 12.2447C31.9342 12.2475 31.9081 12.2331 31.8855 12.1756C31.8455 12.0746 31.7563 12.1441 31.7141 12.0178C31.6859 11.9334 31.5391 12.0064 31.4941 11.9347C31.4486 11.863 31.3939 11.8544 31.2707 11.863C31.2645 11.8199 31.1964 11.7884 31.1348 11.7998C31.1447 11.7281 31.0767 11.6707 30.9635 11.6735C30.9765 11.5846 30.8181 11.5157 30.7369 11.5703C30.6853 11.5043 30.5817 11.5185 30.5559 11.5703C30.5009 11.5043 30.3261 11.5244 30.284 11.596C30.2097 11.5531 30.0652 11.6586 30.0772 11.8257C30.0803 11.8717 30.0832 11.9194 30.009 11.9347C29.87 11.9634 29.7892 12.124 29.6692 12.1469C29.5498 12.17 29.43 12.2102 29.4074 12.279C29.3847 12.3479 29.4268 12.4198 29.3816 12.4541C29.3362 12.4886 29.4105 12.5202 29.4332 12.5372C29.4558 12.5545 29.4913 12.5832 29.4979 12.6234C29.5071 12.6804 29.5979 12.6974 29.6921 12.6348C29.7309 12.6091 29.7987 12.6866 29.9088 12.632C30.0187 12.5776 30.1749 12.6063 30.1481 12.6952C30.1353 12.7382 30.1642 12.7842 30.2001 12.8271C30.2355 12.8701 30.2889 12.9998 30.2582 13.0739C30.213 13.1829 30.3036 13.2433 30.2809 13.3407C30.2582 13.4385 30.2937 13.5274 30.2454 13.6593C30.1966 13.7912 30.1959 13.9564 30.2679 14.0037C30.3683 14.0697 30.3077 14.2005 30.3941 14.2562C30.465 14.302 30.4233 14.414 30.5559 14.4484C30.6885 14.4829 30.6109 14.5746 30.7499 14.5947C30.8891 14.6148 30.9375 14.7182 31.0831 14.6951C31.1904 14.6782 31.2469 14.7052 31.3095 14.7307C31.3223 14.8227 31.2935 15.1601 31.287 15.2462C31.2812 15.3224 31.2418 15.444 31.2418 15.5189C31.2418 15.5646 31.3323 15.5761 31.436 15.5761C31.5391 15.5761 31.5847 15.5331 31.5587 15.4126C31.5329 15.292 31.5265 14.9982 31.5331 14.8145C31.6229 14.8592 31.7084 14.9218 31.7044 14.9908C31.6978 15.1027 31.6995 15.3034 31.6816 15.4068C31.6689 15.4815 31.6882 15.5992 31.6947 15.6767C31.7013 15.7052 31.8758 15.7024 31.9471 15.6767C32.0182 15.6508 32.0182 15.5819 32.0116 15.2691C32.0083 15.1143 31.8498 14.9561 32.0506 14.8788C32.1477 14.8414 32.2835 14.7553 32.3353 14.6752C32.3869 14.5947 32.5004 14.6262 32.581 14.6666C32.6619 14.7068 32.7913 14.7681 32.8725 14.7411C32.9758 14.7068 33.0859 14.7927 33.1764 14.7411C33.2669 14.6895 33.3836 14.7784 33.4578 14.7154C33.5323 14.6521 33.6617 14.7124 33.7168 14.6521C33.7718 14.5919 33.9982 14.6867 34.0792 14.6064C34.16 14.5258 34.2699 14.6293 34.3445 14.569C34.3639 14.553 34.387 14.5496 34.4123 14.5515C34.4094 14.6873 34.3849 14.9034 34.38 14.9708C34.3741 15.0472 34.3346 15.1685 34.3346 15.2432C34.3346 15.2892 34.4253 15.3006 34.5287 15.3006C34.6323 15.3006 34.6777 15.2577 34.6519 15.1372C34.6257 15.0167 34.663 14.7204 34.6693 14.5364Z" fill="#A3A3A3"/>
<path d="M25.2891 15.8666C25.2891 15.8666 29.0149 17.012 29.6438 17.012C29.8206 17.012 32.2339 16.4394 32.9574 16.4394C33.228 16.4394 35.7261 16.8317 36.3783 17.012C37.0307 17.1924 40.6258 15.8666 40.6258 15.8666" stroke="white" stroke-width="0.666667" stroke-linecap="round" stroke-linejoin="round"/>
<path d="M25.2891 18.1334C25.2891 18.1334 29.0149 19.2788 29.6438 19.2788C29.8206 19.2788 32.2339 18.7061 32.9574 18.7061C33.228 18.7061 35.7261 19.0985 36.3783 19.2788C37.0307 19.4592 40.6258 18.1334 40.6258 18.1334" stroke="white" stroke-width="0.666667" stroke-linecap="round" stroke-linejoin="round"/>
<path d="M25.2891 22.6666C25.2891 22.6666 29.0149 23.812 29.6438 23.812C29.8206 23.812 31.2592 22.8852 32.9574 22.8852C34.6556 22.8852 35.7261 23.6317 36.3783 23.812C37.0307 23.9924 40.6258 22.6666 40.6258 22.6666L52.4172 24.6182" stroke="white" stroke-width="1.33333" stroke-linecap="round" stroke-linejoin="round"/>
<path d="M28.0234 17V16.9127V16.8248V16.7364V16.6477V16.5585V16.4689V16.379V16.2887V16.1981V16.1072V16.016V15.9245V15.8328V15.7869V15.7754V15.7639V15.7409V15.6488V15.5565V15.464V15.3714V15.2787V15.1859V15.093V15.0001V14.9071V14.8606V14.849V14.8374V14.8258V14.8142V14.8025V14.7909V14.7793V14.7677V14.7561V14.7444V14.7328V14.7212V14.7096V14.698V14.6864V14.6747V14.6631V14.6515V14.6399V14.6283V14.6167V14.6051V14.5934V14.5818V14.5702V14.5586V14.547V14.5354V14.5238V14.5122V14.5006V14.489V14.4774V14.4658V14.4542V14.4426V14.431V14.4195V14.4079V14.3963V14.3847V14.3731V14.3615V14.3499V14.3384V14.3268V14.3152V14.3036V14.2921V14.2805V14.2689V14.2574V14.2458V14.2342V14.2227V14.2111V14.1996V14.188V14.1765V14.1649V14.1534V14.1418V14.1303V14.1188V14.1072V14.0957V14.0842V14.0727V14.0611V14.0496V14.0381V14.0266V14.0151V14.0036V13.9921V13.9806V13.9691V13.9576V13.9461V13.9346V13.9231V13.9116V13.9002V13.8887V13.8772V13.8657V13.8543V13.8428V13.8314V13.8199V13.8085V13.797V13.7856V13.7742V13.7627V13.7513V13.7399V13.7284V13.717V13.7056V13.6942V13.6828V13.6714V13.66V13.6486V13.6372V13.6258V13.6145V13.6031V13.5917V13.5804V13.569V13.5576V13.5463V13.5349V13.5236V13.5123V13.5009V13.4896V13.4783V13.467V13.4557V13.4444V13.433V13.4218V13.4105V13.3879V13.3428V13.253V13.1635V13.0744V12.9857V12.8974V12.8096V12.7223V12.6355V12.5492V12.4635V12.3783V12.2937V12.2097V12.1264V12.0437V11.9616V11.7996V11.6406V11.4846V11.3319C28.0234 10.3935 28.7585 9.63339 29.6663 9.63339H36.2377C37.1454 9.63339 37.8806 10.3935 37.8806 11.3319V11.3414V11.3509V11.3603V11.3698V11.3793V11.3888V11.3983V11.4079V11.4174V11.427V11.4365V11.4461V11.4557V11.4653V11.475V11.4846V11.4943V11.5039V11.5136V11.5233V11.533V11.5427V11.5525V11.5622V11.572V11.5817V11.5915V11.6013V11.6111V11.6209V11.6307V11.6406V11.6504V11.6603V11.6702V11.6801V11.69V11.6999V11.7098V11.7197V11.7297V11.7396V11.7496V11.7596V11.7696V11.7796V11.7896V11.7996V11.8097V11.8197V11.8298V11.8399V11.8499V11.86V11.8702V11.8803V11.8904V11.9005V11.9107V11.9208V11.931V11.9412V11.9514V11.9616V11.9718V11.9821V11.9923V12.0025V12.0128V12.0231V12.0334V12.0437V12.054V12.0643V12.0746V12.0849V12.0953V12.1056V12.116V12.1264V12.1367V12.1471V12.1576V12.168V12.1784V12.1888V12.1993V12.2097V12.2202V12.2307V12.2412V12.2516V12.2622V12.2727V12.2832V12.2937V12.3043V12.3148V12.3254V12.3359V12.3465V12.3571V12.3677V12.3783V12.3889V12.3995V12.4102V12.4208V12.4315V12.4421V12.4528V12.4635V12.4742V12.4849V12.4956V12.5063V12.517V12.5277V12.5385V12.5492V12.56V12.5708V12.5815V12.5923V12.6031V12.6139V12.6247V12.6355V12.6464V12.6572V12.668V12.6789V12.6897V12.7006V12.7115V12.7223V12.7332V12.7441V12.755V12.7659V12.7768V12.7878V12.7987V12.8097V12.8206V12.8316V12.8425V12.8535V12.8645V12.8754V12.8864V12.8974V12.9084V12.9195V12.9305V12.9415V12.9525V12.9636V12.9746V12.9857V12.9967V13.0078V13.0189V13.03V13.0411V13.0522V13.0633V13.0744V13.0855V13.0966V13.1077V13.1189V13.13V13.1412V13.1523V13.1635V13.1746V13.1858V13.197V13.2082V13.2194V13.2306V13.2418V13.253V13.2642V13.2754V13.2866V13.2978V13.3091V13.3203V13.3316V13.3428V13.3541V13.3654V13.3766V13.3879V13.3992V13.4105V13.4218V13.433V13.4444V13.4557V13.467V13.4783V13.4896V13.5009V13.5123V13.5236V13.5349V13.5463V13.5576V13.569V13.5804V13.5917V13.6031V13.6145V13.6258V13.6372V13.6486V13.66V13.6714V13.6828V13.6942V13.7056V13.717V13.7284V13.7399V13.7513V13.7627V13.7742V13.7856V13.797V13.8085V13.8199V13.8314V13.8428V13.8543V13.8657V13.8772V13.8887V13.9002V13.9116V13.9231V13.9346V13.9461V13.9576V13.9691V13.9806V13.9921V14.0036V14.0151V14.0266V14.0381V14.0496V14.0611V14.0727V14.0842V14.0957V14.1072V14.1188V14.1303V14.1418V14.1534V14.1649V14.1765V14.188V14.1996V14.2111V14.2227V14.2342V14.2458V14.2574V14.2689V14.2805V14.2921V14.3036V14.3152V14.3268V14.3384V14.3499V14.3615V14.3731V14.3847V14.3963V14.4079V14.4195V14.431V14.4426V14.4542V14.4658V14.4774V14.489V14.5006V14.5122V14.5238V14.5354V14.547V14.5586V14.5702V14.5819V14.5934V14.6051V14.6167V14.6283V14.6399V14.6515V14.6631V14.6747V14.6864V14.698V14.7096V14.7212V14.7328V14.7444V14.7561V14.7677V14.7793V14.7909V14.8025V14.8142V14.8258V14.8374V14.849V14.8606V14.8723V14.8839V14.8955V14.9071V14.9187V14.9304V14.942V14.9536V14.9652V14.9768V14.9885V15.0001V15.0117V15.0233V15.0349V15.0465V15.0582V15.0698V15.0814V15.093V15.1046V15.1162V15.1278V15.1395V15.1511V15.1627V15.1743V15.1859V15.1975V15.2091V15.2207V15.2323V15.2439V15.2555V15.2671V15.2787V15.2903V15.3019V15.3135V15.3251V15.3367V15.3482V15.3598V15.3714V15.383V15.3946V15.4062V15.4177V15.4293V15.4409V15.4524V15.464V15.4756V15.4871V15.4987V15.5103V15.5218V15.5334V15.5449V15.5565V15.568V15.5796V15.5911V15.6026V15.6142V15.6257V15.6372V15.6488V15.6603V15.6718V15.6833V15.6949V15.7064V15.7179V15.7294V15.7409V15.7524V15.7639V15.7754V15.7869V15.7984V15.8099V15.8213V15.8328V15.8443V15.8558V15.8672V15.8787V15.8902V15.9016V15.9131V15.9245V15.936V15.9474V15.9589V15.9703V15.9817V15.9931V16.0046V16.016V16.0274V16.0388V16.0502V16.0616V16.073V16.0844V16.0958V16.1072V16.1186V16.1299V16.1413V16.1527V16.164V16.1754V16.1868V16.1981V16.2095V16.2208V16.2321V16.2435V16.2548V16.2661V16.2774V16.2887V16.3V16.3113V16.3226V16.3339V16.3452V16.3565V16.3677V16.379V16.3903V16.4015V16.4128V16.424V16.4352V16.4465V16.4577V16.4689V16.4802V16.4914V16.5026V16.5138V16.525V16.5361V16.5473V16.5585V16.5697V16.5808V16.592V16.6031V16.6143V16.6254V16.6366V16.6477V16.6588V16.6699V16.681V16.6921V16.7032V16.7143V16.7254V16.7364V16.7475V16.7586V16.7696V16.7807V16.7917V16.8027V16.8138V16.8248V16.8358V16.8468V16.8578V16.8688V16.8797V16.8907V16.9017V16.9127V16.9236V16.9346V16.9455V16.9564V16.9673V16.9782V16.9892V17C37.8806 19.6226 36.6192 21.4641 35.3238 22.6706C34.6755 23.2741 34.0256 23.7115 33.5377 23.9977C33.2942 24.1404 33.0926 24.2446 32.9538 24.3124L32.952 24.3133L32.9502 24.3124C32.8114 24.2446 32.6098 24.1404 32.3663 23.9977C31.8782 23.7115 31.2283 23.2741 30.5802 22.6706C29.2848 21.4641 28.0234 19.6226 28.0234 17Z" stroke="white" stroke-width="0.666667"/>
</g>
<g clip-path="url(#clip1_1385_23840)">
<path d="M23.5347 0H-1.02344V17H23.5347V0Z" fill="#0A17A7"/>
<path fill-rule="evenodd" clip-rule="evenodd" d="M-2.14915 -1.62891L8.33118 5.22191V-1.13326H14.1783V5.22191L24.6587 -1.62891L25.9666 0.250243L17.6805 5.66674H23.5338V11.3334H17.6805L25.9666 16.7499L24.6587 18.6291L14.1783 11.7783V18.1334H8.33118V11.7783L-2.14915 18.6291L-3.45703 16.7499L4.82905 11.3334H-1.02433V5.66674H4.82905L-3.45703 0.250243L-2.14915 -1.62891Z" fill="white"/>
<path fill-rule="evenodd" clip-rule="evenodd" d="M26.7823 -1.90484C26.8981 -1.73138 26.8481 -1.49903 26.6706 -1.38587L15.5622 5.6965C15.3847 5.80966 15.1469 5.76078 15.0311 5.58732C14.9153 5.41386 14.9654 5.18151 15.1429 5.06835L26.2513 -2.01401C26.4288 -2.12717 26.6665 -2.07829 26.7823 -1.90484Z" fill="#DB1F35"/>
<path fill-rule="evenodd" clip-rule="evenodd" d="M16.2132 11.4344C16.3309 11.2623 16.5692 11.216 16.7454 11.3311L26.7036 17.8359C26.8798 17.951 26.9271 18.1839 26.8094 18.3561C26.6916 18.5283 26.4533 18.5746 26.2771 18.4595L16.319 11.9546C16.1428 11.8395 16.0954 11.6066 16.2132 11.4344Z" fill="#DB1F35"/>
<path fill-rule="evenodd" clip-rule="evenodd" d="M-4.70871 -1.62877C-4.59095 -1.80096 -4.35266 -1.84726 -4.17646 -1.73218L6.21076 5.05205C6.38696 5.16713 6.43433 5.40001 6.31658 5.5722C6.19882 5.74439 5.96053 5.79069 5.78433 5.67561L-4.60289 -1.10862C-4.77909 -1.2237 -4.82646 -1.45658 -4.70871 -1.62877Z" fill="#DB1F35"/>
<path fill-rule="evenodd" clip-rule="evenodd" d="M7.44477 11.3582C7.56121 11.5312 7.51207 11.7637 7.335 11.8775L-4.17883 19.2773C-4.3559 19.3911 -4.59384 19.3431 -4.71028 19.17C-4.82672 18.997 -4.77758 18.7645 -4.60051 18.6507L6.91332 11.2509C7.09039 11.1371 7.32833 11.1851 7.44477 11.3582Z" fill="#DB1F35"/>
<path fill-rule="evenodd" clip-rule="evenodd" d="M-1.02344 10.2H9.50148V17H13.0098V10.2H23.5347V6.8H13.0098V0H9.50148V6.8H-1.02344V10.2Z" fill="#E6273E"/>
</g>
</g>
<defs>
<clipPath id="clip0_1385_23840">
<rect width="43" height="34" rx="4" fill="white"/>
</clipPath>
<clipPath id="clip1_1385_23840">
<rect width="22" height="17" fill="white"/>
</clipPath>
</defs>
</svg>
