<svg width="43" height="34" viewBox="0 0 43 34" fill="none" xmlns="http://www.w3.org/2000/svg">
<g clip-path="url(#clip0_1385_23957)">
<path d="M63.9625 0H0V34H63.9625V0Z" fill="#B22234"/>
<path fill-rule="evenodd" clip-rule="evenodd" d="M63.9625 5.23068H0V2.6153H63.9625V5.23068ZM0 7.84607H63.9625V10.4614H0V7.84607ZM63.9625 15.6922H0V13.0768H63.9625V15.6922ZM0 18.3076H63.9625V20.923H0V18.3076ZM63.9625 26.1538H0V23.5384H63.9625V26.1538ZM0 28.7691H63.9625V31.3845H0V28.7691Z" fill="white"/>
<path d="M25.585 0H0V18.3077H25.585V0Z" fill="#3C3B6E"/>
<path d="M3.11493 4.98413L4.04299 7.8689L1.61328 6.08601H4.61657L2.18686 7.8689L3.11493 4.98413Z" fill="white"/>
<path d="M3.11493 10.5659L4.04299 13.4506L1.61328 11.6677H4.61657L2.18686 13.4506L3.11493 10.5659Z" fill="white"/>
<path d="M6.36493 2.19354L7.29299 5.07831L4.86328 3.29542H7.86657L5.43686 5.07831L6.36493 2.19354Z" fill="white"/>
<path d="M6.36493 7.7746L7.29299 10.6594L4.86328 8.87648H7.86657L5.43686 10.6594L6.36493 7.7746Z" fill="white"/>
<path d="M6.36493 13.3563L7.29299 16.2411L4.86328 14.4582H7.86657L5.43686 16.2411L6.36493 13.3563Z" fill="white"/>
<path d="M9.61102 4.98413L10.5391 7.8689L8.10938 6.08601H11.1127L8.68295 7.8689L9.61102 4.98413Z" fill="white"/>
<path d="M9.61102 10.5659L10.5391 13.4506L8.10938 11.6677H11.1127L8.68295 13.4506L9.61102 10.5659Z" fill="white"/>
<path d="M12.861 2.19354L13.7891 5.07831L11.3594 3.29542H14.3627L11.933 5.07831L12.861 2.19354Z" fill="white"/>
<path d="M12.861 7.7746L13.7891 10.6594L11.3594 8.87648H14.3627L11.933 10.6594L12.861 7.7746Z" fill="white"/>
<path d="M12.861 13.3563L13.7891 16.2411L11.3594 14.4582H14.3627L11.933 16.2411L12.861 13.3563Z" fill="white"/>
<path d="M16.111 4.98413L17.0391 7.8689L14.6094 6.08601H17.6127L15.183 7.8689L16.111 4.98413Z" fill="white"/>
<path d="M16.111 10.5659L17.0391 13.4506L14.6094 11.6677H17.6127L15.183 13.4506L16.111 10.5659Z" fill="white"/>
<path d="M19.361 2.19354L20.2891 5.07831L17.8594 3.29542H20.8627L18.433 5.07831L19.361 2.19354Z" fill="white"/>
<path d="M19.361 7.7746L20.2891 10.6594L17.8594 8.87648H20.8627L18.433 10.6594L19.361 7.7746Z" fill="white"/>
<path d="M19.361 13.3563L20.2891 16.2411L17.8594 14.4582H20.8627L18.433 16.2411L19.361 13.3563Z" fill="white"/>
<path d="M22.611 4.98413L23.5391 7.8689L21.1094 6.08601H24.1127L21.683 7.8689L22.611 4.98413Z" fill="white"/>
<path d="M22.611 10.5659L23.5391 13.4506L21.1094 11.6677H24.1127L21.683 13.4506L22.611 10.5659Z" fill="white"/>
<path d="M43 6.10352e-05H0V34.0001H43V6.10352e-05Z" fill="#79CFF6"/>
<path d="M18.5714 0H-2V15.8667H18.5714V0Z" fill="url(#paint0_linear_1385_23957)"/>
<path fill-rule="evenodd" clip-rule="evenodd" d="M27.7188 17C27.7188 13.6001 27.7188 9.06671 27.7188 9.06671H39.1474C39.1474 9.06671 39.1474 13.6001 39.1474 17C39.1474 22.6666 33.4332 24.9334 33.4332 24.9334C33.4332 24.9334 27.7188 22.6666 27.7188 17Z" fill="white"/>
<mask id="mask0_1385_23957" style="mask-type:luminance" maskUnits="userSpaceOnUse" x="27" y="9" width="13" height="16">
<path fill-rule="evenodd" clip-rule="evenodd" d="M27.7188 17C27.7188 13.6001 27.7188 9.06671 27.7188 9.06671H39.1474C39.1474 9.06671 39.1474 13.6001 39.1474 17C39.1474 22.6666 33.4332 24.9334 33.4332 24.9334C33.4332 24.9334 27.7188 22.6666 27.7188 17Z" fill="white"/>
</mask>
<g mask="url(#mask0_1385_23957)">
<path fill-rule="evenodd" clip-rule="evenodd" d="M31.145 13.6001C31.145 14.226 30.6335 14.7334 30.0023 14.7334C29.3711 14.7334 28.8594 14.226 28.8594 13.6001C28.8594 12.9742 29.3711 12.4667 30.0023 12.4667C30.6335 12.4667 31.145 12.9742 31.145 13.6001ZM38.0022 13.6001C38.0022 14.226 37.4906 14.7334 36.8594 14.7334C36.2282 14.7334 35.7165 14.226 35.7165 13.6001C35.7165 12.9742 36.2282 12.4667 36.8594 12.4667C37.4906 12.4667 38.0022 12.9742 38.0022 13.6001Z" fill="#2A915C"/>
<path fill-rule="evenodd" clip-rule="evenodd" d="M27.7188 9.06671H39.1474V11.3334H34.5759V15.8667H39.1474V18.1334H34.5759V24.9334H32.2902V18.1334H27.7188V15.8667H32.2902V11.3334H27.7188V9.06671Z" fill="#EB1D43"/>
</g>
<path d="M-1.99825 -0.566659H-3.54297L-2.37013 0.430253L5.43032 7.06063V8.77505L-2.33039 14.2722L-2.56968 14.4417V14.7333V15.8667V16.8891L-1.69539 16.3472L7.30849 10.7667H9.24719L16.9996 16.258C17.1606 16.372 17.3536 16.4333 17.5515 16.4333C18.4329 16.4333 18.8385 15.3459 18.1693 14.777L11.1446 8.80604V7.09163L18.6661 1.76396C18.9664 1.55121 19.1445 1.20773 19.1445 0.841723V7.27177e-06V-1.0224L18.2703 -0.480525L9.26644 5.10001H7.32774L-0.523257 -0.461107L-0.672271 -0.566659H-0.855392H-1.99825Z" fill="#DB1E36" stroke="white" stroke-width="0.666667"/>
<path fill-rule="evenodd" clip-rule="evenodd" d="M-2 5.66666V10.2H6.00001V15.8667C6.00001 16.4926 6.51167 17 7.14285 17H9.42858C10.0598 17 10.5714 16.4926 10.5714 15.8667V10.2H18.5714C19.2026 10.2 19.7143 9.69258 19.7143 9.06666V6.8C19.7143 6.17408 19.2026 5.66666 18.5714 5.66666H10.5714V0H6.00001V5.66666H-2Z" fill="url(#paint1_linear_1385_23957)"/>
<path fill-rule="evenodd" clip-rule="evenodd" d="M-2 6.8H7.14285V5.66666V0H9.42858V5.66666V6.8H18.5714V9.06666H9.42858V10.2V15.8667H7.14285V10.2V9.06666H-2V6.8Z" fill="#DB1E36"/>
</g>
<defs>
<linearGradient id="paint0_linear_1385_23957" x1="-2" y1="0" x2="-2" y2="15.8667" gradientUnits="userSpaceOnUse">
<stop stop-color="#042C90"/>
<stop offset="1" stop-color="#00247E"/>
</linearGradient>
<linearGradient id="paint1_linear_1385_23957" x1="-2" y1="0" x2="-2" y2="17" gradientUnits="userSpaceOnUse">
<stop stop-color="white"/>
<stop offset="1" stop-color="#F0F0F0"/>
</linearGradient>
<clipPath id="clip0_1385_23957">
<rect width="43" height="34" rx="4" fill="white"/>
</clipPath>
</defs>
</svg>
