<svg width="43" height="34" viewBox="0 0 43 34" fill="none" xmlns="http://www.w3.org/2000/svg">
<g clip-path="url(#clip0_1385_24079)">
<path fill-rule="evenodd" clip-rule="evenodd" d="M0 9H43V0H0V9Z" fill="#D82332"/>
<path fill-rule="evenodd" clip-rule="evenodd" d="M0 25H43V9H0V25Z" fill="white"/>
<path fill-rule="evenodd" clip-rule="evenodd" d="M0 34H43V25H0V34Z" fill="#D82332"/>
<path fill-rule="evenodd" clip-rule="evenodd" d="M20.3938 18.2795L19.9062 18.7306C20.347 18.8531 20.9585 18.7103 21.2021 18.2795H20.3938Z" fill="#064A89"/>
<path fill-rule="evenodd" clip-rule="evenodd" d="M16.4609 18.5868C16.7909 18.914 17.3375 18.8758 17.6675 18.6687C17.9976 18.4615 18.2402 18.4482 18.4459 18.47C18.4677 18.6546 18.5164 18.8914 18.5997 19.1254H16.6421C16.5936 19.0055 16.4987 18.7259 16.4609 18.5868Z" fill="#064A89"/>
<path fill-rule="evenodd" clip-rule="evenodd" d="M16.8281 19.4612C17.2125 19.2812 17.6052 19.424 17.7751 19.5537C18.089 19.7937 18.6074 19.7286 18.8618 19.5925C18.9588 19.7495 19.0768 19.9041 19.2189 20.0219H17.1244C17.0393 19.8857 16.8554 19.551 16.8281 19.4612Z" fill="#064A89"/>
<path fill-rule="evenodd" clip-rule="evenodd" d="M25.9404 20.9523C26.0325 20.8597 26.1569 20.707 26.2382 20.5981C26.1029 20.5816 25.9456 20.4845 25.7783 20.4017C25.4697 20.2489 25.175 20.2489 24.9125 20.4289C24.5231 20.696 24.0359 20.7614 23.6572 20.4944C23.2416 20.2013 22.8564 20.2654 22.5317 20.451C22.2071 20.6361 22.0015 20.647 21.8066 20.647C21.6119 20.647 21.4063 20.6361 21.0816 20.451C20.7568 20.2654 20.3717 20.2013 19.956 20.4944C19.5773 20.7614 19.0903 20.696 18.7008 20.4289C18.4382 20.2489 18.1435 20.2489 17.8349 20.4017C17.6675 20.4845 17.5104 20.5816 17.375 20.5981C17.4563 20.707 17.5807 20.8597 17.6728 20.9523H25.9404Z" fill="#064A89"/>
<path fill-rule="evenodd" clip-rule="evenodd" d="M24.9258 21.864C25.0122 21.8096 25.2505 21.6297 25.3695 21.5369C25.2395 21.5643 24.9435 21.4686 24.7906 21.3897C24.3467 21.1605 24.0546 21.1825 23.7246 21.3569C23.3944 21.5315 22.9292 21.6241 22.5884 21.4388C22.2474 21.2535 22.0038 21.2042 21.8254 21.2042C21.6469 21.2042 21.4033 21.2535 21.0623 21.4388C20.7215 21.6241 20.2563 21.5315 19.9261 21.3569C19.5961 21.1825 19.304 21.1605 18.8602 21.3897C18.7072 21.4686 18.4112 21.5643 18.2812 21.5369C18.4002 21.6297 18.6383 21.8096 18.7249 21.864H24.9258Z" fill="#064A89"/>
<path fill-rule="evenodd" clip-rule="evenodd" d="M22.966 20.0517C22.8739 20.0027 22.7664 19.8885 22.6682 19.7418C22.5114 19.5074 22.2624 19.3765 21.8891 19.3765C21.5159 19.3765 21.267 19.5074 21.1099 19.7418C21.0119 19.8885 20.9042 20.0027 20.8125 20.0517H22.966Z" fill="#064A89"/>
<path fill-rule="evenodd" clip-rule="evenodd" d="M22.355 19.2098C22.3171 19.1444 22.2361 18.9371 22.209 18.828C22.1222 18.8554 21.9546 18.8663 21.8572 18.8663C21.7598 18.8663 21.5922 18.8554 21.5054 18.828C21.4785 18.9371 21.3974 19.1444 21.3594 19.2098H22.355Z" fill="#064A89"/>
<path fill-rule="evenodd" clip-rule="evenodd" d="M23.2612 18.2795L23.749 18.7306C23.308 18.8531 22.6966 18.7103 22.4531 18.2795H23.2612Z" fill="#064A89"/>
<path fill-rule="evenodd" clip-rule="evenodd" d="M27.3106 18.5868C26.9806 18.914 26.4341 18.8758 26.1041 18.6687C25.7739 18.4615 25.5314 18.4482 25.3256 18.47C25.3037 18.6546 25.2552 18.8914 25.1719 19.1254H27.1294C27.1779 19.0055 27.2727 18.7259 27.3106 18.5868Z" fill="#064A89"/>
<path fill-rule="evenodd" clip-rule="evenodd" d="M27.0157 19.4612C26.6316 19.2812 26.2388 19.424 26.0688 19.5537C25.7551 19.7937 25.2365 19.7286 24.9823 19.5925C24.8852 19.7495 24.7673 19.9041 24.625 20.0219H26.7195C26.8047 19.8857 26.9888 19.551 27.0157 19.4612Z" fill="#064A89"/>
<path fill-rule="evenodd" clip-rule="evenodd" d="M23.9807 22.2217C23.3247 22.4915 22.6066 22.6404 21.8542 22.6404C21.1009 22.6404 20.3833 22.4917 19.7266 22.2214C19.8673 22.2051 20.0535 22.1367 20.2038 22.0524C20.4474 21.9161 20.8909 21.8889 21.1021 22.0252C21.313 22.1616 21.5674 22.2977 21.8542 22.2977C22.141 22.2977 22.3954 22.1616 22.6062 22.0252C22.8172 21.8889 23.2609 21.9161 23.5047 22.0524C23.6547 22.1367 23.84 22.2054 23.9807 22.2217Z" fill="#064A89"/>
<path fill-rule="evenodd" clip-rule="evenodd" d="M23.0634 11.4358C21.8784 11.1905 20.8125 11.3322 20.8125 12.4554C20.8125 13.5568 20.8125 15.1924 20.8125 15.5306C20.8125 15.8686 20.8192 15.9114 21.2183 16.005C22.084 16.2081 22.1651 16.2285 23.1066 16.4464V13.2842C22.3708 13.2023 22.0895 12.7863 22.0895 12.3028C22.0895 11.8339 22.414 11.5285 23.0634 11.4358Z" fill="#514537"/>
<path fill-rule="evenodd" clip-rule="evenodd" d="M20.0319 20.1084C19.3717 20.1084 18.6791 19.5304 18.6791 18.4292C18.6791 17.3276 18.6791 15.9428 18.6791 15.692C18.6791 15.4439 18.7069 15.409 18.6493 15.3512C18.6157 15.3172 18.6873 15.2668 18.7359 15.2176C18.8091 15.1439 18.8591 15.0827 18.7604 14.9831C18.6615 14.8836 18.7036 14.8577 18.7659 14.7952C18.8281 14.7323 18.8524 14.6698 18.7929 14.6096C18.7333 14.5497 18.7197 14.5307 18.7847 14.4652C18.8497 14.3998 18.8226 14.3725 18.7686 14.3179C18.7143 14.2634 18.6887 14.2239 18.7576 14.1545C18.8253 14.0863 18.8307 14.0753 18.9092 14.0753C18.9877 14.0753 19.1581 14.0753 19.2339 14.0753C19.3096 14.0753 19.311 14.0985 19.2472 14.1627C19.1648 14.2457 19.1404 14.2784 19.2339 14.3725C19.3271 14.4665 19.3232 14.4979 19.2637 14.5579C19.1742 14.6478 19.1349 14.7093 19.2256 14.8007C19.3163 14.8919 19.3244 14.9328 19.2555 15.0023C19.1865 15.0717 19.1797 15.1332 19.2555 15.2094C19.3137 15.2681 19.3177 15.3022 19.3177 15.4057C19.3177 16.0301 19.3177 17.7312 19.3177 18.2C19.3177 18.6691 19.6532 18.9524 20.2916 18.9524C20.9301 18.9524 21.1467 18.6906 21.3306 18.5164C21.2116 19.3559 20.8652 20.1084 20.0319 20.1084Z" fill="#514537"/>
<path fill-rule="evenodd" clip-rule="evenodd" d="M21.8987 17.4335C21.988 17.4605 22.0744 17.5914 22.0744 17.7332H22.2505C22.2505 17.6133 22.1989 17.428 22.1056 17.3133C22.1042 17.2834 22.1003 17.2575 22.0934 17.2317C22.1584 17.1497 22.2532 17.0188 22.2505 16.8935C22.2486 16.8143 22.1557 16.8173 22.1449 16.88C22.136 16.9315 22.1017 17.0109 22.0367 17.0381C22.0367 16.9372 21.9798 16.8173 21.8987 16.8173C21.8176 16.8173 21.7607 16.9372 21.7607 17.0381C21.6957 17.0109 21.6614 16.9315 21.6525 16.88C21.6416 16.8173 21.5486 16.8143 21.5469 16.8935C21.5442 17.0188 21.639 17.1497 21.7038 17.2317C21.6971 17.2575 21.6932 17.2834 21.6918 17.3133C21.5985 17.428 21.5469 17.6133 21.5469 17.7332H21.723C21.723 17.5914 21.8094 17.4605 21.8987 17.4335Z" fill="#514537"/>
<path fill-rule="evenodd" clip-rule="evenodd" d="M20.9846 17.4335C21.0738 17.4605 21.1605 17.5914 21.1605 17.7332H21.3364C21.3364 17.6133 21.285 17.428 21.1916 17.3133C21.1904 17.2834 21.1861 17.2575 21.1794 17.2317C21.2444 17.1497 21.3392 17.0188 21.3364 16.8935C21.3347 16.8143 21.2416 16.8173 21.2308 16.88C21.2219 16.9315 21.1874 17.0109 21.1226 17.0381C21.1226 16.9372 21.0659 16.8173 20.9846 16.8173C20.9036 16.8173 20.8468 16.9372 20.8468 17.0381C20.7818 17.0109 20.7474 16.9315 20.7385 16.88C20.7275 16.8173 20.6348 16.8143 20.6329 16.8935C20.6301 17.0188 20.7248 17.1497 20.7897 17.2317C20.783 17.2575 20.7791 17.2834 20.7776 17.3133C20.6843 17.428 20.6329 17.6133 20.6329 17.7332H20.8088C20.8088 17.5914 20.8953 17.4605 20.9846 17.4335Z" fill="#514537"/>
<path fill-rule="evenodd" clip-rule="evenodd" d="M20.0784 17.4335C20.1675 17.4605 20.2541 17.5914 20.2541 17.7332H20.43C20.43 17.6133 20.3786 17.428 20.2853 17.3133C20.2839 17.2834 20.2798 17.2575 20.2731 17.2317C20.3381 17.1497 20.4327 17.0188 20.43 16.8935C20.4283 16.8143 20.3354 16.8173 20.3246 16.88C20.3156 16.9315 20.2812 17.0109 20.2162 17.0381C20.2162 16.9372 20.1595 16.8173 20.0784 16.8173C19.9971 16.8173 19.9402 16.9372 19.9402 17.0381C19.8754 17.0109 19.8411 16.9315 19.8322 16.88C19.8212 16.8173 19.7282 16.8143 19.7266 16.8935C19.7239 17.0188 19.8185 17.1497 19.8835 17.2317C19.8768 17.2575 19.8727 17.2834 19.8713 17.3133C19.7779 17.428 19.7266 17.6133 19.7266 17.7332H19.9023C19.9023 17.5914 19.9891 17.4605 20.0784 17.4335Z" fill="#514537"/>
<path fill-rule="evenodd" clip-rule="evenodd" d="M22.805 17.4335C22.7156 17.4605 22.6292 17.5914 22.6292 17.7332H22.4532C22.4532 17.6133 22.5046 17.428 22.598 17.3133C22.5992 17.2834 22.6034 17.2575 22.6104 17.2317C22.5452 17.1497 22.4504 17.0188 22.4532 16.8935C22.4551 16.8143 22.548 16.8173 22.5588 16.88C22.5677 16.9315 22.6022 17.0109 22.667 17.0381C22.667 16.9372 22.7239 16.8173 22.805 16.8173C22.8862 16.8173 22.943 16.9372 22.943 17.0381C23.0078 17.0109 23.0422 16.9315 23.0511 16.88C23.0621 16.8173 23.1548 16.8143 23.1567 16.8935C23.1595 17.0188 23.0647 17.1497 22.9999 17.2317C23.0066 17.2575 23.0107 17.2834 23.0119 17.3133C23.1053 17.428 23.1567 17.6133 23.1567 17.7332H22.9807C22.9807 17.5914 22.8943 17.4605 22.805 17.4335Z" fill="#514537"/>
<path fill-rule="evenodd" clip-rule="evenodd" d="M23.7112 17.4335C23.6221 17.4605 23.5355 17.5914 23.5355 17.7332H23.3594C23.3594 17.6133 23.411 17.428 23.5043 17.3133C23.5057 17.2834 23.5098 17.2575 23.5165 17.2317C23.4515 17.1497 23.3567 17.0188 23.3594 16.8935C23.3611 16.8143 23.4542 16.8173 23.465 16.88C23.4739 16.9315 23.5082 17.0109 23.5732 17.0381C23.5732 16.9372 23.6301 16.8173 23.7112 16.8173C23.7925 16.8173 23.8492 16.9372 23.8492 17.0381C23.9142 17.0109 23.9485 16.9315 23.9574 16.88C23.9683 16.8173 24.0611 16.8143 24.063 16.8935C24.0657 17.0188 23.9711 17.1497 23.9061 17.2317C23.9128 17.2575 23.9167 17.2834 23.9183 17.3133C24.0117 17.428 24.063 17.6133 24.063 17.7332H23.8873C23.8873 17.5914 23.8005 17.4605 23.7112 17.4335Z" fill="#514537"/>
<path fill-rule="evenodd" clip-rule="evenodd" d="M19.5469 17.9141H24.3083V18.1407H19.5469V17.9141Z" fill="#514537"/>
<path fill-rule="evenodd" clip-rule="evenodd" d="M23.7519 20.1084C24.4119 20.1084 25.1046 19.5304 25.1046 18.4292C25.1046 17.3276 25.1046 15.9428 25.1046 15.692C25.1046 15.4439 25.0768 15.409 25.1343 15.3512C25.168 15.3172 25.0964 15.2668 25.0477 15.2176C24.9747 15.1439 24.9246 15.0827 25.0232 14.9831C25.1221 14.8836 25.0801 14.8577 25.018 14.7952C24.9556 14.7323 24.9313 14.6698 24.9908 14.6096C25.0503 14.5497 25.064 14.5307 24.999 14.4652C24.934 14.3998 24.9611 14.3725 25.0151 14.3179C25.0693 14.2634 25.0948 14.2239 25.0259 14.1545C24.9584 14.0863 24.9531 14.0753 24.8746 14.0753C24.796 14.0753 24.6256 14.0753 24.5499 14.0753C24.4741 14.0753 24.4727 14.0985 24.5363 14.1627C24.619 14.2457 24.6433 14.2784 24.5499 14.3725C24.4566 14.4665 24.4606 14.4979 24.52 14.5579C24.6095 14.6478 24.6484 14.7093 24.5579 14.8007C24.4672 14.8919 24.459 14.9328 24.5283 15.0023C24.5972 15.0717 24.604 15.1332 24.5283 15.2094C24.47 15.2681 24.466 15.3022 24.466 15.4057C24.466 16.0301 24.466 17.7312 24.466 18.2C24.466 18.6691 24.1304 18.9524 23.492 18.9524C22.8534 18.9524 22.6372 18.6906 22.4531 18.5164C22.5721 19.3559 22.9184 20.1084 23.7519 20.1084Z" fill="#514537"/>
<path fill-rule="evenodd" clip-rule="evenodd" d="M19.5469 16.4464C19.5469 16.4464 19.547 16.2855 19.547 16.0861L20.4988 16.4465L19.5469 16.4464Z" fill="#EEA339"/>
<path fill-rule="evenodd" clip-rule="evenodd" d="M18.4111 16.6138L16.2812 16.3244C16.3431 15.8645 16.46 15.4161 16.6284 14.9893L18.4111 15.7023V16.6138Z" fill="#EEA339"/>
<path fill-rule="evenodd" clip-rule="evenodd" d="M22.8125 13.0832L23.191 11.5162C23.6342 11.6245 24.0648 11.7875 24.473 12.0025L23.2519 14.3576L23.2562 13.1751C23.1152 13.1758 22.8991 13.1541 22.8125 13.0832Z" fill="#EEA339"/>
<path fill-rule="evenodd" clip-rule="evenodd" d="M18.4614 16.7671L16.2918 16.6344C16.2638 17.0929 16.2916 17.5555 16.3751 18.012C16.3751 18.012 18.4614 18.025 18.4614 18.012V16.7671Z" fill="#EEA339"/>
<path fill-rule="evenodd" clip-rule="evenodd" d="M18.4425 15.2925C18.3724 15.1999 18.4157 15.1505 18.4913 15.1013C18.5671 15.0523 18.5563 15.0141 18.5186 14.9434C18.4805 14.8725 18.4426 14.7961 18.5131 14.7198C18.5834 14.6434 18.5563 14.6107 18.5021 14.5562C18.4481 14.5017 18.4426 14.4418 18.4913 14.3981C18.5402 14.3544 18.5292 14.3217 18.497 14.2782C18.4642 14.2345 18.4006 14.146 18.4576 14.0888L17.5725 13.3441C17.28 13.6965 17.0297 14.0855 16.8281 14.5027L18.4425 15.2925Z" fill="#EEA339"/>
<path fill-rule="evenodd" clip-rule="evenodd" d="M20.5604 15.6986L19.5054 14.6678C19.6542 14.5179 19.6691 14.4934 19.5637 14.3871C19.4487 14.2712 19.4446 14.2591 19.6786 14.0231C19.7585 13.9429 19.7137 13.8867 19.6002 13.8867C19.4866 13.8867 18.9644 13.8867 18.9049 13.8867C18.8454 13.8867 18.7986 13.8898 18.7551 13.9337L17.9141 13.1133C18.235 12.7805 18.5934 12.49 18.9805 12.2474L20.5604 14.8075V15.6986Z" fill="#EEA339"/>
<path fill-rule="evenodd" clip-rule="evenodd" d="M19.4652 15.8553C19.4652 15.5993 19.4654 15.3457 19.4654 15.3097C19.4654 15.2333 19.4599 15.2033 19.4004 15.1433C19.3409 15.0834 19.3707 15.0547 19.4167 14.9893L20.4173 15.8292V16.3224L19.4652 15.8553Z" fill="#EEA339"/>
<path fill-rule="evenodd" clip-rule="evenodd" d="M20.4041 14.3589C20.4041 13.867 20.4041 13.412 20.4041 13.1499C20.4041 12.3648 20.4478 11.9721 20.5615 11.8932L20.4706 11.5162C20.0263 11.6367 19.5957 11.7998 19.1875 12.0147L20.4041 14.3589Z" fill="#EEA339"/>
<path fill-rule="evenodd" clip-rule="evenodd" d="M24.3113 16.4464C24.3113 16.4464 24.3111 16.2855 24.3111 16.0861L23.3594 16.4465L24.3113 16.4464Z" fill="#EEA339"/>
<path fill-rule="evenodd" clip-rule="evenodd" d="M25.3516 16.6138L27.4814 16.3244C27.4197 15.8645 27.3026 15.4161 27.1342 14.9893L25.3516 15.7023V16.6138Z" fill="#EEA339"/>
<path fill-rule="evenodd" clip-rule="evenodd" d="M25.3516 16.7671L27.521 16.6344C27.5489 17.0929 27.5213 17.5555 27.4377 18.012C27.4377 18.012 25.3516 18.025 25.3516 18.012V16.7671Z" fill="#EEA339"/>
<path fill-rule="evenodd" clip-rule="evenodd" d="M25.2847 15.2925C25.3552 15.1999 25.3116 15.1505 25.2358 15.1013C25.1601 15.0523 25.171 15.0141 25.2088 14.9434C25.2466 14.8725 25.2845 14.7961 25.2141 14.7198C25.1438 14.6434 25.171 14.6107 25.225 14.5562C25.279 14.5017 25.2845 14.4418 25.2358 14.3981C25.1872 14.3544 25.198 14.3217 25.2304 14.2782C25.2629 14.2345 25.3264 14.146 25.2696 14.0888L26.1547 13.3441C26.4472 13.6965 26.6973 14.0855 26.8989 14.5027L25.2847 15.2925Z" fill="#EEA339"/>
<path fill-rule="evenodd" clip-rule="evenodd" d="M23.3594 15.6986L24.4142 14.6678C24.2654 14.5179 24.2505 14.4934 24.3561 14.3871C24.4711 14.2712 24.4752 14.2591 24.2412 14.0231C24.1611 13.9429 24.2061 13.8867 24.3195 13.8867C24.4332 13.8867 24.9554 13.8867 25.0149 13.8867C25.0743 13.8867 25.1211 13.8898 25.1647 13.9337L26.0057 13.1133C25.6848 12.7805 25.3263 12.49 24.9393 12.2474L23.3594 14.8075V15.6986Z" fill="#EEA339"/>
<path fill-rule="evenodd" clip-rule="evenodd" d="M24.3117 15.8553C24.3117 15.5993 24.3113 15.3457 24.3113 15.3097C24.3113 15.2333 24.3168 15.2033 24.3763 15.1433C24.4358 15.0834 24.4061 15.0547 24.36 14.9893L23.3594 15.8292V16.3224L24.3117 15.8553Z" fill="#EEA339"/>
<path fill-rule="evenodd" clip-rule="evenodd" d="M18.8203 15.3549C18.8582 15.3931 18.8745 15.4311 18.8745 15.5238C18.8745 15.6164 18.8745 17.6448 18.8745 18.4409C18.8745 19.4112 19.4589 19.951 20.0596 19.951C20.6114 19.951 20.974 19.4441 21.1634 18.8552C20.92 19.0461 20.5627 19.1059 20.2217 19.1059C19.8268 19.1059 19.1884 18.8389 19.1884 18.261C19.1884 17.7265 19.1884 15.7473 19.1884 15.4311C19.1884 15.3549 19.1126 15.3549 18.8203 15.3549Z" fill="#D82332"/>
<path fill-rule="evenodd" clip-rule="evenodd" d="M22.2678 11.533C21.5133 11.456 20.8134 11.6141 20.8134 12.6513C20.8134 13.7419 20.8134 15.0721 20.8134 15.407C20.8134 15.8671 20.7775 15.8124 21.1645 15.9091C21.8665 16.0846 21.946 16.1069 22.7977 16.3028V13.4991C22.0705 13.4189 21.7554 12.939 21.7554 12.4076C21.7554 11.9848 21.9409 11.5869 22.2678 11.533Z" fill="#D82332"/>
<path fill-rule="evenodd" clip-rule="evenodd" d="M24.9757 15.3549C24.9378 15.3931 24.9216 15.4311 24.9216 15.5238C24.9216 15.6164 24.9216 17.6448 24.9216 18.4409C24.9216 19.4112 24.3372 19.951 23.7366 19.951C23.1848 19.951 22.8221 19.4441 22.6328 18.8552C22.8764 19.0461 23.2333 19.1059 23.5745 19.1059C23.9693 19.1059 24.6077 18.8389 24.6077 18.261C24.6077 17.7265 24.6077 15.7473 24.6077 15.4311C24.6077 15.3549 24.6836 15.3549 24.9757 15.3549Z" fill="#D82332"/>
<mask id="mask0_1385_24079" style="mask-type:luminance" maskUnits="userSpaceOnUse" x="16" y="11" width="12" height="12">
<path fill-rule="evenodd" clip-rule="evenodd" d="M21.9955 22.6668C25.1515 22.6668 27.7099 20.1297 27.7099 17C27.7099 13.8704 25.1515 11.3334 21.9955 11.3334C18.8396 11.3334 16.2812 13.8704 16.2812 17C16.2812 20.1297 18.8396 22.6668 21.9955 22.6668Z" fill="white"/>
</mask>
<g mask="url(#mask0_1385_24079)">
<path fill-rule="evenodd" clip-rule="evenodd" d="M21.9955 31.7334C25.1515 31.7334 27.7099 29.1963 27.7099 26.0666C27.7099 22.9371 25.1515 20.4 21.9955 20.4C18.8396 20.4 16.2812 22.9371 16.2812 26.0666C16.2812 29.1963 18.8396 31.7334 21.9955 31.7334Z" fill="#064A89"/>
</g>
</g>
<defs>
<clipPath id="clip0_1385_24079">
<rect width="43" height="34" rx="4" fill="white"/>
</clipPath>
</defs>
</svg>
