<svg width="43" height="34" viewBox="0 0 43 34" fill="none" xmlns="http://www.w3.org/2000/svg">
<g clip-path="url(#clip0_1013_3279)">
<path fill-rule="evenodd" clip-rule="evenodd" d="M0 33.9998H43V-0.000244141H0V33.9998Z" fill="white"/>
<path fill-rule="evenodd" clip-rule="evenodd" d="M0 33.9998H43V24.9998H0V33.9998Z" fill="#E34F4F"/>
<path fill-rule="evenodd" clip-rule="evenodd" d="M11 24.9999H32V11.6362H11V24.9999Z" fill="#E34F4F"/>
<path fill-rule="evenodd" clip-rule="evenodd" d="M14.8184 24.9999H17.682V22.1362H14.8184V24.9999Z" fill="#181A1A"/>
<path fill-rule="evenodd" clip-rule="evenodd" d="M25.3184 24.9999H28.182V22.1362H25.3184V24.9999Z" fill="#181A1A"/>
<path fill-rule="evenodd" clip-rule="evenodd" d="M11 11.6361H14.8182V7.81787H11V11.6361Z" fill="#181A1A"/>
<path fill-rule="evenodd" clip-rule="evenodd" d="M21.5 11.6361H25.3182V7.81787H21.5V11.6361Z" fill="#181A1A"/>
<path fill-rule="evenodd" clip-rule="evenodd" d="M17.6816 11.6361H21.4998V7.81787H17.6816V11.6361Z" fill="#181A1A"/>
<path fill-rule="evenodd" clip-rule="evenodd" d="M28.1816 11.6361H31.9998V7.81787H28.1816V11.6361Z" fill="#181A1A"/>
<path fill-rule="evenodd" clip-rule="evenodd" d="M11 7.81798H14.8182V4.95435H11V7.81798Z" fill="#E34F4F"/>
<path fill-rule="evenodd" clip-rule="evenodd" d="M21.5 7.81798H25.3182V4.95435H21.5V7.81798Z" fill="#E34F4F"/>
<path fill-rule="evenodd" clip-rule="evenodd" d="M17.6816 7.81798H21.4998V4.95435H17.6816V7.81798Z" fill="#E34F4F"/>
<path fill-rule="evenodd" clip-rule="evenodd" d="M28.1816 7.81798H31.9998V4.95435H28.1816V7.81798Z" fill="#E34F4F"/>
</g>
<rect x="0.5" y="0.5" width="42" height="33" rx="3.5" stroke="#C9CFDB"/>
<defs>
<clipPath id="clip0_1013_3279">
<rect width="43" height="34" rx="4" fill="white"/>
</clipPath>
</defs>
</svg>
