<svg width="43" height="34" viewBox="0 0 43 34" fill="none" xmlns="http://www.w3.org/2000/svg">
<g clip-path="url(#clip0_1385_23032)">
<path d="M43 0H0V34H43V0Z" fill="#E42235"/>
<path d="M39 4H4V29H39V4Z" fill="#079B77"/>
<path fill-rule="evenodd" clip-rule="evenodd" d="M7.36891 17.1075C8.02112 18.1402 8.95749 18.822 9.82963 18.9969C10.3098 19.0933 9.43067 16.9145 9.81377 16.6775C10.1406 16.4754 11.7133 18.2874 11.851 17.9093C12.1678 17.0396 11.9809 15.8079 11.276 14.6917C10.2647 13.0903 10.2253 14.1472 7.49139 13C7.77723 14.6406 6.35765 15.5061 7.36891 17.1075Z" fill="#FFD938"/>
<path fill-rule="evenodd" clip-rule="evenodd" d="M21.4999 16.5L39 4H4L21.4999 16.5ZM21.4999 16.5L4 29H39L21.4999 16.5Z" fill="#FFD93B"/>
<path fill-rule="evenodd" clip-rule="evenodd" d="M21.4999 22C24.5376 22 27 19.5375 27 16.5C27 13.4624 24.5376 11 21.4999 11C18.4624 11 16 13.4624 16 16.5C16 19.5375 18.4624 22 21.4999 22Z" fill="url(#paint0_linear_1385_23032)"/>
<path fill-rule="evenodd" clip-rule="evenodd" d="M21.4999 18.1277L18.7188 20L19.7646 16.9493L17 15.0557L20.4275 15.0425L21.4999 12L22.5725 15.0425L26 15.0557L23.2354 16.9493L24.2812 20L21.4999 18.1277Z" fill="#FFD938"/>
</g>
<defs>
<linearGradient id="paint0_linear_1385_23032" x1="16" y1="11" x2="16" y2="22" gradientUnits="userSpaceOnUse">
<stop stop-color="#E21C30"/>
<stop offset="1" stop-color="#CE1225"/>
</linearGradient>
<clipPath id="clip0_1385_23032">
<rect width="43" height="34" rx="4" fill="white"/>
</clipPath>
</defs>
</svg>
