<svg width="43" height="34" viewBox="0 0 43 34" fill="none" xmlns="http://www.w3.org/2000/svg">
<g clip-path="url(#clip0_1385_23051)">
<path fill-rule="evenodd" clip-rule="evenodd" d="M0 34H13V0H0V34Z" fill="#63AEE3"/>
<path fill-rule="evenodd" clip-rule="evenodd" d="M30 34H13V0H30V34Z" fill="white"/>
<path d="M43 0H30V34H43V0Z" fill="#63AEE3"/>
<path d="M17.5081 15.6382C17.5081 14.9097 16.9126 14.3191 16.1779 14.3191C15.4432 14.3191 14.8477 14.9097 14.8477 15.6382H17.5081ZM18.1646 21.346C18.8001 21.7117 19.6139 21.4972 19.9827 20.8672C20.3514 20.237 20.1351 19.4297 19.4998 19.0643L18.1646 21.346ZM23.6448 18.9751C23.026 19.3676 22.8451 20.1834 23.2409 20.7972C23.6368 21.4107 24.4594 21.5902 25.0782 21.1977L23.6448 18.9751ZM28.1495 15.6382C28.1495 14.9097 27.5539 14.3191 26.8192 14.3191C26.0848 14.3191 25.4892 14.9097 25.4892 15.6382H28.1495ZM14.8477 15.6382C14.8477 18.0779 16.1843 20.2066 18.1646 21.346L19.4998 19.0643C18.306 18.3773 17.5081 17.0993 17.5081 15.6382H14.8477ZM25.0782 21.1977C26.9222 20.0281 28.1495 17.9756 28.1495 15.6382H25.4892C25.4892 17.0384 24.7567 18.2699 23.6448 18.9751L25.0782 21.1977Z" fill="#628A40"/>
<path fill-rule="evenodd" clip-rule="evenodd" d="M21.5001 18.2764C22.9694 18.2764 24.1606 17.0952 24.1606 15.6382C24.1606 14.1811 22.9694 13 21.5001 13C20.0308 13 18.8398 14.1811 18.8398 15.6382C18.8398 17.0952 20.0308 18.2764 21.5001 18.2764Z" fill="#DCC26D"/>
</g>
<defs>
<clipPath id="clip0_1385_23051">
<rect width="43" height="34" rx="4" fill="white"/>
</clipPath>
</defs>
</svg>
