<svg width="43" height="34" viewBox="0 0 43 34" fill="none" xmlns="http://www.w3.org/2000/svg">
<g clip-path="url(#clip0_1013_3264)">
<path d="M43 0H0V34H43V0Z" fill="#C11020"/>
<path d="M23 4H20V30H23V4Z" fill="#FFD605"/>
<path d="M36 18V15L7 15V18H36Z" fill="#FFD605"/>
<path fill-rule="evenodd" clip-rule="evenodd" d="M18 4L21.4238 7L25 4H18Z" fill="#FFD605"/>
<path fill-rule="evenodd" clip-rule="evenodd" d="M25 30L21.5762 27L18 30H25Z" fill="#FFD605"/>
<path fill-rule="evenodd" clip-rule="evenodd" d="M7 20L10 16.5762L7 13L7 20Z" fill="#FFD605"/>
<path fill-rule="evenodd" clip-rule="evenodd" d="M36 20L33 16.5762L36 13L36 20Z" fill="#FFD605"/>
<path d="M16 0H0V11H16V0Z" fill="white"/>
<path d="M43 0H27V11H43V0Z" fill="white"/>
<path d="M16 22H0V34H16V22Z" fill="white"/>
<path d="M43 22H27V34H43V22Z" fill="white"/>
</g>
<rect x="0.5" y="0.5" width="42" height="33" rx="3.5" stroke="#C9CFDB"/>
<defs>
<clipPath id="clip0_1013_3264">
<rect width="43" height="34" rx="4" fill="white"/>
</clipPath>
</defs>
</svg>
