<svg width="43" height="34" viewBox="0 0 43 34" fill="none" xmlns="http://www.w3.org/2000/svg">
<g clip-path="url(#clip0_1385_23873)">
<path d="M43 0H0V34H43V0Z" fill="#08C55F"/>
<path d="M-3.14062 32.8666V1.13333H-2.18323L44.8595 16.6835V17.3165L-2.18323 32.8666H-3.14062Z" fill="#FFD831"/>
<path fill-rule="evenodd" clip-rule="evenodd" d="M-3.80859 0.466675H-2.0772L45.5248 16.2018V17.7983L-2.07721 33.5333H-3.80859V0.466675ZM-2.47526 1.8V32.1999H-2.29186L43.6915 17L-2.29186 1.8H-2.47526Z" fill="white"/>
<path d="M-3.14062 32.8666V1.13333H-2.33751L22.1959 17L-2.33751 32.8666H-3.14062Z" fill="#E92034"/>
<path fill-rule="evenodd" clip-rule="evenodd" d="M-3.80859 0.466675H-2.14202L23.4222 17L-2.14202 33.5333H-3.80859V0.466675ZM-2.47526 1.83903V32.1609L20.967 17L-2.47526 1.83903Z" fill="#262626"/>
</g>
<defs>
<clipPath id="clip0_1385_23873">
<rect width="43" height="34" rx="4" fill="white"/>
</clipPath>
</defs>
</svg>
