<svg width="43" height="34" viewBox="0 0 43 34" fill="none" xmlns="http://www.w3.org/2000/svg">
<g clip-path="url(#clip0_1385_23076)">
<path d="M43 0H0V17H43V0Z" fill="#112EBC"/>
<path d="M43 34H0V17H43V34Z" fill="#E3264A"/>
<path d="M32.2857 6.59998H11.7143C10.7675 6.59998 10 7.36109 10 8.29998V25.3C10 26.2389 10.7675 27 11.7143 27H32.2857C33.2325 27 34 26.2389 34 25.3V8.29998C34 7.36109 33.2325 6.59998 32.2857 6.59998Z" fill="url(#paint0_linear_1385_23076)"/>
<mask id="mask0_1385_23076" style="mask-type:luminance" maskUnits="userSpaceOnUse" x="10" y="6" width="24" height="21">
<path d="M32.2857 6.59998H11.7143C10.7675 6.59998 10 7.36109 10 8.29998V25.3C10 26.2389 10.7675 27 11.7143 27H32.2857C33.2325 27 34 26.2389 34 25.3V8.29998C34 7.36109 33.2325 6.59998 32.2857 6.59998Z" fill="white"/>
</mask>
<g mask="url(#mask0_1385_23076)">
<path d="M7 27.1V24.1225L13.6439 20.524C14.7654 19.9165 16.0022 19.6 17.256 19.6H26.7441C27.9979 19.6 29.2347 19.9165 30.3563 20.524L37 24.1225V27.1H7Z" fill="#366C14"/>
<path fill-rule="evenodd" clip-rule="evenodd" d="M22.0022 20.1998C24.8426 20.1998 27.1451 17.9165 27.1451 15.0998C27.1451 12.2831 24.8426 9.99976 22.0022 9.99976C19.1618 9.99976 16.8594 12.2831 16.8594 15.0998C16.8594 17.9165 19.1618 20.1998 22.0022 20.1998Z" fill="#D4B872"/>
<path d="M14.2891 18.637C14.2891 17.9243 15.1204 17.528 15.6817 17.9732L20.397 21.7141C21.3361 22.4592 22.6706 22.4592 23.6097 21.7141L28.325 17.9732C28.8863 17.528 29.7176 17.9243 29.7176 18.637V21.9C29.7176 22.3695 29.334 22.7499 28.8606 22.7499H15.1461C14.6727 22.7499 14.2891 22.3695 14.2891 21.9V18.637Z" fill="#C28321" stroke="#0D3488"/>
<path fill-rule="evenodd" clip-rule="evenodd" d="M18.3231 11.4508C17.7831 10.9153 18.1657 9.99976 18.9291 9.99976H25.0764C25.8399 9.99976 26.2225 10.9153 25.6825 11.4508L22.6089 14.4987C22.2741 14.8307 21.7315 14.8307 21.3967 14.4987L18.3231 11.4508Z" fill="#216C30"/>
</g>
</g>
<defs>
<linearGradient id="paint0_linear_1385_23076" x1="10" y1="6.59998" x2="10" y2="27" gradientUnits="userSpaceOnUse">
<stop stop-color="white"/>
<stop offset="1" stop-color="#F0F0F0"/>
</linearGradient>
<clipPath id="clip0_1385_23076">
<rect width="43" height="34" rx="4" fill="white"/>
</clipPath>
</defs>
</svg>
