<svg width="43" height="34" viewBox="0 0 43 34" fill="none" xmlns="http://www.w3.org/2000/svg">
<g clip-path="url(#clip0_1385_23062)">
<path d="M43 0H0V11.3333H43V0Z" fill="#0884E6"/>
<path d="M43 11.3334H0V22.6667H43V11.3334Z" fill="white"/>
<path d="M43 22.6666H0V34H43V22.6666Z" fill="#0884E6"/>
<path fill-rule="evenodd" clip-rule="evenodd" d="M21.9961 18.1715L20.3438 18.6567L20.8276 16.9999L20.3438 15.343L21.9961 15.8283L23.6484 15.343L23.1645 16.9999L23.6484 18.6567L21.9961 18.1715Z" fill="#0E88E9"/>
<path fill-rule="evenodd" clip-rule="evenodd" d="M31.3476 15.8285L29.6953 16.3138L30.1794 14.6569L29.6953 13L31.3476 13.4853L32.9999 13L32.5161 14.6569L32.9999 16.3138L31.3476 15.8285Z" fill="#0E88E9"/>
<path fill-rule="evenodd" clip-rule="evenodd" d="M31.3476 20.5148L29.6953 21L30.1794 19.3432L29.6953 17.6863L31.3476 18.1717L32.9999 17.6863L32.5161 19.3432L32.9999 21L31.3476 20.5148Z" fill="#0E88E9"/>
<path fill-rule="evenodd" clip-rule="evenodd" d="M12.6523 20.5148L11 21L11.484 19.3432L11 17.6863L12.6523 18.1717L14.3047 17.6863L13.8207 19.3432L14.3047 21L12.6523 20.5148Z" fill="#0E88E9"/>
<path fill-rule="evenodd" clip-rule="evenodd" d="M12.6523 15.8285L11 16.3138L11.484 14.6569L11 13L12.6523 13.4853L14.3047 13L13.8207 14.6569L14.3047 16.3138L12.6523 15.8285Z" fill="#0E88E9"/>
</g>
<defs>
<clipPath id="clip0_1385_23062">
<rect width="43" height="34" rx="4" fill="white"/>
</clipPath>
</defs>
</svg>
