<svg width="43" height="34" viewBox="0 0 43 34" fill="none" xmlns="http://www.w3.org/2000/svg">
<g clip-path="url(#clip0_1385_22535)">
<path d="M43 0H0V34H43V0Z" fill="#F0371D"/>
<path fill-rule="evenodd" clip-rule="evenodd" d="M21.5369 13.4288C23.3715 11.8855 23.4831 11.5403 23.9227 10.1806C24.0694 9.72675 23.966 9.35397 23.8436 8.91377C23.6674 8.27898 23.4523 7.50395 23.8922 6.1433C21.8906 5.48961 19.5648 7.13426 18.6976 9.81671C17.8305 12.4992 18.7502 15.2037 20.7519 15.8574C21.1101 15.9744 21.0699 15.8898 20.9613 15.6607C20.7704 15.2587 20.3683 14.4119 21.5369 13.4288ZM17.7377 16.2477C16.8442 14.0171 16.5521 13.8038 15.4012 12.9634C15.0171 12.6829 14.6324 12.6667 14.1781 12.6474C13.523 12.6198 12.7232 12.5859 11.5716 11.745C10.3345 13.4564 11.172 16.1877 13.4423 17.8455C15.7126 19.5034 18.5559 19.4599 19.7931 17.7486C20.0145 17.4423 19.9221 17.4544 19.6717 17.4877C19.2323 17.5459 18.3068 17.6685 17.7377 16.2477ZM29.1891 17.4661C27.7667 17.4661 27.4056 17.4661 25.3783 16.1894C24.087 15.3762 23.41 16.0221 23.0885 16.3288C22.9054 16.5036 22.8377 16.5681 22.8377 16.1894C22.8377 14.074 25.1126 12.3592 27.9188 12.3592C30.7251 12.3592 33 14.074 33 16.1894C31.5765 16.1894 30.9097 16.6346 30.3635 16.9992C29.9847 17.252 29.664 17.4661 29.1891 17.4661ZM29.1891 15.0649C29.1891 15.4175 28.9048 15.7033 28.5541 15.7033C28.2033 15.7033 27.9188 15.4175 27.9188 15.0649C27.9188 14.7123 28.2033 14.4265 28.5541 14.4265C28.9048 14.4265 29.1891 14.7123 29.1891 15.0649ZM23.9532 20.7143C23.3715 23.0467 23.4831 23.392 23.9227 24.7518C24.0694 25.2055 24.3711 25.446 24.7274 25.73C25.2413 26.1393 25.8685 26.6393 26.3083 28C28.31 27.3462 29.2297 24.6418 28.3626 21.9593C27.4954 19.2768 25.1698 17.6321 23.168 18.2859C22.8097 18.403 22.8917 18.4476 23.1137 18.5686C23.5031 18.7812 24.3236 19.2288 23.9532 20.7143ZM26.1947 24.0097C25.8613 24.1186 25.5029 23.9352 25.3945 23.5998C25.286 23.2645 25.4686 22.9044 25.8022 22.7955C26.1359 22.6865 26.4943 22.87 26.6025 23.2053C26.7109 23.5406 26.5284 23.9007 26.1947 24.0097ZM19.231 20.7505C16.8442 20.9152 16.5521 21.1286 15.4012 21.9689C15.0171 22.2493 14.8829 22.612 14.7242 23.0404C14.4956 23.658 14.2164 24.4122 13.0649 25.2531C14.302 26.9645 17.1453 27.008 19.4156 25.35C21.6859 23.6921 22.5235 20.961 21.2863 19.2494C21.0649 18.9432 21.048 19.0353 21.0019 19.2849C20.9213 19.7229 20.7513 20.6454 19.231 20.7505ZM16.8055 23.9116C16.5994 23.6262 16.6622 23.2271 16.9461 23.0199C17.2299 22.8125 17.6271 22.8759 17.8333 23.1611C18.0395 23.4462 17.9766 23.8455 17.6927 24.0527C17.409 24.26 17.0117 24.1968 16.8055 23.9116ZM13.9969 14.9061C14.2031 14.6209 14.6004 14.5576 14.8841 14.7649C15.168 14.9721 15.2309 15.3713 15.0247 15.6565C14.8185 15.9418 14.4213 16.005 14.1375 15.7978C13.8537 15.5905 13.7908 15.1913 13.9969 14.9061ZM21.6505 9.43857C21.9841 9.54752 22.1667 9.90766 22.0582 10.243C21.9498 10.5783 21.5916 10.7618 21.258 10.6528C20.9243 10.5439 20.7418 10.1837 20.8502 9.84844C20.9586 9.51312 21.3168 9.32961 21.6505 9.43857Z" fill="white"/>
</g>
<defs>
<clipPath id="clip0_1385_22535">
<rect width="43" height="34" rx="4" fill="white"/>
</clipPath>
</defs>
</svg>
