<svg width="43" height="34" viewBox="0 0 43 34" fill="none" xmlns="http://www.w3.org/2000/svg">
<g clip-path="url(#clip0_1385_22584)">
<path d="M43 0H0V11.3333H43V0Z" fill="#38BB56"/>
<path d="M43 11.3333H0V22.6666H43V11.3333Z" fill="white"/>
<path d="M43 22.6667H0V34.0001H43V22.6667Z" fill="#DE1B27"/>
<path d="M18.3492 13.0144C17.4315 13.8435 16.8555 15.0383 16.8555 16.3665C16.8555 18.8701 18.9021 20.8999 21.4269 20.8999C23.9517 20.8999 25.9983 18.8701 25.9983 16.3665C25.9983 15.0634 25.4438 13.8887 24.5563 13.0617L23.5128 14.1631C24.1067 14.7164 24.4744 15.4976 24.4744 16.3665C24.4744 18.0357 23.1101 19.3887 21.4269 19.3887C19.7437 19.3887 18.3794 18.0357 18.3794 16.3665C18.3794 15.4811 18.7613 14.6863 19.3755 14.1315L18.3492 13.0144Z" fill="#D80915"/>
<path d="M22.95 16.3666C22.95 15.532 22.2677 14.8555 21.4261 14.8555C20.5846 14.8555 19.9023 15.532 19.9023 16.3666V19.3888C19.9023 20.2234 20.5846 20.8999 21.4261 20.8999C22.2677 20.8999 22.95 20.2234 22.95 19.3888V16.3666Z" fill="#D80915"/>
<path fill-rule="evenodd" clip-rule="evenodd" d="M2.64999 8.49976C2.29102 8.49976 2 8.80357 2 9.17834V10.5355C2 10.9103 2.29102 11.2141 2.64999 11.2141H3.95C4.309 11.2141 4.6 10.9103 4.6 10.5355V9.17834C4.6 8.80357 4.30898 8.49976 3.95 8.49976H2.64999ZM7.20001 9.17834C7.20001 8.80357 7.49103 8.49976 7.85 8.49976H9.15001C9.50899 8.49976 9.8 8.80357 9.8 9.17834V10.5355C9.8 10.9103 9.50899 11.2141 9.15001 11.2141H7.85C7.49103 11.2141 7.20001 10.9103 7.20001 10.5355V9.17834ZM13.05 8.49976C12.691 8.49976 12.4 8.80357 12.4 9.17834V10.5355C12.4 10.9103 12.691 11.2141 13.05 11.2141H14.3499C14.7089 11.2141 15.0001 10.9103 15.0001 10.5355V9.17834C15.0001 8.80357 14.7089 8.49976 14.3499 8.49976H13.05ZM17.6 9.17834C17.6 8.80357 17.8909 8.49976 18.2499 8.49976H19.55C19.909 8.49976 20.1999 8.80357 20.1999 9.17834V10.5355C20.1999 10.9103 19.909 11.2141 19.55 11.2141H18.2499C17.8909 11.2141 17.6 10.9103 17.6 10.5355V9.17834ZM23.45 8.49976C23.091 8.49976 22.8001 8.80357 22.8001 9.17834V10.5355C22.8001 10.9103 23.091 11.2141 23.45 11.2141H24.7501C25.1091 11.2141 25.4 10.9103 25.4 10.5355V9.17834C25.4 8.80357 25.1091 8.49976 24.7501 8.49976H23.45ZM27.9999 9.17834C27.9999 8.80357 28.2911 8.49976 28.6501 8.49976H29.9499C30.3089 8.49976 30.6001 8.80357 30.6001 9.17834V10.5355C30.6001 10.9103 30.3089 11.2141 29.9499 11.2141H28.6501C28.2911 11.2141 27.9999 10.9103 27.9999 10.5355V9.17834ZM33.8499 8.49976C33.4909 8.49976 33.2 8.80357 33.2 9.17834V10.5355C33.2 10.9103 33.4909 11.2141 33.8499 11.2141H35.15C35.509 11.2141 35.7999 10.9103 35.7999 10.5355V9.17834C35.7999 8.80357 35.509 8.49976 35.15 8.49976H33.8499ZM38.4001 9.17834C38.4001 8.80357 38.691 8.49976 39.05 8.49976H40.3501C40.7091 8.49976 41 8.80357 41 9.17834V10.5355C41 10.9103 40.7091 11.2141 40.3501 11.2141H39.05C38.691 11.2141 38.4001 10.9103 38.4001 10.5355V9.17834ZM2.64999 22.7855C2.29102 22.7855 2 23.0895 2 23.464V24.8212C2 25.196 2.29102 25.4998 2.64999 25.4998H3.95C4.309 25.4998 4.6 25.196 4.6 24.8212V23.464C4.6 23.0895 4.30898 22.7855 3.95 22.7855H2.64999ZM7.20001 23.464C7.20001 23.0895 7.49103 22.7855 7.85 22.7855H9.15001C9.50899 22.7855 9.8 23.0895 9.8 23.464V24.8212C9.8 25.196 9.50899 25.4998 9.15001 25.4998H7.85C7.49103 25.4998 7.20001 25.196 7.20001 24.8212V23.464ZM13.05 22.7855C12.691 22.7855 12.4 23.0895 12.4 23.464V24.8212C12.4 25.196 12.691 25.4998 13.05 25.4998H14.3499C14.7089 25.4998 15.0001 25.196 15.0001 24.8212V23.464C15.0001 23.0895 14.7089 22.7855 14.3499 22.7855H13.05ZM17.6 23.464C17.6 23.0895 17.8909 22.7855 18.2499 22.7855H19.55C19.909 22.7855 20.1999 23.0895 20.1999 23.464V24.8212C20.1999 25.196 19.909 25.4998 19.55 25.4998H18.2499C17.8909 25.4998 17.6 25.196 17.6 24.8212V23.464ZM23.45 22.7855C23.091 22.7855 22.8001 23.0895 22.8001 23.464V24.8212C22.8001 25.196 23.091 25.4998 23.45 25.4998H24.7501C25.1091 25.4998 25.4 25.196 25.4 24.8212V23.464C25.4 23.0895 25.1091 22.7855 24.7501 22.7855H23.45ZM27.9999 23.464C27.9999 23.0895 28.2911 22.7855 28.6501 22.7855H29.9499C30.3089 22.7855 30.6001 23.0895 30.6001 23.464V24.8212C30.6001 25.196 30.3089 25.4998 29.9499 25.4998H28.6501C28.2911 25.4998 27.9999 25.196 27.9999 24.8212V23.464ZM33.8499 22.7855C33.4909 22.7855 33.2 23.0895 33.2 23.464V24.8212C33.2 25.196 33.4909 25.4998 33.8499 25.4998H35.15C35.509 25.4998 35.7999 25.196 35.7999 24.8212V23.464C35.7999 23.0895 35.509 22.7855 35.15 22.7855H33.8499ZM38.4001 23.464C38.4001 23.0895 38.691 22.7855 39.05 22.7855H40.3501C40.7091 22.7855 41 23.0895 41 23.464V24.8212C41 25.196 40.7091 25.4998 40.3501 25.4998H39.05C38.691 25.4998 38.4001 25.196 38.4001 24.8212V23.464Z" fill="white" fill-opacity="0.5"/>
</g>
<defs>
<clipPath id="clip0_1385_22584">
<rect width="43" height="34" rx="4" fill="white"/>
</clipPath>
</defs>
</svg>
