<svg width="43" height="34" viewBox="0 0 43 34" fill="none" xmlns="http://www.w3.org/2000/svg">
<g clip-path="url(#clip0_1385_22569)">
<path d="M43 0H0V11.3333H43V0Z" fill="#DF1E35"/>
<path d="M43 11.3333H0V22.6666H43V11.3333Z" fill="white"/>
<path d="M43 22.6667H0V34.0001H43V22.6667Z" fill="#262626"/>
<path fill-rule="evenodd" clip-rule="evenodd" d="M30.8359 13.7036C30.8359 13.1812 31.3574 12.8415 31.8008 13.0751L33.1341 13.7778C33.3601 13.8969 33.5027 14.1402 33.5027 14.4064V20.2968C33.5027 20.685 33.2043 20.9995 32.8361 20.9995H31.5026C31.1344 20.9995 30.8359 20.685 30.8359 20.2968V13.7036Z" fill="#0F7A40"/>
<path fill-rule="evenodd" clip-rule="evenodd" d="M14.8359 13.7036C14.8359 13.1812 15.3574 12.8415 15.8008 13.0751L17.1341 13.7778C17.3601 13.8969 17.5027 14.1402 17.5027 14.4064V20.2968C17.5027 20.685 17.2043 20.9995 16.8361 20.9995H15.5026C15.1344 20.9995 14.8359 20.685 14.8359 20.2968V13.7036Z" fill="#0F7A40"/>
<path fill-rule="evenodd" clip-rule="evenodd" d="M25.5 14.4064C25.5 14.1402 25.6426 13.8969 25.8686 13.7778L27.2019 13.0751C27.6453 12.8415 28.1668 13.1812 28.1668 13.7036V20.2968C28.1668 20.685 27.8683 20.9995 27.5001 20.9995H26.1666C25.7984 20.9995 25.5 20.685 25.5 20.2968V14.4064Z" fill="#0F7A40"/>
<path fill-rule="evenodd" clip-rule="evenodd" d="M20.1719 17.218C20.1719 16.9517 20.3147 16.7084 20.5405 16.5894L21.874 15.8866C22.3172 15.653 22.8388 15.9928 22.8388 16.5152V18.3151H26.8391V21.0001H22.8388H20.8387C20.4705 21.0001 20.1719 20.6854 20.1719 20.2972V17.218Z" fill="#0F7A40"/>
<path fill-rule="evenodd" clip-rule="evenodd" d="M9.5 17.218C9.5 16.9517 9.64267 16.7084 9.86854 16.5894L11.202 15.8866C11.6452 15.653 12.1668 15.9928 12.1668 16.5152V18.3151H16.167V21.0001H12.1668H10.1667C9.7985 21.0001 9.5 20.6854 9.5 20.2972V17.218Z" fill="#0F7A40"/>
</g>
<defs>
<clipPath id="clip0_1385_22569">
<rect width="43" height="34" rx="4" fill="white"/>
</clipPath>
</defs>
</svg>
