<svg width="43" height="34" viewBox="0 0 43 34" fill="none" xmlns="http://www.w3.org/2000/svg">
<g clip-path="url(#clip0_1385_22648)">
<path d="M43 0H0V34H43V0Z" fill="#30C6E0"/>
<path d="M28.7738 16.9999C28.7738 20.5532 25.9653 23.4339 22.501 23.4339C19.0368 23.4339 16.2283 20.5532 16.2283 16.9999C16.2283 13.4465 19.0368 10.5659 22.501 10.5659C25.9653 10.5659 28.7738 13.4465 28.7738 16.9999Z" fill="#FFCD4B"/>
<path fill-rule="evenodd" clip-rule="evenodd" d="M22.5 24.5818L19.9411 28.5L19.2928 23.831L15.3299 26.2222L16.7209 21.7272L12.1389 22.1179L15.2935 18.6871L11 17L15.2935 15.3129L12.1389 11.882L16.7209 12.2728L15.3299 7.77773L19.2928 10.1689L19.9411 5.5L22.5 9.4181L25.059 5.5L25.7073 10.1689L29.6702 7.77773L28.2793 12.2728L32.8612 11.882L29.7065 15.3129L34 17L29.7065 18.6871L32.8612 22.1179L28.2793 21.7272L29.6702 26.2222L25.7073 23.831L25.059 28.5L22.5 24.5818ZM22.5 24.5064C26.5417 24.5064 29.8183 21.1456 29.8183 17C29.8183 12.8543 26.5417 9.49362 22.5 9.49362C18.4583 9.49362 15.1818 12.8543 15.1818 17C15.1818 21.1456 18.4583 24.5064 22.5 24.5064Z" fill="#FFCD4B"/>
<path fill-rule="evenodd" clip-rule="evenodd" d="M2 2.57694C2 2.2583 2.27983 2 2.625 2H3.875C4.22017 2 4.5 2.2583 4.5 2.57694V3.73077C4.5 4.04941 4.22017 4.30771 3.875 4.30771H2.625C2.27983 4.30771 2 4.04941 2 3.73077V2.57694ZM2 7.19232C2 6.8737 2.27983 6.6154 2.625 6.6154H3.875C4.22017 6.6154 4.5 6.8737 4.5 7.19232V8.34618C4.5 8.66479 4.22017 8.92309 3.875 8.92309H2.625C2.27983 8.92309 2 8.66479 2 8.34618V7.19232ZM2.625 11.2308C2.27983 11.2308 2 11.4891 2 11.8077V12.9616C2 13.2802 2.27983 13.5385 2.625 13.5385H3.875C4.22017 13.5385 4.5 13.2802 4.5 12.9616V11.8077C4.5 11.4891 4.22017 11.2308 3.875 11.2308H2.625ZM2 16.4231C2 16.1045 2.27983 15.8462 2.625 15.8462H3.875C4.22017 15.8462 4.5 16.1045 4.5 16.4231V17.5769C4.5 17.8956 4.22017 18.1538 3.875 18.1538H2.625C2.27983 18.1538 2 17.8956 2 17.5769V16.4231ZM2.625 20.4616C2.27983 20.4616 2 20.7199 2 21.0385V22.1924C2 22.511 2.27983 22.7693 2.625 22.7693H3.875C4.22017 22.7693 4.5 22.511 4.5 22.1924V21.0385C4.5 20.7199 4.22017 20.4616 3.875 20.4616H2.625ZM2 25.6539C2 25.3353 2.27983 25.0769 2.625 25.0769H3.875C4.22017 25.0769 4.5 25.3353 4.5 25.6539V26.8077C4.5 27.1263 4.22017 27.3847 3.875 27.3847H2.625C2.27983 27.3847 2 27.1263 2 26.8077V25.6539ZM2.625 29.6924C2.27983 29.6924 2 29.9508 2 30.2692V31.4231C2 31.7418 2.27983 32 2.625 32H3.875C4.22017 32 4.5 31.7418 4.5 31.4231V30.2692C4.5 29.9508 4.22017 29.6924 3.875 29.6924H2.625ZM4.5 27.9616C4.5 27.643 4.77983 27.3847 5.125 27.3847H6.37501C6.72019 27.3847 7 27.643 7 27.9616V29.1155C7 29.4341 6.72019 29.6924 6.37501 29.6924H5.12501C4.77983 29.6924 4.5 29.4341 4.5 29.1155V27.9616ZM5.125 22.7693C4.77983 22.7693 4.5 23.0277 4.5 23.3461V24.5C4.5 24.8187 4.77983 25.0769 5.12501 25.0769H6.37501C6.72019 25.0769 7 24.8187 7 24.5V23.3461C7 23.0277 6.72019 22.7693 6.37501 22.7693H5.125ZM4.5 18.7309C4.5 18.4122 4.77983 18.1538 5.125 18.1538H6.37501C6.72019 18.1538 7 18.4122 7 18.7309V19.8846C7 20.2032 6.72019 20.4616 6.37501 20.4616H5.12501C4.77983 20.4616 4.5 20.2032 4.5 19.8846V18.7309ZM5.125 13.5385C4.77983 13.5385 4.5 13.7968 4.5 14.1154V15.2693C4.5 15.5879 4.77983 15.8462 5.12501 15.8462H6.37501C6.72019 15.8462 7 15.5879 7 15.2693V14.1154C7 13.7968 6.72019 13.5385 6.37501 13.5385H5.125ZM4.5 9.50003C4.5 9.18139 4.77983 8.92309 5.125 8.92309H6.37501C6.72019 8.92309 7 9.18139 7 9.50003V10.6539C7 10.9725 6.72019 11.2308 6.37501 11.2308H5.12501C4.77983 11.2308 4.5 10.9725 4.5 10.6539V9.50003ZM5.125 4.30771C4.77983 4.30771 4.5 4.56601 4.5 4.88463V6.03848C4.5 6.3571 4.77983 6.6154 5.12501 6.6154H6.37501C6.72019 6.6154 7 6.3571 7 6.03848V4.88463C7 4.56599 6.72019 4.30771 6.37501 4.30771H5.125Z" fill="#FFCD4B"/>
</g>
<defs>
<clipPath id="clip0_1385_22648">
<rect width="43" height="34" rx="4" fill="white"/>
</clipPath>
</defs>
</svg>
