<svg width="43" height="34" viewBox="0 0 43 34" fill="none" xmlns="http://www.w3.org/2000/svg">
<g clip-path="url(#clip0_1385_23444)">
<path d="M43 0H0V8.5H43V0Z" fill="#262626"/>
<path d="M43 8.5H0V11H43V8.5Z" fill="white"/>
<path d="M43 11H0V23H43V11Z" fill="#DC0808"/>
<path d="M43 23H0V25.5H43V23Z" fill="white"/>
<path d="M43 25.5H0V34H43V25.5Z" fill="#018301"/>
<path fill-rule="evenodd" clip-rule="evenodd" d="M21.5 28.5C23.7 28.5 27 23.9865 27 17C27 10.0136 23.7 5.5 21.5 5.5C19.3 5.5 16 10.0136 16 17C16 23.9865 19.3 28.5 21.5 28.5Z" fill="#BC0000"/>
<mask id="mask0_1385_23444" style="mask-type:luminance" maskUnits="userSpaceOnUse" x="16" y="5" width="11" height="24">
<path fill-rule="evenodd" clip-rule="evenodd" d="M21.5 28.5C23.7 28.5 27 23.9865 27 17C27 10.0136 23.7 5.5 21.5 5.5C19.3 5.5 16 10.0136 16 17C16 23.9865 19.3 28.5 21.5 28.5Z" fill="white"/>
</mask>
<g mask="url(#mask0_1385_23444)">
<path fill-rule="evenodd" clip-rule="evenodd" d="M12.6993 29.6499C15.7369 29.6499 18.1994 23.9862 18.1994 16.9999C18.1994 10.0135 15.7369 4.34985 12.6993 4.34985C9.66169 4.34985 7.19922 10.0135 7.19922 16.9999C7.19922 23.9862 9.66169 29.6499 12.6993 29.6499Z" fill="#262626"/>
<path fill-rule="evenodd" clip-rule="evenodd" d="M30.3008 29.6499C33.3385 29.6499 35.8009 23.9862 35.8009 16.9999C35.8009 10.0135 33.3385 4.34985 30.3008 4.34985C27.2633 4.34985 24.8008 10.0135 24.8008 16.9999C24.8008 23.9862 27.2633 29.6499 30.3008 29.6499Z" fill="#262626"/>
<path fill-rule="evenodd" clip-rule="evenodd" d="M21.4985 13.5499C22.106 13.5499 22.5984 11.4904 22.5984 8.94986C22.5984 6.40934 22.106 4.34985 21.4985 4.34985C20.891 4.34985 20.3984 6.40934 20.3984 8.94986C20.3984 11.4904 20.891 13.5499 21.4985 13.5499ZM21.4985 20.45C22.106 20.45 22.5984 18.9052 22.5984 16.9999C22.5984 15.0945 22.106 13.5499 21.4985 13.5499C20.891 13.5499 20.3984 15.0945 20.3984 16.9999C20.3984 18.9052 20.891 20.45 21.4985 20.45ZM21.4985 20.45C20.891 20.45 20.3984 22.5095 20.3984 25.0499C20.3984 27.5905 20.891 29.6499 21.4985 29.6499C22.106 29.6499 22.5984 27.5905 22.5984 25.0499C22.5984 22.5095 22.106 20.45 21.4985 20.45Z" fill="url(#paint0_linear_1385_23444)"/>
</g>
</g>
<defs>
<linearGradient id="paint0_linear_1385_23444" x1="20.3984" y1="4.34985" x2="20.3984" y2="29.6499" gradientUnits="userSpaceOnUse">
<stop stop-color="white"/>
<stop offset="1" stop-color="#F0F0F0"/>
</linearGradient>
<clipPath id="clip0_1385_23444">
<rect width="43" height="34" rx="4" fill="white"/>
</clipPath>
</defs>
</svg>
