<svg width="43" height="34" viewBox="0 0 43 34" fill="none" xmlns="http://www.w3.org/2000/svg">
<g clip-path="url(#clip0_1385_22610)">
<path d="M43 0H0V34H43V0Z" fill="#F22A46"/>
<path fill-rule="evenodd" clip-rule="evenodd" d="M21.5009 25.2411L18.608 29.5L17.8751 24.425L13.395 27.0241L14.9674 22.1383L9.78748 22.563L13.3539 18.8339L8.5 17L13.3539 15.1661L9.78748 11.437L14.9674 11.8617L13.395 6.97579L17.8751 9.57494L18.608 4.5L21.5009 8.7588L24.3938 4.5L25.1265 9.57494L29.6067 6.97579L28.0342 11.8617L33.2143 11.437L29.6478 15.1661L34.5017 17L29.6478 18.8339L33.2143 22.563L28.0342 22.1383L29.6067 27.0241L25.1265 24.425L24.3938 29.5L21.5009 25.2411ZM21.5009 25.1591C26.0701 25.1591 29.7742 21.5061 29.7742 17C29.7742 12.4938 26.0701 8.84089 21.5009 8.84089C16.9317 8.84089 13.2276 12.4938 13.2276 17C13.2276 21.5061 16.9317 25.1591 21.5009 25.1591ZM27.4107 17.0003C27.4107 20.2191 24.7649 22.8284 21.5012 22.8284C18.2374 22.8284 15.5918 20.2191 15.5918 17.0003C15.5918 13.7817 18.2374 11.1725 21.5012 11.1725C24.7649 11.1725 27.4107 13.7817 27.4107 17.0003Z" fill="#FFF04D"/>
</g>
<defs>
<clipPath id="clip0_1385_22610">
<rect width="43" height="34" rx="4" fill="white"/>
</clipPath>
</defs>
</svg>
