<svg width="43" height="34" viewBox="0 0 43 34" fill="none" xmlns="http://www.w3.org/2000/svg">
<g clip-path="url(#clip0_1385_22665)">
<path d="M43 0H0V9H43V0Z" fill="#F03340"/>
<path d="M43 9H0V25H43V9Z" fill="white"/>
<path fill-rule="evenodd" clip-rule="evenodd" d="M19.604 21.2593C19.9908 20.8612 19.9908 20.2157 19.604 19.8174L19.4664 19.6758C19.2446 19.4475 18.9225 19.3555 18.6181 19.434L17.9379 19.609C17.1421 19.8137 16.6484 18.7456 17.3044 18.2392L17.919 17.7645C18.3001 17.4704 18.098 16.8461 17.6217 16.8461C17.0985 16.8461 16.9321 16.1203 17.4 15.8795L18.4262 15.3512C18.8941 15.1104 18.7277 14.3846 18.2045 14.3846C17.7282 14.3846 17.5261 13.7603 17.9072 13.4661L20.7826 11.2462C21.2077 10.9179 21.7923 10.9179 22.2174 11.2462L25.0928 13.4661C25.4739 13.7603 25.2718 14.3846 24.7955 14.3846C24.2723 14.3846 24.1059 15.1104 24.5738 15.3512L25.6 15.8795C26.0679 16.1203 25.9015 16.8461 25.3783 16.8461C24.902 16.8461 24.6999 17.4704 25.081 17.7645L25.6956 18.2392C26.3516 18.7458 25.8579 19.8137 25.0621 19.609L24.3819 19.434C24.0775 19.3555 23.7554 19.4475 23.5336 19.6758L23.396 19.8174C23.0092 20.2157 23.0092 20.8612 23.396 21.2593C24.02 21.9017 23.5781 23 22.6957 23H20.3043C19.4219 23 18.98 21.9017 19.604 21.2593Z" fill="#1FC065"/>
<path d="M43 25H0V34H43V25Z" fill="#F03340"/>
</g>
<defs>
<clipPath id="clip0_1385_22665">
<rect width="43" height="34" rx="4" fill="white"/>
</clipPath>
</defs>
</svg>
