<svg width="43" height="34" viewBox="0 0 43 34" fill="none" xmlns="http://www.w3.org/2000/svg">
<g clip-path="url(#clip0_1385_23486)">
<path d="M43 0H0V11.3333H43V0Z" fill="#0C33B8"/>
<path d="M43 22.6667H0V11.3333H43V22.6667Z" fill="white"/>
<path d="M43 22.6667H0V34H43V22.6667Z" fill="#1DB158"/>
<path fill-rule="evenodd" clip-rule="evenodd" d="M20.1182 17L20.1768 16.8255C20.5241 15.7922 21.9979 15.7922 22.3452 16.8255L22.404 17L24.4298 20.0134C24.5808 20.2381 24.5477 20.5345 24.3216 20.6852C23.8181 21.021 22.7979 21.5334 21.2611 21.5334C19.7242 21.5334 18.704 21.021 18.2006 20.6852C17.9744 20.5345 17.9412 20.2381 18.0924 20.0134L20.1182 17Z" fill="#262626"/>
<path fill-rule="evenodd" clip-rule="evenodd" d="M21.2612 13.5332C20.5866 13.5332 20.0469 14.0744 20.0469 14.7332C20.0469 15.392 20.5866 15.9332 21.2612 15.9332C21.9358 15.9332 22.4754 15.392 22.4754 14.7332C22.4754 14.0744 21.9358 13.5332 21.2612 13.5332ZM19.0469 14.7332C19.0469 13.5142 20.0422 12.5332 21.2612 12.5332C22.4802 12.5332 23.4754 13.5142 23.4754 14.7332C23.4754 15.9522 22.4802 16.9332 21.2612 16.9332C20.0422 16.9332 19.0469 15.9522 19.0469 14.7332Z" fill="#262626"/>
</g>
<defs>
<clipPath id="clip0_1385_23486">
<rect width="43" height="34" rx="4" fill="white"/>
</clipPath>
</defs>
</svg>
