<svg width="43" height="34" viewBox="0 0 43 34" fill="none" xmlns="http://www.w3.org/2000/svg">
<g clip-path="url(#clip0_1385_23496)">
<path d="M43 0H0V11.3333H43V0Z" fill="#F41F34"/>
<path d="M43 22.6667H0V11.3333H43V22.6667Z" fill="#262626"/>
<path d="M43 22.6667H0V34H43V22.6667Z" fill="#34B857"/>
<path fill-rule="evenodd" clip-rule="evenodd" d="M21.5 21C22.3226 21 23.0872 20.7518 23.7228 20.326C23.6492 20.3308 23.5748 20.3334 23.5 20.3334C21.659 20.3334 20.1666 18.841 20.1666 17C20.1666 15.1591 21.659 13.6667 23.5 13.6667C23.5748 13.6667 23.6492 13.6691 23.7228 13.674C23.0872 13.2483 22.3226 13 21.5 13C19.2908 13 17.5 14.7909 17.5 17C17.5 19.2092 19.2908 21 21.5 21ZM25.5 17C25.5 17.7364 24.903 18.3334 24.1666 18.3334C23.4302 18.3334 22.8334 17.7364 22.8334 17C22.8334 16.2636 23.4302 15.6667 24.1666 15.6667C24.903 15.6667 25.5 16.2636 25.5 17Z" fill="white"/>
</g>
<defs>
<clipPath id="clip0_1385_23496">
<rect width="43" height="34" rx="4" fill="white"/>
</clipPath>
</defs>
</svg>
