<svg width="43" height="34" viewBox="0 0 43 34" fill="none" xmlns="http://www.w3.org/2000/svg">
<g clip-path="url(#clip0_1385_22692)">
<path d="M43 0H0V34H43V0Z" fill="#079D7B"/>
<path fill-rule="evenodd" clip-rule="evenodd" d="M24.4692 15.35C24.4692 15.8535 24.433 16.3418 24.3649 16.8072C24.5396 16.753 24.7176 16.7012 24.8984 16.6523C27.9363 15.8304 30.6476 16.1016 30.9544 17.258C31.2318 18.3032 29.4504 19.7137 26.8624 20.5822C26.4053 19.2131 24.0661 18.8 21.2489 18.8C18.4287 18.8 16.0875 19.214 15.6339 20.5867C13.0811 19.7165 11.3315 18.3208 11.6065 17.2844C11.9134 16.128 14.6248 15.8568 17.6625 16.6787C17.8221 16.7219 17.9793 16.7672 18.134 16.8145C18.0652 16.3469 18.0286 15.8561 18.0286 15.35C18.0286 12.1744 19.4705 9.6001 21.2489 9.6001C23.0274 9.6001 24.4692 12.1744 24.4692 15.35ZM15.5545 21.0999H17.5472C17.2315 21.0374 16.9095 20.9626 16.5837 20.8753C16.9502 20.8862 17.4022 20.9179 17.9193 20.9539C18.8556 21.0195 20.0059 21.0999 21.2489 21.0999C22.492 21.0999 23.6422 21.0195 24.5786 20.9539C25.0762 20.9193 25.5135 20.8886 25.8725 20.8765C25.5352 20.9645 25.2023 21.0388 24.8768 21.0999H26.9434H30.3601C30.0898 21.9187 29.7263 22.6903 29.283 23.4H13.2149C12.7716 22.6903 12.408 21.9187 12.1378 21.0999H15.5545ZM21.2489 27.9998C23.5496 27.9998 25.6625 27.1383 27.3216 25.6999H15.1762C16.8354 27.1383 18.9482 27.9998 21.2489 27.9998Z" fill="white"/>
<path fill-rule="evenodd" clip-rule="evenodd" d="M21.25 7.29996C21.879 7.29996 22.3889 6.78509 22.3889 6.14997C22.3889 5.51485 21.879 5 21.25 5C20.621 5 20.1111 5.51485 20.1111 6.14997C20.1111 6.78509 20.621 7.29996 21.25 7.29996ZM12.1389 13.0499C12.7679 13.0499 13.2778 12.535 13.2778 11.8999C13.2778 11.2648 12.7679 10.7499 12.1389 10.7499C11.5099 10.7499 11 11.2648 11 11.8999C11 12.535 11.5099 13.0499 12.1389 13.0499ZM31.5 11.8999C31.5 12.535 30.9901 13.0499 30.3611 13.0499C29.732 13.0499 29.2223 12.535 29.2223 11.8999C29.2223 11.2648 29.732 10.7499 30.3611 10.7499C30.9901 10.7499 31.5 11.2648 31.5 11.8999ZM26.9444 9.59993C27.5734 9.59993 28.0833 9.08507 28.0833 8.44995C28.0833 7.81484 27.5734 7.29996 26.9444 7.29996C26.3154 7.29996 25.8056 7.81484 25.8056 8.44995C25.8056 9.08507 26.3154 9.59993 26.9444 9.59993ZM16.6944 8.44995C16.6944 9.08507 16.1846 9.59993 15.5556 9.59993C14.9266 9.59993 14.4167 9.08507 14.4167 8.44995C14.4167 7.81484 14.9266 7.29996 15.5556 7.29996C16.1846 7.29996 16.6944 7.81484 16.6944 8.44995Z" fill="#FCD117"/>
</g>
<defs>
<clipPath id="clip0_1385_22692">
<rect width="43" height="34" rx="4" fill="white"/>
</clipPath>
</defs>
</svg>
