<svg width="43" height="34" viewBox="0 0 43 34" fill="none" xmlns="http://www.w3.org/2000/svg">
<g clip-path="url(#clip0_1013_3396)">
<path d="M43 0.00012207H-1V34.0001H43V0.00012207Z" fill="#E81B26"/>
<path fill-rule="evenodd" clip-rule="evenodd" d="M21.4999 22.5001C24.5376 22.5001 27 20.0377 27 17C27 13.9625 24.5376 11.5001 21.4999 11.5001C18.4624 11.5001 16 13.9625 16 17C16 20.0377 18.4624 22.5001 21.4999 22.5001Z" fill="#FFE94F"/>
<path fill-rule="evenodd" clip-rule="evenodd" d="M14.9288 12.3753C15.2777 11.8992 15.679 11.4626 16.1244 11.0736L0.638258 -5.99988L-4 -0.946947L14.9288 12.3753ZM16.1244 22.9267C15.679 22.5378 15.2777 22.1011 14.9288 21.6249L-4 34.9473L0.638258 40.0001L16.1244 22.9267ZM19.9136 24.7802L18.0341 33.9986H24.9658L23.0863 24.7802C22.5733 24.8803 22.0429 24.9328 21.5 24.9328C20.957 24.9328 20.4266 24.8803 19.9136 24.7802ZM28.0711 21.6249C27.7222 22.1011 27.3211 22.5378 26.8755 22.9267L42.3618 40.0001L47 34.9473L28.0711 21.6249ZM13.4932 18.1222C13.4403 17.7556 13.4129 17.3811 13.4129 17.0002C13.4129 16.6193 13.4403 16.2447 13.4932 15.8782L-2.76118 13.6005V20.3999L13.4932 18.1222ZM19.9136 9.22009L18.0341 0.00167561H24.9658L23.0863 9.22009C22.5733 9.12002 22.0429 9.06753 21.5 9.06753C20.957 9.06753 20.4266 9.12002 19.9136 9.22009ZM29.5068 15.8782C29.5597 16.2447 29.5871 16.6193 29.5871 17.0002C29.5871 17.3811 29.5597 17.7556 29.5068 18.1222L45.7611 20.3999V13.6005L29.5068 15.8782ZM28.0711 12.3753C27.7222 11.8992 27.3211 11.4626 26.8755 11.0736L42.3618 -5.99988L47 -0.946947L28.0711 12.3753Z" fill="#FFE94F"/>
</g>
<defs>
<clipPath id="clip0_1013_3396">
<rect width="43" height="34" rx="4" fill="white"/>
</clipPath>
</defs>
</svg>
