<svg width="43" height="34" viewBox="0 0 43 34" fill="none" xmlns="http://www.w3.org/2000/svg">
<g clip-path="url(#clip0_1385_22707)">
<path d="M63.9625 0H0V34H63.9625V0Z" fill="#B22234"/>
<path fill-rule="evenodd" clip-rule="evenodd" d="M63.9625 5.23062H0V2.61523H63.9625V5.23062ZM0 7.846H63.9625V10.4614H0V7.846ZM63.9625 15.6922H0V13.0768H63.9625V15.6922ZM0 18.3075H63.9625V20.9229H0V18.3075ZM63.9625 26.1537H0V23.5383H63.9625V26.1537ZM0 28.7691H63.9625V31.3845H0V28.7691Z" fill="white"/>
<path d="M25.585 0H0V18.3077H25.585V0Z" fill="#0C3F8E"/>
<path fill-rule="evenodd" clip-rule="evenodd" d="M11.7926 16C13.3975 16 14.8724 15.4264 16.0348 14.4673C15.419 14.704 14.7525 14.8333 14.0567 14.8333C10.9305 14.8333 8.39628 12.2217 8.39628 9C8.39628 5.77834 10.9305 3.16667 14.0567 3.16667C14.7525 3.16667 15.419 3.29605 16.0348 3.53276C14.8724 2.57362 13.3975 2 11.7926 2C8.04113 2 5 5.134 5 9C5 12.866 8.04113 16 11.7926 16ZM16.6203 13.2045L18.5852 10.9133L20.5499 13.2045L20.0367 10.193L23 10.0384L20.3952 8.57424L22.1255 6.09038L19.3906 7.27614L18.5852 4.33335L17.7796 7.27614L15.0447 6.09038L16.775 8.57424L14.1703 10.0384L17.1335 10.193L16.6203 13.2045Z" fill="#FFD34F"/>
</g>
<defs>
<clipPath id="clip0_1385_22707">
<rect width="43" height="34" rx="4" fill="white"/>
</clipPath>
</defs>
</svg>
