<svg width="43" height="34" viewBox="0 0 43 34" fill="none" xmlns="http://www.w3.org/2000/svg">
<g clip-path="url(#clip0_1385_22700)">
<path d="M43 0H0V34H43V0Z" fill="#F32249"/>
<path d="M36.9 6H6.1C5.49249 6 5 6.54721 5 7.22222V26.7778C5 27.4528 5.49249 28 6.1 28H36.9C37.5075 28 38 27.4528 38 26.7778V7.22222C38 6.54721 37.5075 6 36.9 6Z" fill="#15A04F"/>
<path fill-rule="evenodd" clip-rule="evenodd" d="M26 24.8161C25.4316 24.9366 24.8411 25 24.2353 25C19.687 25 16 21.4183 16 17C16 12.5817 19.687 9 24.2353 9C24.8411 9 25.4316 9.06353 26 9.18412C22.2997 9.96888 19.5295 13.1702 19.5295 17C19.5295 20.83 22.2997 24.0313 26 24.8161Z" fill="white"/>
</g>
<defs>
<clipPath id="clip0_1385_22700">
<rect width="43" height="34" rx="4" fill="white"/>
</clipPath>
</defs>
</svg>
