<svg width="43" height="34" viewBox="0 0 43 34" fill="none" xmlns="http://www.w3.org/2000/svg">
<g clip-path="url(#clip0_1013_3403)">
<path d="M22 0H0V34H22V0Z" fill="white"/>
<path fill-rule="evenodd" clip-rule="evenodd" d="M22 34H43V0H22V34Z" fill="#DE233C"/>
<path d="M5.99999 3H12V5.99999H15V12H12V15H5.99999V12H3V5.99999H5.99999V3Z" fill="#7B716A" fill-opacity="0.66"/>
<path fill-rule="evenodd" clip-rule="evenodd" d="M10.498 4.49939H7.49804V7.49938H4.49805V10.4994H7.49804V13.4994H10.498V10.4994H13.4981V7.49938H10.498V4.49939Z" fill="#CCCCCD"/>
<path fill-rule="evenodd" clip-rule="evenodd" d="M9.00001 10.4988C9.82844 10.4988 10.5 9.82722 10.5 8.99879C10.5 8.17036 9.82844 7.49878 9.00001 7.49878C8.17158 7.49878 7.5 8.17036 7.5 8.99879C7.5 9.82722 8.17158 10.4988 9.00001 10.4988Z" fill="#7B716A"/>
</g>
<rect x="0.5" y="0.5" width="42" height="33" rx="3.5" stroke="#C9CFDB"/>
<defs>
<clipPath id="clip0_1013_3403">
<rect width="43" height="34" rx="4" fill="white"/>
</clipPath>
</defs>
</svg>
