<svg width="43" height="34" viewBox="0 0 43 34" fill="none" xmlns="http://www.w3.org/2000/svg">
<g clip-path="url(#clip0_1385_23528)">
<path d="M43 6H0V28H43V6Z" fill="#108B4D"/>
<path d="M43 0H0V6H43V0Z" fill="#D12326"/>
<path d="M43 28H0V34H43V28Z" fill="#D12326"/>
<path fill-rule="evenodd" clip-rule="evenodd" d="M31.8708 13.7079C31.9557 14.23 32 14.7653 32 15.3106C32 20.938 27.299 25.5 21.5 25.5C15.7009 25.5 11 20.938 11 15.3106C11 14.7653 11.0441 14.23 11.1291 13.7079C11.9213 18.5739 16.2628 22.2946 21.5 22.2946C26.7371 22.2946 31.0786 18.5739 31.8708 13.7079ZM21.6969 15.1187L18.8128 17.1139L19.8769 13.8355L17.0302 11.7902L20.5722 11.7593L21.6969 8.5L22.8218 11.7593L26.3636 11.7902L23.5169 13.8355L24.5811 17.1139L21.6969 15.1187Z" fill="#FFC941"/>
</g>
<defs>
<clipPath id="clip0_1385_23528">
<rect width="43" height="34" rx="4" fill="white"/>
</clipPath>
</defs>
</svg>
