<svg width="43" height="34" viewBox="0 0 43 34" fill="none" xmlns="http://www.w3.org/2000/svg">
<g clip-path="url(#clip0_1385_23117)">
<path fill-rule="evenodd" clip-rule="evenodd" d="M0 34H14.3333V0H0V34Z" fill="#128A60"/>
<path fill-rule="evenodd" clip-rule="evenodd" d="M28.6641 34H14.3307V0H28.6641V34Z" fill="white"/>
<path d="M42.9974 0H28.6641V34H42.9974V0Z" fill="#E3283E"/>
<path d="M18.2002 16.7542C18.2002 16.1668 17.7077 15.6907 17.1001 15.6907C16.4926 15.6907 16 16.1668 16 16.7542H18.2002ZM18.7431 21.3562C19.2687 21.651 19.9417 21.4781 20.2467 20.97C20.5516 20.4621 20.3728 19.8112 19.8474 19.5164L18.7431 21.3562ZM23.2753 19.4446C22.7636 19.7611 22.6139 20.4188 22.9413 20.9135C23.2687 21.4084 23.949 21.5529 24.4607 21.2366L23.2753 19.4446ZM27.0007 16.7542C27.0007 16.1668 26.5081 15.6907 25.9006 15.6907C25.2932 15.6907 24.8006 16.1668 24.8006 16.7542H27.0007ZM16 16.7542C16 18.7213 17.1054 20.4375 18.7431 21.3562L19.8474 19.5164C18.8601 18.9627 18.2002 17.9323 18.2002 16.7542H16ZM24.4607 21.2366C25.9857 20.2936 27.0007 18.6388 27.0007 16.7542H24.8006C24.8006 17.8831 24.1949 18.876 23.2753 19.4446L24.4607 21.2366Z" fill="#8C9157"/>
<path fill-rule="evenodd" clip-rule="evenodd" d="M21.5048 18.8811C22.7199 18.8811 23.705 17.4527 23.705 15.6906C23.705 13.9285 22.7199 12.5 21.5048 12.5C20.2896 12.5 19.3047 13.9285 19.3047 15.6906C19.3047 17.4527 20.2896 18.8811 21.5048 18.8811Z" fill="#C59262"/>
</g>
<defs>
<clipPath id="clip0_1385_23117">
<rect width="43" height="34" rx="4" fill="white"/>
</clipPath>
</defs>
</svg>
