<svg width="43" height="34" viewBox="0 0 43 34" fill="none" xmlns="http://www.w3.org/2000/svg">
<g clip-path="url(#clip0_1385_22682)">
<path fill-rule="evenodd" clip-rule="evenodd" d="M0 34H14.3333V0H0V34Z" fill="#E43642"/>
<path fill-rule="evenodd" clip-rule="evenodd" d="M28.6641 34H14.3307V0H28.6641V34Z" fill="#146BBC"/>
<path d="M42.9974 0H28.6641V34H42.9974V0Z" fill="#E43642"/>
<path fill-rule="evenodd" clip-rule="evenodd" d="M7 17L8.33332 18.4445H7H5.66666L7 17ZM7 21.3333C6.26362 21.3333 5.66666 20.6866 5.66666 19.8888C5.66666 19.091 6.26362 18.4445 7 18.4445C7.73638 18.4445 8.33332 19.091 8.33332 19.8888C8.33332 20.6866 7.73638 21.3333 7 21.3333ZM8.33332 21.3333H7H5.66666H3V30H5.66666V27.1112L7 30L8.33332 27.1112V30H11V21.3333H8.33332ZM7 24.2221L8.33332 21.3333V25.6667C8.33332 24.8689 7.73638 24.2221 7 24.2221ZM5.66666 25.6667C5.66666 24.8689 6.26362 24.2221 7 24.2221L5.66666 21.3333V25.6667ZM7 27.1112H5.66666V25.6667C5.66666 26.4644 6.26362 27.1112 7 27.1112ZM7 27.1112H8.33332V25.6667C8.33332 26.4644 7.73638 27.1112 7 27.1112Z" fill="url(#paint0_linear_1385_22682)"/>
</g>
<defs>
<linearGradient id="paint0_linear_1385_22682" x1="3" y1="17" x2="3" y2="30" gradientUnits="userSpaceOnUse">
<stop stop-color="#F8D246"/>
<stop offset="1" stop-color="#F9CE2F"/>
</linearGradient>
<clipPath id="clip0_1385_22682">
<rect width="43" height="34" rx="4" fill="white"/>
</clipPath>
</defs>
</svg>
