<svg width="43" height="34" viewBox="0 0 43 34" fill="none" xmlns="http://www.w3.org/2000/svg">
<g clip-path="url(#clip0_1013_3387)">
<path d="M43 0H0V34H43V0Z" fill="#E6BE53"/>
<path fill-rule="evenodd" clip-rule="evenodd" d="M3 29.3846C3 30.2768 3.65391 31 4.46053 31H38.5395C39.3461 31 40 30.2768 40 29.3846V4.61539C40 3.72324 39.3461 3 38.5395 3H4.46053C3.65391 3 3 3.72324 3 4.61539V29.3846Z" fill="#E01826"/>
<path fill-rule="evenodd" clip-rule="evenodd" d="M19.8384 6.22017C19.0862 6.48659 18.8608 7.501 19.4214 8.09673L20.022 8.73477C20.222 8.94733 20.4932 9.06672 20.7763 9.06672H22.0259C22.3088 9.06672 22.5801 8.94733 22.7801 8.73477L23.3806 8.09673C23.9414 7.50098 23.716 6.48659 22.9636 6.22017L21.7384 5.78619C21.5195 5.70864 21.2827 5.70864 21.0638 5.78619L19.8384 6.22017ZM22.1553 11.6653C21.7387 12.1079 21.0633 12.1079 20.6468 11.6653L20.3344 11.3334L18.7446 9.64433C18.42 9.2994 17.9241 9.21387 17.5134 9.43203L17.3913 9.49685C16.7401 9.8428 16.5993 10.7649 17.1142 11.3119L17.1344 11.3334L18.7241 13.0224C19.0488 13.3674 19.1292 13.8944 18.924 14.3307L18.2617 15.7377C18.2219 15.8225 18.2011 15.9161 18.2011 16.011C18.2011 16.4654 17.751 16.761 17.3684 16.5577L16.8518 16.2833C16.466 16.0784 16.3827 15.5321 16.6876 15.2081C16.9344 14.9459 16.9344 14.5209 16.6876 14.2587L16.19 13.7301C16.1091 13.644 16.0416 13.5445 15.9904 13.4356L15.0534 11.4447C15.0187 11.3707 14.9915 11.2929 14.9726 11.2127L14.4779 9.11007C14.2601 8.18425 13.1287 7.94149 12.5898 8.70494L10.9477 11.0312C10.8092 11.2273 10.7344 11.4659 10.7344 11.7112V15.5992C10.7344 15.7751 10.7729 15.9487 10.847 16.106L11.7236 17.9689C11.7749 18.0779 11.8424 18.1773 11.9234 18.2635L13.812 20.27C13.893 20.3562 13.9867 20.4278 14.0892 20.4824L15.967 21.4799C16.0332 21.5151 16.1062 21.5335 16.1803 21.5335C16.6836 21.5335 16.844 22.2544 16.3937 22.4936L16.1464 22.6249C16.0944 22.6526 16.0467 22.6891 16.0056 22.7328L15.5344 23.2335C15.2398 23.5464 14.7623 23.5464 14.4677 23.2335C14.1732 22.9205 13.6956 22.9205 13.401 23.2335L13.3145 23.3253C13.0477 23.6088 12.9815 24.042 13.1503 24.4005L13.6396 25.4402C13.8202 25.8243 14.1896 26.0667 14.5936 26.0667H15.816C15.9816 26.0667 16.1448 26.0257 16.2929 25.947L17.883 25.1023C18.0894 24.9926 18.2569 24.8148 18.3601 24.5955L18.8436 23.5679C19.0523 23.1245 19.6083 23.0286 19.9382 23.3792C20.1686 23.624 20.2043 24.0073 20.0236 24.2955L18.7928 26.2571C18.4659 26.7778 18.5984 27.4816 19.0886 27.8287L20.8094 29.0476C21.1676 29.3014 21.6344 29.3014 21.9928 29.0476L23.7136 27.8287C24.2036 27.4816 24.3361 26.7778 24.0094 26.2571L22.7785 24.2955C22.5977 24.0073 22.6336 23.624 22.864 23.3792C23.1937 23.0286 23.7499 23.1245 23.9584 23.5679L24.442 24.5955C24.5452 24.8148 24.7126 24.9926 24.919 25.1023L26.5091 25.947C26.6572 26.0257 26.8206 26.0667 26.9862 26.0667H28.2084C28.6124 26.0667 28.9819 25.8243 29.1625 25.4402L29.6518 24.4005C29.8206 24.042 29.7544 23.6088 29.4876 23.3253L29.4011 23.2335C29.1065 22.9205 28.6289 22.9205 28.3344 23.2335C28.0398 23.5464 27.5622 23.5464 27.2676 23.2335L26.7966 22.7328C26.7553 22.6891 26.7078 22.6526 26.6556 22.6249L26.4084 22.4936C25.9582 22.2544 26.1184 21.5335 26.6217 21.5335C26.6958 21.5335 26.7689 21.5151 26.8352 21.4799L28.7129 20.4824C28.8155 20.4278 28.9091 20.3562 28.99 20.27L30.8787 18.2635C30.9596 18.1773 31.0272 18.0779 31.0785 17.9689L31.9552 16.106C32.0291 15.9487 32.0676 15.7751 32.0676 15.5992V11.7112C32.0676 11.4659 31.9929 11.2273 31.8544 11.0312L30.2123 8.70494C29.6734 7.94149 28.542 8.18425 28.3241 9.11007L27.8294 11.2127C27.8105 11.2929 27.7835 11.3707 27.7488 11.4447L26.8118 13.4356C26.7604 13.5445 26.6931 13.644 26.612 13.7301L26.1145 14.2587C25.8678 14.5209 25.8678 14.9459 26.1145 15.2081C26.4195 15.5321 26.336 16.0784 25.9504 16.2833L25.4336 16.5577C25.0512 16.761 24.6011 16.4654 24.6011 16.011C24.6011 15.9161 24.5803 15.8225 24.5403 15.7377L23.8782 14.3307C23.6729 13.8944 23.7534 13.3674 24.078 13.0224L25.6676 11.3334L25.688 11.3119C26.2027 10.7649 26.0619 9.8428 25.4107 9.49685L25.2888 9.43203C24.878 9.21387 24.382 9.2994 24.0574 9.64433L22.4676 11.3334L22.1553 11.6653Z" fill="#E6BE53"/>
<path fill-rule="evenodd" clip-rule="evenodd" d="M19.2656 19.2669C19.2656 19.6843 19.9271 19.823 20.1184 19.4587C20.4903 18.7505 20.9447 18.1335 21.3989 18.1335C21.8533 18.1335 22.3075 18.7505 22.6795 19.4587C22.8709 19.823 23.5323 19.6843 23.5323 19.2669C23.5323 17.3891 22.5771 15.8669 21.3989 15.8669C20.2207 15.8669 19.2656 17.3891 19.2656 19.2669Z" fill="#215F90"/>
</g>
<defs>
<clipPath id="clip0_1013_3387">
<rect width="43" height="34" rx="4" fill="white"/>
</clipPath>
</defs>
</svg>
