<svg width="43" height="34" viewBox="0 0 43 34" fill="none" xmlns="http://www.w3.org/2000/svg">
<g clip-path="url(#clip0_1385_23505)">
<path d="M43 0H0V34H43V0Z" fill="#E33B44"/>
<path fill-rule="evenodd" clip-rule="evenodd" d="M21.5 8L23.6872 14.513L23.7843 14.8021L31 14.8669L25.4439 18.9696L25.2004 19.1494L25.2906 19.4348L27.3642 26L21.7541 22.0113L21.5 21.8308L21.246 22.0113L15.6358 26L17.7094 19.4348L17.7996 19.1494L17.5561 18.9696L12 14.8669L19.2157 14.8021L19.3128 14.513L21.5 8ZM20.8789 15.0449L20.4058 16.4539L16.9837 16.4846L18.5343 17.6296L19.7342 18.5155L19.2848 19.9381L18.7016 21.7844L20.2918 20.6538L21.5 19.7951L22.7081 20.6538L24.2984 21.7844L23.2658 18.5155L24.4656 17.6296L26.0163 16.4846L22.5942 16.4539L22.1211 15.0449L21.5 13.1953L20.8789 15.0449Z" fill="#0A6135"/>
</g>
<defs>
<clipPath id="clip0_1385_23505">
<rect width="43" height="34" rx="4" fill="white"/>
</clipPath>
</defs>
</svg>
