<svg width="43" height="34" viewBox="0 0 43 34" fill="none" xmlns="http://www.w3.org/2000/svg">
<g clip-path="url(#clip0_1385_23565)">
<path d="M43 0H0V34H43V0Z" fill="#E52347"/>
<path d="M0 0V22L35.5 0H0Z" fill="#0C4799"/>
<path fill-rule="evenodd" clip-rule="evenodd" d="M8.00079 9.20003L6.25138 11.1216L6.38455 8.53615L3.77734 8.66821L5.71507 6.93337L3.77734 5.19854L6.38455 5.3306L6.25138 2.74512L8.00079 4.66669L9.75021 2.74512L9.61704 5.3306L12.2242 5.19854L10.2865 6.93337L12.2242 8.66821L9.61704 8.53615L9.75021 11.1216L8.00079 9.20003Z" fill="#FFD243"/>
<path d="M43 34L43 12L7.5 34L43 34Z" fill="#1BAC55"/>
<path fill-rule="evenodd" clip-rule="evenodd" d="M5.00533 37.0668L51.4424 8.29144L42.4371 -6L-4 22.7754L5.00533 37.0668Z" fill="white"/>
<path fill-rule="evenodd" clip-rule="evenodd" d="M-0.943775 37.4446L55.2697 2.61121L49.2135 -7L-7 27.8334L-0.943775 37.4446Z" fill="#E52347"/>
</g>
<defs>
<clipPath id="clip0_1385_23565">
<rect width="43" height="34" rx="4" fill="white"/>
</clipPath>
</defs>
</svg>
