<svg width="43" height="34" viewBox="0 0 43 34" fill="none" xmlns="http://www.w3.org/2000/svg">
<g clip-path="url(#clip0_1385_24021)">
<path d="M43 0H0V34H43V0Z" fill="#012169"/>
<path d="M0 15H43V18H0V15Z" fill="#FFC72C"/>
<path d="M12 31L11.2235 27.6393L9 30.1292L9.87868 26.7981L6.80384 27.75L9.10223 25.3412L6 24.5L9.10223 23.6588L6.80384 21.25L9.87868 22.2019L9 18.8708L11.2235 21.3607L12 18L12.7765 21.3607L15 18.8708L14.1213 22.2019L17.1962 21.25L14.8978 23.6588L18 24.5L14.8978 25.3412L17.1962 27.75L14.1213 26.7981L15 30.1292L12.7765 27.6393L12 31Z" fill="white"/>
</g>
<defs>
<clipPath id="clip0_1385_24021">
<rect width="43" height="34" rx="4" fill="white"/>
</clipPath>
</defs>
</svg>
