<svg width="43" height="34" viewBox="0 0 43 34" fill="none" xmlns="http://www.w3.org/2000/svg">
<g clip-path="url(#clip0_1385_22715)">
<path d="M43 0H0V34H43V0Z" fill="white"/>
<path d="M24.9397 32H2V2H4.85433L24.1694 15.0371C25.0405 15.6251 24.6294 17 23.5824 17H13.6407C13.1998 17 12.8051 17.2768 12.6501 17.6946C12.495 18.1125 12.612 18.5839 12.9438 18.8778L25.6366 30.1222C26.3718 30.7737 25.9167 32 24.9397 32Z" fill="#EE1B44"/>
<path fill-rule="evenodd" clip-rule="evenodd" d="M2 34C0.89543 34 0 33.1046 0 32V2C0 0.89543 0.89543 0 2 0H4.85433C5.25308 0 5.64273 0.119196 5.97324 0.342281L25.2883 13.3794C27.7469 15.039 26.6597 19 23.5824 19H16.0979L26.9628 28.6252C29.0351 30.4615 27.8113 34 24.9397 34H2ZM4.85433 2L24.1694 15.0371C25.0405 15.6251 24.6294 17 23.5824 17H13.6407C13.1998 17 12.8051 17.2768 12.6501 17.6946C12.495 18.1125 12.612 18.5839 12.9438 18.8778L25.6366 30.1222C26.3718 30.7737 25.9167 32 24.9397 32H2V2H4.85433Z" fill="#0543A8"/>
<path fill-rule="evenodd" clip-rule="evenodd" d="M11.3643 13.5787C11.9619 13.416 12.5128 13.1935 13 12.9223C12.5167 14.6665 10.9089 15.9477 8.99999 15.9477C7.09106 15.9477 5.48327 14.6665 5 12.9223C5.48857 13.1942 6.04116 13.4172 6.64062 13.5801L7.44757 12.8562L6.12874 11.6731L7.90322 11.7632L7.81259 10L9.00323 11.3104L10.1939 10L10.1033 11.7632L11.8777 11.6731L10.5589 12.8562L11.3643 13.5787ZM7.41569 28L9.00323 26.2527L10.5908 28L10.4699 25.6491L12.8359 25.7692L11.0775 24.1917L12.8359 22.6143L10.4699 22.7344L10.5908 20.3835L9.00323 22.1308L7.41569 20.3835L7.53654 22.7344L5.17058 22.6143L6.92902 24.1917L5.17058 25.7692L7.53654 25.6491L7.41569 28Z" fill="white"/>
</g>
<rect x="0.5" y="0.5" width="42" height="33" rx="3.5" stroke="#C9CFDB"/>
<defs>
<clipPath id="clip0_1385_22715">
<rect width="43" height="34" rx="4" fill="white"/>
</clipPath>
</defs>
</svg>
