<svg width="43" height="34" viewBox="0 0 43 34" fill="none" xmlns="http://www.w3.org/2000/svg">
<g clip-path="url(#clip0_1385_24028)">
<path d="M63.9625 0H0V34H63.9625V0Z" fill="#B22234"/>
<path fill-rule="evenodd" clip-rule="evenodd" d="M63.9625 5.23068H0V2.6153H63.9625V5.23068ZM0 7.84607H63.9625V10.4614H0V7.84607ZM63.9625 15.6922H0V13.0768H63.9625V15.6922ZM0 18.3076H63.9625V20.923H0V18.3076ZM63.9625 26.1538H0V23.5384H63.9625V26.1538ZM0 28.7691H63.9625V31.3845H0V28.7691Z" fill="white"/>
<path d="M25.585 0H0V18.3077H25.585V0Z" fill="#3C3B6E"/>
<path d="M3.11493 4.98413L4.04299 7.8689L1.61328 6.08601H4.61657L2.18686 7.8689L3.11493 4.98413Z" fill="white"/>
<path d="M3.11493 10.5659L4.04299 13.4506L1.61328 11.6677H4.61657L2.18686 13.4506L3.11493 10.5659Z" fill="white"/>
<path d="M6.36493 2.19354L7.29299 5.07831L4.86328 3.29542H7.86657L5.43686 5.07831L6.36493 2.19354Z" fill="white"/>
<path d="M6.36493 7.7746L7.29299 10.6594L4.86328 8.87648H7.86657L5.43686 10.6594L6.36493 7.7746Z" fill="white"/>
<path d="M6.36493 13.3563L7.29299 16.2411L4.86328 14.4582H7.86657L5.43686 16.2411L6.36493 13.3563Z" fill="white"/>
<path d="M9.61493 4.98413L10.543 7.8689L8.11328 6.08601H11.1166L8.68686 7.8689L9.61493 4.98413Z" fill="white"/>
<path d="M9.61493 10.5659L10.543 13.4506L8.11328 11.6677H11.1166L8.68686 13.4506L9.61493 10.5659Z" fill="white"/>
<path d="M12.8649 2.19354L13.793 5.07831L11.3633 3.29542H14.3666L11.9369 5.07831L12.8649 2.19354Z" fill="white"/>
<path d="M12.8649 7.7746L13.793 10.6594L11.3633 8.87648H14.3666L11.9369 10.6594L12.8649 7.7746Z" fill="white"/>
<path d="M12.8649 13.3563L13.793 16.2411L11.3633 14.4582H14.3666L11.9369 16.2411L12.8649 13.3563Z" fill="white"/>
<path d="M16.1149 4.98413L17.043 7.8689L14.6133 6.08601H17.6166L15.1869 7.8689L16.1149 4.98413Z" fill="white"/>
<path d="M16.1149 10.5659L17.043 13.4506L14.6133 11.6677H17.6166L15.1869 13.4506L16.1149 10.5659Z" fill="white"/>
<path d="M19.3649 2.19354L20.293 5.07831L17.8633 3.29542H20.8666L18.4369 5.07831L19.3649 2.19354Z" fill="white"/>
<path d="M19.3649 7.7746L20.293 10.6594L17.8633 8.87648H20.8666L18.4369 10.6594L19.3649 7.7746Z" fill="white"/>
<path d="M19.3649 13.3563L20.293 16.2411L17.8633 14.4582H20.8666L18.4369 16.2411L19.3649 13.3563Z" fill="white"/>
<path d="M22.6149 4.98413L23.543 7.8689L21.1133 6.08601H24.1166L21.6869 7.8689L22.6149 4.98413Z" fill="white"/>
<path d="M22.6149 10.5659L23.543 13.4506L21.1133 11.6677H24.1166L21.6869 13.4506L22.6149 10.5659Z" fill="white"/>
<path d="M43 6.10352e-05H0V34.0001H43V6.10352e-05Z" fill="#0A17A7"/>
<path d="M-1.99825 -0.566659H-3.54297L-2.37013 0.430253L5.43032 7.06063V8.77505L-2.33039 14.2722L-2.56968 14.4417V14.7333V15.8667V16.8891L-1.69539 16.3472L7.30849 10.7667H9.24719L16.9996 16.258C17.1606 16.372 17.3536 16.4333 17.5515 16.4333C18.4329 16.4333 18.8385 15.3459 18.1693 14.777L11.1446 8.80604V7.09163L18.6661 1.76396C18.9664 1.55121 19.1445 1.20773 19.1445 0.841723V7.27177e-06V-1.0224L18.2703 -0.480525L9.26644 5.10001H7.32774L-0.523257 -0.461107L-0.672271 -0.566659H-0.855392H-1.99825Z" fill="#FF2E3B" stroke="white" stroke-width="0.666667"/>
<path fill-rule="evenodd" clip-rule="evenodd" d="M-2 5.66666V10.2H6.00001V15.8667C6.00001 16.4926 6.51167 17 7.14285 17H9.42858C10.0598 17 10.5714 16.4926 10.5714 15.8667V10.2H18.5714C19.2026 10.2 19.7143 9.69258 19.7143 9.06666V6.8C19.7143 6.17408 19.2026 5.66666 18.5714 5.66666H10.5714V0H6.00001V5.66666H-2Z" fill="white"/>
<path fill-rule="evenodd" clip-rule="evenodd" d="M-2 6.8H7.14285V5.66666V0H9.42858V5.66666V6.8H18.5714V9.06666H9.42858V10.2V15.8667H7.14285V10.2V9.06666H-2V6.8Z" fill="#FF2E3B"/>
<path fill-rule="evenodd" clip-rule="evenodd" d="M32.2881 29.4666L30.6719 29.9362L31.1454 28.3332L30.6719 26.7305L32.2881 27.2L33.9043 26.7305L33.431 28.3332L33.9043 29.9362L32.2881 29.4666Z" fill="#CA1931"/>
<path fill-rule="evenodd" clip-rule="evenodd" d="M32.2881 7.93338L30.6719 8.40282L31.1454 6.80004L30.6719 5.19727L32.2881 5.6667L33.9043 5.19727L33.431 6.80004L33.9043 8.40282L32.2881 7.93338Z" fill="#CA1931"/>
<path fill-rule="evenodd" clip-rule="evenodd" d="M39.1436 14.7334L37.5273 15.2028L38.0008 13.6L37.5273 11.9973L39.1436 12.4667L40.7598 11.9973L40.2865 13.6L40.7598 15.2028L39.1436 14.7334Z" fill="#CA1931"/>
<path fill-rule="evenodd" clip-rule="evenodd" d="M25.4287 17L23.8125 17.4694L24.286 15.8667L23.8125 14.2639L25.4287 14.7334L27.045 14.2639L26.5716 15.8667L27.045 17.4694L25.4287 17Z" fill="#CA1931"/>
</g>
<defs>
<clipPath id="clip0_1385_24028">
<rect width="43" height="34" rx="4" fill="white"/>
</clipPath>
</defs>
</svg>
