<svg width="43" height="34" viewBox="0 0 43 34" fill="none" xmlns="http://www.w3.org/2000/svg">
<g clip-path="url(#clip0_1385_22742)">
<path d="M43 0H0V34H43V0Z" fill="white"/>
<path d="M43 0H11V34H43V0Z" fill="#0A632F"/>
<path fill-rule="evenodd" clip-rule="evenodd" d="M37 18.4207C36.7811 20.5545 35.8716 22.6046 34.2642 24.2121C30.4326 28.0437 24.0859 27.9091 20.0885 23.9116C16.0909 19.914 15.9564 13.5673 19.7879 9.73581C21.3953 8.12834 23.4455 7.21894 25.5792 7C24.9072 7.39607 24.271 7.8848 23.6903 8.46558C20.207 11.9488 20.0347 17.4239 23.3054 20.6945C26.5761 23.9654 32.0513 23.7931 35.5345 20.3098C36.1152 19.7291 36.6039 19.0929 37 18.4207ZM32.6023 13.9069L32.0595 17.1456L30.5423 14.2331L27.2941 14.7177L29.5952 12.3747L28.1308 9.43531L31.0701 10.8998L33.4132 8.59866L32.9287 11.8467L35.8413 13.3639L32.6023 13.9069Z" fill="white"/>
</g>
<rect x="0.5" y="0.5" width="42" height="33" rx="3.5" stroke="#C9CFDB"/>
<defs>
<clipPath id="clip0_1385_22742">
<rect width="43" height="34" rx="4" fill="white"/>
</clipPath>
</defs>
</svg>
