<svg width="43" height="34" viewBox="0 0 43 34" fill="none" xmlns="http://www.w3.org/2000/svg">
<g clip-path="url(#clip0_1385_23139)">
<path d="M21.5 0H0V17H21.5V0Z" fill="white"/>
<path fill-rule="evenodd" clip-rule="evenodd" d="M11.3477 10.392L8.66066 12.2009L9.56512 9.1077L7 7.13245L10.246 7.02964L11.3477 4L12.4494 7.02964L15.6954 7.13245L13.1302 9.1077L14.0347 12.2009L11.3477 10.392Z" fill="#1367AE"/>
<path d="M21.5 17H0V34H21.5V17Z" fill="#1367AE"/>
<path d="M21.5 0H43V17H21.5V0Z" fill="#E52448"/>
<path d="M21.5 17H43V34H21.5V17Z" fill="white"/>
<path fill-rule="evenodd" clip-rule="evenodd" d="M32.3478 27.392L29.6606 29.2008L30.5651 26.1077L28 24.1324L31.246 24.0296L32.3478 21L33.4494 24.0296L36.6954 24.1324L34.1303 26.1077L35.0347 29.2008L32.3478 27.392Z" fill="#E52448"/>
</g>
<rect x="0.5" y="0.5" width="42" height="33" rx="3.5" stroke="#C9CFDB"/>
<defs>
<clipPath id="clip0_1385_23139">
<rect width="43" height="34" rx="4" fill="white"/>
</clipPath>
</defs>
</svg>
