<svg width="43" height="34" viewBox="0 0 43 34" fill="none" xmlns="http://www.w3.org/2000/svg">
<g clip-path="url(#clip0_1385_24130)">
<path d="M63.9625 0H0V34H63.9625V0Z" fill="#B22234"/>
<path fill-rule="evenodd" clip-rule="evenodd" d="M63.9625 5.23068H0V2.6153H63.9625V5.23068ZM0 7.84607H63.9625V10.4614H0V7.84607ZM63.9625 15.6922H0V13.0768H63.9625V15.6922ZM0 18.3076H63.9625V20.923H0V18.3076ZM63.9625 26.1538H0V23.5384H63.9625V26.1538ZM0 28.7691H63.9625V31.3845H0V28.7691Z" fill="white"/>
<path d="M25.585 0H0V18.3077H25.585V0Z" fill="#3C3B6E"/>
<path d="M3.11102 4.98413L4.03909 7.8689L1.60938 6.08601H4.61266L2.18295 7.8689L3.11102 4.98413Z" fill="white"/>
<path d="M3.11102 10.5659L4.03909 13.4506L1.60938 11.6677H4.61266L2.18295 13.4506L3.11102 10.5659Z" fill="white"/>
<path d="M6.36102 2.19354L7.28909 5.07831L4.85938 3.29542H7.86266L5.43295 5.07831L6.36102 2.19354Z" fill="white"/>
<path d="M6.36102 7.7746L7.28909 10.6594L4.85938 8.87648H7.86266L5.43295 10.6594L6.36102 7.7746Z" fill="white"/>
<path d="M6.36102 13.3563L7.28909 16.2411L4.85938 14.4582H7.86266L5.43295 16.2411L6.36102 13.3563Z" fill="white"/>
<path d="M9.61102 4.98413L10.5391 7.8689L8.10938 6.08601H11.1127L8.68295 7.8689L9.61102 4.98413Z" fill="white"/>
<path d="M9.61102 10.5659L10.5391 13.4506L8.10938 11.6677H11.1127L8.68295 13.4506L9.61102 10.5659Z" fill="white"/>
<path d="M12.861 2.19354L13.7891 5.07831L11.3594 3.29542H14.3627L11.933 5.07831L12.861 2.19354Z" fill="white"/>
<path d="M12.861 7.7746L13.7891 10.6594L11.3594 8.87648H14.3627L11.933 10.6594L12.861 7.7746Z" fill="white"/>
<path d="M12.861 13.3563L13.7891 16.2411L11.3594 14.4582H14.3627L11.933 16.2411L12.861 13.3563Z" fill="white"/>
<path d="M16.111 4.98413L17.0391 7.8689L14.6094 6.08601H17.6127L15.183 7.8689L16.111 4.98413Z" fill="white"/>
<path d="M16.111 10.5659L17.0391 13.4506L14.6094 11.6677H17.6127L15.183 13.4506L16.111 10.5659Z" fill="white"/>
<path d="M19.361 2.19354L20.2891 5.07831L17.8594 3.29542H20.8627L18.433 5.07831L19.361 2.19354Z" fill="white"/>
<path d="M19.361 7.7746L20.2891 10.6594L17.8594 8.87648H20.8627L18.433 10.6594L19.361 7.7746Z" fill="white"/>
<path d="M19.361 13.3563L20.2891 16.2411L17.8594 14.4582H20.8627L18.433 16.2411L19.361 13.3563Z" fill="white"/>
<path d="M22.611 4.98413L23.5391 7.8689L21.1094 6.08601H24.1127L21.683 7.8689L22.611 4.98413Z" fill="white"/>
<path d="M22.611 10.5659L23.5391 13.4506L21.1094 11.6677H24.1127L21.683 13.4506L22.611 10.5659Z" fill="white"/>
<path d="M43 0H0V34H43V0Z" fill="#262626"/>
<path fill-rule="evenodd" clip-rule="evenodd" d="M-2 0H43V33L-2 0Z" fill="#E8283F"/>
<path fill-rule="evenodd" clip-rule="evenodd" d="M9.42875 28.3334L7.8125 28.8027L8.28588 27.2L7.8125 25.5972L9.42875 26.0668L11.045 25.5972L10.5716 27.2L11.045 28.8027L9.42875 28.3334Z" fill="white"/>
<path fill-rule="evenodd" clip-rule="evenodd" d="M9.42875 14.7334L7.8125 15.2028L8.28588 13.6L7.8125 11.9973L9.42875 12.4667L11.045 11.9973L10.5716 13.6L11.045 15.2028L9.42875 14.7334Z" fill="white"/>
<path fill-rule="evenodd" clip-rule="evenodd" d="M3.71781 20.4L2.10156 20.8694L2.57496 19.2666L2.10156 17.6639L3.71781 18.1334L5.33405 17.6639L4.86067 19.2666L5.33405 20.8694L3.71781 20.4Z" fill="white"/>
<path fill-rule="evenodd" clip-rule="evenodd" d="M13.9991 19.2666L12.3828 19.7361L12.8562 18.1332L12.3828 16.5305L13.9991 17L15.6152 16.5305L15.1419 18.1332L15.6152 19.7361L13.9991 19.2666Z" fill="white"/>
<path fill-rule="evenodd" clip-rule="evenodd" d="M30.3346 15.7515C30.061 15.5887 29.8392 15.2052 29.8392 14.8984V12.8095C29.8392 12.5012 29.6154 12.3251 29.2769 12.4371L27.9771 12.8667C27.6665 12.9694 27.1911 12.9786 26.8525 12.8667L25.5528 12.4371C25.2421 12.3344 25.2077 12.1219 25.4859 11.9564L28.5356 10.1418C28.8092 9.979 28.9565 9.62515 28.8437 9.2894L28.4103 8.00046C28.3068 7.6925 28.4466 7.51681 28.7852 7.62872L30.085 8.05836C30.3956 8.16102 30.7776 8.02882 30.9445 7.75291L32.7744 4.72862C32.9386 4.45727 33.1462 4.45917 33.2592 4.7949L33.6924 6.08386C33.7959 6.39182 33.8052 6.86333 33.6924 7.19906L33.2592 8.48802C33.1556 8.79597 33.3253 9.04562 33.6348 9.04562H35.7411C36.0521 9.04562 36.4345 9.26106 36.6015 9.53695L38.4312 12.5612C38.5954 12.8326 38.4634 13.1052 38.1666 13.164L35.2498 13.7425C34.9395 13.8041 34.6349 14.1169 34.5756 14.4111L33.9922 17.3038C33.9301 17.6115 33.6625 17.7317 33.3843 17.5661L30.3346 15.7515Z" fill="#FFD84E"/>
</g>
<defs>
<clipPath id="clip0_1385_24130">
<rect width="43" height="34" rx="4" fill="white"/>
</clipPath>
</defs>
</svg>
