<svg width="43" height="34" viewBox="0 0 43 34" fill="none" xmlns="http://www.w3.org/2000/svg">
<g clip-path="url(#clip0_1385_23889)">
<path fill-rule="evenodd" clip-rule="evenodd" d="M0 11.3333H43V0H0V11.3333Z" fill="#E33F39"/>
<path fill-rule="evenodd" clip-rule="evenodd" d="M0 11.3334H43V22.6667H0V11.3334Z" fill="white"/>
<path fill-rule="evenodd" clip-rule="evenodd" d="M0 34H43V22.6667H0V34Z" fill="#124BBA"/>
<path fill-rule="evenodd" clip-rule="evenodd" d="M17.1641 17C17.1641 14.3897 19.3427 12.3 21.9973 12.3C24.6519 12.3 26.8306 14.3897 26.8306 17C26.8306 19.6104 24.6519 21.6999 21.9973 21.6999C19.3427 21.6999 17.1641 19.6104 17.1641 17ZM21.9973 13.3C19.8653 13.3 18.1641 14.9711 18.1641 17C18.1641 19.0289 19.8653 20.6999 21.9973 20.6999C24.1293 20.6999 25.8306 19.0289 25.8306 17C25.8306 14.9711 24.1293 13.3 21.9973 13.3Z" fill="#398153"/>
<path fill-rule="evenodd" clip-rule="evenodd" d="M22 19C23.1045 19 24 18.1048 24 17.0001C24 15.8955 23.1045 15 22 15C20.8955 15 20 15.8955 20 17.0001C20 18.1048 20.8955 19 22 19Z" fill="#E5CF58"/>
</g>
<defs>
<clipPath id="clip0_1385_23889">
<rect width="43" height="34" rx="4" fill="white"/>
</clipPath>
</defs>
</svg>
