<svg width="43" height="34" viewBox="0 0 43 34" fill="none" xmlns="http://www.w3.org/2000/svg">
<g clip-path="url(#clip0_1385_22734)">
<path fill-rule="evenodd" clip-rule="evenodd" d="M0 34H43V17H0V34Z" fill="#DD1C34"/>
<path fill-rule="evenodd" clip-rule="evenodd" d="M0 17H43V0H0V17Z" fill="#0D4BC3"/>
<path fill-rule="evenodd" clip-rule="evenodd" d="M0 1L21 17L0 33V1Z" fill="white"/>
<path fill-rule="evenodd" clip-rule="evenodd" d="M3 7.99999C3.55229 7.99999 4 7.55227 4 6.99999C4 6.4477 3.55229 6 3 6C2.44772 6 2 6.4477 2 6.99999C2 7.55227 2.44772 7.99999 3 7.99999ZM15 18C15.5523 18 16 17.5522 16 16.9999C16 16.4477 15.5523 16 15 16C14.4477 16 14 16.4477 14 16.9999C14 17.5522 14.4477 18 15 18ZM4 27C4 27.5522 3.55229 28 3 28C2.44772 28 2 27.5522 2 27C2 26.4477 2.44772 25.9999 3 25.9999C3.55229 25.9999 4 26.4477 4 27ZM6.79811 18.9898L5.08659 21.6193L5.73568 18.5497C5.63122 18.4644 5.53555 18.3687 5.45024 18.2643L2.38061 18.9133L5.01006 17.2018C5.00341 17.1355 4.99999 17.0682 4.99999 16.9999C4.99999 16.9318 5.00341 16.8645 5.01006 16.7981L2.38061 15.0866L5.45024 15.7356C5.53555 15.6312 5.63122 15.5355 5.73568 15.4502L5.08659 12.3806L6.79811 15.01C6.8645 15.0034 6.93185 15 6.99999 15C7.06814 15 7.13549 15.0034 7.20188 15.01L8.9134 12.3806L8.26431 15.4502C8.36876 15.5355 8.46443 15.6312 8.54975 15.7356L11.6194 15.0866L8.98992 16.7981C8.99658 16.8645 8.99998 16.9318 8.99998 16.9999C8.99998 17.0682 8.99658 17.1355 8.98992 17.2018L11.6194 18.9133L8.54975 18.2643C8.46443 18.3687 8.36876 18.4644 8.26431 18.5497L8.9134 21.6193L7.20188 18.9898C7.13549 18.9966 7.06814 19 6.99999 19C6.93185 19 6.8645 18.9966 6.79811 18.9898Z" fill="#FDD64D"/>
</g>
<rect x="0.5" y="0.5" width="42" height="33" rx="3.5" stroke="#C9CFDB"/>
<defs>
<clipPath id="clip0_1385_22734">
<rect width="43" height="34" rx="4" fill="white"/>
</clipPath>
</defs>
</svg>
