<svg width="43" height="34" viewBox="0 0 43 34" fill="none" xmlns="http://www.w3.org/2000/svg">
<g clip-path="url(#clip0_1013_3434)">
<path d="M43 0H0V34H43V0Z" fill="#FF2936"/>
<path fill-rule="evenodd" clip-rule="evenodd" d="M0 34H15V0H0V34Z" fill="#128415"/>
<path fill-rule="evenodd" clip-rule="evenodd" d="M6 16.9998C6 12.0293 10.0294 8 14.9999 8C19.9703 8 23.9997 12.0294 23.9997 16.9998C23.9997 21.9702 19.9703 25.9996 14.9999 25.9996C10.0294 25.9996 6 21.9702 6 16.9998ZM14.9999 9.8947C11.0758 9.8947 7.8947 13.0758 7.8947 16.9998C7.8947 20.9238 11.0758 24.1049 14.9999 24.1049C18.9239 24.1049 22.105 20.9238 22.105 16.9998C22.105 13.0758 18.9239 9.8947 14.9999 9.8947Z" fill="#FAF94F"/>
<path fill-rule="evenodd" clip-rule="evenodd" d="M11.7754 12.9732C11.7754 12.5285 12.1359 12.168 12.5807 12.168H17.412C17.8568 12.168 18.2174 12.5285 18.2174 12.9732V18.61C18.2174 20.3888 16.7752 21.831 14.9963 21.831C13.2175 21.831 11.7754 20.3888 11.7754 18.61V12.9732Z" fill="white"/>
<path fill-rule="evenodd" clip-rule="evenodd" d="M14.9953 18.61C15.8848 18.61 16.6057 16.2784 16.6057 15.3889C16.6057 14.4995 15.8848 13.7784 14.9953 13.7784C14.1059 13.7784 13.3848 14.4995 13.3848 15.3889C13.3848 16.2784 14.1059 18.61 14.9953 18.61Z" fill="#1D50B5"/>
</g>
<defs>
<clipPath id="clip0_1013_3434">
<rect width="43" height="34" rx="4" fill="white"/>
</clipPath>
</defs>
</svg>
