<svg width="43" height="34" viewBox="0 0 43 34" fill="none" xmlns="http://www.w3.org/2000/svg">
<g clip-path="url(#clip0_1385_24300)">
<path d="M63.9625 0H0V34H63.9625V0Z" fill="#B22234"/>
<path fill-rule="evenodd" clip-rule="evenodd" d="M63.9625 5.23068H0V2.6153H63.9625V5.23068ZM0 7.84607H63.9625V10.4614H0V7.84607ZM63.9625 15.6922H0V13.0768H63.9625V15.6922ZM0 18.3076H63.9625V20.923H0V18.3076ZM63.9625 26.1538H0V23.5384H63.9625V26.1538ZM0 28.7691H63.9625V31.3845H0V28.7691Z" fill="white"/>
<path d="M25.585 0H0V18.3077H25.585V0Z" fill="#3C3B6E"/>
<path d="M3.11493 4.98413L4.04299 7.8689L1.61328 6.08601H4.61657L2.18686 7.8689L3.11493 4.98413Z" fill="white"/>
<path d="M3.11493 10.5659L4.04299 13.4506L1.61328 11.6677H4.61657L2.18686 13.4506L3.11493 10.5659Z" fill="white"/>
<path d="M6.36493 2.19354L7.29299 5.07831L4.86328 3.29542H7.86657L5.43686 5.07831L6.36493 2.19354Z" fill="white"/>
<path d="M6.36493 7.7746L7.29299 10.6594L4.86328 8.87648H7.86657L5.43686 10.6594L6.36493 7.7746Z" fill="white"/>
<path d="M6.36493 13.3563L7.29299 16.2411L4.86328 14.4582H7.86657L5.43686 16.2411L6.36493 13.3563Z" fill="white"/>
<path d="M9.61493 4.98413L10.543 7.8689L8.11328 6.08601H11.1166L8.68686 7.8689L9.61493 4.98413Z" fill="white"/>
<path d="M9.61493 10.5659L10.543 13.4506L8.11328 11.6677H11.1166L8.68686 13.4506L9.61493 10.5659Z" fill="white"/>
<path d="M12.8649 2.19354L13.793 5.07831L11.3633 3.29542H14.3666L11.9369 5.07831L12.8649 2.19354Z" fill="white"/>
<path d="M12.8649 7.7746L13.793 10.6594L11.3633 8.87648H14.3666L11.9369 10.6594L12.8649 7.7746Z" fill="white"/>
<path d="M12.8649 13.3563L13.793 16.2411L11.3633 14.4582H14.3666L11.9369 16.2411L12.8649 13.3563Z" fill="white"/>
<path d="M16.1149 4.98413L17.043 7.8689L14.6133 6.08601H17.6166L15.1869 7.8689L16.1149 4.98413Z" fill="white"/>
<path d="M16.1149 10.5659L17.043 13.4506L14.6133 11.6677H17.6166L15.1869 13.4506L16.1149 10.5659Z" fill="white"/>
<path d="M19.3649 2.19354L20.293 5.07831L17.8633 3.29542H20.8666L18.4369 5.07831L19.3649 2.19354Z" fill="white"/>
<path d="M19.3649 7.7746L20.293 10.6594L17.8633 8.87648H20.8666L18.4369 10.6594L19.3649 7.7746Z" fill="white"/>
<path d="M19.3649 13.3563L20.293 16.2411L17.8633 14.4582H20.8666L18.4369 16.2411L19.3649 13.3563Z" fill="white"/>
<path d="M22.6149 4.98413L23.543 7.8689L21.1133 6.08601H24.1166L21.6869 7.8689L22.6149 4.98413Z" fill="white"/>
<path d="M22.6149 10.5659L23.543 13.4506L21.1133 11.6677H24.1166L21.6869 13.4506L22.6149 10.5659Z" fill="white"/>
<path d="M43 0H0V34H43V0Z" fill="#E31F37"/>
<path fill-rule="evenodd" clip-rule="evenodd" d="M0 18H23V0H0V18Z" fill="#083B9A"/>
<path fill-rule="evenodd" clip-rule="evenodd" d="M9.42987 4.53342L7.81362 5.00286L8.287 3.40008L7.81362 1.7973L9.42987 2.26674L11.0461 1.7973L10.5727 3.40008L11.0461 5.00286L9.42987 4.53342ZM9.42987 15.8667L7.81362 16.3362L8.287 14.7334L7.81362 13.1306L9.42987 13.6001L11.0461 13.1306L10.5727 14.7334L11.0461 16.3362L9.42987 15.8667ZM3.24219 10.6695L4.85843 10.2001L6.47468 10.6695L6.0013 9.06674L6.47468 7.46396L4.85843 7.93342L3.24219 7.46396L3.71557 9.06674L3.24219 10.6695ZM15.1441 9.06674L13.5279 9.53619L14.0013 7.93342L13.5279 6.33064L15.1441 6.80008L16.7604 6.33064L16.2871 7.93342L16.7604 9.53619L15.1441 9.06674ZM12.8584 11.9001C12.8584 12.213 12.6026 12.4667 12.287 12.4667C11.9714 12.4667 11.7156 12.213 11.7156 11.9001C11.7156 11.5871 11.9714 11.3334 12.287 11.3334C12.6026 11.3334 12.8584 11.5871 12.8584 11.9001Z" fill="white"/>
</g>
<defs>
<clipPath id="clip0_1385_24300">
<rect width="43" height="34" rx="4" fill="white"/>
</clipPath>
</defs>
</svg>
