<svg width="43" height="34" viewBox="0 0 43 34" fill="none" xmlns="http://www.w3.org/2000/svg">
<g clip-path="url(#clip0_1013_3501)">
<path fill-rule="evenodd" clip-rule="evenodd" d="M0 34H43V17H0V34Z" fill="#7CCCF5"/>
<path fill-rule="evenodd" clip-rule="evenodd" d="M0 17H43V0H0V17Z" fill="white"/>
<path d="M16.9999 17.1447C16.9999 16.2963 16.3283 15.6085 15.4998 15.6085C14.6716 15.6085 14 16.2963 14 17.1447H16.9999ZM17.7402 23.7921C18.4568 24.218 19.3748 23.9684 19.7904 23.2345C20.2062 22.5005 19.9625 21.5606 19.2459 21.1348L17.7402 23.7921ZM23.9202 21.0311C23.2223 21.4883 23.0184 22.4381 23.4646 23.1529C23.911 23.8677 24.8387 24.0765 25.5366 23.6193L23.9202 21.0311ZM28.9998 17.1447C28.9998 16.2963 28.3284 15.6085 27.5 15.6085C26.6715 15.6085 25.9999 16.2963 25.9999 17.1447H28.9998ZM14 17.1447C14 19.9861 15.5073 22.4653 17.7402 23.7921L19.2459 21.1348C17.8997 20.3347 16.9999 18.8466 16.9999 17.1447H14ZM25.5366 23.6193C27.6161 22.2572 28.9998 19.8669 28.9998 17.1447H25.9999C25.9999 18.7756 25.1739 20.2098 23.9202 21.0311L25.5366 23.6193Z" fill="#445F42"/>
<path fill-rule="evenodd" clip-rule="evenodd" d="M21.4999 20.2173C23.1568 20.2173 24.4998 18.154 24.4998 15.6087C24.4998 13.0634 23.1568 11 21.4999 11C19.843 11 18.5 13.0634 18.5 15.6087C18.5 18.154 19.843 20.2173 21.4999 20.2173Z" fill="#D89F3D"/>
</g>
<rect x="0.5" y="0.5" width="42" height="33" rx="3.5" stroke="#C9CFDB"/>
<defs>
<clipPath id="clip0_1013_3501">
<rect width="43" height="34" rx="4" fill="white"/>
</clipPath>
</defs>
</svg>
