<svg width="43" height="34" viewBox="0 0 43 34" fill="none" xmlns="http://www.w3.org/2000/svg">
<g clip-path="url(#clip0_1385_22763)">
<path d="M43 0H0V34H43V0Z" fill="#128C4B"/>
<path fill-rule="evenodd" clip-rule="evenodd" d="M8 21.1431H26.908V19.4651C26.908 18.5624 27.8326 17.9754 28.6182 18.379L29.2716 18.7147V21.1431H32.8169C33.4694 21.1431 33.9985 21.6868 33.9985 22.3574V23.5717C33.9985 24.9128 32.9404 26.0001 31.6351 26.0001H28.0898C27.4371 26.0001 26.908 25.4565 26.908 24.7858V23.5717H10.853C10.5396 23.5717 10.239 23.4437 10.0174 23.216L8 21.1431Z" fill="white"/>
<path fill-rule="evenodd" clip-rule="evenodd" d="M8 14.1085C8 13.9474 8.06225 13.793 8.17306 13.6792L8.76393 13.072C8.99469 12.8349 8.99469 12.4505 8.76393 12.2134L8.17306 11.6063C8.06225 11.4925 8 11.338 8 11.177V9.60713C8 9.27182 8.26453 9 8.59087 9H9.91212C10.1614 9 10.3635 9.20765 10.3635 9.46381C10.3635 9.95321 11.0056 10.109 11.2186 9.67123L11.3948 9.30921C11.487 9.1197 11.6755 9 11.8817 9H14.4996C14.8259 9 15.0906 9.27182 15.0906 9.60713C15.0906 9.94243 14.8259 10.2142 14.4996 10.2142H13.3179C12.9915 10.2142 12.727 10.4861 12.727 10.8214C12.727 11.1567 12.9915 11.4285 13.3179 11.4285H14.4996C14.8259 11.4285 15.0906 11.7003 15.0906 12.0356V15.6783C15.0906 16.0136 14.8259 16.2855 14.4996 16.2855H13.3179C12.9915 16.2855 12.727 16.0136 12.727 15.6783V14.4641C12.727 14.1288 12.9915 13.857 13.3179 13.857C13.6442 13.857 13.9088 13.5852 13.9088 13.2499C13.9088 12.9146 13.6442 12.6427 13.3179 12.6427H12.1361C11.8098 12.6427 11.5453 12.9146 11.5453 13.2499V15.6783C11.5453 16.0136 11.2807 16.2855 10.9544 16.2855C10.628 16.2855 10.3635 16.0136 10.3635 15.6783V14.4641C10.3635 14.1288 10.099 13.857 9.77263 13.857C9.44629 13.857 9.18174 14.1288 9.18174 14.4641V15.6783C9.18174 16.0136 8.91719 16.2855 8.59087 16.2855C8.26453 16.2855 8 16.0136 8 15.6783V14.1085Z" fill="white"/>
<path fill-rule="evenodd" clip-rule="evenodd" d="M26.9102 14.1085C26.9102 13.9474 26.9726 13.793 27.0833 13.6792L27.6742 13.072C27.905 12.8349 27.905 12.4505 27.6742 12.2134L27.0833 11.6063C26.9726 11.4925 26.9102 11.338 26.9102 11.177V9.60713C26.9102 9.27182 27.1748 9 27.5012 9H28.8223C29.0717 9 29.2738 9.20765 29.2738 9.46381C29.2738 9.95321 29.9158 10.109 30.1289 9.67123L30.3051 9.30921C30.3973 9.1197 30.5857 9 30.7919 9H33.4099C33.7362 9 34.0007 9.27182 34.0007 9.60713C34.0007 9.94243 33.7362 10.2142 33.4099 10.2142H32.228C31.9017 10.2142 31.6372 10.4861 31.6372 10.8214C31.6372 11.1567 31.9017 11.4285 32.228 11.4285H33.4099C33.7362 11.4285 34.0007 11.7003 34.0007 12.0356V15.6783C34.0007 16.0136 33.7362 16.2855 33.4099 16.2855H32.228C31.9017 16.2855 31.6372 16.0136 31.6372 15.6783V14.4641C31.6372 14.1288 31.9017 13.857 32.228 13.857C32.5544 13.857 32.819 13.5852 32.819 13.2499C32.819 12.9146 32.5544 12.6427 32.228 12.6427H31.0464C30.7201 12.6427 30.4554 12.9146 30.4554 13.2499V15.6783C30.4554 16.0136 30.1909 16.2855 29.8646 16.2855C29.5383 16.2855 29.2738 16.0136 29.2738 15.6783V14.4641C29.2738 14.1288 29.0091 13.857 28.6828 13.857C28.3564 13.857 28.092 14.1288 28.092 14.4641V15.6783C28.092 16.0136 27.8275 16.2855 27.5012 16.2855C27.1748 16.2855 26.9102 16.0136 26.9102 15.6783V14.1085Z" fill="white"/>
<path fill-rule="evenodd" clip-rule="evenodd" d="M24.5436 10.8157C24.5436 11.1541 24.3589 11.6182 24.117 11.8669L23.7885 12.2044C23.5529 12.4465 23.5465 12.8325 23.7885 13.0811L24.117 13.4186C24.3526 13.6607 24.5436 14.1169 24.5436 14.4698V15.6727C24.5436 16.0111 24.2907 16.2855 23.9472 16.2855H22.7765C22.4472 16.2855 22.1802 16.0256 22.1802 15.6727V14.4698C22.1802 14.1314 22.071 14.0811 21.906 14.4202L21.2724 15.7222C21.121 16.0333 20.7203 16.2855 20.4129 16.2855H18.0386C17.7153 16.2855 17.4531 16.0038 17.4531 15.6783C17.4531 15.343 17.7061 15.0712 18.0496 15.0712H19.2203C19.5496 15.0712 19.8166 14.7896 19.8166 14.4641C19.8166 14.1288 19.5636 13.857 19.2203 13.857H18.0496C17.7201 13.857 17.4531 13.5959 17.4531 13.2614V9.59557C17.4531 9.26665 17.7061 9 18.0496 9H19.2203C19.5496 9 19.8166 9.25989 19.8166 9.61282V10.8157C19.8166 11.1541 19.5425 11.4285 19.2258 11.4285C18.8994 11.4285 18.6349 11.7101 18.6349 12.0356C18.6349 12.3709 18.8879 12.6427 19.2312 12.6427H20.4019C20.7314 12.6427 20.9984 12.3569 20.9984 12.0412V9.60152C20.9984 9.26932 21.2724 9 21.5892 9C21.9155 9 22.1802 9.25989 22.1802 9.61282V10.8157C22.1802 11.1541 22.4542 11.4285 22.771 11.4285C23.0974 11.4285 23.3618 11.1686 23.3618 10.8157V9.61282C23.3618 9.27437 23.6361 9 23.9528 9C24.2792 9 24.5436 9.25989 24.5436 9.61282V10.8157Z" fill="white"/>
</g>
<defs>
<clipPath id="clip0_1385_22763">
<rect width="43" height="34" rx="4" fill="white"/>
</clipPath>
</defs>
</svg>
