<svg width="43" height="34" viewBox="0 0 43 34" fill="none" xmlns="http://www.w3.org/2000/svg">
<g clip-path="url(#clip0_1013_3452)">
<path fill-rule="evenodd" clip-rule="evenodd" d="M0 23H43V11H0V23Z" fill="#17508F"/>
<path fill-rule="evenodd" clip-rule="evenodd" d="M0 34H43V23H0V34Z" fill="white"/>
<path fill-rule="evenodd" clip-rule="evenodd" d="M0 11H43V0H0V11Z" fill="#E1444D"/>
<path fill-rule="evenodd" clip-rule="evenodd" d="M7.69727 16.8336C7.69727 15.7048 8.29865 13.19 8.63785 11.8613C8.76789 11.3519 9.22837 11.0005 9.75403 11.0005H14.9756C15.5002 11.0005 15.9601 11.3505 16.0906 11.8587C16.43 13.1796 17.0302 15.679 17.0302 16.8336C17.0302 18.1373 16.1547 21.5598 15.9205 22.4517C15.8829 22.595 15.819 22.7268 15.7246 22.8411C15.2774 23.3828 13.8206 25 12.3638 25C10.906 25 9.44826 23.3807 9.0021 22.8402C8.90825 22.7264 8.8445 22.5956 8.80681 22.4531C8.57255 21.5675 7.69727 18.1696 7.69727 16.8336Z" fill="white"/>
<mask id="mask0_1013_3452" style="mask-type:luminance" maskUnits="userSpaceOnUse" x="7" y="11" width="11" height="14">
<path fill-rule="evenodd" clip-rule="evenodd" d="M7.69922 16.8331C7.69922 15.7043 8.3006 13.1895 8.63981 11.8608C8.76984 11.3515 9.23032 11 9.75598 11H14.9775C15.5022 11 15.962 11.3501 16.0926 11.8582C16.4319 13.1792 17.0321 15.6785 17.0321 16.8331C17.0321 18.1368 16.1566 21.5593 15.9225 22.4512C15.8849 22.5945 15.821 22.7263 15.7265 22.8406C15.2794 23.3824 13.8225 24.9995 12.3657 24.9995C10.908 24.9995 9.45022 23.3803 9.00406 22.8397C8.91021 22.726 8.84646 22.5951 8.80876 22.4526C8.5745 21.567 7.69922 18.1691 7.69922 16.8331Z" fill="white"/>
</mask>
<g mask="url(#mask0_1013_3452)">
<path fill-rule="evenodd" clip-rule="evenodd" d="M18.7882 11.9715L7.89358 25.5899L5.94141 24.0281L16.836 10.4098L18.7882 11.9715Z" fill="#E1444D"/>
<path fill-rule="evenodd" clip-rule="evenodd" d="M7.89358 10.4098L18.7882 24.0281L16.8361 25.5899L5.94141 11.9715L7.89358 10.4098Z" fill="#E1444D"/>
</g>
</g>
<rect x="0.5" y="0.5" width="42" height="33" rx="3.5" stroke="#C9CFDB"/>
<defs>
<clipPath id="clip0_1013_3452">
<rect width="43" height="34" rx="4" fill="white"/>
</clipPath>
</defs>
</svg>
