<svg width="43" height="34" viewBox="0 0 43 34" fill="none" xmlns="http://www.w3.org/2000/svg">
<g clip-path="url(#clip0_1385_22773)">
<path fill-rule="evenodd" clip-rule="evenodd" d="M0 34H43V17H0V34Z" fill="white"/>
<path fill-rule="evenodd" clip-rule="evenodd" d="M0 17H43V0H0V17Z" fill="#E12237"/>
<path fill-rule="evenodd" clip-rule="evenodd" d="M9.37502 15C10.8813 15 12.2655 14.4674 13.3565 13.5767C12.7786 13.7965 12.1531 13.9167 11.5 13.9167C8.566 13.9167 6.18751 11.4915 6.18751 8.5C6.18751 5.50846 8.566 3.08334 11.5 3.08334C12.1531 3.08334 12.7786 3.20347 13.3565 3.42327C12.2655 2.53264 10.8813 2 9.37502 2C5.85419 2 3 4.91015 3 8.5C3 12.0899 5.85419 15 9.37502 15ZM11.5 7.41668C11.5 8.01499 11.0243 8.5 10.4375 8.5C9.8507 8.5 9.37502 8.01499 9.37502 7.41668C9.37502 6.81837 9.8507 6.33334 10.4375 6.33334C11.0243 6.33334 11.5 6.81837 11.5 7.41668ZM12.5625 12.8333C13.1493 12.8333 13.625 12.3483 13.625 11.75C13.625 11.1517 13.1493 10.6667 12.5625 10.6667C11.9757 10.6667 11.5 11.1517 11.5 11.75C11.5 12.3483 11.9757 12.8333 12.5625 12.8333ZM17.875 11.75C17.875 12.3483 17.3993 12.8333 16.8125 12.8333C16.2257 12.8333 15.7501 12.3483 15.7501 11.75C15.7501 11.1517 16.2257 10.6667 16.8125 10.6667C17.3993 10.6667 17.875 11.1517 17.875 11.75ZM18.9376 8.5C19.5243 8.5 20 8.01499 20 7.41668C20 6.81837 19.5243 6.33334 18.9376 6.33334C18.3508 6.33334 17.875 6.81837 17.875 7.41668C17.875 8.01499 18.3508 8.5 18.9376 8.5ZM15.7501 4.16668C15.7501 4.76499 15.2744 5.25 14.6875 5.25C14.1007 5.25 13.625 4.76499 13.625 4.16668C13.625 3.56837 14.1007 3.08334 14.6875 3.08334C15.2744 3.08334 15.7501 3.56837 15.7501 4.16668Z" fill="white"/>
</g>
<rect x="0.5" y="0.5" width="42" height="33" rx="3.5" stroke="#C9CFDB"/>
<defs>
<clipPath id="clip0_1385_22773">
<rect width="43" height="34" rx="4" fill="white"/>
</clipPath>
</defs>
</svg>
