<svg width="43" height="34" viewBox="0 0 43 34" fill="none" xmlns="http://www.w3.org/2000/svg">
<g clip-path="url(#clip0_1013_3474)">
<path fill-rule="evenodd" clip-rule="evenodd" d="M0 22.6668H43V11.3335H0V22.6668Z" fill="#0073F2"/>
<path fill-rule="evenodd" clip-rule="evenodd" d="M0 34.0004H43V22.667H0V34.0004Z" fill="#E60000"/>
<path fill-rule="evenodd" clip-rule="evenodd" d="M0 11.3334H43V0H0V11.3334Z" fill="white"/>
<path d="M7.56845 13.6205C6.79804 12.8618 6.36523 11.8328 6.36523 10.7599V7.60488C6.36523 6.34408 7.10346 5.1963 8.26096 4.65747Lnan nanL8.26096 4.65747C8.70332 4.45153 9.18654 4.34473 9.67585 4.34473H13.3247C13.814 4.34473 14.2973 4.45153 14.7396 4.65747Lnan nanL14.7396 4.65747C15.8971 5.1963 16.6353 6.34408 16.6353 7.60488V10.7599C16.6353 11.8328 16.2025 12.8618 15.4321 13.6204L12.9527 16.0621C12.1506 16.852 10.85 16.852 10.0479 16.0621L7.56845 13.6205Z" fill="#0073F2"/>
<path fill-rule="evenodd" clip-rule="evenodd" d="M5 10.7603V7.60525C5 5.82427 6.04281 4.20293 7.67788 3.44177C8.30276 3.15088 8.98535 3 9.67654 3H13.3254C14.0166 3 14.6992 3.15088 15.3241 3.44177C16.9591 4.20293 18.002 5.82427 18.002 7.60525V10.7603C18.002 12.1899 17.4252 13.561 16.3987 14.572L13.9192 17.0136C12.5837 18.3288 10.4183 18.3288 9.08271 17.0136L6.60329 14.572C5.57672 13.561 5 12.1899 5 10.7603ZM6.36592 10.7603C6.36592 11.8332 6.79873 12.8622 7.56914 13.6208L10.0486 16.0625C10.8507 16.8524 12.1512 16.8524 12.9534 16.0625L15.4328 13.6208C16.2032 12.8622 16.636 11.8332 16.636 10.7603V7.60525C16.636 6.34446 15.8978 5.19668 14.7403 4.65784C14.2979 4.45191 13.8147 4.3451 13.3254 4.3451H9.67654C9.18723 4.3451 8.70401 4.45191 8.26165 4.65784C7.10415 5.19668 6.36592 6.34446 6.36592 7.60525V10.7603Z" fill="white"/>
<mask id="mask0_1013_3474" style="mask-type:alpha" maskUnits="userSpaceOnUse" x="7" y="5" width="9" height="11">
<path d="M8.35711 12.9769C7.74078 12.3536 7.39453 11.5082 7.39453 10.6267V8.03457C7.39453 6.99872 7.98511 6.05572 8.91111 5.61302L-nan -nanL8.91111 5.61302C9.265 5.44383 9.65158 5.35608 10.043 5.35608H12.9621C13.3536 5.35608 13.7401 5.44383 14.094 5.61302L-nan -nanL14.094 5.61302C15.02 6.05572 15.6106 6.99872 15.6106 8.03457V10.6267C15.6106 11.5082 15.2644 12.3536 14.648 12.9769L12.6645 14.9829C12.0228 15.6319 10.9824 15.6319 10.3406 14.9829L8.35711 12.9769Z" fill="#0073F2"/>
</mask>
<g mask="url(#mask0_1013_3474)">
<path d="M6.36719 13.4468L11.5022 18.5036L16.6373 13.4468L14.355 9.03361L13.2139 10.6886L11.5022 7.37866L9.79056 10.6886L8.64943 9.03361L6.36719 13.4468Z" fill="white"/>
</g>
</g>
<rect x="0.5" y="0.5" width="42" height="33" rx="3.5" stroke="#C9CFDB"/>
<defs>
<clipPath id="clip0_1013_3474">
<rect width="43" height="34" rx="4" fill="white"/>
</clipPath>
</defs>
</svg>
