<svg width="43" height="34" viewBox="0 0 43 34" fill="none" xmlns="http://www.w3.org/2000/svg">
<g clip-path="url(#clip0_1013_3487)">
<path fill-rule="evenodd" clip-rule="evenodd" d="M0 23H43V11H0V23Z" fill="#0C47B7"/>
<path fill-rule="evenodd" clip-rule="evenodd" d="M0 11H43V0H0V11Z" fill="white"/>
<path fill-rule="evenodd" clip-rule="evenodd" d="M0 34H43V23H0V34Z" fill="#E53B35"/>
<path d="M10.0145 5.66687C8.18763 5.66687 6.68728 7.11063 6.61707 8.9362L6.17634 20.3949C6.13645 21.4326 6.5728 22.4313 7.36114 23.1071L12.2498 27.2974C13.9475 28.7526 16.4526 28.7526 18.1504 27.2974L23.0389 23.1071C23.8273 22.4313 24.2636 21.4326 24.2238 20.3949L23.783 8.9362C23.7128 7.11063 22.2125 5.66687 20.3855 5.66687H10.0145Z" fill="#F73744" stroke="white" stroke-width="1.33333"/>
<mask id="mask0_1013_3487" style="mask-type:luminance" maskUnits="userSpaceOnUse" x="5" y="5" width="20" height="25">
<path d="M10.0185 5.66711C8.19153 5.66711 6.69118 7.11087 6.62097 8.93645L6.18025 20.3952C6.14035 21.4328 6.57671 22.4316 7.36505 23.1073L12.2537 27.2976C13.9514 28.7528 16.4565 28.7528 18.1543 27.2976L23.0428 23.1073C23.8312 22.4316 24.2675 21.4328 24.2277 20.3952L23.7869 8.93645C23.7167 7.11087 22.2164 5.66711 20.3894 5.66711H10.0185Z" fill="white" stroke="white" stroke-width="1.33333"/>
</mask>
<g mask="url(#mask0_1013_3487)">
<path fill-rule="evenodd" clip-rule="evenodd" d="M14.0699 18.7003C14.0699 18.3873 13.8162 18.1337 13.5033 18.1337H11.2366C10.9236 18.1337 10.6699 17.88 10.6699 17.567V16.4337C10.6699 16.1207 10.9236 15.867 11.2366 15.867H13.5033C13.8162 15.867 14.0699 15.6133 14.0699 15.3003V14.167C14.0699 13.8541 13.8162 13.6003 13.5033 13.6003H12.3699C12.057 13.6003 11.8033 13.3466 11.8033 13.0337V11.9003C11.8033 11.5874 12.057 11.3337 12.3699 11.3337H13.5033C13.8162 11.3337 14.0699 11.08 14.0699 10.767V9.63369C14.0699 9.32072 14.3236 9.06702 14.6366 9.06702H15.7699C16.0829 9.06702 16.3365 9.32072 16.3365 9.63369V10.767C16.3365 11.08 16.5903 11.3337 16.9033 11.3337H18.0365C18.3495 11.3337 18.6033 11.5874 18.6033 11.9003V13.0337C18.6033 13.3466 18.3495 13.6003 18.0365 13.6003H16.9033C16.5903 13.6003 16.3365 13.8541 16.3365 14.167V15.3003C16.3365 15.6133 16.5903 15.867 16.9033 15.867H19.1699C19.4829 15.867 19.7365 16.1207 19.7365 16.4337V17.567C19.7365 17.88 19.4829 18.1337 19.1699 18.1337H16.9033C16.5903 18.1337 16.3365 18.3873 16.3365 18.7003V22.1003C16.3365 22.4132 16.0829 22.667 15.7699 22.667H14.6366C14.3236 22.667 14.0699 22.4132 14.0699 22.1003V18.7003Z" fill="white"/>
<path fill-rule="evenodd" clip-rule="evenodd" d="M17.2483 22.8232C16.8835 22.0602 16.1045 21.5332 15.2023 21.5332C14.3002 21.5332 13.5212 22.0602 13.1563 22.8232C10.4006 23.2573 8.40234 24.5453 8.40234 26.0666C8.40234 27.9444 11.4468 29.4666 15.2023 29.4666C18.9578 29.4666 22.0023 27.9444 22.0023 26.0666C22.0023 24.5453 20.0041 23.2573 17.2483 22.8232Z" fill="#1251A1"/>
</g>
</g>
<rect x="0.5" y="0.5" width="42" height="33" rx="3.5" stroke="#C9CFDB"/>
<defs>
<clipPath id="clip0_1013_3487">
<rect width="43" height="34" rx="4" fill="white"/>
</clipPath>
</defs>
</svg>
