<svg width="43" height="34" viewBox="0 0 43 34" fill="none" xmlns="http://www.w3.org/2000/svg">
<g clip-path="url(#clip0_1385_22627)">
<path d="M43 0H0V34H43V0Z" fill="white"/>
<path fill-rule="evenodd" clip-rule="evenodd" d="M21.5024 25.1186C25.9608 25.1186 29.5752 21.4837 29.5752 16.9998C29.5752 12.5158 25.9608 8.88086 21.5024 8.88086C17.044 8.88086 13.4297 12.5158 13.4297 16.9998C13.4297 21.4837 17.044 25.1186 21.5024 25.1186Z" fill="#E01B41"/>
<mask id="mask0_1385_22627" style="mask-type:luminance" maskUnits="userSpaceOnUse" x="13" y="8" width="17" height="18">
<path fill-rule="evenodd" clip-rule="evenodd" d="M21.5024 25.1191C25.9608 25.1191 29.5752 21.4842 29.5752 17.0002C29.5752 12.5163 25.9608 8.88135 21.5024 8.88135C17.044 8.88135 13.4297 12.5163 13.4297 17.0002C13.4297 21.4842 17.044 25.1191 21.5024 25.1191Z" fill="white"/>
</mask>
<g mask="url(#mask0_1385_22627)">
<path fill-rule="evenodd" clip-rule="evenodd" d="M13.4314 18.1599C15.7379 20.3346 19.1976 21.6394 21.5041 18.1599C23.8105 14.6804 28.4235 14.6804 29.5768 18.1599C30.73 21.6394 29.5768 25.1189 29.5768 25.1189H13.4314C13.4314 25.1189 11.1249 15.9852 13.4314 18.1599Z" fill="#0E4B9C"/>
</g>
<path opacity="0.75" fill-rule="evenodd" clip-rule="evenodd" d="M7.96046 5.79005C8.1197 5.51268 8.47235 5.41765 8.74814 5.5778L9.74688 6.15771C10.0227 6.31786 10.1172 6.67253 9.95794 6.9499L7.07482 11.9722C6.9156 12.2495 6.56294 12.3446 6.28714 12.1844L5.2884 11.6045C5.01261 11.4444 4.91813 11.0897 5.07734 10.8123L7.96046 5.79005ZM33.2531 6.15771C32.9773 6.31786 32.8829 6.67253 33.042 6.9499L35.9252 11.9722C36.0844 12.2495 36.4371 12.3446 36.7128 12.1844L37.7117 11.6045C37.9874 11.4444 38.0818 11.0897 37.9227 10.8123L35.0395 5.79005C34.8804 5.51268 34.5277 5.41765 34.2519 5.5778L33.2531 6.15771ZM30.257 7.89747C29.981 8.05762 29.8866 8.41229 30.0459 8.68966L32.9289 13.7119C33.0882 13.9893 33.4408 14.0843 33.7167 13.9242L34.7153 13.3443C34.9913 13.1841 35.0857 12.8295 34.9264 12.5521L32.0434 7.52981C31.8841 7.25244 31.5315 7.15741 31.2556 7.31756L30.257 7.89747ZM5.07734 23.1877C4.91813 22.9103 5.01261 22.5556 5.2884 22.3955L6.28714 21.8155C6.56294 21.6554 6.9156 21.7504 7.07482 22.0278L9.95794 27.0501C10.1172 27.3274 10.0227 27.6822 9.74688 27.8422L8.74814 28.4223C8.47235 28.5823 8.1197 28.4873 7.96046 28.21L5.07734 23.1877ZM8.28462 20.6558C8.00883 20.8158 7.91435 21.1706 8.07358 21.4479L10.9567 26.4702C11.1159 26.7476 11.4686 26.8426 11.7444 26.6825L12.7431 26.1025C13.0189 25.9424 13.1134 25.5877 12.9542 25.3103L10.0711 20.288C9.91182 20.0107 9.55916 19.9157 9.28336 20.0757L8.28462 20.6558ZM32.9289 20.288C33.0882 20.0107 33.4408 19.9157 33.7167 20.0757L34.7153 20.6558C34.9913 20.8158 35.0857 21.1706 34.9264 21.4479L32.0434 26.4702C31.8841 26.7476 31.5315 26.8426 31.2556 26.6825L30.257 26.1025C29.981 25.9424 29.8866 25.5877 30.0459 25.3103L32.9289 20.288ZM36.7128 21.8155C36.4371 21.6554 36.0844 21.7504 35.9252 22.0278L33.042 27.0501C32.8829 27.3274 32.9773 27.6822 33.2531 27.8422L34.2519 28.4223C34.5277 28.5823 34.8804 28.4873 35.0395 28.21L37.9227 23.1877C38.0818 22.9103 37.9874 22.5556 37.7117 22.3955L36.7128 21.8155ZM11.7444 7.31756C11.4686 7.15741 11.1159 7.25244 10.9567 7.52981L8.07358 12.5521C7.91435 12.8295 8.00883 13.1841 8.28462 13.3443L9.28336 13.9242C9.55916 14.0843 9.91182 13.9893 10.0711 13.7119L12.9542 8.68966C13.1134 8.41229 13.0189 8.05762 12.7431 7.89747L11.7444 7.31756Z" fill="#262626"/>
</g>
<rect x="0.5" y="0.5" width="42" height="33" rx="3.5" stroke="#C9CFDB"/>
<defs>
<clipPath id="clip0_1385_22627">
<rect width="43" height="34" rx="4" fill="white"/>
</clipPath>
</defs>
</svg>
