<svg width="43" height="34" viewBox="0 0 43 34" fill="none" xmlns="http://www.w3.org/2000/svg">
<g clip-path="url(#clip0_1385_23636)">
<path d="M43 0H0V8.5H43V0Z" fill="#080808"/>
<path d="M43 8.5H0V11H43V8.5Z" fill="white"/>
<path d="M43 11H0V23H43V11Z" fill="#DB1921"/>
<path d="M43 23H0V25.5H43V23Z" fill="white"/>
<path d="M43 25.5H0V34H43V25.5Z" fill="#0F8D36"/>
<path fill-rule="evenodd" clip-rule="evenodd" d="M0 34L21 17L0 0V34Z" fill="#4BB6DC"/>
<path fill-rule="evenodd" clip-rule="evenodd" d="M6.99711 19.1658L3.63833 21.5843L4.91986 17.6692L1.5625 15.2488L5.7133 15.2476L6.99711 11.3333L8.28091 15.2476L12.4317 15.2488L9.07435 17.6692L10.3559 21.5843L6.99711 19.1658Z" fill="#FDE444"/>
</g>
<defs>
<clipPath id="clip0_1385_23636">
<rect width="43" height="34" rx="4" fill="white"/>
</clipPath>
</defs>
</svg>
