<svg width="43" height="34" viewBox="0 0 43 34" fill="none" xmlns="http://www.w3.org/2000/svg">
<g clip-path="url(#clip0_1013_3216)">
<path fill-rule="evenodd" clip-rule="evenodd" d="M-1.34375 9.06664H44.3438V0H-1.34375V9.06664Z" fill="#DD172C"/>
<path fill-rule="evenodd" clip-rule="evenodd" d="M-1.34375 34.0002H44.3438V24.9336H-1.34375V34.0002Z" fill="#DD172C"/>
<path fill-rule="evenodd" clip-rule="evenodd" d="M-1.34375 24.9331H44.3438V9.06641H-1.34375V24.9331Z" fill="#FFD133"/>
<path d="M8.54293 15.9135C8.5165 15.5832 8.76675 15.2998 9.08495 15.2998H12.1595C12.4777 15.2998 12.7279 15.5831 12.7015 15.9135L12.422 19.4077C12.3516 20.2888 11.6446 20.9664 10.796 20.9664H10.4485C9.59985 20.9664 8.89288 20.2888 8.82241 19.4077L8.54293 15.9135Z" stroke="#A41517" stroke-width="0.666667"/>
<path fill-rule="evenodd" clip-rule="evenodd" d="M8.44727 17H12.7985V18.1334H11.7107L10.6229 20.4L9.53507 18.1334H8.44727V17Z" fill="#A41517"/>
<path d="M7.35918 14.7329C7.35918 14.107 6.87216 13.5996 6.27139 13.5996C5.67062 13.5996 5.18359 14.107 5.18359 14.7329V20.3996C5.18359 21.0255 5.67062 21.5329 6.27139 21.5329C6.87216 21.5329 7.35918 21.0255 7.35918 20.3996V14.7329Z" fill="#A41517"/>
<path d="M16.0623 14.7329C16.0623 14.107 15.5753 13.5996 14.9745 13.5996C14.3737 13.5996 13.8867 14.107 13.8867 14.7329V20.3996C13.8867 21.0255 14.3737 21.5329 14.9745 21.5329C15.5753 21.5329 16.0623 21.0255 16.0623 20.3996V14.7329Z" fill="#A41517"/>
<path d="M8.44727 13.1463C8.44727 12.1449 9.2265 11.333 10.1877 11.333H11.058C12.0192 11.333 12.7985 12.1449 12.7985 13.1463C12.7985 13.3967 12.6037 13.5997 12.3633 13.5997H8.88239C8.64207 13.5997 8.44727 13.3967 8.44727 13.1463Z" fill="#A41517"/>
</g>
<defs>
<clipPath id="clip0_1013_3216">
<rect width="43" height="34" rx="4" fill="white"/>
</clipPath>
</defs>
</svg>
