<svg width="43" height="34" viewBox="0 0 43 34" fill="none" xmlns="http://www.w3.org/2000/svg">
<g clip-path="url(#clip0_1385_22780)">
<path d="M43 0H0V34H43V0Z" fill="#FFBF19"/>
<path d="M2 4.30771C2 3.0332 2.89544 2 4.00001 2H8V32H4.00001C2.89544 32 2 30.9669 2 29.6924V4.30771Z" fill="#03664F"/>
<path fill-rule="evenodd" clip-rule="evenodd" d="M16 2H38.9167C40.0672 2 41 2.99876 41 4.23079V29.7693C41 31.0013 40.0672 32 38.9167 32H16V2Z" fill="#A52531"/>
<path fill-rule="evenodd" clip-rule="evenodd" d="M20.2999 5.13635C20.2999 5.76394 19.7852 6.27271 19.1501 6.27271C18.5149 6.27271 18 5.76394 18 5.13635V4H19.1501C19.7852 4 20.2999 4.50875 20.2999 5.13635ZM36.7001 5.13635C36.7001 5.76394 37.215 6.27271 37.8501 6.27271C38.4853 6.27271 39 5.76394 39 5.13635V4H37.8501C37.215 4 36.7001 4.50875 36.7001 5.13635ZM37.8501 27.7272C37.215 27.7272 36.7001 28.236 36.7001 28.8636C36.7001 29.4912 37.215 30 37.8501 30H39V28.8636C39 28.236 38.4853 27.7272 37.8501 27.7272ZM20.2999 28.8636C20.2999 28.236 19.7852 27.7272 19.1501 27.7272C18.5149 27.7272 18 28.236 18 28.8636V30H19.1501C19.7852 30 20.2999 29.4912 20.2999 28.8636Z" fill="#FFBF18"/>
<path fill-rule="evenodd" clip-rule="evenodd" d="M24.5237 20.975C24.5237 20.4414 24.0905 20.0089 23.5561 20.0089C23.452 20.0089 23.3491 19.9924 23.2511 19.9574C22.6004 19.7253 20.0253 18.7443 20.0253 17.7635C20.0253 17.149 20.3621 16.5346 20.6671 16.1042C20.9326 15.7294 21.0315 15.2424 20.8685 14.8131C20.4863 13.8061 19.8674 11.9729 20.0253 11.027C20.1094 10.5232 20.4455 10.082 20.8331 9.72719C21.433 9.17802 22.2745 9.69703 22.2745 10.5097V14.8241C22.2745 15.2493 22.5151 15.6381 22.8962 15.8283L24.0373 16.398C24.3278 16.5429 24.6785 16.4861 24.9081 16.2569C25.2723 15.8934 25.1726 15.2806 24.7121 15.0507L23.399 14.3952V13.2725C23.9594 13.2725 24.1377 12.5184 23.6365 12.2683L23.399 12.1497V11.027H25.1824C25.4806 11.027 25.7667 10.9087 25.9776 10.6981L26.4435 10.2331C26.6544 10.0225 26.9405 9.90423 27.2387 9.90423H28.3269C28.7528 9.90423 29.1423 10.1445 29.3328 10.5249L29.9382 11.7338C30.0716 12.0001 30.0936 12.3084 29.9993 12.5909L29.5153 14.0402C29.2727 14.7672 29.8147 15.518 30.5823 15.518H34.2792C34.5134 15.518 34.7379 15.4251 34.9035 15.2598C35.3295 14.8345 35.2129 14.1174 34.6741 13.8484L33.7578 13.391C33.6016 13.3131 33.4294 13.2725 33.2548 13.2725H32.3958C31.7747 13.2725 31.2712 12.7698 31.2712 12.1497V11.492C31.2712 11.1943 31.3896 10.9087 31.6005 10.6981L32.3958 9.90423V11.027C32.3958 11.647 32.8992 12.1497 33.5203 12.1497H35.0744C35.5004 12.1497 35.8899 12.39 36.0803 12.7704L36.804 14.2151C36.8635 14.3343 36.9015 14.4624 36.9136 14.595C36.9654 15.1602 37.0887 16.7918 36.8941 17.7635C36.7363 18.5508 36.2947 19.2795 36.0142 19.6824C35.8634 19.899 35.7696 20.1534 35.7696 20.4172V23.6423C35.7696 24.116 35.3848 24.5 34.9105 24.5C34.2718 24.5 33.8563 23.829 34.1419 23.2586L34.5262 22.4915C34.6009 22.3423 34.6009 22.1666 34.5262 22.0174L34.4731 21.9113C34.2357 21.4374 33.5203 21.6062 33.5203 22.136C33.5203 22.214 33.5021 22.2908 33.4672 22.3605L32.6738 23.9449C32.5035 24.2851 32.1551 24.5 31.774 24.5C31.0264 24.5 30.5401 23.7144 30.8744 23.0466L31.1524 22.4915C31.2305 22.3356 31.2712 22.1638 31.2712 21.9895V21.1318C31.2712 20.5117 30.7677 20.0089 30.1465 20.0089H27.8974C27.2763 20.0089 26.7728 20.5117 26.7728 21.1318V21.9895C26.7728 22.1638 26.7321 22.3356 26.654 22.4915L25.9263 23.9449C25.7559 24.2851 25.4076 24.5 25.0265 24.5C24.2789 24.5 23.7926 23.7144 24.1269 23.0466L24.4049 22.4915C24.483 22.3356 24.5237 22.1638 24.5237 21.9895V20.975Z" fill="#FFBF18"/>
<rect x="8" y="2" width="6" height="30" fill="#FF6816"/>
</g>
<defs>
<clipPath id="clip0_1385_22780">
<rect width="43" height="34" rx="4" fill="white"/>
</clipPath>
</defs>
</svg>
