<svg width="43" height="34" viewBox="0 0 43 34" fill="none" xmlns="http://www.w3.org/2000/svg">
<g clip-path="url(#clip0_1013_3180)">
<path d="M45 0H-2V34H45V0Z" fill="#FF0000"/>
<path fill-rule="evenodd" clip-rule="evenodd" d="M18.142 20.4001H11.9873C11.6782 20.4001 11.4277 20.1464 11.4277 19.8334V14.1667C11.4277 13.8538 11.6782 13.6 11.9873 13.6H18.142V7.36671C18.142 7.05376 18.3925 6.80005 18.7015 6.80005H24.2968C24.6059 6.80005 24.8563 7.05376 24.8563 7.36671V13.6H31.0111C31.3202 13.6 31.5706 13.8538 31.5706 14.1667V19.8334C31.5706 20.1464 31.3202 20.4001 31.0111 20.4001H24.8563V26.6334C24.8563 26.9464 24.6059 27.2001 24.2968 27.2001H18.7015C18.3925 27.2001 18.142 26.9464 18.142 26.6334V20.4001Z" fill="white"/>
</g>
<defs>
<clipPath id="clip0_1013_3180">
<rect width="43" height="34" rx="4" fill="white"/>
</clipPath>
</defs>
</svg>
