<svg width="43" height="34" viewBox="0 0 43 34" fill="none" xmlns="http://www.w3.org/2000/svg">
<g clip-path="url(#clip0_1385_22791)">
<path d="M43 0H0V11.3333H43V0Z" fill="#E32139"/>
<path d="M43 11.3334H0V22.6667H43V11.3334Z" fill="white"/>
<path d="M43 22.6666H0V34H43V22.6666Z" fill="#262626"/>
<path fill-rule="evenodd" clip-rule="evenodd" d="M13.3477 18.8588L10.6607 20.6676L11.5651 17.5745L9 15.5993L12.246 15.4965L13.3477 12.4668L14.4494 15.4965L17.6954 15.5993L15.1303 17.5745L16.0347 20.6676L13.3477 18.8588Z" fill="#128A49"/>
<path fill-rule="evenodd" clip-rule="evenodd" d="M29.3478 18.8588L26.6606 20.6676L27.5651 17.5745L25 15.5993L28.246 15.4965L29.3478 12.4668L30.4494 15.4965L33.6954 15.5993L31.1303 17.5745L32.0347 20.6676L29.3478 18.8588Z" fill="#128A49"/>
</g>
<defs>
<clipPath id="clip0_1385_22791">
<rect width="43" height="34" rx="4" fill="white"/>
</clipPath>
</defs>
</svg>
