<svg width="43" height="34" viewBox="0 0 43 34" fill="none" xmlns="http://www.w3.org/2000/svg">
<g clip-path="url(#clip0_1385_22809)">
<path d="M43 0H0V11.3333H43V0Z" fill="#D9101C"/>
<path d="M43 11.3335H0V22.6668H43V11.3335Z" fill="white"/>
<path fill-rule="evenodd" clip-rule="evenodd" d="M19.7142 14.3333C19.7142 15.0697 19.1387 15.6667 18.4286 15.6667C17.7185 15.6667 17.1428 15.0697 17.1428 14.3333C17.1428 13.597 17.7185 13 18.4286 13C19.1387 13 19.7142 13.597 19.7142 14.3333ZM22.2857 17C22.2857 17.2412 22.224 17.7534 22.116 18.3334H23.5713C24.2814 18.3334 24.8571 18.9302 24.8571 19.6666C24.8571 20.403 24.2814 21 23.5713 21H21H18.4286C17.7185 21 17.1428 20.403 17.1428 19.6666C17.1428 18.9302 17.7185 18.3334 18.4286 18.3334H19.8841C19.7761 17.7534 19.7142 17.2412 19.7142 17C19.7142 16.2636 20.2899 15.6667 21 15.6667C21.7101 15.6667 22.2857 16.2636 22.2857 17ZM24.8571 14.3333C24.8571 15.0697 24.2814 15.6667 23.5713 15.6667C22.8614 15.6667 22.2857 15.0697 22.2857 14.3333C22.2857 13.597 22.8614 13 23.5713 13C24.2814 13 24.8571 13.597 24.8571 14.3333ZM28.7142 18.3334C29.4243 18.3334 30 17.7364 30 17C30 16.2636 29.4243 15.6667 28.7142 15.6667C28.0041 15.6667 27.4284 16.2636 27.4284 17C27.4284 17.7364 28.0041 18.3334 28.7142 18.3334ZM14.5715 17C14.5715 17.7364 13.9958 18.3334 13.2857 18.3334C12.5756 18.3334 12 17.7364 12 17C12 16.2636 12.5756 15.6667 13.2857 15.6667C13.9958 15.6667 14.5715 16.2636 14.5715 17Z" fill="#FAD14E"/>
<path d="M43 22.6665H0V33.9998H43V22.6665Z" fill="#0F7811"/>
</g>
<defs>
<clipPath id="clip0_1385_22809">
<rect width="43" height="34" rx="4" fill="white"/>
</clipPath>
</defs>
</svg>
