<svg width="43" height="34" viewBox="0 0 43 34" fill="none" xmlns="http://www.w3.org/2000/svg">
<g clip-path="url(#clip0_1385_23686)">
<path d="M43 0H0V6.8H43V0Z" fill="#159A74"/>
<path d="M43 6.8H0V13.6H43V6.8Z" fill="#FFD44D"/>
<path d="M43 20.4H0V13.6H43V20.4Z" fill="#159A74"/>
<path d="M43 27.2H0V20.4H43V27.2Z" fill="#FFD44D"/>
<path d="M43 27.2H0V34H43V27.2Z" fill="#159A74"/>
<path d="M20 0H0V20.4H20V0Z" fill="#ED1F45"/>
<path fill-rule="evenodd" clip-rule="evenodd" d="M9.99999 13.6889L5.67376 16.7L7.26999 11.7523L3 8.66556L8.31275 8.61885L9.99999 3.7L11.6872 8.61885L17 8.66556L12.73 11.7523L14.3262 16.7L9.99999 13.6889Z" fill="white"/>
</g>
<defs>
<clipPath id="clip0_1385_23686">
<rect width="43" height="34" rx="4" fill="white"/>
</clipPath>
</defs>
</svg>
