<svg width="43" height="34" viewBox="0 0 43 34" fill="none" xmlns="http://www.w3.org/2000/svg">
<g clip-path="url(#clip0_1385_23709)">
<path d="M43 0H0V34H43V0Z" fill="#E92434"/>
<path fill-rule="evenodd" clip-rule="evenodd" d="M31.5 17C31.5 22.5228 27.0228 27 21.5 27C15.9772 27 11.5 22.5228 11.5 17C11.5 11.4771 15.9772 7 21.5 7C27.0228 7 31.5 11.4771 31.5 17ZM18.1667 17C18.1667 20.6942 20.9402 23.7405 24.5185 24.1703C23.5905 24.5615 22.5705 24.7778 21.5 24.7778C17.2045 24.7778 13.7222 21.2955 13.7222 17C13.7222 12.7044 17.2045 9.22222 21.5 9.22222C22.5705 9.22222 23.5905 9.43848 24.5185 9.82968C20.9402 10.2595 18.1667 13.3058 18.1667 17ZM23.3823 21.4252L25.4237 18.9502L28.429 20.0728L26.706 17.3667L28.7025 14.8553L25.5962 15.6577L23.8247 12.9829L23.628 16.1851L20.5367 17.0433L23.5213 18.22L23.3823 21.4252Z" fill="white"/>
</g>
<defs>
<clipPath id="clip0_1385_23709">
<rect width="43" height="34" rx="4" fill="white"/>
</clipPath>
</defs>
</svg>
