<svg width="43" height="34" viewBox="0 0 43 34" fill="none" xmlns="http://www.w3.org/2000/svg">
<g clip-path="url(#clip0_1385_22859)">
<path d="M43 0H0V34H43V0Z" fill="#E92434"/>
<path fill-rule="evenodd" clip-rule="evenodd" d="M29.8419 18.2806L27.8748 20.7556L28.0089 17.5504L25.1328 16.3738L28.1115 15.5155L28.3012 12.3134L30.0082 14.9881L33.0014 14.1857L31.0775 16.6971L32.738 19.4033L29.8419 18.2806Z" fill="white"/>
<path fill-rule="evenodd" clip-rule="evenodd" d="M27.2425 23.1402C25.4792 25.4892 22.7276 27 19.6362 27C14.3143 27 10 22.5228 10 17C10 11.4771 14.3143 7 19.6362 7C22.7276 7 25.4792 8.51082 27.2425 10.8598C25.8819 9.83352 24.171 9.22222 22.313 9.22222C17.8779 9.22222 14.2827 12.7044 14.2827 17C14.2827 21.2955 17.8779 24.7778 22.313 24.7778C24.171 24.7778 25.8819 24.1665 27.2425 23.1402Z" fill="white"/>
</g>
<defs>
<clipPath id="clip0_1385_22859">
<rect width="43" height="34" rx="4" fill="white"/>
</clipPath>
</defs>
</svg>
