<svg width="43" height="34" viewBox="0 0 43 34" fill="none" xmlns="http://www.w3.org/2000/svg">
<g clip-path="url(#clip0_1385_22817)">
<path d="M43 0H0V34H43V0Z" fill="#30C375"/>
<path d="M13 0H6V34H13V0Z" fill="#DE414F"/>
<path fill-rule="evenodd" clip-rule="evenodd" d="M9.5 6.79994C11.433 6.79994 13 5.78513 13 4.53328C13 3.28143 11.433 2.2666 9.5 2.2666C7.567 2.2666 6 3.28143 6 4.53328C6 5.78513 7.567 6.79994 9.5 6.79994Z" fill="white"/>
<mask id="mask0_1385_22817" style="mask-type:luminance" maskUnits="userSpaceOnUse" x="6" y="2" width="7" height="5">
<path fill-rule="evenodd" clip-rule="evenodd" d="M9.5 6.79994C11.433 6.79994 13 5.78513 13 4.53328C13 3.28143 11.433 2.2666 9.5 2.2666C7.567 2.2666 6 3.28143 6 4.53328C6 5.78513 7.567 6.79994 9.5 6.79994Z" fill="white"/>
</mask>
<g mask="url(#mask0_1385_22817)">
<path fill-rule="evenodd" clip-rule="evenodd" d="M9.50261 5.66656C10.1469 5.66656 10.6693 5.15916 10.6693 4.53324C10.6693 3.90732 10.1469 3.3999 9.50261 3.3999C8.85828 3.3999 8.33594 3.90732 8.33594 4.53324C8.33594 5.15916 8.85828 5.66656 9.50261 5.66656Z" fill="#DD404F"/>
<path d="M9.5 2.2666H6V4.53326H9.5V2.2666Z" fill="#FBAF29"/>
<path d="M13 4.5332H9.5V6.79986H13V4.5332Z" fill="#FBAF29"/>
</g>
<path fill-rule="evenodd" clip-rule="evenodd" d="M9.5 31.7336C11.433 31.7336 13 30.7187 13 29.4668C13 28.2151 11.433 27.2002 9.5 27.2002C7.567 27.2002 6 28.2151 6 29.4668C6 30.7187 7.567 31.7336 9.5 31.7336Z" fill="white"/>
<mask id="mask1_1385_22817" style="mask-type:luminance" maskUnits="userSpaceOnUse" x="6" y="27" width="7" height="5">
<path fill-rule="evenodd" clip-rule="evenodd" d="M9.5 31.7336C11.433 31.7336 13 30.7187 13 29.4668C13 28.2151 11.433 27.2002 9.5 27.2002C7.567 27.2002 6 28.2151 6 29.4668C6 30.7187 7.567 31.7336 9.5 31.7336Z" fill="white"/>
</mask>
<g mask="url(#mask1_1385_22817)">
<path fill-rule="evenodd" clip-rule="evenodd" d="M9.50261 30.6003C10.1469 30.6003 10.6693 30.0928 10.6693 29.4669C10.6693 28.8409 10.1469 28.3335 9.50261 28.3335C8.85828 28.3335 8.33594 28.8409 8.33594 29.4669C8.33594 30.0928 8.85828 30.6003 9.50261 30.6003Z" fill="#DD404F"/>
<path d="M9.5 27.2002H6V29.4669H9.5V27.2002Z" fill="#FBAF29"/>
<path d="M13 29.4668H9.5V31.7335H13V29.4668Z" fill="#FBAF29"/>
</g>
<path fill-rule="evenodd" clip-rule="evenodd" d="M9.5 20.4C11.433 20.4 13 19.3852 13 18.1334C13 16.8815 11.433 15.8667 9.5 15.8667C7.567 15.8667 6 16.8815 6 18.1334C6 19.3852 7.567 20.4 9.5 20.4Z" fill="#28AE67"/>
<mask id="mask2_1385_22817" style="mask-type:luminance" maskUnits="userSpaceOnUse" x="6" y="15" width="7" height="6">
<path fill-rule="evenodd" clip-rule="evenodd" d="M9.5 20.4C11.433 20.4 13 19.3852 13 18.1334C13 16.8815 11.433 15.8667 9.5 15.8667C7.567 15.8667 6 16.8815 6 18.1334C6 19.3852 7.567 20.4 9.5 20.4Z" fill="white"/>
</mask>
<g mask="url(#mask2_1385_22817)">
<path fill-rule="evenodd" clip-rule="evenodd" d="M9.49739 19.2666C10.7861 19.2666 11.8307 18.7593 11.8307 18.1334C11.8307 17.5075 10.7861 17 9.49739 17C8.20873 17 7.16406 17.5075 7.16406 18.1334C7.16406 18.7593 8.20873 19.2666 9.49739 19.2666Z" fill="#DD404F"/>
</g>
<path fill-rule="evenodd" clip-rule="evenodd" d="M9.5 24.9336C11.433 24.9336 13 24.4262 13 23.8002C13 23.1744 11.433 22.667 9.5 22.667C7.567 22.667 6 23.1744 6 23.8002C6 24.4262 7.567 24.9336 9.5 24.9336Z" fill="#28AE67"/>
<path fill-rule="evenodd" clip-rule="evenodd" d="M9.5 13.6002C11.433 13.6002 13 12.5854 13 11.3336C13 10.0817 11.433 9.06689 9.5 9.06689C7.567 9.06689 6 10.0817 6 11.3336C6 12.5854 7.567 13.6002 9.5 13.6002Z" fill="#FBAF29"/>
<mask id="mask3_1385_22817" style="mask-type:luminance" maskUnits="userSpaceOnUse" x="6" y="9" width="7" height="5">
<path fill-rule="evenodd" clip-rule="evenodd" d="M9.5 13.6002C11.433 13.6002 13 12.5854 13 11.3336C13 10.0817 11.433 9.06689 9.5 9.06689C7.567 9.06689 6 10.0817 6 11.3336C6 12.5854 7.567 13.6002 9.5 13.6002Z" fill="white"/>
</mask>
<g mask="url(#mask3_1385_22817)">
<path fill-rule="evenodd" clip-rule="evenodd" d="M9.50261 12.4669C10.1469 12.4669 10.6693 11.9595 10.6693 11.3335C10.6693 10.7076 10.1469 10.2002 9.50261 10.2002C8.85828 10.2002 8.33594 10.7076 8.33594 11.3335C8.33594 11.9595 8.85828 12.4669 9.50261 12.4669Z" fill="#DD404F"/>
<path d="M8.33333 9.06689H6V13.6002H8.33333V9.06689Z" fill="#28AE67"/>
<path d="M12.9974 9.06689H10.6641V13.6002H12.9974V9.06689Z" fill="#28AE67"/>
</g>
<path fill-rule="evenodd" clip-rule="evenodd" d="M24.2728 6.75869C23.8586 7.25382 23.923 7.99199 24.4165 8.40745C24.9101 8.82292 25.646 8.75833 26.0602 8.26321C26.4742 7.76808 26.4098 7.0299 25.9164 6.61445C25.4227 6.19899 24.6868 6.26357 24.2728 6.75869ZM21.2498 11.2957C20.7563 10.8802 20.0204 10.9448 19.6062 11.4399C19.192 11.935 19.2564 12.6732 19.7501 13.0887C20.2436 13.5041 20.9794 13.4395 21.3936 12.9444C21.8078 12.4493 21.7434 11.7111 21.2498 11.2957ZM18.9166 8.95505C18.4229 8.53959 17.6871 8.60417 17.273 9.0993C16.8588 9.59442 16.9232 10.3326 17.4167 10.7481C17.9103 11.1635 18.6462 11.0989 19.0604 10.6038C19.4744 10.1087 19.41 9.37051 18.9166 8.95505ZM23.5831 4.27383C23.0895 3.85837 22.3536 3.92295 21.9394 4.41807C21.5254 4.9132 21.5898 5.65139 22.0833 6.06683C22.5769 6.4823 23.3128 6.41771 23.7268 5.92259C24.141 5.42746 24.0766 4.68929 23.5831 4.27383ZM22.4165 7.78474C21.9228 7.36928 21.1869 7.43386 20.7729 7.92899C20.3587 8.42411 20.4231 9.1623 20.9166 9.57775C21.4102 9.99321 22.1461 9.92863 22.5603 9.4335C22.9743 8.93837 22.9099 8.2002 22.4165 7.78474Z" fill="white"/>
<path fill-rule="evenodd" clip-rule="evenodd" d="M28.9183 15.9095C26.1392 18.6972 21.6336 18.6972 18.8547 15.9095C18.5854 15.6393 18.3422 15.353 18.125 15.0535C20.9078 17.0832 24.8257 16.8392 27.3355 14.3216C29.8451 11.804 30.0883 7.87366 28.0651 5.08228C28.3636 5.30004 28.649 5.544 28.9183 5.81412C31.6972 8.60188 31.6972 13.1217 28.9183 15.9095Z" fill="white"/>
</g>
<defs>
<clipPath id="clip0_1385_22817">
<rect width="43" height="34" rx="4" fill="white"/>
</clipPath>
</defs>
</svg>
