<svg width="43" height="34" viewBox="0 0 43 34" fill="none" xmlns="http://www.w3.org/2000/svg">
<g clip-path="url(#clip0_1385_23172)">
<path d="M43 0H0V34H43V0Z" fill="#0A17A7"/>
<path d="M27.5312 18.0004V17.9116V17.8222V17.7324V17.6421V17.5514V17.4603V17.3688V17.277V17.1849V17.0924V16.9997V16.9066V16.8134V16.7667V16.755V16.7433V16.7199V16.6262V16.5323V16.4383V16.3441V16.2499V16.1555V16.061V15.9665V15.872V15.8247V15.8129V15.8011V15.7892V15.7774V15.7656V15.7538V15.742V15.7302V15.7183V15.7065V15.6947V15.6829V15.6711V15.6593V15.6474V15.6356V15.6238V15.612V15.6002V15.5884V15.5766V15.5648V15.553V15.5412V15.5294V15.5176V15.5057V15.494V15.4821V15.4704V15.4585V15.4468V15.435V15.4232V15.4114V15.3996V15.3878V15.376V15.3642V15.3524V15.3407V15.3289V15.3171V15.3053V15.2935V15.2818V15.27V15.2582V15.2465V15.2347V15.2229V15.2112V15.1994V15.1876V15.1759V15.1642V15.1524V15.1407V15.1289V15.1172V15.1054V15.0937V15.082V15.0702V15.0585V15.0468V15.035V15.0233V15.0116V14.9999V14.9882V14.9765V14.9648V14.9531V14.9414V14.9297V14.918V14.9063V14.8946V14.8829V14.8712V14.8596V14.8479V14.8362V14.8246V14.8129V14.8012V14.7896V14.7779V14.7663V14.7547V14.743V14.7314V14.7197V14.7081V14.6965V14.6849V14.6733V14.6617V14.65V14.6384V14.6268V14.6153V14.6037V14.5921V14.5805V14.5689V14.5574V14.5458V14.5342V14.5227V14.5111V14.4996V14.488V14.4765V14.4649V14.4534V14.4419V14.4304V14.4189V14.4074V14.3958V14.3843V14.3728V14.3614V14.3499V14.3269V14.2811V14.1897V14.0987V14.0081V13.9179V13.8282V13.7389V13.6501V13.5618V13.474V13.3868V13.3002V13.2142V13.1288V13.044V12.9599V12.8764V12.7117V12.5499V12.3913V12.2361C27.5312 11.2817 28.3469 10.5087 29.354 10.5087H36.6452C37.6524 10.5087 38.468 11.2817 38.468 12.2361V12.2457V12.2553V12.2649V12.2746V12.2842V12.2939V12.3036V12.3133V12.323V12.3327V12.3424V12.3522V12.362V12.3718V12.3815V12.3913V12.4012V12.411V12.4208V12.4307V12.4405V12.4504V12.4603V12.4702V12.4802V12.4901V12.5V12.51V12.5199V12.5299V12.5399V12.5499V12.56V12.57V12.58V12.5901V12.6002V12.6102V12.6203V12.6304V12.6405V12.6507V12.6608V12.671V12.6811V12.6913V12.7015V12.7117V12.7219V12.7321V12.7424V12.7526V12.7629V12.7731V12.7834V12.7937V12.804V12.8143V12.8246V12.835V12.8453V12.8557V12.8661V12.8764V12.8868V12.8972V12.9076V12.9181V12.9285V12.9389V12.9494V12.9599V12.9703V12.9808V12.9913V13.0018V13.0124V13.0229V13.0334V13.044V13.0546V13.0651V13.0757V13.0863V13.0969V13.1075V13.1181V13.1288V13.1394V13.1501V13.1607V13.1714V13.1821V13.1928V13.2035V13.2142V13.2249V13.2356V13.2464V13.2571V13.2679V13.2786V13.2894V13.3002V13.311V13.3218V13.3326V13.3434V13.3543V13.3651V13.376V13.3868V13.3977V13.4086V13.4195V13.4304V13.4413V13.4522V13.4631V13.474V13.485V13.4959V13.5069V13.5178V13.5288V13.5398V13.5508V13.5618V13.5728V13.5838V13.5948V13.6059V13.6169V13.6279V13.639V13.6501V13.6611V13.6722V13.6833V13.6944V13.7055V13.7166V13.7277V13.7389V13.75V13.7611V13.7723V13.7834V13.7946V13.8058V13.817V13.8282V13.8393V13.8505V13.8617V13.873V13.8842V13.8954V13.9066V13.9179V13.9291V13.9404V13.9517V13.9629V13.9742V13.9855V13.9968V14.0081V14.0194V14.0307V14.042V14.0533V14.0647V14.076V14.0873V14.0987V14.11V14.1214V14.1328V14.1442V14.1555V14.1669V14.1783V14.1897V14.2011V14.2125V14.2239V14.2354V14.2468V14.2582V14.2697V14.2811V14.2926V14.304V14.3155V14.3269V14.3384V14.3499V14.3614V14.3728V14.3843V14.3958V14.4074V14.4189V14.4304V14.4419V14.4534V14.4649V14.4765V14.488V14.4996V14.5111V14.5227V14.5342V14.5458V14.5574V14.5689V14.5805V14.5921V14.6037V14.6153V14.6268V14.6384V14.65V14.6617V14.6733V14.6849V14.6965V14.7081V14.7197V14.7314V14.743V14.7547V14.7663V14.7779V14.7896V14.8012V14.8129V14.8246V14.8362V14.8479V14.8596V14.8712V14.8829V14.8946V14.9063V14.918V14.9297V14.9414V14.9531V14.9648V14.9765V14.9882V14.9999V15.0116V15.0233V15.0351V15.0468V15.0585V15.0702V15.082V15.0937V15.1054V15.1172V15.1289V15.1407V15.1524V15.1642V15.1759V15.1876V15.1994V15.2112V15.2229V15.2347V15.2465V15.2582V15.27V15.2818V15.2935V15.3053V15.3171V15.3289V15.3407V15.3524V15.3642V15.376V15.3878V15.3996V15.4114V15.4232V15.435V15.4468V15.4585V15.4704V15.4821V15.494V15.5057V15.5176V15.5294V15.5412V15.553V15.5648V15.5766V15.5884V15.6002V15.612V15.6238V15.6356V15.6474V15.6593V15.6711V15.6829V15.6947V15.7065V15.7183V15.7302V15.742V15.7538V15.7656V15.7774V15.7892V15.8011V15.8129V15.8247V15.8365V15.8483V15.8601V15.872V15.8838V15.8956V15.9074V15.9192V15.9311V15.9429V15.9547V15.9665V15.9783V15.9901V16.0019V16.0138V16.0256V16.0374V16.0492V16.061V16.0728V16.0846V16.0964V16.1082V16.12V16.1319V16.1437V16.1555V16.1673V16.1791V16.1909V16.2027V16.2145V16.2263V16.2381V16.2499V16.2616V16.2734V16.2852V16.297V16.3088V16.3206V16.3324V16.3441V16.3559V16.3677V16.3795V16.3912V16.403V16.4148V16.4265V16.4383V16.4501V16.4618V16.4736V16.4853V16.4971V16.5088V16.5206V16.5323V16.5441V16.5558V16.5675V16.5793V16.591V16.6027V16.6145V16.6262V16.6379V16.6497V16.6614V16.6731V16.6848V16.6965V16.7082V16.7199V16.7316V16.7433V16.755V16.7667V16.7783V16.79V16.8017V16.8134V16.825V16.8367V16.8484V16.86V16.8717V16.8834V16.895V16.9066V16.9183V16.9299V16.9416V16.9532V16.9648V16.9764V16.988V16.9997V17.0113V17.0229V17.0345V17.0461V17.0577V17.0692V17.0808V17.0924V17.104V17.1155V17.1271V17.1387V17.1502V17.1618V17.1733V17.1849V17.1964V17.2079V17.2195V17.231V17.2425V17.254V17.2655V17.277V17.2885V17.3V17.3115V17.323V17.3344V17.3459V17.3574V17.3688V17.3803V17.3917V17.4032V17.4146V17.426V17.4375V17.4489V17.4603V17.4717V17.4831V17.4945V17.5059V17.5173V17.5286V17.54V17.5514V17.5627V17.5741V17.5854V17.5968V17.6081V17.6194V17.6308V17.6421V17.6534V17.6647V17.676V17.6873V17.6985V17.7098V17.7211V17.7324V17.7436V17.7549V17.7661V17.7773V17.7885V17.7998V17.811V17.8222V17.8334V17.8446V17.8557V17.8669V17.8781V17.8893V17.9004V17.9116V17.9227V17.9338V17.9449V17.9561V17.9672V17.9783V17.9894V18.0004C38.468 20.6675 37.0684 22.5404 35.6312 23.7672C34.9121 24.3811 34.191 24.8259 33.6494 25.1169C33.3795 25.2621 33.1556 25.3681 33.0016 25.4369L32.9996 25.4378L32.9978 25.4369C32.8438 25.3681 32.6199 25.2621 32.35 25.1169C31.8084 24.8259 31.0873 24.3811 30.3682 23.7672C28.931 22.5404 27.5312 20.6675 27.5312 18.0004Z" fill="#FFD033"/>
<path fill-rule="evenodd" clip-rule="evenodd" d="M35.434 16.8479C36.1052 16.8479 36.6491 15.8158 36.6491 14.5427C36.6491 13.2696 36.1052 12.2375 35.434 12.2375C34.7629 12.2375 34.2188 13.2696 34.2188 14.5427C34.2188 15.8158 34.7629 16.8479 35.434 16.8479Z" fill="#BA5B1F"/>
<path fill-rule="evenodd" clip-rule="evenodd" d="M30.9468 16.778C31.5775 16.5603 31.7166 15.414 31.2576 14.2177C30.7984 13.0214 29.9149 12.228 29.2844 12.4458C28.6538 12.6635 28.5147 13.8098 28.9737 15.0061C29.4328 16.2024 30.3161 16.9957 30.9468 16.778Z" fill="#FF9F3E"/>
<path fill-rule="evenodd" clip-rule="evenodd" d="M30.0571 16.7395C30.6653 17.0085 31.6183 16.2913 32.1855 15.1374C32.7528 13.9836 32.7194 12.8302 32.1111 12.5611C31.5031 12.2921 30.5501 13.0094 29.9827 14.1632C29.4154 15.3171 29.4488 16.4705 30.0571 16.7395Z" fill="#FF937F"/>
<path fill-rule="evenodd" clip-rule="evenodd" d="M31.7891 19.1528L33.0043 16.8477L34.2194 19.1528V21.4579H31.7891V19.1528Z" fill="#01A827"/>
<path fill-rule="evenodd" clip-rule="evenodd" d="M29.3544 10C28.0583 10 27 10.9963 27 12.2359V18.0002C27 20.858 28.5058 22.8585 30.0146 24.1464C30.769 24.7904 31.5236 25.2557 32.0897 25.5599C32.3694 25.7104 32.6031 25.8214 32.7675 25.8949L32.9891 26L33.2203 25.9005L33.227 25.8975C33.3916 25.8239 33.6275 25.7122 33.9105 25.5599C34.4766 25.2557 35.2312 24.7904 35.9855 24.1464C37.4944 22.8585 39 20.8579 39 18.0002V12.2359C39 10.9963 37.9419 10 36.6456 10H29.3544ZM29.3544 11.017C28.6363 11.017 28.0633 11.5668 28.0633 12.2359V18.0002C28.0633 20.4767 29.357 22.2219 30.7226 23.3876C31.4063 23.9713 32.0939 24.3957 32.6107 24.6734C32.7563 24.7517 32.8877 24.818 33.0001 24.8722C33.1125 24.818 33.2436 24.7519 33.3892 24.6735C33.9061 24.3958 34.5939 23.9714 35.2775 23.3877C36.6432 22.222 37.9367 20.4767 37.9367 18.0002V12.2359C37.9367 11.5667 37.3638 11.017 36.6456 11.017H29.3544Z" fill="white"/>
<g clip-path="url(#clip1_1385_23172)">
<path d="M23.5347 0H-1.02344V17H23.5347V0Z" fill="#0A17A7"/>
<path fill-rule="evenodd" clip-rule="evenodd" d="M-2.14915 -1.62891L8.33118 5.22191V-1.13326H14.1783V5.22191L24.6587 -1.62891L25.9666 0.250243L17.6805 5.66674H23.5338V11.3334H17.6805L25.9666 16.7499L24.6587 18.6291L14.1783 11.7783V18.1334H8.33118V11.7783L-2.14915 18.6291L-3.45703 16.7499L4.82905 11.3334H-1.02433V5.66674H4.82905L-3.45703 0.250243L-2.14915 -1.62891Z" fill="white"/>
<path fill-rule="evenodd" clip-rule="evenodd" d="M26.7784 -1.90481C26.8942 -1.73135 26.8442 -1.499 26.6667 -1.38584L15.5583 5.69653C15.3808 5.80969 15.143 5.76081 15.0272 5.58735C14.9114 5.41389 14.9615 5.18154 15.1389 5.06838L26.2474 -2.01398C26.4249 -2.12714 26.6626 -2.07826 26.7784 -1.90481Z" fill="#DB1F35"/>
<path fill-rule="evenodd" clip-rule="evenodd" d="M16.2093 11.4345C16.327 11.2623 16.5653 11.216 16.7415 11.3311L26.6997 17.836C26.8759 17.9511 26.9232 18.1839 26.8055 18.3561C26.6877 18.5283 26.4494 18.5746 26.2732 18.4595L16.3151 11.9546C16.1389 11.8395 16.0915 11.6067 16.2093 11.4345Z" fill="#DB1F35"/>
<path fill-rule="evenodd" clip-rule="evenodd" d="M-4.70871 -1.62874C-4.59095 -1.80093 -4.35266 -1.84723 -4.17646 -1.73215L6.21076 5.05208C6.38696 5.16716 6.43433 5.40004 6.31658 5.57223C6.19882 5.74442 5.96053 5.79072 5.78433 5.67564L-4.60289 -1.10859C-4.77909 -1.22367 -4.82646 -1.45655 -4.70871 -1.62874Z" fill="#DB1F35"/>
<path fill-rule="evenodd" clip-rule="evenodd" d="M7.44477 11.3582C7.56121 11.5312 7.51207 11.7638 7.335 11.8776L-4.17883 19.2773C-4.3559 19.3911 -4.59384 19.3431 -4.71028 19.1701C-4.82672 18.997 -4.77758 18.7645 -4.60051 18.6507L6.91332 11.2509C7.09039 11.1371 7.32833 11.1852 7.44477 11.3582Z" fill="#DB1F35"/>
<path fill-rule="evenodd" clip-rule="evenodd" d="M-1.02344 10.2H9.50148V17H13.0098V10.2H23.5347V6.8H13.0098V0H9.50148V6.8H-1.02344V10.2Z" fill="#E6273E"/>
</g>
</g>
<defs>
<clipPath id="clip0_1385_23172">
<rect width="43" height="34" rx="4" fill="white"/>
</clipPath>
<clipPath id="clip1_1385_23172">
<rect width="22" height="17" fill="white"/>
</clipPath>
</defs>
</svg>
