<svg width="43" height="34" viewBox="0 0 43 34" fill="none" xmlns="http://www.w3.org/2000/svg">
<g clip-path="url(#clip0_1385_24233)">
<path fill-rule="evenodd" clip-rule="evenodd" d="M0 11.3333H43V0H0V11.3333Z" fill="#E33F39"/>
<path fill-rule="evenodd" clip-rule="evenodd" d="M0 22.6666H43V11.3333H0V22.6666Z" fill="white"/>
<path fill-rule="evenodd" clip-rule="evenodd" d="M0 34H43V22.6667H0V34Z" fill="#124BBA"/>
<path fill-rule="evenodd" clip-rule="evenodd" d="M17.6641 17C17.6641 14.5494 19.5881 12.5333 21.9973 12.5333C24.4066 12.5333 26.3306 14.5494 26.3306 17C26.3306 19.4507 24.4066 21.4666 21.9973 21.4666C19.5881 21.4666 17.6641 19.4507 17.6641 17ZM21.9973 13.5333C20.1723 13.5333 18.6641 15.0691 18.6641 17C18.6641 18.9309 20.1723 20.4666 21.9973 20.4666C23.8224 20.4666 25.3306 18.9309 25.3306 17C25.3306 15.0691 23.8224 13.5333 21.9973 13.5333Z" fill="#398153"/>
<path fill-rule="evenodd" clip-rule="evenodd" d="M22 19C23.1045 19 24 18.1048 24 17.0001C24 15.8955 23.1045 15 22 15C20.8955 15 20 15.8955 20 17.0001C20 18.1048 20.8955 19 22 19Z" fill="#E5CF58"/>
</g>
<defs>
<clipPath id="clip0_1385_24233">
<rect width="43" height="34" rx="4" fill="white"/>
</clipPath>
</defs>
</svg>
