<svg width="43" height="34" viewBox="0 0 43 34" fill="none" xmlns="http://www.w3.org/2000/svg">
<g clip-path="url(#clip0_1385_23724)">
<path d="M43 0H0V5H43V0Z" fill="#262626"/>
<path d="M43 19H0V24H43V19Z" fill="#262626"/>
<path d="M43 12H0V5H43V12Z" fill="#FEE044"/>
<path d="M43 31H0V24H43V31Z" fill="#FEE044"/>
<path d="M43 19H0V12H43V19Z" fill="#ED1623"/>
<path d="M43 38H0V31H43V38Z" fill="#ED1623"/>
<path fill-rule="evenodd" clip-rule="evenodd" d="M21 25C25.4182 25 29 21.4183 29 16.9999C29 12.5817 25.4182 9 21 9C16.5818 9 13 12.5817 13 16.9999C13 21.4183 16.5818 25 21 25Z" fill="white"/>
<path fill-rule="evenodd" clip-rule="evenodd" d="M18.8722 13.217C18.6384 12.9961 18.6384 12.6379 18.8722 12.4169L19.6114 11.718C19.6342 11.6964 19.6547 11.6737 19.6742 11.6493C19.7371 11.571 19.8974 11.3798 20.0846 11.2188C20.4018 10.9461 21.3055 10.9174 21.6186 11.1945C21.7037 11.2697 21.7812 11.3534 21.8462 11.4301C21.9753 11.5828 21.983 11.7918 21.8906 11.9667L20.9057 13.829C20.8641 13.9075 20.8425 13.9942 20.8425 14.082V14.7303C20.8425 14.9445 20.9705 15.1404 21.1734 15.2362L23.1494 16.1703C23.2068 16.1975 23.2592 16.2333 23.3048 16.2762L25.3248 18.186C25.5068 18.3581 25.552 18.6211 25.4368 18.8389L24.8042 20.035C24.6216 20.3804 24.1347 20.4553 23.8459 20.1822L23.6592 20.0057C23.4256 19.7849 23.0467 19.7849 22.8129 20.0057L22.2146 20.5715C22.1024 20.6776 22.0394 20.8215 22.0394 20.9715V21.6343C22.0394 21.7843 22.1024 21.9282 22.2146 22.0343C22.5916 22.3907 22.3247 23 21.7915 23H21.0905C20.5573 23 20.2903 22.3907 20.6673 22.0343C20.7795 21.9282 20.8425 21.7843 20.8425 21.6343V21.3028C20.8425 20.9904 20.5747 20.7372 20.2442 20.7372H19.8936C19.7349 20.7372 19.5827 20.7967 19.4705 20.9028L18.8722 21.4686C18.6384 21.6894 18.2595 21.6894 18.0259 21.4686L17.6753 21.1372C17.4416 20.9162 17.4416 20.5581 17.6753 20.3371L18.2736 19.7715C18.3858 19.6652 18.5381 19.6056 18.6968 19.6056H19.398C19.931 19.6056 20.1981 18.9964 19.8211 18.64L17.6753 16.6114C17.4416 16.3904 17.4416 16.0322 17.6753 15.8113L19.2226 14.3485C19.4563 14.1275 19.4563 13.7693 19.2226 13.5484L18.8722 13.217Z" fill="#262626"/>
</g>
<defs>
<clipPath id="clip0_1385_23724">
<rect width="43" height="34" rx="4" fill="white"/>
</clipPath>
</defs>
</svg>
