<svg width="43" height="34" viewBox="0 0 43 34" fill="none" xmlns="http://www.w3.org/2000/svg">
<g clip-path="url(#clip0_1013_3253)">
<path d="M46 0H-2V34H46V0Z" fill="#0A17A7"/>
<path fill-rule="evenodd" clip-rule="evenodd" d="M-4.1976 -3.25781L16.2867 10.4438V-2.26653H27.7151V10.4438L48.1995 -3.25781L50.7558 0.500486L34.5603 11.3335H46.0009V22.6667H34.5603L50.7558 33.4998L48.1995 37.2582L27.7151 23.5565V36.2667H16.2867V23.5565L-4.1976 37.2582L-6.75391 33.4998L9.44162 22.6667H-1.99908V11.3335H9.44162L-6.75391 0.500486L-4.1976 -3.25781Z" fill="white"/>
<path fill-rule="evenodd" clip-rule="evenodd" d="M52.3421 -3.80961C52.5685 -3.4627 52.4707 -2.998 52.1238 -2.77167L30.4118 11.3931C30.0649 11.6194 29.6002 11.5216 29.3739 11.1747C29.1476 10.8278 29.2453 10.3631 29.5922 10.1368L51.3042 -4.02796C51.6511 -4.25429 52.1158 -4.15653 52.3421 -3.80961Z" fill="#DB1F35"/>
<path fill-rule="evenodd" clip-rule="evenodd" d="M31.6851 22.8689C31.9153 22.5246 32.3811 22.432 32.7255 22.6622L52.1891 35.6719C52.5335 35.9021 52.626 36.3679 52.3959 36.7123C52.1657 37.0566 51.6999 37.1492 51.3556 36.919L31.8919 23.9093C31.5475 23.6791 31.455 23.2133 31.6851 22.8689Z" fill="#DB1F35"/>
<path fill-rule="evenodd" clip-rule="evenodd" d="M-9.20161 -3.25748C-8.97145 -3.60186 -8.50569 -3.69446 -8.16131 -3.4643L12.141 10.1042C12.4854 10.3343 12.578 10.8001 12.3478 11.1445C12.1177 11.4888 11.6519 11.5814 11.3075 11.3513L-8.99479 -2.21718C-9.33917 -2.44734 -9.43177 -2.9131 -9.20161 -3.25748Z" fill="#DB1F35"/>
<path fill-rule="evenodd" clip-rule="evenodd" d="M14.5529 22.7164C14.7805 23.0625 14.6845 23.5275 14.3384 23.7551L-8.16594 38.5547C-8.51203 38.7823 -8.97709 38.6862 -9.20468 38.3401C-9.43227 37.994 -9.33622 37.529 -8.99014 37.3014L13.5142 22.5019C13.8603 22.2743 14.3253 22.3703 14.5529 22.7164Z" fill="#DB1F35"/>
<path fill-rule="evenodd" clip-rule="evenodd" d="M-2 20.4H18.5714V34H25.4286V20.4H46V13.6H25.4286V0H18.5714V13.6H-2V20.4Z" fill="#E6273E"/>
</g>
<defs>
<clipPath id="clip0_1013_3253">
<rect width="43" height="34" rx="4" fill="white"/>
</clipPath>
</defs>
</svg>
