<svg width="80" height="62" viewBox="0 0 80 62" fill="none" xmlns="http://www.w3.org/2000/svg">
<g clip-path="url(#clip0_56_1765)">
<path d="M-5.81323 -3.1369V65.1366H84.9701V-3.1369H-5.81323Z" fill="#012169"/>
<path d="M-5.81323 -3.1369L84.9701 65.1366L-5.81323 -3.1369ZM84.9701 -3.1369L-5.81323 65.1366L84.9701 -3.1369Z" fill="#0C1226"/>
<path fill-rule="evenodd" clip-rule="evenodd" d="M29.4285 31.0002L-7.84326 2.97002L-3.78331 -9.2431L39.5784 23.367L82.94 -9.2431L87 2.97002L49.7282 31.0002L87 59.0303L82.94 71.2435L39.5784 38.6334L-3.78331 71.2435L-7.84326 59.0303L29.4285 31.0002Z" fill="white"/>
<mask id="mask0_56_1765" style="mask-type:luminance" maskUnits="userSpaceOnUse" x="-6" y="-4" width="91" height="70">
<path d="M39.5784 30.9998H84.9701V65.1366L39.5784 30.9998ZM39.5784 30.9998V65.1366H-5.81323L39.5784 30.9998ZM39.5784 30.9998H-5.81323V-3.1369L39.5784 30.9998ZM39.5784 30.9998V-3.1369H84.9701L39.5784 30.9998Z" fill="white"/>
</mask>
<g mask="url(#mask0_56_1765)">
<path d="M-5.81323 -3.1369L84.9701 65.1366L-5.81323 -3.1369ZM84.9701 -3.1369L-5.81323 65.1366L84.9701 -3.1369Z" fill="#0C1226"/>
<path fill-rule="evenodd" clip-rule="evenodd" d="M32.8116 30.9999L-7.16675 0.934198L-4.46011 -7.20789L39.5782 25.9111L83.6166 -7.20789L86.3232 0.934198L46.3448 30.9999L86.3232 61.0656L83.6166 69.2077L39.5782 36.0887L-4.46011 69.2077L-7.16675 61.0656L32.8116 30.9999Z" fill="#C8102E"/>
</g>
<path d="M39.5784 -3.1369V65.1366V-3.1369ZM-5.81323 30.9998H84.9701H-5.81323Z" fill="#0C1226"/>
<path fill-rule="evenodd" clip-rule="evenodd" d="M32.0131 19.6209V-3.1369H47.1437V19.6209H84.9701V42.3787H47.1437V65.1366H32.0131V42.3787H-5.81323V19.6209H32.0131Z" fill="white"/>
<path d="M39.5784 -3.1369V65.1366V-3.1369ZM-5.81323 30.9998H84.9701H-5.81323Z" fill="#0C1226"/>
<path fill-rule="evenodd" clip-rule="evenodd" d="M35.0393 24.1725V-3.1369H44.1176V24.1725H84.9701V37.8272H44.1176V65.1366H35.0393V37.8272H-5.81323V24.1725H35.0393Z" fill="#C8102E"/>
</g>
<defs>
<clipPath id="clip0_56_1765">
<rect width="80" height="62" rx="8" fill="white"/>
</clipPath>
</defs>
</svg>
