<svg width="43" height="34" viewBox="0 0 43 34" fill="none" xmlns="http://www.w3.org/2000/svg">
<g clip-path="url(#clip0_1385_23909)">
<path d="M43 0H0V34H43V0Z" fill="white"/>
<path d="M24 0H0V22H24V0Z" fill="white"/>
<path d="M16.0916 10.9999C16.0916 13.3173 14.26 15.196 12.0007 15.196C9.74137 15.196 7.90976 13.3173 7.90976 10.9999C7.90976 8.68248 9.74137 6.80382 12.0007 6.80382C14.26 6.80382 16.0916 8.68248 16.0916 10.9999Z" fill="#FFCD4B"/>
<path fill-rule="evenodd" clip-rule="evenodd" d="M12 15.9447L10.3311 18.5L9.90833 15.455L7.32384 17.0145L8.23105 14.083L5.24274 14.3378L7.30013 12.1003L4.5 11L7.30013 9.89969L5.24274 7.66218L8.23105 7.91702L7.32384 4.98547L9.90833 6.54497L10.3311 3.5L12 6.05528L13.6689 3.5L14.0917 6.54497L16.6762 4.98547L15.7691 7.91702L18.7573 7.66218L16.6999 9.89969L19.5 11L16.6999 12.1003L18.7573 14.3378L15.7691 14.083L16.6762 17.0145L14.0917 15.455L13.6689 18.5L12 15.9447ZM12 15.8955C14.6359 15.8955 16.7728 13.7036 16.7728 11C16.7728 8.2963 14.6359 6.10453 12 6.10453C9.36413 6.10453 7.22728 8.2963 7.22728 11C7.22728 13.7036 9.36413 15.8955 12 15.8955Z" fill="#FFCD4B"/>
<rect x="24" y="4" width="19" height="4" fill="#0E4DC5"/>
<rect x="24" y="13" width="19" height="4" fill="#0E4DC5"/>
<rect y="22" width="43" height="4" fill="#0E4DC5"/>
<rect y="31" width="43" height="4" fill="#0E4DC5"/>
</g>
<rect x="0.5" y="0.5" width="42" height="33" rx="3.5" stroke="#C9CFDB"/>
<defs>
<clipPath id="clip0_1385_23909">
<rect width="43" height="34" rx="4" fill="white"/>
</clipPath>
</defs>
</svg>
