<svg width="43" height="34" viewBox="0 0 43 34" fill="none" xmlns="http://www.w3.org/2000/svg">
<g clip-path="url(#clip0_1385_23199)">
<path d="M63.9625 0H0V34H63.9625V0Z" fill="#B22234"/>
<path fill-rule="evenodd" clip-rule="evenodd" d="M63.9625 5.23062H0V2.61523H63.9625V5.23062ZM0 7.846H63.9625V10.4614H0V7.846ZM63.9625 15.6922H0V13.0768H63.9625V15.6922ZM0 18.3075H63.9625V20.9229H0V18.3075ZM63.9625 26.1537H0V23.5383H63.9625V26.1537ZM0 28.7691H63.9625V31.3845H0V28.7691Z" fill="white"/>
<path d="M25.585 0H0V18.3077H25.585V0Z" fill="#3C3B6E"/>
<path d="M3.11493 4.98413L4.04299 7.8689L1.61328 6.08601H4.61657L2.18686 7.8689L3.11493 4.98413Z" fill="white"/>
<path d="M3.11493 10.5659L4.04299 13.4507L1.61328 11.6678H4.61657L2.18686 13.4507L3.11493 10.5659Z" fill="white"/>
<path d="M6.36493 2.1936L7.29299 5.07837L4.86328 3.29549H7.86657L5.43686 5.07837L6.36493 2.1936Z" fill="white"/>
<path d="M6.36493 7.77466L7.29299 10.6594L4.86328 8.87654H7.86657L5.43686 10.6594L6.36493 7.77466Z" fill="white"/>
<path d="M6.36493 13.3563L7.29299 16.2411L4.86328 14.4582H7.86657L5.43686 16.2411L6.36493 13.3563Z" fill="white"/>
<path d="M9.61102 4.98413L10.5391 7.8689L8.10938 6.08601H11.1127L8.68295 7.8689L9.61102 4.98413Z" fill="white"/>
<path d="M9.61102 10.5659L10.5391 13.4507L8.10938 11.6678H11.1127L8.68295 13.4507L9.61102 10.5659Z" fill="white"/>
<path d="M12.861 2.1936L13.7891 5.07837L11.3594 3.29549H14.3627L11.933 5.07837L12.861 2.1936Z" fill="white"/>
<path d="M12.861 7.77466L13.7891 10.6594L11.3594 8.87654H14.3627L11.933 10.6594L12.861 7.77466Z" fill="white"/>
<path d="M12.861 13.3563L13.7891 16.2411L11.3594 14.4582H14.3627L11.933 16.2411L12.861 13.3563Z" fill="white"/>
<path d="M16.111 4.98413L17.0391 7.8689L14.6094 6.08601H17.6127L15.183 7.8689L16.111 4.98413Z" fill="white"/>
<path d="M16.111 10.5659L17.0391 13.4507L14.6094 11.6678H17.6127L15.183 13.4507L16.111 10.5659Z" fill="white"/>
<path d="M19.361 2.1936L20.2891 5.07837L17.8594 3.29549H20.8627L18.433 5.07837L19.361 2.1936Z" fill="white"/>
<path d="M19.361 7.77466L20.2891 10.6594L17.8594 8.87654H20.8627L18.433 10.6594L19.361 7.77466Z" fill="white"/>
<path d="M19.361 13.3563L20.2891 16.2411L17.8594 14.4582H20.8627L18.433 16.2411L19.361 13.3563Z" fill="white"/>
<path d="M22.611 4.98413L23.5391 7.8689L21.1094 6.08601H24.1127L21.683 7.8689L22.611 4.98413Z" fill="white"/>
<path d="M22.611 10.5659L23.5391 13.4507L21.1094 11.6678H24.1127L21.683 13.4507L22.611 10.5659Z" fill="white"/>
</g>
<defs>
<clipPath id="clip0_1385_23199">
<rect width="43" height="34" rx="4" fill="white"/>
</clipPath>
</defs>
</svg>
