<svg width="43" height="34" viewBox="0 0 43 34" fill="none" xmlns="http://www.w3.org/2000/svg">
<g clip-path="url(#clip0_1385_22874)">
<path d="M43 0H0V11.3333H43V0Z" fill="#04AAC8"/>
<path d="M43 11.3334H0V22.6667H43V11.3334Z" fill="white"/>
<path d="M43 22.6666H0V34H43V22.6666Z" fill="#23C840"/>
<path fill-rule="evenodd" clip-rule="evenodd" d="M7.99888 9.0666C8.70394 9.0666 9.35927 8.85556 9.90418 8.4937C9.84104 8.49785 9.77735 8.49994 9.71317 8.49994C8.1352 8.49994 6.85602 7.23142 6.85602 5.6666C6.85602 4.1018 8.1352 2.83328 9.71317 2.83328C9.77735 2.83328 9.84104 2.83537 9.90418 2.8395C9.35927 2.47766 8.70394 2.2666 7.99888 2.2666C6.10533 2.2666 4.57031 3.78883 4.57031 5.6666C4.57031 7.54437 6.10533 9.0666 7.99888 9.0666ZM13.7132 7.93328C13.7132 8.5592 13.2015 9.0666 12.5703 9.0666C11.9391 9.0666 11.4275 8.5592 11.4275 7.93328C11.4275 7.30736 11.9391 6.79994 12.5703 6.79994C13.2015 6.79994 13.7132 7.30736 13.7132 7.93328ZM17.1417 4.53328C17.773 4.53328 18.2847 4.02586 18.2847 3.39994C18.2847 2.77402 17.773 2.2666 17.1417 2.2666C16.5106 2.2666 15.9989 2.77402 15.9989 3.39994C15.9989 4.02586 16.5106 4.53328 17.1417 4.53328ZM22.856 3.39994C22.856 4.02586 22.3443 4.53328 21.7132 4.53328C21.082 4.53328 20.5703 4.02586 20.5703 3.39994C20.5703 2.77402 21.082 2.2666 21.7132 2.2666C22.3443 2.2666 22.856 2.77402 22.856 3.39994ZM21.7132 9.0666C22.3443 9.0666 22.856 8.5592 22.856 7.93328C22.856 7.30736 22.3443 6.79994 21.7132 6.79994C21.082 6.79994 20.5703 7.30736 20.5703 7.93328C20.5703 8.5592 21.082 9.0666 21.7132 9.0666ZM18.2847 7.93328C18.2847 8.5592 17.773 9.0666 17.1417 9.0666C16.5106 9.0666 15.9989 8.5592 15.9989 7.93328C15.9989 7.30736 16.5106 6.79994 17.1417 6.79994C17.773 6.79994 18.2847 7.30736 18.2847 7.93328Z" fill="white"/>
</g>
<defs>
<clipPath id="clip0_1385_22874">
<rect width="43" height="34" rx="4" fill="white"/>
</clipPath>
</defs>
</svg>
