<svg width="43" height="34" viewBox="0 0 43 34" fill="none" xmlns="http://www.w3.org/2000/svg">
<g clip-path="url(#clip0_1385_24244)">
<path d="M63.9625 0H0V34H63.9625V0Z" fill="#B22234"/>
<path fill-rule="evenodd" clip-rule="evenodd" d="M63.9625 5.23068H0V2.6153H63.9625V5.23068ZM0 7.84607H63.9625V10.4614H0V7.84607ZM63.9625 15.6922H0V13.0768H63.9625V15.6922ZM0 18.3076H63.9625V20.923H0V18.3076ZM63.9625 26.1538H0V23.5384H63.9625V26.1538ZM0 28.7691H63.9625V31.3845H0V28.7691Z" fill="white"/>
<path d="M25.585 0H0V18.3077H25.585V0Z" fill="#3C3B6E"/>
<path d="M3.11102 4.98413L4.03909 7.8689L1.60938 6.08601H4.61266L2.18295 7.8689L3.11102 4.98413Z" fill="white"/>
<path d="M3.11102 10.5659L4.03909 13.4506L1.60938 11.6677H4.61266L2.18295 13.4506L3.11102 10.5659Z" fill="white"/>
<path d="M6.36102 2.19354L7.28909 5.07831L4.85938 3.29542H7.86266L5.43295 5.07831L6.36102 2.19354Z" fill="white"/>
<path d="M6.36102 7.7746L7.28909 10.6594L4.85938 8.87648H7.86266L5.43295 10.6594L6.36102 7.7746Z" fill="white"/>
<path d="M6.36102 13.3563L7.28909 16.2411L4.85938 14.4582H7.86266L5.43295 16.2411L6.36102 13.3563Z" fill="white"/>
<path d="M9.61102 4.98413L10.5391 7.8689L8.10938 6.08601H11.1127L8.68295 7.8689L9.61102 4.98413Z" fill="white"/>
<path d="M9.61102 10.5659L10.5391 13.4506L8.10938 11.6677H11.1127L8.68295 13.4506L9.61102 10.5659Z" fill="white"/>
<path d="M12.861 2.19354L13.7891 5.07831L11.3594 3.29542H14.3627L11.933 5.07831L12.861 2.19354Z" fill="white"/>
<path d="M12.861 7.7746L13.7891 10.6594L11.3594 8.87648H14.3627L11.933 10.6594L12.861 7.7746Z" fill="white"/>
<path d="M12.861 13.3563L13.7891 16.2411L11.3594 14.4582H14.3627L11.933 16.2411L12.861 13.3563Z" fill="white"/>
<path d="M16.111 4.98413L17.0391 7.8689L14.6094 6.08601H17.6127L15.183 7.8689L16.111 4.98413Z" fill="white"/>
<path d="M16.111 10.5659L17.0391 13.4506L14.6094 11.6677H17.6127L15.183 13.4506L16.111 10.5659Z" fill="white"/>
<path d="M19.361 2.19354L20.2891 5.07831L17.8594 3.29542H20.8627L18.433 5.07831L19.361 2.19354Z" fill="white"/>
<path d="M19.361 7.7746L20.2891 10.6594L17.8594 8.87648H20.8627L18.433 10.6594L19.361 7.7746Z" fill="white"/>
<path d="M19.361 13.3563L20.2891 16.2411L17.8594 14.4582H20.8627L18.433 16.2411L19.361 13.3563Z" fill="white"/>
<path d="M22.611 4.98413L23.5391 7.8689L21.1094 6.08601H24.1127L21.683 7.8689L22.611 4.98413Z" fill="white"/>
<path d="M22.611 10.5659L23.5391 13.4506L21.1094 11.6677H24.1127L21.683 13.4506L22.611 10.5659Z" fill="white"/>
<g clip-path="url(#clip1_1385_24244)">
<path d="M42.5714 0H1.42857C-0.464976 0 -2 1.52223 -2 3.4V30.6C-2 32.4778 -0.464976 34 1.42857 34H42.5714C44.465 34 46 32.4778 46 30.6V3.4C46 1.52223 44.465 0 42.5714 0Z" fill="white"/>
<mask id="mask0_1385_24244" style="mask-type:luminance" maskUnits="userSpaceOnUse" x="-2" y="0" width="48" height="34">
<path d="M42.5714 0H1.42857C-0.464976 0 -2 1.52223 -2 3.4V30.6C-2 32.4778 -0.464976 34 1.42857 34H42.5714C44.465 34 46 32.4778 46 30.6V3.4C46 1.52223 44.465 0 42.5714 0Z" fill="white"/>
</mask>
<g mask="url(#mask0_1385_24244)">
<path fill-rule="evenodd" clip-rule="evenodd" d="M0 34H43V20H0V34Z" fill="#009543"/>
<path fill-rule="evenodd" clip-rule="evenodd" d="M0 14H43V0H0V14Z" fill="#D21034"/>
<path fill-rule="evenodd" clip-rule="evenodd" d="M-2 20.4H46V13.6H-2V20.4Z" fill="#262626"/>
<path fill-rule="evenodd" clip-rule="evenodd" d="M-2 0L20.8571 17L-2 34V0Z" fill="#262626"/>
<path d="M-3.14062 29.5169V4.48328L14.336 17L-3.14062 29.5169Z" stroke="#FDCE12" stroke-width="1.33333"/>
<path fill-rule="evenodd" clip-rule="evenodd" d="M14 18H46V16H14V18Z" fill="#FDCE12"/>
</g>
</g>
</g>
<defs>
<clipPath id="clip0_1385_24244">
<rect width="43" height="34" rx="4" fill="white"/>
</clipPath>
<clipPath id="clip1_1385_24244">
<rect width="48" height="34" fill="white" transform="translate(-2)"/>
</clipPath>
</defs>
</svg>
