<svg width="43" height="34" viewBox="0 0 43 34" fill="none" xmlns="http://www.w3.org/2000/svg">
<g clip-path="url(#clip0_1385_23920)">
<path fill-rule="evenodd" clip-rule="evenodd" d="M0 11.3333H43V0H0V11.3333Z" fill="#FFD044"/>
<path fill-rule="evenodd" clip-rule="evenodd" d="M0 22.6666H43V11.3333H0V22.6666Z" fill="#063191"/>
<path fill-rule="evenodd" clip-rule="evenodd" d="M0 34H43V22.6667H0V34Z" fill="#E2213B"/>
<path fill-rule="evenodd" clip-rule="evenodd" d="M22 15.8666C22.6312 15.8666 23.1429 15.3592 23.1429 14.7333C23.1429 14.1074 22.6312 13.6 22 13.6C21.3688 13.6 20.8571 14.1074 20.8571 14.7333C20.8571 15.3592 21.3688 15.8666 22 15.8666ZM17.4285 17C18.0597 17 18.5714 16.4926 18.5714 15.8666C18.5714 15.2407 18.0597 14.7333 17.4285 14.7333C16.7973 14.7333 16.2858 15.2407 16.2858 15.8666C16.2858 16.4926 16.7973 17 17.4285 17ZM27.7142 15.8666C27.7142 16.4926 27.2027 17 26.5715 17C25.9403 17 25.4286 16.4926 25.4286 15.8666C25.4286 15.2407 25.9403 14.7333 26.5715 14.7333C27.2027 14.7333 27.7142 15.2407 27.7142 15.8666ZM15.1428 20.4C15.7741 20.4 16.2858 19.8925 16.2858 19.2666C16.2858 18.6406 15.7741 18.1334 15.1428 18.1334C14.5117 18.1334 14 18.6406 14 19.2666C14 19.8925 14.5117 20.4 15.1428 20.4ZM30.0001 19.2666C30.0001 19.8925 29.4883 20.4 28.8571 20.4C28.2259 20.4 27.7142 19.8925 27.7142 19.2666C27.7142 18.6406 28.2259 18.1334 28.8571 18.1334C29.4883 18.1334 30.0001 18.6406 30.0001 19.2666Z" fill="white"/>
</g>
<defs>
<clipPath id="clip0_1385_23920">
<rect width="43" height="34" rx="4" fill="white"/>
</clipPath>
</defs>
</svg>
