<svg width="43" height="34" viewBox="0 0 43 34" fill="none" xmlns="http://www.w3.org/2000/svg">
<g clip-path="url(#clip0_1385_23747)">
<path d="M43 0H0V34H43V0Z" fill="#009F60"/>
<mask id="path-3-outside-1_1385_23747" maskUnits="userSpaceOnUse" x="16" y="3" width="25" height="12" fill="black">
<rect fill="white" x="16" y="3" width="25" height="12"/>
<path fill-rule="evenodd" clip-rule="evenodd" d="M38.7541 4.05468C38.5397 4.08564 38.245 4.13388 38.0992 4.16187C37.9534 4.18986 37.7639 4.2255 37.6781 4.24104C37.5215 4.26947 36.7798 4.43083 36.4306 4.51247C36.2301 4.55936 35.6831 4.64324 35.0271 4.72771C34.4437 4.80284 33.968 4.8653 33.7172 4.89975C33.405 4.94263 32.8463 5.01588 32.3761 5.07562C31.9744 5.12664 31.9661 5.12937 31.4717 5.37074C31.1972 5.50473 30.8393 5.65763 30.6764 5.71044C29.8893 5.96567 28.9481 6.15429 28.462 6.15429H28.2118L27.6274 5.66273C27.3059 5.39237 26.9728 5.1053 26.887 5.02481C26.1775 4.35902 26.0875 4.29893 25.899 4.36501C25.7313 4.42374 25.6593 4.40412 25.4493 4.24236C25.1487 4.01083 24.996 4.0307 24.8253 4.32357C24.7462 4.45907 24.7429 4.54466 24.8197 4.4675C24.879 4.40798 24.9923 4.42437 25.1232 4.51138C25.2739 4.61164 25.2891 4.64568 25.2976 4.90351C25.3048 5.12106 25.3654 5.29154 25.4899 5.4444C25.5751 5.54893 25.7854 5.97817 25.8583 6.19638C25.9476 6.46364 26.0311 6.44766 24.6485 6.42773C23.9756 6.41804 23.2496 6.39472 23.0352 6.37592C22.8208 6.35714 22.3296 6.321 21.9436 6.29565C21.1918 6.24625 21.1188 6.25104 20.01 6.42265C19.847 6.44785 19.4189 6.48179 19.0587 6.49809C17.942 6.54858 17.2298 6.63111 17.1199 6.72276C17.0497 6.78131 17.1626 6.92313 17.3546 7.01763C17.6629 7.16937 17.9701 7.24625 18.9184 7.40898C19.0127 7.42519 19.1904 7.4476 19.3132 7.45879C19.5182 7.4775 19.6401 7.51238 19.6036 7.54185C19.5955 7.54837 19.4626 7.59218 19.3082 7.63917C18.2465 7.96238 17.4616 8.24092 17.1703 8.3978C16.9473 8.51787 16.944 8.58683 17.1562 8.69201C17.3048 8.76564 17.3381 8.76918 17.858 8.76677C18.4732 8.76391 19.4508 8.65127 20.0412 8.51521C20.2489 8.46731 19.9773 8.6092 19.3706 8.8654C18.662 9.16464 18.1262 9.42278 17.8637 9.5914C17.6779 9.71082 17.656 9.80259 17.7956 9.87719C17.9277 9.9478 18.7559 9.90816 19.2459 9.80773C19.6727 9.72029 20.4992 9.51778 20.5447 9.48954C20.5593 9.48042 20.5714 9.48465 20.5714 9.49891C20.5714 9.5132 20.4837 9.57266 20.3764 9.63105C19.9119 9.88415 19.8245 9.93405 19.5731 10.09C19.3028 10.2577 19.1367 10.3917 19.1367 10.4419C19.1367 10.4573 19.1662 10.4968 19.2023 10.5296C19.3529 10.6666 20.2252 10.5536 21.0573 10.2894C21.132 10.2657 21.2187 10.2762 21.4471 10.3365C21.7707 10.4219 22.3642 10.537 22.9884 10.6353C23.2114 10.6705 23.4781 10.7129 23.581 10.7297C24.3973 10.8626 24.9739 10.9172 25.5615 10.9172C26.4313 10.9172 27.4828 10.7996 28.4563 10.5938L28.6534 10.5521L28.815 10.7226C28.9039 10.8164 29.0152 10.9133 29.0624 10.9379L29.1481 10.9827L29.1484 11.8987L29.1487 12.8147L29.241 12.9764C29.3545 13.1753 29.643 13.4925 29.8246 13.618C30.215 13.888 30.5672 13.9991 31.035 14C31.689 14.0012 32.2446 13.7394 32.6618 13.2334C32.7922 13.0752 32.9889 12.7086 33.0236 12.5591C33.0397 12.4897 32.8284 12.253 30.996 10.289C30.906 10.1925 30.8323 10.1077 30.8323 10.1007C30.8323 10.0936 31.2007 10.0872 31.651 10.0863C32.516 10.0847 32.761 10.0606 33.5769 9.89662C34.8412 9.64249 35.9348 9.20397 36.8219 8.59535L37.1819 8.3483L37.7263 8.34805C38.341 8.3478 38.6128 8.31433 38.8165 8.21384C39.0232 8.11185 39.0214 8.0313 38.8105 7.93138C38.6358 7.84863 38.1876 7.70427 37.7731 7.5972C37.6367 7.56197 37.5147 7.5226 37.502 7.50975C37.4893 7.4969 37.7694 7.48277 38.1243 7.47835C38.8187 7.4697 39.3702 7.41024 39.6771 7.31094C39.9503 7.22255 40.0682 7.09511 39.9603 7.00503C39.8928 6.9488 39.4811 6.83346 39.0036 6.73702C38.5766 6.65076 37.6485 6.49906 37.5479 6.49906C37.508 6.49906 37.4754 6.48615 37.4754 6.47038C37.4754 6.45462 37.5842 6.43246 37.7171 6.42117C38.7317 6.33482 39.5848 6.15178 39.8635 5.96062C40.1028 5.79641 40.0255 5.70395 39.5806 5.62246C39.3109 5.57303 38.2239 5.47374 37.681 5.44891C37.4254 5.43722 37.1962 5.41995 37.1717 5.41052C37.1468 5.40093 37.2149 5.36259 37.3265 5.32338C38.5083 4.90802 39.4715 4.36635 39.4715 4.11699C39.4715 3.9798 39.3473 3.96902 38.7541 4.05468Z"/>
</mask>
<path fill-rule="evenodd" clip-rule="evenodd" d="M38.7541 4.05468C38.5397 4.08564 38.245 4.13388 38.0992 4.16187C37.9534 4.18986 37.7639 4.2255 37.6781 4.24104C37.5215 4.26947 36.7798 4.43083 36.4306 4.51247C36.2301 4.55936 35.6831 4.64324 35.0271 4.72771C34.4437 4.80284 33.968 4.8653 33.7172 4.89975C33.405 4.94263 32.8463 5.01588 32.3761 5.07562C31.9744 5.12664 31.9661 5.12937 31.4717 5.37074C31.1972 5.50473 30.8393 5.65763 30.6764 5.71044C29.8893 5.96567 28.9481 6.15429 28.462 6.15429H28.2118L27.6274 5.66273C27.3059 5.39237 26.9728 5.1053 26.887 5.02481C26.1775 4.35902 26.0875 4.29893 25.899 4.36501C25.7313 4.42374 25.6593 4.40412 25.4493 4.24236C25.1487 4.01083 24.996 4.0307 24.8253 4.32357C24.7462 4.45907 24.7429 4.54466 24.8197 4.4675C24.879 4.40798 24.9923 4.42437 25.1232 4.51138C25.2739 4.61164 25.2891 4.64568 25.2976 4.90351C25.3048 5.12106 25.3654 5.29154 25.4899 5.4444C25.5751 5.54893 25.7854 5.97817 25.8583 6.19638C25.9476 6.46364 26.0311 6.44766 24.6485 6.42773C23.9756 6.41804 23.2496 6.39472 23.0352 6.37592C22.8208 6.35714 22.3296 6.321 21.9436 6.29565C21.1918 6.24625 21.1188 6.25104 20.01 6.42265C19.847 6.44785 19.4189 6.48179 19.0587 6.49809C17.942 6.54858 17.2298 6.63111 17.1199 6.72276C17.0497 6.78131 17.1626 6.92313 17.3546 7.01763C17.6629 7.16937 17.9701 7.24625 18.9184 7.40898C19.0127 7.42519 19.1904 7.4476 19.3132 7.45879C19.5182 7.4775 19.6401 7.51238 19.6036 7.54185C19.5955 7.54837 19.4626 7.59218 19.3082 7.63917C18.2465 7.96238 17.4616 8.24092 17.1703 8.3978C16.9473 8.51787 16.944 8.58683 17.1562 8.69201C17.3048 8.76564 17.3381 8.76918 17.858 8.76677C18.4732 8.76391 19.4508 8.65127 20.0412 8.51521C20.2489 8.46731 19.9773 8.6092 19.3706 8.8654C18.662 9.16464 18.1262 9.42278 17.8637 9.5914C17.6779 9.71082 17.656 9.80259 17.7956 9.87719C17.9277 9.9478 18.7559 9.90816 19.2459 9.80773C19.6727 9.72029 20.4992 9.51778 20.5447 9.48954C20.5593 9.48042 20.5714 9.48465 20.5714 9.49891C20.5714 9.5132 20.4837 9.57266 20.3764 9.63105C19.9119 9.88415 19.8245 9.93405 19.5731 10.09C19.3028 10.2577 19.1367 10.3917 19.1367 10.4419C19.1367 10.4573 19.1662 10.4968 19.2023 10.5296C19.3529 10.6666 20.2252 10.5536 21.0573 10.2894C21.132 10.2657 21.2187 10.2762 21.4471 10.3365C21.7707 10.4219 22.3642 10.537 22.9884 10.6353C23.2114 10.6705 23.4781 10.7129 23.581 10.7297C24.3973 10.8626 24.9739 10.9172 25.5615 10.9172C26.4313 10.9172 27.4828 10.7996 28.4563 10.5938L28.6534 10.5521L28.815 10.7226C28.9039 10.8164 29.0152 10.9133 29.0624 10.9379L29.1481 10.9827L29.1484 11.8987L29.1487 12.8147L29.241 12.9764C29.3545 13.1753 29.643 13.4925 29.8246 13.618C30.215 13.888 30.5672 13.9991 31.035 14C31.689 14.0012 32.2446 13.7394 32.6618 13.2334C32.7922 13.0752 32.9889 12.7086 33.0236 12.5591C33.0397 12.4897 32.8284 12.253 30.996 10.289C30.906 10.1925 30.8323 10.1077 30.8323 10.1007C30.8323 10.0936 31.2007 10.0872 31.651 10.0863C32.516 10.0847 32.761 10.0606 33.5769 9.89662C34.8412 9.64249 35.9348 9.20397 36.8219 8.59535L37.1819 8.3483L37.7263 8.34805C38.341 8.3478 38.6128 8.31433 38.8165 8.21384C39.0232 8.11185 39.0214 8.0313 38.8105 7.93138C38.6358 7.84863 38.1876 7.70427 37.7731 7.5972C37.6367 7.56197 37.5147 7.5226 37.502 7.50975C37.4893 7.4969 37.7694 7.48277 38.1243 7.47835C38.8187 7.4697 39.3702 7.41024 39.6771 7.31094C39.9503 7.22255 40.0682 7.09511 39.9603 7.00503C39.8928 6.9488 39.4811 6.83346 39.0036 6.73702C38.5766 6.65076 37.6485 6.49906 37.5479 6.49906C37.508 6.49906 37.4754 6.48615 37.4754 6.47038C37.4754 6.45462 37.5842 6.43246 37.7171 6.42117C38.7317 6.33482 39.5848 6.15178 39.8635 5.96062C40.1028 5.79641 40.0255 5.70395 39.5806 5.62246C39.3109 5.57303 38.2239 5.47374 37.681 5.44891C37.4254 5.43722 37.1962 5.41995 37.1717 5.41052C37.1468 5.40093 37.2149 5.36259 37.3265 5.32338C38.5083 4.90802 39.4715 4.36635 39.4715 4.11699C39.4715 3.9798 39.3473 3.96902 38.7541 4.05468Z" fill="#EA8B42"/>
<path d="M38.7541 4.05468L38.6398 3.26289L38.6398 3.26289L38.7541 4.05468ZM37.6781 4.24104L37.5355 3.45387L37.5353 3.4539L37.6781 4.24104ZM36.4306 4.51247L36.2484 3.73349L36.2484 3.7335L36.4306 4.51247ZM35.0271 4.72771L34.925 3.93426L34.925 3.93426L35.0271 4.72771ZM33.7172 4.89975L33.8261 5.69231L33.8261 5.69231L33.7172 4.89975ZM32.3761 5.07562L32.4769 5.86924L32.477 5.86924L32.3761 5.07562ZM31.4717 5.37074L31.8226 6.08964L31.8226 6.08964L31.4717 5.37074ZM30.6764 5.71044L30.4297 4.94941L30.4296 4.94945L30.6764 5.71044ZM28.2118 6.15429L27.6968 6.76652L27.9201 6.95429H28.2118V6.15429ZM27.6274 5.66273L28.1423 5.05051L28.1423 5.05049L27.6274 5.66273ZM26.887 5.02481L27.4344 4.44146L27.4344 4.44143L26.887 5.02481ZM25.899 4.36501L26.1634 5.12003L26.1636 5.11999L25.899 4.36501ZM25.4493 4.24236L25.9375 3.6086L25.9375 3.60857L25.4493 4.24236ZM24.8253 4.32357L25.5163 4.72664L25.5163 4.72657L24.8253 4.32357ZM24.8197 4.4675L24.2526 3.90321L24.8197 4.4675ZM25.1232 4.51138L25.5662 3.84524L25.5662 3.84523L25.1232 4.51138ZM25.2976 4.90351L24.498 4.92992L24.498 4.92999L25.2976 4.90351ZM25.4899 5.4444L24.8697 5.94962L24.8698 5.94975L25.4899 5.4444ZM25.8583 6.19638L26.617 5.94288L26.617 5.94283L25.8583 6.19638ZM24.6485 6.42773L24.66 5.62781L24.66 5.62781L24.6485 6.42773ZM23.0352 6.37592L23.1051 5.57897L23.105 5.57896L23.0352 6.37592ZM21.9436 6.29565L21.8912 7.09392L21.8912 7.09392L21.9436 6.29565ZM20.01 6.42265L20.1322 7.21325L20.1323 7.21324L20.01 6.42265ZM19.0587 6.49809L19.0949 7.29727L19.0949 7.29727L19.0587 6.49809ZM17.1199 6.72276L16.6076 6.10834L16.6075 6.10837L17.1199 6.72276ZM17.3546 7.01763L17.7079 6.29986L17.7078 6.29982L17.3546 7.01763ZM18.9184 7.40898L19.0538 6.62053L19.0537 6.62051L18.9184 7.40898ZM19.3132 7.45879L19.386 6.6621L19.3858 6.66209L19.3132 7.45879ZM19.6036 7.54185L20.106 8.16439L20.1062 8.16429L19.6036 7.54185ZM19.3082 7.63917L19.0753 6.87382L19.0752 6.87385L19.3082 7.63917ZM17.1703 8.3978L16.791 7.69342L16.7909 7.69344L17.1703 8.3978ZM17.1562 8.69201L17.5116 7.97525L17.5115 7.97524L17.1562 8.69201ZM17.858 8.76677L17.8543 7.96678H17.8543L17.858 8.76677ZM20.0412 8.51521L20.2208 9.29477L20.2208 9.29477L20.0412 8.51521ZM19.3706 8.8654L19.0594 8.12842L19.0594 8.12843L19.3706 8.8654ZM17.8637 9.5914L17.4313 8.91833L17.4313 8.91836L17.8637 9.5914ZM17.7956 9.87719L18.1726 9.17161L18.1726 9.17157L17.7956 9.87719ZM19.2459 9.80773L19.0853 9.02401L19.0852 9.02403L19.2459 9.80773ZM20.5447 9.48954L20.1227 8.80989L20.1226 8.80993L20.5447 9.48954ZM20.3764 9.63105L19.9938 8.92848L19.9937 8.92855L20.3764 9.63105ZM19.5731 10.09L19.1514 9.4102L19.1514 9.41021L19.5731 10.09ZM19.2023 10.5296L18.6641 11.1215L18.6641 11.1215L19.2023 10.5296ZM21.0573 10.2894L20.8154 9.52683L20.8152 9.5269L21.0573 10.2894ZM21.4471 10.3365L21.6514 9.56298L21.6514 9.56297L21.4471 10.3365ZM22.9884 10.6353L23.113 9.84507L23.1129 9.84506L22.9884 10.6353ZM23.581 10.7297L23.4524 11.5192L23.4524 11.5193L23.581 10.7297ZM25.5615 10.9172V11.7172H25.5615L25.5615 10.9172ZM28.4563 10.5938L28.6219 11.3764L28.6219 11.3764L28.4563 10.5938ZM28.6534 10.5521L29.234 10.0018L28.926 9.67669L28.4878 9.76939L28.6534 10.5521ZM28.815 10.7226L29.3957 10.1724L29.3957 10.1723L28.815 10.7226ZM29.0624 10.9379L28.6919 11.647L28.6921 11.6471L29.0624 10.9379ZM29.1481 10.9827L29.9481 10.9825L29.948 10.4979L29.5185 10.2736L29.1481 10.9827ZM29.1484 11.8987L28.3484 11.899V11.899L29.1484 11.8987ZM29.1487 12.8147L28.3487 12.815L28.3488 13.027L28.4539 13.2112L29.1487 12.8147ZM29.241 12.9764L28.5462 13.3729L28.5462 13.3729L29.241 12.9764ZM29.8246 13.618L29.3696 14.276L29.3696 14.276L29.8246 13.618ZM31.035 14L31.0366 13.2H31.0365L31.035 14ZM32.6618 13.2334L32.0446 12.7245L32.0445 12.7245L32.6618 13.2334ZM33.0236 12.5591L32.2443 12.3782L32.2443 12.3783L33.0236 12.5591ZM30.996 10.289L31.581 9.7433L31.581 9.74328L30.996 10.289ZM30.8323 10.1007L30.0323 10.0972V10.1007H30.8323ZM31.651 10.0863L31.6524 10.8863H31.6525L31.651 10.0863ZM33.5769 9.89662L33.7345 10.6809L33.7345 10.6809L33.5769 9.89662ZM36.8219 8.59535L37.2744 9.25502L37.2745 9.25501L36.8219 8.59535ZM37.1819 8.3483L37.1816 7.5483L36.9337 7.54842L36.7293 7.68864L37.1819 8.3483ZM37.7263 8.34805L37.726 7.54805H37.726L37.7263 8.34805ZM38.8165 8.21384L39.1705 8.93127L39.1706 8.93123L38.8165 8.21384ZM38.8105 7.93138L39.153 7.2084L39.1529 7.20836L38.8105 7.93138ZM37.7731 7.5972L37.9732 6.82263L37.9731 6.8226L37.7731 7.5972ZM38.1243 7.47835L38.1343 8.27828L38.1343 8.27828L38.1243 7.47835ZM39.6771 7.31094L39.4308 6.54978V6.54978L39.6771 7.31094ZM39.9603 7.00503L40.4728 6.39074L40.4726 6.39063L39.9603 7.00503ZM39.0036 6.73702L39.162 5.95285L39.162 5.95285L39.0036 6.73702ZM37.7171 6.42117L37.7848 7.21831L37.785 7.21829L37.7171 6.42117ZM39.8635 5.96062L40.316 6.6203L40.3161 6.62026L39.8635 5.96062ZM39.5806 5.62246L39.4364 6.40935L39.4365 6.40936L39.5806 5.62246ZM37.681 5.44891L37.7176 4.64975L37.681 5.44891ZM37.1717 5.41052L37.4597 4.66415L37.4594 4.66403L37.1717 5.41052ZM37.3265 5.32338L37.0612 4.56864L37.0612 4.56864L37.3265 5.32338ZM38.6398 3.26289C38.4181 3.2949 38.1104 3.34512 37.9484 3.37622L38.25 4.94753C38.3796 4.92265 38.6613 4.87639 38.8685 4.84646L38.6398 3.26289ZM37.9484 3.37622C37.8036 3.404 37.6172 3.43905 37.5355 3.45387L37.8208 5.02822C37.9106 5.01195 38.1031 4.97572 38.25 4.94753L37.9484 3.37622ZM37.5353 3.4539C37.3573 3.4862 36.5987 3.65157 36.2484 3.73349L36.6128 5.29146C36.9608 5.21008 37.6856 5.05275 37.821 5.02819L37.5353 3.4539ZM36.2484 3.7335C36.0948 3.76941 35.5898 3.84865 34.925 3.93426L35.1293 5.52116C35.7765 5.43783 36.3654 5.34931 36.6128 5.29145L36.2484 3.7335ZM34.925 3.93426C34.3415 4.0094 33.8628 4.07224 33.6084 4.10719L33.8261 5.69231C34.0732 5.65837 34.546 5.59628 35.1293 5.52116L34.925 3.93426ZM33.6084 4.10719C33.2998 4.14956 32.744 4.22244 32.2753 4.282L32.477 5.86924C32.9486 5.80931 33.5101 5.73569 33.8261 5.69231L33.6084 4.10719ZM32.2753 4.28199C32.0919 4.3053 31.9101 4.32612 31.7105 4.39126C31.5307 4.44993 31.3458 4.54196 31.1207 4.65184L31.8226 6.08964C32.092 5.95816 32.1584 5.92813 32.2068 5.91234C32.2354 5.90302 32.2587 5.89696 32.4769 5.86924L32.2753 4.28199ZM31.1207 4.65184C30.8582 4.78001 30.5396 4.91381 30.4297 4.94941L30.923 6.47147C31.1391 6.40144 31.5363 6.22945 31.8226 6.08964L31.1207 4.65184ZM30.4296 4.94945C29.6746 5.19427 28.8258 5.35429 28.462 5.35429V6.95429C29.0705 6.95429 30.1039 6.73707 30.9231 6.47143L30.4296 4.94945ZM28.462 5.35429H28.2118V6.95429H28.462V5.35429ZM28.7267 5.54206L28.1423 5.05051L27.1124 6.27496L27.6968 6.76652L28.7267 5.54206ZM28.1423 5.05049C27.816 4.77604 27.5011 4.50401 27.4344 4.44146L26.3395 5.60816C26.4444 5.70659 26.7958 6.0087 27.1124 6.27498L28.1423 5.05049ZM27.4344 4.44143C27.1016 4.12912 26.8451 3.89086 26.6419 3.75518C26.5282 3.67926 26.3621 3.58626 26.1491 3.55505C25.92 3.52149 25.7371 3.57402 25.6344 3.61002L26.1636 5.11999C26.1551 5.12296 26.0541 5.15822 25.9171 5.13815C25.7962 5.12043 25.7322 5.07168 25.7533 5.08574C25.7741 5.09962 25.8249 5.13806 25.93 5.23102C26.0313 5.32046 26.1621 5.44163 26.3396 5.60819L27.4344 4.44143ZM25.6345 3.60998C25.6176 3.61591 25.6449 3.60454 25.6954 3.59868C25.757 3.59155 25.8288 3.59499 25.9005 3.61456C25.9637 3.6318 26.0003 3.65449 26.0005 3.65462C26.0013 3.65509 25.9967 3.65237 25.9853 3.64424C25.9739 3.63617 25.9585 3.62478 25.9375 3.6086L24.9611 4.87612C25.0595 4.95191 25.2435 5.09381 25.4795 5.15818C25.7761 5.23908 26.0217 5.16967 26.1634 5.12003L25.6345 3.60998ZM25.9375 3.60857C25.7826 3.4893 25.4343 3.23459 24.9854 3.293C24.4887 3.35763 24.2369 3.74439 24.1342 3.92057L25.5163 4.72657C25.5394 4.68695 25.5337 4.70734 25.493 4.74458C25.4424 4.791 25.3401 4.86033 25.1918 4.87963C25.0524 4.89777 24.9545 4.86063 24.9263 4.84822C24.9022 4.8376 24.9103 4.83698 24.9612 4.87615L25.9375 3.60857ZM24.1342 3.9205C24.0983 3.98206 24.0641 4.04948 24.0362 4.12014C24.0155 4.17262 23.9704 4.29407 23.9646 4.44465C23.9622 4.50761 23.9596 4.70016 24.0801 4.90188C24.1488 5.01686 24.2578 5.13363 24.4142 5.21162C24.5684 5.28844 24.7199 5.30335 24.8382 5.29428C25.0478 5.27821 25.1924 5.18568 25.2412 5.15279C25.3067 5.10876 25.3558 5.06292 25.3868 5.03178L24.2526 3.90321C24.2644 3.89137 24.2969 3.85973 24.3481 3.82526C24.3828 3.80193 24.5157 3.71431 24.7159 3.69896C24.8297 3.69024 24.9771 3.70446 25.1279 3.77959C25.281 3.85588 25.3872 3.96996 25.4537 4.08131C25.5698 4.27577 25.5653 4.4573 25.5635 4.50592C25.5588 4.6278 25.5246 4.70728 25.5243 4.708C25.5168 4.72692 25.5127 4.73282 25.5163 4.72664L24.1342 3.9205ZM25.3868 5.03178C25.1852 5.23435 24.9438 5.24269 24.8301 5.22625C24.7736 5.21809 24.7341 5.20347 24.7136 5.19471C24.6923 5.18557 24.6813 5.17829 24.6802 5.17752L25.5662 3.84523C25.4414 3.76223 25.2679 3.67292 25.0591 3.64273C24.8412 3.61122 24.5134 3.64112 24.2526 3.90321L25.3868 5.03178ZM24.6801 5.17751C24.7141 5.20011 24.6953 5.19005 24.6659 5.16249C24.6237 5.12295 24.5711 5.0596 24.5328 4.97353C24.5159 4.93566 24.5063 4.90324 24.5008 4.88066C24.4956 4.85901 24.4939 4.84518 24.4938 4.84388C24.4936 4.84263 24.4943 4.84799 24.4952 4.86391C24.4962 4.87966 24.4971 4.90053 24.498 4.92992L26.0972 4.87711C26.0943 4.78979 26.0941 4.5468 25.9947 4.32319C25.8673 4.03685 25.6386 3.89339 25.5662 3.84524L24.6801 5.17751ZM24.498 4.92999C24.5104 5.30324 24.6231 5.64691 24.8697 5.94962L26.1102 4.93918C26.1052 4.933 26.1035 4.92995 26.1034 4.92977C26.1032 4.92956 26.1033 4.92965 26.1034 4.92994C26.1036 4.93022 26.1036 4.93034 26.1035 4.93017C26.1035 4.93007 26.1024 4.92691 26.101 4.91925C26.0996 4.91134 26.0978 4.89779 26.0972 4.87703L24.498 4.92999ZM24.8698 5.94975C24.8515 5.9273 24.8447 5.91525 24.8514 5.92589C24.8559 5.93301 24.8641 5.94659 24.8759 5.96756C24.8995 6.00945 24.9289 6.06572 24.9603 6.12966C25.0267 6.26533 25.0796 6.39041 25.0995 6.44993L26.617 5.94283C26.564 5.78415 26.4753 5.58549 26.3971 5.42586C26.3317 5.29227 26.2203 5.07424 26.1101 4.93905L24.8698 5.94975ZM25.0995 6.44989C25.1079 6.47513 25.1161 6.49797 25.1209 6.51137C25.1268 6.5281 25.1276 6.53061 25.1275 6.53034C25.1275 6.53009 25.1213 6.51146 25.1153 6.48269C25.1094 6.45467 25.0992 6.3968 25.1018 6.3209C25.1045 6.24071 25.1217 6.13524 25.1758 6.02369C25.2308 5.91 25.3081 5.82338 25.3866 5.76197C25.5228 5.65552 25.6503 5.6349 25.6551 5.63399C25.6724 5.63068 25.6337 5.63771 25.4339 5.63757C25.256 5.63745 25.0122 5.63289 24.66 5.62781L24.6369 7.22764C24.9761 7.23253 25.2403 7.23744 25.4328 7.23757C25.6034 7.23769 25.7975 7.23575 25.9556 7.20552C26.0308 7.19114 26.2056 7.15258 26.3719 7.0226C26.5912 6.85121 26.693 6.60622 26.7009 6.37527C26.7066 6.2061 26.6599 6.06883 26.6497 6.0374C26.6415 6.01204 26.6327 5.9875 26.6283 5.97512C26.6227 5.9594 26.6198 5.95104 26.617 5.94288L25.0995 6.44989ZM24.66 5.62781C23.9814 5.61804 23.2853 5.59477 23.1051 5.57897L22.9653 7.17286C23.214 7.19467 23.9699 7.21804 24.637 7.22764L24.66 5.62781ZM23.105 5.57896C22.882 5.55944 22.3841 5.52286 21.9961 5.49737L21.8912 7.09392C22.2751 7.11915 22.7596 7.15484 22.9654 7.17287L23.105 5.57896ZM21.9961 5.49737C21.6236 5.47289 21.3683 5.45763 21.0583 5.47799C20.7645 5.49729 20.4296 5.54818 19.8876 5.63206L20.1323 7.21324C20.6991 7.12552 20.9552 7.08821 21.1631 7.07455C21.3547 7.06197 21.5119 7.069 21.8912 7.09392L21.9961 5.49737ZM19.8877 5.63205C19.7706 5.65015 19.3795 5.68276 19.0226 5.69891L19.0949 7.29727C19.4584 7.28083 19.9234 7.24554 20.1322 7.21325L19.8877 5.63205ZM19.0226 5.69891C18.4554 5.72455 17.9774 5.75886 17.6197 5.80031C17.4426 5.82083 17.2797 5.8448 17.1441 5.87394C17.077 5.88837 17.0015 5.9072 16.9275 5.93279C16.8728 5.9517 16.7364 6.00092 16.6076 6.10834L17.6322 7.33718C17.5736 7.38607 17.5224 7.41287 17.4997 7.424C17.4739 7.43664 17.4558 7.44309 17.4504 7.44493C17.4407 7.44828 17.4477 7.44523 17.4802 7.43824C17.5439 7.42455 17.6496 7.40755 17.8038 7.38967C18.1089 7.35432 18.5453 7.32212 19.0949 7.29727L19.0226 5.69891ZM16.6075 6.10837C16.3429 6.32902 16.2681 6.64667 16.3102 6.9076C16.3446 7.12123 16.4488 7.27428 16.513 7.35492C16.6503 7.52745 16.8331 7.65264 17.0014 7.73545L17.7078 6.29982C17.6841 6.28813 17.7144 6.29516 17.7648 6.35851C17.7856 6.38456 17.8627 6.48527 17.8897 6.65288C17.9046 6.74526 17.9055 6.86888 17.8601 7.00384C17.8132 7.14302 17.7296 7.25596 17.6323 7.33714L16.6075 6.10837ZM17.0014 7.73541C17.429 7.94589 17.849 8.03715 18.7831 8.19746L19.0537 6.62051C18.0913 6.45535 17.8968 6.39284 17.7079 6.29986L17.0014 7.73541ZM18.783 8.19744C18.9031 8.21807 19.1024 8.2429 19.2406 8.25549L19.3858 6.66209C19.2784 6.6523 19.1224 6.63231 19.0538 6.62053L18.783 8.19744ZM19.2405 8.25547C19.3245 8.26314 19.3485 8.27103 19.3289 8.26544C19.3212 8.26323 19.2991 8.25667 19.2688 8.24379C19.2459 8.23406 19.1763 8.20348 19.0986 8.14045C19.0377 8.09106 18.8325 7.90909 18.8116 7.5814C18.7885 7.21774 19.0062 6.996 19.1011 6.91941L20.1062 8.16429C20.2102 8.08033 20.432 7.85105 20.4084 7.47977C20.3871 7.14446 20.1767 6.95479 20.1063 6.89769C19.9598 6.77889 19.8012 6.73635 19.769 6.72713C19.6463 6.69206 19.5069 6.67314 19.386 6.6621L19.2405 8.25547ZM19.1012 6.91931C19.1162 6.90714 19.1298 6.8971 19.1409 6.88922C19.1522 6.88126 19.1623 6.87452 19.1709 6.86903C19.1876 6.85828 19.202 6.84995 19.2123 6.84419C19.2323 6.83298 19.2487 6.82501 19.2577 6.82076C19.2675 6.81608 19.2756 6.81252 19.2808 6.81026C19.2863 6.8079 19.2907 6.80607 19.2937 6.80484C19.2996 6.80245 19.3036 6.80096 19.3046 6.80056C19.3059 6.80006 19.3062 6.79999 19.305 6.80042C19.2988 6.80264 19.2844 6.80763 19.2604 6.81552C19.214 6.83083 19.1481 6.85166 19.0753 6.87382L19.5411 8.40451C19.6227 8.37969 19.7005 8.35513 19.7612 8.33514C19.7907 8.3254 19.8207 8.31527 19.8465 8.30598C19.8586 8.30166 19.8767 8.29501 19.8961 8.28711C19.9052 8.28342 19.9228 8.27616 19.9437 8.26623C19.9541 8.26129 19.9717 8.2527 19.9927 8.24094C20.0078 8.23253 20.0538 8.20658 20.106 8.16439L19.1012 6.91931ZM19.0752 6.87385C18.0329 7.19118 17.166 7.49151 16.791 7.69342L17.5496 9.10217C17.7572 8.99033 18.4602 8.73358 19.5412 8.40449L19.0752 6.87385ZM16.7909 7.69344C16.719 7.7322 16.6128 7.79341 16.5151 7.87958C16.4332 7.95176 16.2177 8.16232 16.201 8.5124C16.183 8.889 16.4046 9.12638 16.5064 9.21674C16.6135 9.31187 16.7299 9.37358 16.8009 9.40879L17.5115 7.97524C17.4765 7.95785 17.5137 7.9715 17.5687 8.02036C17.6184 8.06445 17.8149 8.25737 17.7992 8.58857C17.7846 8.89326 17.5984 9.05749 17.5733 9.07968C17.5322 9.11587 17.5101 9.12343 17.5496 9.10215L16.7909 7.69344ZM16.8009 9.40878C16.9206 9.46811 17.0615 9.5298 17.2831 9.5534C17.4303 9.56908 17.6235 9.56786 17.8617 9.56676L17.8543 7.96678C17.7231 7.96738 17.6311 7.96756 17.5615 7.96654C17.4899 7.9655 17.4615 7.96336 17.4526 7.9624C17.4512 7.96226 17.4745 7.96491 17.5071 7.9757C17.5321 7.98401 17.5451 7.99186 17.5116 7.97525L16.8009 9.40878ZM17.8617 9.56676C18.5352 9.56364 19.5718 9.44434 20.2208 9.29477L19.8615 7.73564C19.3297 7.8582 18.4111 7.96419 17.8543 7.96678L17.8617 9.56676ZM20.2208 9.29477C20.2439 9.28944 20.1911 9.30443 20.1113 9.30587C20.0863 9.30632 20.0395 9.30596 19.9809 9.29685C19.9317 9.28919 19.8135 9.26671 19.6851 9.1866C19.5352 9.09313 19.3633 8.91139 19.3198 8.63401C19.2821 8.3928 19.3639 8.21017 19.406 8.13255C19.4842 7.98818 19.5881 7.90869 19.5946 7.90337C19.6232 7.88011 19.6451 7.86611 19.6502 7.86285C19.662 7.85531 19.6621 7.8561 19.6409 7.86716C19.5547 7.91219 19.3616 8.00079 19.0594 8.12842L19.6818 9.60238C19.9863 9.47381 20.2323 9.36338 20.3816 9.28538C20.4194 9.26569 20.4656 9.24048 20.5103 9.21198C20.5319 9.19824 20.5669 9.17502 20.6052 9.14384C20.6214 9.1306 20.7316 9.04449 20.8127 8.89484C20.8562 8.81457 20.9386 8.62964 20.9006 8.38645C20.8568 8.1071 20.6837 7.92373 20.5318 7.82897C20.4012 7.74758 20.2801 7.72415 20.2271 7.71589C20.1646 7.70618 20.1131 7.70557 20.0825 7.70613C19.9801 7.70797 19.8903 7.729 19.8615 7.73565L20.2208 9.29477ZM19.0594 8.12843C18.3521 8.42712 17.7581 8.7084 17.4313 8.91833L18.2961 10.2645C18.4943 10.1372 18.972 9.90215 19.6818 9.60238L19.0594 8.12843ZM17.4313 8.91836C17.3568 8.96622 17.2667 9.0312 17.1834 9.11628C17.1061 9.19523 16.9821 9.34439 16.9294 9.56558C16.8673 9.826 16.9287 10.0809 17.0659 10.2768C17.1821 10.4426 17.3291 10.535 17.4186 10.5828L18.1726 9.17157C18.1922 9.18209 18.2897 9.23502 18.3765 9.35894C18.4843 9.51294 18.5366 9.7234 18.4858 9.93662C18.4443 10.1106 18.352 10.2098 18.3267 10.2356C18.2954 10.2676 18.2777 10.2763 18.2962 10.2644L17.4313 8.91836ZM17.4185 10.5828C17.5634 10.6602 17.707 10.6822 17.7562 10.6896C17.8303 10.7008 17.9058 10.7064 17.9733 10.7095C18.1101 10.7156 18.2676 10.7132 18.4248 10.7057C18.7359 10.6908 19.1088 10.6525 19.4065 10.5914L19.0852 9.02403C18.8929 9.06344 18.6069 9.09513 18.3483 9.10752C18.2207 9.11363 18.1158 9.11422 18.0448 9.11105C18.0084 9.10942 17.9937 9.10733 17.9953 9.10758C17.9964 9.10774 18.0105 9.10983 18.0333 9.11586C18.0511 9.12058 18.1054 9.13566 18.1726 9.17161L17.4185 10.5828ZM19.4064 10.5915C19.6339 10.5448 19.9582 10.4697 20.2286 10.4035C20.3644 10.3702 20.4916 10.3379 20.5901 10.3115C20.6385 10.2985 20.6855 10.2854 20.7251 10.2734C20.7442 10.2676 20.7686 10.26 20.7936 10.2512C20.8059 10.2468 20.8246 10.24 20.8461 10.231C20.8594 10.2255 20.9094 10.2047 20.9667 10.1691L20.1226 8.80993C20.1771 8.77611 20.2227 8.75747 20.2302 8.75435C20.2458 8.74781 20.2573 8.74373 20.2609 8.74244C20.2686 8.73972 20.2702 8.73942 20.2615 8.74204C20.2455 8.74689 20.2171 8.75495 20.175 8.76626C20.0924 8.78845 19.9778 8.81759 19.8479 8.84941C19.587 8.91333 19.2846 8.98317 19.0853 9.02401L19.4064 10.5915ZM20.9667 10.1692C20.8741 10.2266 20.6183 10.3527 20.2983 10.2402C19.8939 10.0981 19.7714 9.72652 19.7714 9.49891H21.3714C21.3714 9.25704 21.2428 8.87621 20.8288 8.73071C20.499 8.61483 20.2299 8.74331 20.1227 8.80989L20.9667 10.1692ZM19.7714 9.49891C19.7714 9.30942 19.8387 9.17318 19.8668 9.12124C19.9008 9.05851 19.9359 9.0143 19.9545 8.99208C19.9922 8.94717 20.0254 8.91851 20.0349 8.91036C20.0582 8.89031 20.0722 8.88149 20.0652 8.88626C20.0562 8.89237 20.0306 8.90847 19.9938 8.92848L20.759 10.3336C20.8295 10.2952 20.9014 10.2524 20.963 10.2106C20.9913 10.1915 21.0339 10.1614 21.0771 10.1244C21.0965 10.1077 21.1373 10.0716 21.1802 10.0205C21.2015 9.99518 21.2386 9.94818 21.2739 9.88298C21.3033 9.82856 21.3714 9.69019 21.3714 9.49891H19.7714ZM19.9937 8.92855C19.5245 9.18418 19.4218 9.24244 19.1514 9.4102L19.9948 10.7698C20.2272 10.6256 20.2993 10.5841 20.7592 10.3336L19.9937 8.92855ZM19.1514 9.41021C19.0019 9.50292 18.8623 9.59777 18.7513 9.68726C18.6983 9.73006 18.6309 9.78823 18.5692 9.85753C18.5388 9.89172 18.4932 9.94697 18.4511 10.02C18.4166 10.0799 18.3367 10.2321 18.3367 10.4419H19.9367C19.9367 10.547 19.9154 10.6318 19.8963 10.6883C19.8769 10.7456 19.8542 10.7897 19.8376 10.8185C19.8057 10.8739 19.7752 10.9092 19.7645 10.9211C19.7425 10.9459 19.7335 10.9507 19.7557 10.9328C19.7953 10.9008 19.874 10.8448 19.9949 10.7698L19.1514 9.41021ZM18.3367 10.4419C18.3367 10.6505 18.4191 10.8017 18.4329 10.8281C18.4625 10.8847 18.4936 10.9294 18.5155 10.9586C18.5606 11.0189 18.612 11.0741 18.6641 11.1215L19.7406 9.9378C19.7565 9.95227 19.7751 9.9714 19.7964 9.99982C19.8064 10.0132 19.828 10.0431 19.8509 10.0869C19.8624 10.1091 19.8802 10.1458 19.8964 10.1942C19.9108 10.2368 19.9367 10.3255 19.9367 10.4419H18.3367ZM18.6641 11.1215C18.83 11.2723 19.0146 11.326 19.1058 11.3477C19.2138 11.3734 19.3194 11.383 19.4074 11.3864C19.5851 11.3933 19.7829 11.3784 19.977 11.3533C20.3702 11.3024 20.843 11.1968 21.2994 11.0519L20.8152 9.5269C20.4395 9.64617 20.0601 9.72917 19.7715 9.76655C19.6247 9.78557 19.5242 9.78974 19.47 9.78762C19.442 9.78653 19.4483 9.7845 19.4765 9.79122C19.4879 9.79395 19.6124 9.82116 19.7406 9.93777L18.6641 11.1215ZM21.2992 11.0519C21.2787 11.0584 21.2565 11.0641 21.2331 11.0685C21.2098 11.0729 21.188 11.0754 21.1682 11.0767C21.1295 11.0791 21.1038 11.0763 21.0987 11.0757C21.0944 11.0751 21.1021 11.0759 21.1288 11.0817C21.155 11.0875 21.1913 11.0963 21.2429 11.11L21.6514 9.56297C21.4697 9.515 21.1493 9.4209 20.8154 9.52683L21.2992 11.0519ZM21.2428 11.1099C21.6065 11.206 22.2319 11.326 22.864 11.4256L23.1129 9.84506C22.4964 9.74796 21.935 9.63788 21.6514 9.56298L21.2428 11.1099ZM22.8639 11.4256C23.0869 11.4607 23.3517 11.5028 23.4524 11.5192L23.7097 9.94007C23.6045 9.92293 23.336 9.88021 23.113 9.84507L22.8639 11.4256ZM23.4524 11.5193C24.2956 11.6566 24.9174 11.7172 25.5615 11.7172V10.1172C25.0304 10.1172 24.4991 10.0686 23.7096 9.94006L23.4524 11.5193ZM25.5615 11.7172C26.4942 11.7172 27.6016 11.5922 28.6219 11.3764L28.2908 9.81107C27.3641 10.0071 26.3683 10.1172 25.5615 10.1172L25.5615 11.7172ZM28.6219 11.3764L28.8189 11.3347L28.4878 9.76939L28.2907 9.81108L28.6219 11.3764ZM28.0727 11.1024L28.2343 11.2729L29.3957 10.1723L29.234 10.0018L28.0727 11.1024ZM28.2343 11.2728C28.2969 11.339 28.3656 11.4043 28.4291 11.4597C28.4715 11.4966 28.575 11.5859 28.6919 11.647L29.4328 10.2289C29.4483 10.237 29.4605 10.2441 29.4687 10.2491C29.477 10.2542 29.4835 10.2584 29.4877 10.2612C29.4921 10.2642 29.4952 10.2664 29.497 10.2677C29.4989 10.269 29.4999 10.2698 29.5 10.2699C29.5002 10.27 29.4983 10.2686 29.4944 10.2654C29.4906 10.2622 29.4856 10.258 29.4795 10.2528C29.4673 10.2421 29.4528 10.229 29.4377 10.2144C29.4225 10.1999 29.4081 10.1855 29.3957 10.1724L28.2343 11.2728ZM28.6921 11.6471L28.7778 11.6919L29.5185 10.2736L29.4327 10.2288L28.6921 11.6471ZM28.3481 10.983L28.3484 11.899L29.9484 11.8985L29.9481 10.9825L28.3481 10.983ZM28.3484 11.899L28.3487 12.815L29.9487 12.8144L29.9484 11.8985L28.3484 11.899ZM28.4539 13.2112L28.5462 13.3729L29.9358 12.5799L29.8436 12.4182L28.4539 13.2112ZM28.5462 13.3729C28.6445 13.5452 28.7887 13.7237 28.9154 13.863C29.041 14.0011 29.2059 14.1628 29.3696 14.276L30.2796 12.96C30.28 12.9603 30.2741 12.9562 30.2619 12.9461C30.25 12.9363 30.2351 12.9232 30.2173 12.9067C30.1814 12.8733 30.1405 12.8319 30.0991 12.7864C30.0078 12.686 29.951 12.6064 29.9358 12.5798L28.5462 13.3729ZM29.3696 14.276C29.8913 14.6368 30.4012 14.7988 31.0335 14.8L31.0365 13.2C30.7332 13.1994 30.5388 13.1392 30.2796 12.96L29.3696 14.276ZM31.0335 14.8C31.9277 14.8017 32.7101 14.4325 33.2791 13.7423L32.0445 12.7245C31.7792 13.0464 31.4503 13.2008 31.0366 13.2L31.0335 14.8ZM33.2791 13.7423C33.3934 13.6036 33.5041 13.4192 33.5835 13.2712C33.6546 13.1388 33.7593 12.9278 33.8029 12.7399L32.2443 12.3783C32.2525 12.3428 32.2574 12.3399 32.238 12.3842C32.2228 12.4189 32.2007 12.4644 32.1736 12.5148C32.1468 12.5648 32.1185 12.6134 32.0925 12.6544C32.0797 12.6748 32.0684 12.6915 32.0593 12.7045C32.0548 12.7109 32.0512 12.7159 32.0485 12.7195C32.0457 12.7231 32.0444 12.7247 32.0446 12.7245L33.2791 13.7423ZM33.8029 12.74C33.8631 12.4807 33.7828 12.274 33.7428 12.1873C33.7008 12.0962 33.6486 12.0219 33.6152 11.9766C33.5442 11.8803 33.439 11.7576 33.2996 11.6016C33.0126 11.2802 32.4944 10.7223 31.581 9.7433L30.4111 10.8348C31.33 11.8198 31.8337 12.3622 32.1063 12.6674C32.2469 12.8248 32.306 12.897 32.3273 12.926C32.3401 12.9433 32.3161 12.9143 32.2897 12.8571C32.2654 12.8043 32.1881 12.6202 32.2443 12.3782L33.8029 12.74ZM31.581 9.74328C31.5406 9.69996 31.5062 9.66178 31.4842 9.63645C31.4722 9.62273 31.4689 9.61849 31.4712 9.62133C31.4721 9.62256 31.4745 9.62555 31.4778 9.62992C31.4808 9.63384 31.4869 9.64201 31.4945 9.65315C31.5002 9.66139 31.5171 9.68613 31.5358 9.72046C31.5449 9.73724 31.5623 9.77051 31.5793 9.81479C31.5881 9.83756 31.5998 9.87123 31.61 9.91309C31.6195 9.95259 31.6323 10.0183 31.6323 10.1007H30.0323C30.0323 10.2489 30.0744 10.359 30.0857 10.3884C30.103 10.4334 30.1208 10.4676 30.1305 10.4854C30.1503 10.5218 30.1689 10.5491 30.1767 10.5606C30.1945 10.5863 30.2111 10.6074 30.2193 10.6177C30.2382 10.6415 30.2589 10.6658 30.2766 10.6862C30.314 10.7291 30.3615 10.7816 30.4111 10.8348L31.581 9.74328ZM31.6323 10.1042C31.6313 10.335 31.5337 10.5064 31.4523 10.6062C31.3756 10.7002 31.295 10.7551 31.252 10.7816C31.1669 10.834 31.092 10.8575 31.0696 10.8644C31.0133 10.8818 30.968 10.8886 30.9594 10.8899C30.9428 10.8925 30.9301 10.8939 30.9245 10.8944C30.918 10.8951 30.9134 10.8955 30.9113 10.8956C30.9062 10.896 30.9097 10.8957 30.928 10.895C30.961 10.8937 31.0145 10.8923 31.0868 10.891C31.2299 10.8885 31.4301 10.8867 31.6524 10.8863L31.6495 9.28634C31.4216 9.28676 31.2125 9.2886 31.0588 9.29129C30.9828 9.29262 30.916 9.29424 30.8659 9.29618C30.8425 9.29709 30.8137 9.2984 30.7867 9.30051C30.7764 9.30131 30.7476 9.3036 30.7137 9.30886C30.7023 9.31064 30.6549 9.31787 30.5971 9.33571C30.5741 9.34284 30.4986 9.3665 30.4132 9.41911C30.3837 9.43727 30.0343 9.64366 30.0323 10.0972L31.6323 10.1042ZM31.6525 10.8863C32.5679 10.8846 32.8652 10.8557 33.7345 10.6809L33.4192 9.11231C32.6567 9.26556 32.4642 9.28481 31.6495 9.28634L31.6525 10.8863ZM33.7345 10.6809C35.084 10.4097 36.2826 9.9355 37.2744 9.25502L36.3693 7.93568C35.5869 8.47244 34.5985 8.87529 33.4192 9.11231L33.7345 10.6809ZM37.2745 9.25501L37.6345 9.00797L36.7293 7.68864L36.3693 7.93569L37.2745 9.25501ZM37.1823 9.1483L37.7267 9.14805L37.726 7.54805L37.1816 7.5483L37.1823 9.1483ZM37.7266 9.14805C38.3203 9.14781 38.7761 9.12586 39.1705 8.93127L38.4625 7.49642C38.461 7.49718 38.4546 7.50037 38.4374 7.50503C38.4184 7.51018 38.3847 7.51753 38.3278 7.52453C38.2078 7.53931 38.026 7.54793 37.726 7.54805L37.7266 9.14805ZM39.1706 8.93123C39.2481 8.89297 39.3651 8.82929 39.4728 8.7306C39.575 8.63698 39.7775 8.40943 39.7699 8.05473C39.7624 7.70491 39.5554 7.48769 39.4553 7.40043C39.3474 7.30633 39.2313 7.2455 39.153 7.2084L38.468 8.65436C38.4951 8.66722 38.4583 8.65393 38.4036 8.60623C38.3568 8.56536 38.1768 8.39339 38.1703 8.08894C38.1637 7.77962 38.341 7.59757 38.392 7.55087C38.4485 7.49908 38.4883 7.48372 38.4625 7.49646L39.1706 8.93123ZM39.1529 7.20836C38.9043 7.09062 38.3924 6.9309 37.9732 6.82263L37.573 8.37177C37.9828 8.47763 38.3673 8.60665 38.4681 8.65439L39.1529 7.20836ZM37.9731 6.8226C37.9171 6.80813 37.868 6.7938 37.8367 6.78371C37.8198 6.77825 37.8169 6.77686 37.8237 6.77954C37.8261 6.7805 37.8424 6.78688 37.8654 6.79822C37.8769 6.80386 37.8989 6.81508 37.9259 6.83176C37.9398 6.84034 37.9592 6.85291 37.9814 6.8695C38.0026 6.88525 38.0352 6.91116 38.0711 6.94755L36.9328 8.07195C37.0399 8.18034 37.1574 8.23304 37.1579 8.23329C37.1906 8.24938 37.2195 8.26122 37.2373 8.26822C37.2749 8.283 37.3133 8.29606 37.3456 8.30646C37.4126 8.32807 37.4927 8.35103 37.5731 8.3718L37.9731 6.8226ZM38.0711 6.94755C38.1351 7.01228 38.2253 7.12614 38.2721 7.29404C38.3231 7.47642 38.3052 7.66035 38.2399 7.81662C38.1321 8.075 37.9283 8.18595 37.8952 8.20456C37.787 8.26547 37.6894 8.28465 37.6881 8.28493C37.6465 8.29441 37.6182 8.29666 37.6288 8.29553C37.6361 8.29475 37.6632 8.29252 37.7156 8.28987C37.8152 8.28484 37.9632 8.28041 38.1343 8.27828L38.1144 6.67841C37.9304 6.6807 37.761 6.68554 37.635 6.6919C37.5746 6.69495 37.5118 6.69893 37.4591 6.70456C37.4396 6.70663 37.3888 6.71213 37.3329 6.72486C37.3245 6.72677 37.2219 6.74757 37.1107 6.8101C37.0762 6.82952 36.8715 6.94128 36.7633 7.20046C36.698 7.35714 36.68 7.54147 36.7311 7.72426C36.778 7.89256 36.8685 8.00682 36.9328 8.07195L38.0711 6.94755ZM38.1343 8.27828C38.8384 8.26951 39.4937 8.2111 39.9233 8.0721L39.4308 6.54978C39.2466 6.60938 38.7989 6.66988 38.1143 6.67841L38.1343 8.27828ZM39.9233 8.0721C40.1022 8.01422 40.3581 7.90795 40.5487 7.70207C40.6491 7.59362 40.7983 7.38289 40.8 7.08281C40.8018 6.75529 40.6288 6.52093 40.4728 6.39074L39.4478 7.61933C39.3457 7.53418 39.1985 7.34953 39.2 7.074C39.2014 6.82591 39.3243 6.66945 39.3745 6.61518C39.4648 6.51763 39.5252 6.51927 39.4308 6.54978L39.9233 8.0721ZM40.4726 6.39063C40.3826 6.31552 40.2923 6.27256 40.2584 6.25673C40.211 6.23452 40.1638 6.21605 40.1233 6.2013C40.0414 6.17148 39.9474 6.14262 39.8515 6.11577C39.6576 6.06144 39.4156 6.00408 39.162 5.95285L38.8453 7.52118C39.0691 7.5664 39.2717 7.61494 39.4199 7.65645C39.4951 7.67751 39.5465 7.69406 39.5757 7.7047C39.5908 7.71017 39.5905 7.71069 39.5803 7.70593C39.575 7.70341 39.5614 7.69691 39.5429 7.68618C39.5268 7.67689 39.4907 7.65509 39.4479 7.61944L40.4726 6.39063ZM39.162 5.95285C38.9341 5.90681 38.584 5.84547 38.2824 5.79617C38.1306 5.77136 37.9866 5.74885 37.8721 5.73232C37.7944 5.72111 37.6455 5.69906 37.5479 5.69906V7.29906C37.504 7.29906 37.4808 7.29455 37.5262 7.30001C37.5532 7.30326 37.5924 7.30854 37.6434 7.3159C37.7446 7.33051 37.8781 7.35132 38.0243 7.37522C38.3187 7.42334 38.6461 7.48097 38.8453 7.52118L39.162 5.95285ZM37.5479 5.69906C37.6037 5.69906 37.6898 5.70667 37.7911 5.74677C37.8393 5.76586 37.9321 5.80835 38.0263 5.89604C38.1211 5.98432 38.2754 6.17774 38.2754 6.47038H36.6754C36.6754 6.77091 36.8338 6.97186 36.936 7.06699C37.0375 7.16153 37.1409 7.21021 37.2023 7.2345C37.3299 7.285 37.4522 7.29906 37.5479 7.29906V5.69906ZM38.2754 6.47038C38.2754 6.70948 38.1712 6.88028 38.1001 6.96863C38.0302 7.05558 37.9581 7.10737 37.9214 7.13163C37.8476 7.18038 37.7844 7.20344 37.7683 7.20931C37.7433 7.21841 37.7251 7.22332 37.7183 7.22507C37.7141 7.22618 37.7109 7.22693 37.7091 7.22735C37.7072 7.22777 37.7062 7.22799 37.706 7.22801C37.7059 7.22803 37.7081 7.22759 37.7127 7.22684C37.7172 7.22609 37.7232 7.22518 37.7306 7.22418C37.7456 7.22215 37.7641 7.22007 37.7848 7.21831L37.6495 5.62404C37.5615 5.63151 37.469 5.64345 37.3868 5.66019C37.3505 5.66757 37.2879 5.68145 37.2207 5.70595C37.1923 5.71629 37.1195 5.74376 37.0393 5.79678C36.9993 5.82318 36.9247 5.87708 36.8532 5.96608C36.7805 6.0565 36.6754 6.22932 36.6754 6.47038H38.2754ZM37.785 7.21829C38.3182 7.17291 38.8194 7.10138 39.2341 7.0124C39.6059 6.93263 40.0325 6.81481 40.316 6.6203L39.4109 5.30094C39.4158 5.29759 39.2766 5.36687 38.8984 5.44801C38.5633 5.51993 38.1306 5.58309 37.6493 5.62406L37.785 7.21829ZM40.3161 6.62026C40.3946 6.56643 40.5591 6.44792 40.6721 6.25593C40.7368 6.14608 40.805 5.97763 40.7956 5.76723C40.7858 5.54802 40.6958 5.37104 40.5923 5.24728C40.4207 5.04214 40.1948 4.96047 40.106 4.92998C39.9849 4.88836 39.8518 4.85882 39.7248 4.83555L39.4365 6.40936C39.5319 6.42684 39.5753 6.43942 39.5862 6.44319C39.5908 6.44477 39.5714 6.4387 39.5393 6.4208C39.5107 6.40484 39.4377 6.36082 39.3649 6.27377C39.2839 6.17692 39.2057 6.02814 39.1972 5.83867C39.1892 5.65801 39.2482 5.52082 39.2934 5.444C39.3676 5.31808 39.452 5.27271 39.4108 5.30098L40.3161 6.62026ZM39.7248 4.83557C39.3999 4.77602 38.2688 4.67495 37.7176 4.64975L37.6445 6.24808C38.1791 6.27252 39.2219 6.37005 39.4364 6.40935L39.7248 4.83557ZM37.7176 4.64975C37.5959 4.64418 37.4827 4.63738 37.3998 4.63113C37.3576 4.62795 37.3283 4.62529 37.3117 4.62349C37.3027 4.62252 37.3039 4.62249 37.3115 4.62366C37.3151 4.62421 37.3268 4.62603 37.343 4.62945C37.3514 4.6312 37.3647 4.63415 37.3812 4.63856C37.3958 4.64248 37.4245 4.65056 37.4597 4.66415L36.8837 6.15689C36.9474 6.18147 37.0012 6.19256 37.0143 6.1953C37.0367 6.20001 37.056 6.20319 37.0687 6.20513C37.0946 6.2091 37.1197 6.21206 37.1396 6.21421C37.1808 6.21867 37.2294 6.22283 37.2795 6.22661C37.3813 6.23427 37.5105 6.24195 37.6445 6.24808L37.7176 4.64975ZM37.4594 4.66403C37.5663 4.70523 37.896 4.86939 37.958 5.28848C38.0098 5.63809 37.8188 5.86907 37.7844 5.9103C37.7247 5.98201 37.667 6.02448 37.6473 6.03866C37.621 6.05752 37.6002 6.06962 37.5904 6.07516C37.5598 6.09241 37.5551 6.09099 37.5917 6.07812L37.0612 4.56864C36.9862 4.59499 36.8918 4.63234 36.8054 4.68096C36.7872 4.6912 36.6617 4.75828 36.5549 4.88644C36.516 4.93323 36.3229 5.16908 36.3753 5.52277C36.4379 5.94595 36.7709 6.1134 36.884 6.15701L37.4594 4.66403ZM37.5917 6.07813C38.216 5.85873 38.7966 5.60143 39.2343 5.35522C39.4498 5.23406 39.6564 5.10129 39.8203 4.96213C39.9012 4.89341 39.9953 4.8035 40.0753 4.69312C40.1455 4.59642 40.2715 4.39387 40.2715 4.11699H38.6715C38.6715 3.90244 38.7673 3.77137 38.7802 3.75365C38.803 3.72225 38.8126 3.7188 38.7847 3.74243C38.7311 3.78794 38.6231 3.86331 38.45 3.96065C38.1107 4.15146 37.6188 4.37268 37.0612 4.56864L37.5917 6.07813ZM40.2715 4.11699C40.2715 3.96724 40.2355 3.67633 39.9803 3.4448C39.7626 3.24736 39.5117 3.21458 39.4045 3.20527C39.1882 3.18648 38.9089 3.22403 38.6398 3.26289L38.8685 4.84647C39.0132 4.82557 39.1163 4.81249 39.191 4.80551C39.2729 4.79784 39.2866 4.80105 39.266 4.79926C39.264 4.79909 39.0811 4.78937 38.9053 4.62986C38.6919 4.43626 38.6715 4.19814 38.6715 4.11699H40.2715Z" fill="#96521E" mask="url(#path-3-outside-1_1385_23747)"/>
<path d="M29 19H22V34H29V19Z" fill="#B22234"/>
<path d="M36 19H29V34H36V19Z" fill="#1A1919"/>
<path d="M43 19H36V34H43V19Z" fill="#EA8B42"/>
</g>
<defs>
<clipPath id="clip0_1385_23747">
<rect width="43" height="34" rx="4" fill="white"/>
</clipPath>
</defs>
</svg>
