<svg width="43" height="34" viewBox="0 0 43 34" fill="none" xmlns="http://www.w3.org/2000/svg">
<g clip-path="url(#clip0_1385_23756)">
<path d="M43 0H0V4.58333H43V0Z" fill="#369D0C"/>
<path d="M43 4.58333H0V9.16667H43V4.58333Z" fill="#FFD40E"/>
<path d="M43 9.16666H0V13.75H43V9.16666Z" fill="#369D0C"/>
<path d="M43 13.75H0V20.25H43V13.75Z" fill="#262626"/>
<path d="M43 20.25H0V24.8333H43V20.25Z" fill="#369D0C"/>
<path d="M43 29.4167H0V24.8333H43V29.4167Z" fill="#FFD40E"/>
<path d="M43 29.4167H0V34H43V29.4167Z" fill="#369D0C"/>
<path fill-rule="evenodd" clip-rule="evenodd" d="M0 0L22 17L0 34V0Z" fill="#262626"/>
<path fill-rule="evenodd" clip-rule="evenodd" d="M0 3L18 17L0 31V3Z" fill="white"/>
<path fill-rule="evenodd" clip-rule="evenodd" d="M7 18.9154L3.90984 21L5.05001 17.5747L2 15.4377L5.79483 15.4053L7 12L8.20516 15.4053L12 15.4377L8.94999 17.5747L10.0902 21L7 18.9154Z" fill="url(#paint0_linear_1385_23756)"/>
</g>
<rect x="0.5" y="0.5" width="42" height="33" rx="3.5" stroke="#C9CFDB"/>
<defs>
<linearGradient id="paint0_linear_1385_23756" x1="1.74269" y1="12" x2="1.74269" y2="21.9501" gradientUnits="userSpaceOnUse">
<stop stop-color="#F12F1F"/>
<stop offset="1" stop-color="#DE2010"/>
</linearGradient>
<clipPath id="clip0_1385_23756">
<rect width="43" height="34" rx="4" fill="white"/>
</clipPath>
</defs>
</svg>
